<svg xmlns="http://www.w3.org/2000/svg" width="438.576" height="350" viewBox="0 0 438.576 350">
    <defs>
        <linearGradient id="prefix__linear-gradient" x1=".5" x2=".5" y1="1" gradientUnits="objectBoundingBox">
            <stop offset="0" stop-color="gray" stop-opacity=".251"/>
            <stop offset=".54" stop-color="gray" stop-opacity=".122"/>
            <stop offset="1" stop-color="gray" stop-opacity=".102"/>
        </linearGradient>
        <style>
            .prefix__cls-1,.prefix__cls-7{fill:#00bfa6}.prefix__cls-1,.prefix__cls-3{opacity:.1}.prefix__cls-2{fill:#5f5d7e}.prefix__cls-4{fill:#474157}.prefix__cls-6{fill:#e6e8ec}.prefix__cls-9{fill:#fdc2cc}.prefix__cls-10{opacity:.3}.prefix__cls-12{fill:#ffd037}.prefix__cls-14{fill:#9d9cb5}
        </style>
    </defs>
    <g id="prefix__undraw_press_play_bx2d" transform="translate(0 -.01)">
        <path id="prefix__Path_1535" d="M264.545 65.1c13.513-12.042 34.73-14.487 54.038-13.539 60.654 3.016 115.4 32.294 162.76 65.413 17.144 11.989 34.024 24.91 45.153 41.421 22.653 33.615 15.936 80.177-15.567 107.866-10.716 9.421-23.707 16.643-37.048 23.048-23.707 11.384-49.306 20.52-76.222 23.123-19.2 1.853-38.633.347-57.713-2.243-53.323-7.226-105.649-23.228-149.511-50.57-19.238-12-37.373-26.912-45.3-46.325s-2.854-43.989 16.81-55.491c8.126-4.75 17.842-6.9 27.351-8.912 14-2.968 28.224-5.892 40.855-11.919 13.048-6.23 28.5-18.276 25.9-32.048-2.793-14.801-4.988-27.809 8.494-39.824z" class="prefix__cls-1" data-name="Path 1535" transform="translate(-123.529 -51.37)"/>
        <circle id="prefix__Ellipse_315" cx="13.829" cy="13.829" r="13.829" class="prefix__cls-1" data-name="Ellipse 315" transform="translate(62.595 42.985)"/>
        <circle id="prefix__Ellipse_316" cx="8.561" cy="8.561" r="8.561" class="prefix__cls-1" data-name="Ellipse 316" transform="translate(38.892 15.327)"/>
        <circle id="prefix__Ellipse_317" cx="5.268" cy="5.268" r="5.268" class="prefix__cls-1" data-name="Ellipse 317" transform="translate(401.071 44.961)"/>
        <ellipse id="prefix__Ellipse_318" cx="36.983" cy="3.688" class="prefix__cls-1" data-name="Ellipse 318" rx="36.983" ry="3.688" transform="translate(265.902 342.634)"/>
        <path id="prefix__Path_1536" d="M148.926 487.31l-.162 8.758-1.3 70.993-11.125 26.051-38.339.44V491.345l40.012-3.17z" class="prefix__cls-2" data-name="Path 1536" transform="translate(-54.977 -273.368)"/>
        <path id="prefix__Path_1537" d="M148.926 487.31l-.162 8.758-1.3 70.993-11.125 26.051-38.339.44V491.345l40.012-3.17z" class="prefix__cls-3" data-name="Path 1537" transform="translate(-54.977 -273.368)"/>
        <path id="prefix__Path_1538" d="M197.917 487.31l-.162 8.758-1.3 70.993-11.125 26.052 2.928-96.877-.009-.061-1.247-8z" class="prefix__cls-2" data-name="Path 1538" transform="translate(-103.967 -273.368)"/>
        <path id="prefix__Path_1539" d="M138.012 488.175l10.914-.865-.162 8.758-9.5.105-41.264.462v-5.29z" class="prefix__cls-3" data-name="Path 1539" transform="translate(-54.977 -273.368)"/>
        <path id="prefix__Path_1540" d="M941.965 489.005v101.619h-8.925l-35.71-26.047v-78.439l31.9-3 1.958.9 1.848.852z" class="prefix__cls-2" data-name="Path 1540" transform="translate(-503.389 -271.029)"/>
        <path id="prefix__Rectangle_636" d="M0 0H8.925V106.584H0z" class="prefix__cls-3" data-name="Rectangle 636" transform="translate(429.65 213.011)"/>
        <path id="prefix__Path_1541" d="M941.965 484.04v5.843l-8.925.1-35.709.4v-4.241l31.9-3 1.958.9 1.848.852v-.852z" class="prefix__cls-3" data-name="Path 1541" transform="translate(-503.389 -271.029)"/>
        <path id="prefix__Path_1542" d="M438.576 466.981v8.28L0 480.152v-10.537l41.267-8.341 359.114-2.634z" class="prefix__cls-2" data-name="Path 1542" transform="translate(0 -257.285)"/>
        <path id="prefix__Path_1543" d="M438.576 477.64v8.28L0 490.81v-10.536z" class="prefix__cls-3" data-name="Path 1543" transform="translate(0 -267.944)"/>
        <rect id="prefix__Rectangle_637" width="153.62" height="119.276" class="prefix__cls-4" data-name="Rectangle 637" rx="22.82" transform="translate(160.46 85.6)"/>
        <path id="prefix__Rectangle_638" d="M0 0H129.123V97.299H0z" data-name="Rectangle 638" transform="translate(172.822 96.36)" style="fill:#ededf4"/>
        <circle id="prefix__Ellipse_319" cx="2.116" cy="2.116" r="2.116" class="prefix__cls-6" data-name="Ellipse 319" transform="translate(165.667 142.892)"/>
        <circle id="prefix__Ellipse_320" cx="3.49" cy="3.49" r="3.49" class="prefix__cls-6" data-name="Ellipse 320" transform="translate(304.176 141.746)"/>
        <path id="prefix__Path_1544" d="M629.33 354.948l-16.511-10.036a2.256 2.256 0 0 0-3.35 1.967V366.4a2.256 2.256 0 0 0 3.35 1.967l16.511-9.474a2.261 2.261 0 0 0 0-3.942zm12.415 1.69a23.268 23.268 0 1 0-23.268 23.268 23.268 23.268 0 0 0 23.269-23.268zm-42.031 0a18.763 18.763 0 1 1 18.764 18.762 18.763 18.763 0 0 1-18.763-18.763z" class="prefix__cls-7" data-name="Path 1544" transform="translate(-378.025 -209.562)"/>
        <path id="prefix__Path_1545" d="M763.3 430.767a5.489 5.489 0 0 0-.5-1.545c.334-1.137.549-1.835.549-1.835a2.563 2.563 0 0 0-.053-.439 6.739 6.739 0 0 0-6.827-5.654c-2.634.048-7.63.224-13.17.847.316-2.217.694-4.869 1.089-7.6l.724.079a3.468 3.468 0 0 1 .518.026h.233a2.388 2.388 0 0 0 1.607-.492.948.948 0 0 0-.294-1.554 3.916 3.916 0 0 0 3.438-1.44 3.073 3.073 0 0 0 0-3.574c-.926-1.317-2.889-2.2-2.994-3.745a4.575 4.575 0 0 1 .992-2.445A10.216 10.216 0 0 0 747 389.127a24.031 24.031 0 0 0-1.949-1.734c-.966-3.547-1.976-6.717-2.274-6.818-.386-.127-1.049-.961-1.681-1.677a8.078 8.078 0 0 0-.031-1.813c-.465-3.073-3.512-5.268-5.189-7.981a13.779 13.779 0 0 1-1.55-9.145 65.43 65.43 0 0 1 2.4-9.149c.659-2.252 1.207-4.645.47-6.879a12.506 12.506 0 0 0-2.832-4.267 32.254 32.254 0 0 0-10.062-7.9 20 20 0 0 0-8.908-1.905h-.031l-.483.026-.342.022-.342.035-.364.035c-.373.048-.742.105-1.111.18a38.332 38.332 0 0 0-8.144-.913h-.356a4.171 4.171 0 0 0-2.327.549c-.975.68-1.1 1.9-1.392 2.963a8.223 8.223 0 0 1-3.161 4.39c-1.049.755-2.283 1.317-3.284 2.107a3.345 3.345 0 0 0-1.515 3.143 3.431 3.431 0 0 0 2.2 2.151c-.127.158-.259.312-.382.474.206.083.439.158.628.219 1.317.391 2.735.439 4.07.795a8.926 8.926 0 0 1 1.08.364 15.418 15.418 0 0 0-1.8 7.253 15.625 15.625 0 0 0 8.174 13.706v.439c.136 4.583-.211 10.159-2.555 11.1s-4.588 2.011-5.971 2.7l-.439.233c-.364-.167-.729-.342-1.084-.527 0 0-1.866-.22-1.541 1.2 0 0-5.641-.878-8.736 1.532a80.434 80.434 0 0 0-9.186 8.757c-1 1.313-8.7 4.184-8.7 4.184a9.879 9.879 0 0 0 1.379-7.551s-1.159-5.014-.606-7.024 1.989-9.474 1.989-9.474.2-7.876-4.1-11.489-7.288-6.585-5.628-3.073a48.939 48.939 0 0 0 2.432 4.7s-10.277 2.441-6.629 6.252 4.64 3.815 4.64 3.815-1.216 9.408-1.44 11.16-2.2 15.1-2.2 15.1-.11 6.348 1 7.332a4.993 4.993 0 0 0 5.3 3.951s8.728-.22 11.16-1.2 10.826-6.238 11.713-5.909a.5.5 0 0 1 .171.114 1.242 1.242 0 0 1 .132.132c-.878 1.945-2.959 8.548-2.072 11.792 0 0-.773 9.189 3.868 12.143 0 0 6.739 11.379 4.2 17.5-.2.5-.382.953-.549 1.4-3.859-3.2-9.746-6.146-18.737-7.775-.918-.167-1.831-.369-2.735-.588-2.555-.619-9.584-1.185-12.929 9.926a48.876 48.876 0 0 1-2.968 7.516 24.817 24.817 0 0 0-2.81 10.273c-.075 5.312 2.669 10.576 12.626 12.508.11 3.951.562 8.657 1.914 12.042 2.761 6.893 7.182 18.052 7.182 18.052s5.3 11.379 5.637 15.971a73.314 73.314 0 0 1 .312 9.658 4.3 4.3 0 0 1-.044.483 11.654 11.654 0 0 1-1.484 1.348c-.773.439-3.315 3.174-3.315 3.828a11.691 11.691 0 0 0 .167 1.87 4.608 4.608 0 0 0-1.861 3.336c0 5.935 16.845 10.747 37.624 10.747s37.619-4.829 37.619-10.747c0-5.417-14.048-9.9-32.3-10.633 3.806-1.519 7.187-3.113 8.587-4.39a2.055 2.055 0 0 0 .663-.9l-3.534-8.205s-.277.062-.685.18l-.246-.369c-1.572-2.393-4.6-7.16-4.6-8.455 0-.479-.8-3.538-1.958-7.731v-13.465c11.529 1.756 26.385-.632 26.385-.632l.066-.035h.29v-.16c2-1.106 11.99-6.958 14.953-14.72.878-2.265-.215-5.51-2.388-8.978 1.519-3.771 5.268-13.513 4.9-17.4 0-.206-.026-.439-.026-.667a11.468 11.468 0 0 0 .044-1.194c.439-5.707 3.951-16.134 3.951-16.134s-.02-.176-.06-.44zm-74.637-25.357c.8 1.4 1.655 3.2 1.993 3.929s-1.168-2.151-1.971-3.929zm.834 122.968l-.083.031v-.439a26.054 26.054 0 0 1 .083-3.433 4.02 4.02 0 0 0-.378-1.782 42.149 42.149 0 0 1-2.691-10.593c-.439-3.828-.8-8-.575-9.066.342-1.629.623-13.965.2-20.045l6.8 1.528 7.9 16.112s5.084 7.867 6.66 14.075v6.216a15.19 15.19 0 0 1-2.375 5.154c-1.049 1.436-2.072 2.889-3.02 4.39-.29.465-.61.944-.931 1.392-.105 0-5.3.3-6.181 1.277a5.9 5.9 0 0 0-1.651 2.5l-.224.035a52.4 52.4 0 0 0-3.508-7.353z" data-name="Path 1545" transform="translate(-410.381 -207.242)"/>
        <path id="prefix__Path_1546" d="M781.811 768.216l-1.756 5.707-7.463 6.475-10.975 3.152s-5.158-2.823-3.4-3.372a4.331 4.331 0 0 0 1.655-1.44c-.615 2.239 4.272-.645 4.272-.645s12.622-9 13.939-9.988a9.924 9.924 0 0 1 2.81-1.286c.545.857.918 1.397.918 1.397z" class="prefix__cls-3" data-name="Path 1546" transform="translate(-469.264 -452.721)"/>
        <path id="prefix__Path_1547" d="M766.569 705.369l-1.756 5.707-7.463 6.475-10.975 3.149s-5.158-2.823-3.4-3.372a4.332 4.332 0 0 0 1.655-1.44 21.964 21.964 0 0 0 1.466-2.116c.939-1.51 1.958-2.968 3-4.39a15.8 15.8 0 0 0 2.77-7.292c.768-6.036-7.024-18.219-7.024-18.219L730.68 654.79l19.756 2.415s10.646 36.548 10.646 38.3c0 1.317 3 6.08 4.566 8.482.552.842.921 1.382.921 1.382z" class="prefix__cls-9" data-name="Path 1547" transform="translate(-454.022 -389.874)"/>
        <ellipse id="prefix__Ellipse_321" cx="37.369" cy="10.778" class="prefix__cls-2" data-name="Ellipse 321" rx="37.369" ry="10.778" transform="translate(264.221 327.73)"/>
        <path id="prefix__Path_1548" d="M778.621 775.482a2.107 2.107 0 0 1-.659.909c-2.713 2.489-12.859 6.19-19.128 8.2a44.373 44.373 0 0 1-5.018 1.427c-1.537.11-4.719-.878-6.914-2.226s-.219-3.262.667-4.25 6.146-1.282 6.146-1.282c-2.524 4.2 3.727.514 3.727.514s12.622-9 13.939-9.988a12.116 12.116 0 0 1 3.732-1.537z" class="prefix__cls-7" data-name="Path 1548" transform="translate(-462.562 -452.963)"/>
        <path id="prefix__Path_1549" d="M778.621 775.482a2.107 2.107 0 0 1-.659.909c-2.713 2.489-12.859 6.19-19.128 8.2a44.373 44.373 0 0 1-5.018 1.427c-1.537.11-4.719-.878-6.914-2.226s-.219-3.262.667-4.25 6.146-1.282 6.146-1.282c-2.524 4.2 3.727.514 3.727.514s12.622-9 13.939-9.988a12.116 12.116 0 0 1 3.732-1.537z" class="prefix__cls-10" data-name="Path 1549" transform="translate(-462.562 -452.963)"/>
        <path id="prefix__Path_1550" d="M794.488 788.09c-2.713 2.489-12.859 6.19-19.128 8.2 5.681-4.811 15.208-7.326 19.128-8.2z" class="prefix__cls-3" data-name="Path 1550" transform="translate(-479.087 -464.654)"/>
        <ellipse id="prefix__Ellipse_322" cx="7.476" cy="2.156" class="prefix__cls-3" data-name="Ellipse 322" rx="7.476" ry="2.156" transform="translate(294.113 332.88)"/>
        <path id="prefix__Rectangle_639" d="M0 0H7.683V56.852H0z" class="prefix__cls-2" data-name="Rectangle 639" transform="translate(297.432 278.183)"/>
        <path id="prefix__Path_1551" d="M785.683 687.823v6.585a54.04 54.04 0 0 1-7.683-4.043V685h1.6z" class="prefix__cls-3" data-name="Path 1551" transform="translate(-480.568 -406.822)"/>
        <path id="prefix__Path_1552" d="M754.27 613.183s25.366-6.528 31.679-11.414 31.1 18.1 27.829 26.78-15.2 14.957-15.2 14.957-32.974 5.365-38.589-5.826-5.719-24.497-5.719-24.497z" class="prefix__cls-4" data-name="Path 1552" transform="translate(-467.255 -359.752)"/>
        <path id="prefix__Path_1553" d="M754.27 613.183s25.366-6.528 31.679-11.414 31.1 18.1 27.829 26.78-15.2 14.957-15.2 14.957-32.974 5.365-38.589-5.826-5.719-24.497-5.719-24.497z" class="prefix__cls-3" data-name="Path 1553" transform="translate(-467.255 -359.752)"/>
        <path id="prefix__Path_1554" d="M749.27 607.183s25.366-6.528 31.679-11.414 31.1 18.1 27.829 26.78-15.2 14.957-15.2 14.957-32.974 5.365-38.589-5.826-5.719-24.497-5.719-24.497z" class="prefix__cls-4" data-name="Path 1554" transform="translate(-464.451 -356.386)"/>
        <path id="prefix__Path_1555" d="M677.015 433.479l-2.744-1a9.979 9.979 0 0 0 1.374-7.573s-1.155-5.031-.606-7.068 1.976-9.5 1.976-9.5.2-7.9-4.07-11.524-7.235-6.585-5.589-3.073a48.908 48.908 0 0 0 2.415 4.719s-10.207 2.445-6.585 6.274 4.61 3.824 4.61 3.824-1.207 9.439-1.427 11.195-2.2 15.146-2.2 15.146-.11 6.366.988 7.354a4.965 4.965 0 0 0 5.268 3.951c.787-.015 10.103-10.31 6.59-12.725z" class="prefix__cls-9" data-name="Path 1555" transform="translate(-415.723 -242.546)"/>
        <path id="prefix__Path_1556" d="M794.228 417.612v6.146l-6.366 2.077-10.844 7.981-2.876 2.116-12.842-5.158-8.122-8.561s.4-.215 1.08-.571l.439-.233c1.374-.689 3.538-1.756 5.931-2.709s2.674-6.537 2.537-11.138v-.439c-.11-3.227-.439-5.865-.439-5.865s1.339-.255 3.288-.544c5.4-.8 15.488-1.888 14.6 1.422a7.626 7.626 0 0 0 0 3.42c.026.123.053.25.083.373a28.958 28.958 0 0 0 3.74 8.17l8.78 3.161.246.088z" class="prefix__cls-9" data-name="Path 1556" transform="translate(-466.644 -246.874)"/>
        <path id="prefix__Path_1557" d="M839.808 442.022v-1.866a6.147 6.147 0 0 1 2.085 0c.768.22 2.226 2.524 2.884 2.744s4.689 15.256 4.25 16.573-4.588 31.052-4.588 31.052l-8.363 9.219-1.646-25.353 5.378-15.036z" class="prefix__cls-9" data-name="Path 1557" transform="translate(-512.224 -269.418)"/>
        <path id="prefix__Path_1558" d="M739.294 601.77s-7.643 1.646-6.673 4.061 5.246 2.524 5.246 2.524z" class="prefix__cls-9" data-name="Path 1558" transform="translate(-455.063 -360.131)"/>
        <path id="prefix__Path_1559" d="M720.85 468.239l-5.817 12.534-6.914 5.049-1.207-7.8s-2.336-5.158-3.341-6.032a.5.5 0 0 0-.171-.114c-.878-.329-9.219 4.939-11.634 5.927s-11.085 1.207-11.085 1.207l3.841-13.719s7.683-2.854 8.671-4.171a79.891 79.891 0 0 1 9.11-8.78c3.073-2.415 8.679-1.537 8.679-1.537l.088.035 1.44.623 4.171 10.207z" class="prefix__cls-9" data-name="Path 1559" transform="translate(-425.973 -275.352)"/>
        <path id="prefix__Path_1560" d="M706.938 686.464a26.2 26.2 0 0 0-.083 3.442c.031 1.225.083 2.265.083 2.265l-2.524 5.268s-8.671 2.854-7.244 1.646c.5-.417.751-1.5.878-2.937a74.5 74.5 0 0 0-.312-9.685c-.329-4.61-5.6-16.024-5.6-16.024s-4.39-11.195-7.134-18.109-1.756-19.426-1.756-19.426.439-9.439 2.415-12.292 9.658-3.841 9.658-3.841l3.6 11.954s2.963 11.195 4.061 12.841.768 21.292.329 23.378c-.224 1.067.154 5.268.575 9.1a42.721 42.721 0 0 0 2.669 10.624 4.057 4.057 0 0 1 .378 1.8z" class="prefix__cls-9" data-name="Path 1560" transform="translate(-427.316 -368.546)"/>
        <path id="prefix__Path_1561" d="M724.745 785.625l-2.524 5.268s-8.671 2.854-7.244 1.646c.5-.417.751-1.5.878-2.937.312-.312.645-.654.988-1.005a22.166 22.166 0 0 1 7.836-5.237c.014 1.225.066 2.265.066 2.265z" class="prefix__cls-3" data-name="Path 1561" transform="translate(-445.124 -462)"/>
        <path id="prefix__Path_1562" d="M723.87 793.977a.259.259 0 0 1 0 .062c-.439 2.085-7.683 4.939-7.683 4.939s-4.61.768-7.244 1.427a1.822 1.822 0 0 1-.619.057c-2.033-.154-2.125-4.065-2.125-4.667s2.524-3.4 3.293-3.841a23.536 23.536 0 0 0 2.441-2.34 22.653 22.653 0 0 1 8-5.343s4.289 7.541 3.937 9.706z" class="prefix__cls-7" data-name="Path 1562" transform="translate(-440.289 -462.511)"/>
        <path id="prefix__Path_1563" d="M723.87 793.965a.258.258 0 0 1 0 .061c-.439 2.085-7.683 4.939-7.683 4.939s-4.61.768-7.244 1.427a1.822 1.822 0 0 1-.619.057c-2.033-.154-2.125-4.065-2.125-4.667s2.524-3.4 3.293-3.841a23.267 23.267 0 0 0 2.476-2.375 22.2 22.2 0 0 1 7.841-5.268l.123-.048s4.29 7.55 3.938 9.715z" class="prefix__cls-10" data-name="Path 1563" transform="translate(-440.289 -462.499)"/>
        <path id="prefix__Path_1564" d="M726.586 806.286a.258.258 0 0 1 0 .061c-.439 2.085-7.683 4.939-7.683 4.939s-4.61.768-7.244 1.427a1.822 1.822 0 0 1-.619.057c2.388-1.638 8.179-5.567 8.96-5.655s4.632-1.193 6.586-.829z" class="prefix__cls-3" data-name="Path 1564" transform="translate(-443.004 -474.82)"/>
        <path id="prefix__Path_1565" d="M792.938 405.93c-2.713 2.235-5.207 1.914-9 1.914-2.739 0-6.3.961-8.543-.272-.092-3.429-.439-6.313-.439-6.313s19.1-3.622 17.89.878a7.98 7.98 0 0 0 .092 3.793z" class="prefix__cls-3" data-name="Path 1565" transform="translate(-478.862 -246.874)"/>
        <path id="prefix__Path_1566" d="M788.825 365.008A15.7 15.7 0 0 1 773.13 380.7a10.932 10.932 0 0 1-1.2-.044 15.695 15.695 0 1 1 16.9-15.651z" class="prefix__cls-9" data-name="Path 1566" transform="translate(-469.033 -218.508)"/>
        <path id="prefix__Path_1567" d="M745.929 461.919l4.171 6.581-5.817 12.534-6.915 5.049-1.207-7.823s-2.336-5.158-3.341-6.032c.29-.707.487-1.032.487-.773 0 1.1 2.7 6.036 2.7 6.036 8.341-2.854 5.751-13.939 5.751-13.939s-1.036-9.878-1.44-12.477l1.44.623z" class="prefix__cls-3" data-name="Path 1567" transform="translate(-455.222 -275.596)"/>
        <path id="prefix__Path_1568" d="M794.228 439.933v6.146l-6.366 2.077-10.844 7.981-2.876 2.116L761.3 453.1l-8.122-8.561s.4-.215 1.08-.571l.439-.233a53.6 53.6 0 0 0 22.175 3.986c16.538-2.634 17.029-6.629 16.617-8.047z" class="prefix__cls-3" data-name="Path 1568" transform="translate(-466.644 -269.195)"/>
        <path id="prefix__Path_1569" d="M761.491 539.353a123.051 123.051 0 0 1-12.731 5.378c-7.573 2.744-24.255-.878-26.341-1.427s-18.109-6.914-24.256-9.329-7.683-.439-9.109-.659-2.415-2.963-2.634-3.732 3.951-7.463 6.256-10.866 9.219-2.744 10.207-2.963 7.9 0 7.9 0-.439-2.2 2.085-8.341-4.171-17.561-4.171-17.561c-4.61-2.963-3.841-12.183-3.841-12.183-1.1-4.061 2.415-13.39 2.415-12.292s2.7 6.036 2.7 6.036c8.341-2.854 5.751-13.939 5.751-13.939s-1.207-11.524-1.528-12.951 1.528-1.207 1.528-1.207q.535.277 1.08.527a53.358 53.358 0 0 0 22.627 4.193c20.05-3.236 16.5-8.394 16.366-8.578l.975.347c7.244 5.268 5.049 22.719 5.049 22.719l-2.713 13.026-2.015 9.7s7.134 43.243 7.792 45.438-3.392 8.664-3.392 8.664z" class="prefix__cls-7" data-name="Path 1569" transform="translate(-429.188 -269.077)"/>
        <path id="prefix__Path_1570" d="M731.751 622c-.439.329-5.378 10.536-1.756 13.39s1.756-13.39 1.756-13.39z" class="prefix__cls-3" data-name="Path 1570" transform="translate(-452.897 -371.48)"/>
        <path id="prefix__Path_1571" d="M743.68 625.27c.11.329 10.317 16.573 15.914 17.89z" class="prefix__cls-3" data-name="Path 1571" transform="translate(-461.315 -373.314)"/>
        <path id="prefix__Path_1572" d="M797.6 332.4l-1.633.347a11.01 11.01 0 0 1 1.379-.408z" class="prefix__cls-3" data-name="Path 1572" transform="translate(-490.649 -208.985)"/>
        <path id="prefix__Path_1573" d="M795.522 411.959l-3.073 13.017a15.9 15.9 0 0 1-4.267-2.858 13 13 0 0 0-3.117-2.608c-1.62-.786-3.574-.68-5.413-.746a26.041 26.041 0 0 1-6.77-1.159 4.778 4.778 0 0 1-1.756-.852c-1.045-.922-.975-2.41-.878-3.71a56.885 56.885 0 0 0 .066-7.591c-.026-.474-.061-.948-.1-1.422-.176-2.12-.746-4.579-2.915-5.488-1.115-.439-2.445-.4-3.512-.935a2.9 2.9 0 0 1-.439-.272c-1.58-1.106-1.725-3.323-1.664-5.189q.14-3.846.268-7.7a22.369 22.369 0 0 0-.083-3.8 8.434 8.434 0 0 0-.685-2.423c-.953-2.037-2.937-3.736-3.293-5.887a2.387 2.387 0 0 1-.04-.3c-.184-1.923 1.027-3.714 1.453-5.606.852-3.806-2.011-7.977-6.221-9.07-1.317-.342-2.731-.408-4.043-.8a6.5 6.5 0 0 1-.619-.22 18.429 18.429 0 0 1 14.812-7.024c9.8 0 17.754 7.024 17.754 15.695a15.062 15.062 0 0 1-6.559 12.183c.026.123.057.25.092.373a27.612 27.612 0 0 0 4.232 8.17l9.939 3.161 1.106.351c8.21 5.268 5.725 22.71 5.725 22.71z" class="prefix__cls-3" data-name="Path 1573" transform="translate(-463.974 -218.51)"/>
        <path id="prefix__Path_1574" d="M867.641 520.665a1.494 1.494 0 0 1-.281-.039.584.584 0 0 1 .281.039z" class="prefix__cls-3" data-name="Path 1574" transform="translate(-530.697 -314.608)"/>
        <path id="prefix__Path_1575" d="M764.679 330.239a37.757 37.757 0 0 0-8.376-.979 4.637 4.637 0 0 0-2.634.553c-.97.68-1.093 1.91-1.383 2.972a8.245 8.245 0 0 1-3.139 4.39c-1.04.76-2.265 1.317-3.262 2.116a3.4 3.4 0 0 0-1.506 3.152c.25 1.168 1.563 2.068 2.88 2.441s2.718.439 4.043.8c4.21 1.093 7.068 5.268 6.216 9.066-.439 1.892-1.637 3.683-1.453 5.606.215 2.3 2.336 4.065 3.332 6.194a13.387 13.387 0 0 1 .777 6.216l-.268 7.7c-.07 2.028.105 4.469 2.107 5.461 1.071.527 2.406.47 3.512.935 2.169.9 2.739 3.367 2.915 5.483a56.677 56.677 0 0 1 .035 9.013c-.1 1.317-.171 2.788.878 3.71a4.706 4.706 0 0 0 1.756.852 26.044 26.044 0 0 0 6.77 1.159c1.844.07 3.793-.035 5.413.746a13.1 13.1 0 0 1 3.117 2.608 17.227 17.227 0 0 0 10.176 4.456 3.031 3.031 0 0 0 2.3-.47c.566-.522.233-1.651-.575-1.585a3.9 3.9 0 0 0 3.7-1.414 3.117 3.117 0 0 0 0-3.587c-.917-1.317-2.867-2.2-2.972-3.758a4.637 4.637 0 0 1 .983-2.454 10.321 10.321 0 0 0-1.6-12.292c-2.059-2.129-5.145-3.745-5.865-6.475-.479-1.826.246-3.745-.031-5.6-.439-3.073-3.481-5.268-5.154-8.008a13.921 13.921 0 0 1-1.541-9.171 65.244 65.244 0 0 1 2.384-9.175c.654-2.261 1.194-4.662.465-6.906a12.65 12.65 0 0 0-2.814-4.28 31.693 31.693 0 0 0-9.992-7.9 18.27 18.27 0 0 0-13.047-1.2" class="prefix__cls-4" data-name="Path 1575" transform="translate(-461.679 -207.257)"/>
        <path id="prefix__Path_1576" d="M764.679 330.239a37.757 37.757 0 0 0-8.376-.979 4.637 4.637 0 0 0-2.634.553c-.97.68-1.093 1.91-1.383 2.972a8.245 8.245 0 0 1-3.139 4.39c-1.04.76-2.265 1.317-3.262 2.116a3.4 3.4 0 0 0-1.506 3.152c.25 1.168 1.563 2.068 2.88 2.441s2.718.439 4.043.8c4.21 1.093 7.068 5.268 6.216 9.066-.439 1.892-1.637 3.683-1.453 5.606.215 2.3 2.336 4.065 3.332 6.194a13.387 13.387 0 0 1 .777 6.216l-.268 7.7c-.07 2.028.105 4.469 2.107 5.461 1.071.527 2.406.47 3.512.935 2.169.9 2.739 3.367 2.915 5.483a56.677 56.677 0 0 1 .035 9.013c-.1 1.317-.171 2.788.878 3.71a4.706 4.706 0 0 0 1.756.852 26.044 26.044 0 0 0 6.77 1.159c1.844.07 3.793-.035 5.413.746a13.1 13.1 0 0 1 3.117 2.608 17.227 17.227 0 0 0 10.176 4.456 3.031 3.031 0 0 0 2.3-.47c.566-.522.233-1.651-.575-1.585a3.9 3.9 0 0 0 3.7-1.414 3.117 3.117 0 0 0 0-3.587c-.917-1.317-2.867-2.2-2.972-3.758a4.637 4.637 0 0 1 .983-2.454 10.321 10.321 0 0 0-1.6-12.292c-2.059-2.129-5.145-3.745-5.865-6.475-.479-1.826.246-3.745-.031-5.6-.439-3.073-3.481-5.268-5.154-8.008a13.921 13.921 0 0 1-1.541-9.171 65.244 65.244 0 0 1 2.384-9.175c.654-2.261 1.194-4.662.465-6.906a12.65 12.65 0 0 0-2.814-4.28 31.693 31.693 0 0 0-9.992-7.9 18.27 18.27 0 0 0-13.047-1.2" class="prefix__cls-3" data-name="Path 1576" transform="translate(-461.679 -207.257)"/>
        <path id="prefix__Path_1577" d="M737.18 549.412s3.732 1.427 7.683-2.524-7.683 2.524-7.683 2.524z" class="prefix__cls-3" data-name="Path 1577" transform="translate(-457.668 -328.626)"/>
        <g id="prefix__Group_293" data-name="Group 293" transform="translate(282.585 122.03)" style="opacity:.1">
            <path id="prefix__Path_1578" d="M793.318 330.947a15.611 15.611 0 0 1 2.2-.277 16.651 16.651 0 0 0-3.073.1z" data-name="Path 1578" transform="translate(-771.253 -330.06)"/>
            <path id="prefix__Path_1579" d="M788.257 410.467a13.125 13.125 0 0 0-3.121-2.608c-1.616-.781-3.569-.676-5.413-.746a25.9 25.9 0 0 1-6.77-1.159 4.706 4.706 0 0 1-1.756-.852c-1.045-.922-.97-2.406-.878-3.71a56.692 56.692 0 0 0-.035-9.013c-.18-2.116-.746-4.579-2.919-5.483-1.111-.465-2.441-.408-3.512-.935-2-.992-2.2-3.433-2.112-5.461q.136-3.85.268-7.7a13.341 13.341 0 0 0-.777-6.221c-1-2.129-3.117-3.894-3.332-6.194-.18-1.918 1.032-3.714 1.458-5.606.852-3.806-2.011-7.973-6.221-9.066-1.317-.342-2.731-.413-4.043-.8a3.853 3.853 0 0 1-2.858-2.415 3.342 3.342 0 0 1 1.5-3.157c1-.8 2.221-1.357 3.266-2.116a8.214 8.214 0 0 0 3.135-4.39c.294-1.062.439-2.287 1.383-2.972a3.512 3.512 0 0 1 1.8-.527c-.391 0-.781-.022-1.168-.022a4.671 4.671 0 0 0-2.634.549c-.97.685-1.093 1.91-1.383 2.972a8.245 8.245 0 0 1-3.139 4.39c-1.04.759-2.265 1.317-3.262 2.116a3.406 3.406 0 0 0-1.506 3.157c.25 1.172 1.55 2.024 2.862 2.415s2.718.439 4.043.8c4.21 1.093 7.068 5.268 6.216 9.066-.439 1.892-1.637 3.688-1.453 5.606.215 2.3 2.336 4.065 3.332 6.194a13.342 13.342 0 0 1 .777 6.221q-.136 3.846-.268 7.7c-.07 2.028.105 4.469 2.107 5.461 1.071.527 2.406.47 3.512.935 2.169.9 2.739 3.367 2.915 5.483a56.677 56.677 0 0 1 .035 9.013c-.1 1.317-.171 2.788.878 3.71a4.706 4.706 0 0 0 1.756.852 25.865 25.865 0 0 0 6.77 1.159c1.844.07 3.793-.035 5.413.746a13.212 13.212 0 0 1 3.121 2.608 17.2 17.2 0 0 0 10.172 4.456 4.7 4.7 0 0 0 1.471-.057 17.17 17.17 0 0 1-9.63-4.399z" data-name="Path 1579" transform="translate(-744.18 -329.32)"/>
        </g>
        <path id="prefix__Path_1580" d="M685.533 484s-3.512 3.222-3 4.539 3-4.539 3-4.539z" class="prefix__cls-3" data-name="Path 1580" transform="translate(-426.984 -294.064)"/>
        <path id="prefix__Path_1581" d="M673.107 578c-2.533-.619-9.518-1.19-12.841 9.957a49.312 49.312 0 0 1-2.946 7.538c-3.187 6.546-7.305 20.006 10.8 22.969l43.462 9.878s23.268 2.854 24.8 1.756 1.317-3.512 1.317-3.512-25.682 0-30.731-7.9-5.268-18.658-5.268-18.658.632-16.608-25.9-21.433c-.871-.174-1.793-.38-2.693-.595z" class="prefix__cls-4" data-name="Path 1581" transform="translate(-411.3 -346.638)"/>
        <path id="prefix__Path_1582" d="M673.107 578.165c-2.533-.619-9.518-1.19-12.841 9.961a49.31 49.31 0 0 1-2.946 7.538c-3.187 6.541-7.305 20 10.8 22.965l43.462 9.878s23.268 2.854 24.8 1.756 1.317-3.512 1.317-3.512-25.682 0-30.731-7.9-5.268-18.658-5.268-18.658.632-16.608-25.9-21.433c-.871-.169-1.793-.384-2.693-.595z" class="prefix__cls-3" data-name="Path 1582" transform="translate(-411.3 -346.733)"/>
        <path id="prefix__Path_1583" d="M826.882 545.23a6.713 6.713 0 0 0-6.783-5.672c-6.252.114-25.494.948-34.432 6.787 0 0-6.8 4.39-8.78 4.39s-28.755 22.829 10.975 43.243c0 0 21.292 6.058 29.633-8.166 0 0 5.927-15.278 5.488-20.568s3.951-19.558 3.951-19.558-.008-.171-.052-.456z" class="prefix__cls-4" data-name="Path 1583" transform="translate(-473.967 -325.23)"/>
        <path id="prefix__Path_1584" d="M826.882 554.546a6.583 6.583 0 0 0-6.783-5.237c-6.252.105-25.494.878-34.432 6.265 0 0-6.8 4.052-8.78 4.052s-28.755 21.073 10.975 39.92c0 0 21.292 5.593 29.633-7.538 0 0 5.927-14.106 5.488-18.987s3.951-18.052 3.951-18.052-.008-.159-.052-.423z" class="prefix__cls-3" data-name="Path 1584" transform="translate(-473.967 -330.7)"/>
        <path id="prefix__Rectangle_640" d="M0 0H7.024V14.957H0z" class="prefix__cls-2" data-name="Rectangle 640" transform="translate(324.651 268.744)"/>
        <ellipse id="prefix__Ellipse_323" cx="19.773" cy="1.269" class="prefix__cls-3" data-name="Ellipse 323" rx="19.773" ry="1.269" transform="translate(54.965 205.385)"/>
        <path id="prefix__Path_1585" d="M273.535 406.439a7.542 7.542 0 0 0-1 1.883c-.061.167-.123.351-.184.531a1.619 1.619 0 0 0-.347-.119 4.978 4.978 0 0 0-1.567-.136c0-.2.026-.439.031-.641.066-2.314-.206-5.54-2.415-4.175-2.116 1.317-.606 3.512.759 4.921l.351.342c-1.247.878-1.484 2.955-1.69 5.11s-2.037 4.517-3.253 5.856c-.123.136-.233.259-.342.373a4.439 4.439 0 0 0-3.534-.909c-.048-.189-.105-.386-.162-.6-.983-3.547-3.025-9.7-5.628-11.046l.342-.439c1.106-1.449 2.353-3.6.514-4.149s-2.006 1.866-1.905 3.675c0 .228.035.439.053.641a2.709 2.709 0 0 0-1.923.94l-.285-.334c-1.493-1.756-4.228-4.553-5.057-2.441-.773 1.967 1.638 4.517 3.332 6l.105.092c-1.137 4.623 3.815 8.4 6.5 10.031l.347.211c-3.688 4.346-5.966 12.49-5.966 12.49l10.326 1.844s6.849-5.9 5.971-11.454h.07c6.844-1.37 8.4-8.666 7.332-13l.123-.048a7.788 7.788 0 0 0 3.17-2.4c1.912-2.658-2.11-5.661-4.068-3.049z" class="prefix__cls-7" data-name="Path 1585" transform="translate(-182.203 -248.717)"/>
        <path id="prefix__Path_1586" d="M273.535 406.439a7.542 7.542 0 0 0-1 1.883c-.061.167-.123.351-.184.531a1.619 1.619 0 0 0-.347-.119 4.978 4.978 0 0 0-1.567-.136c0-.2.026-.439.031-.641.066-2.314-.206-5.54-2.415-4.175-2.116 1.317-.606 3.512.759 4.921l.351.342c-1.247.878-1.484 2.955-1.69 5.11s-2.037 4.517-3.253 5.856c-.123.136-.233.259-.342.373a4.439 4.439 0 0 0-3.534-.909c-.048-.189-.105-.386-.162-.6-.983-3.547-3.025-9.7-5.628-11.046l.342-.439c1.106-1.449 2.353-3.6.514-4.149s-2.006 1.866-1.905 3.675c0 .228.035.439.053.641a2.709 2.709 0 0 0-1.923.94l-.285-.334c-1.493-1.756-4.228-4.553-5.057-2.441-.773 1.967 1.638 4.517 3.332 6l.105.092c-1.137 4.623 3.815 8.4 6.5 10.031l.347.211c-3.688 4.346-5.966 12.49-5.966 12.49l10.326 1.844s6.849-5.9 5.971-11.454h.07c6.844-1.37 8.4-8.666 7.332-13l.123-.048a7.788 7.788 0 0 0 3.17-2.4c1.912-2.658-2.11-5.661-4.068-3.049z" class="prefix__cls-3" data-name="Path 1586" transform="translate(-182.203 -248.717)"/>
        <path id="prefix__Path_1587" d="M253.805 411.725l-1.194 3.534s-.672-.474-1.519-1.22c-1.695-1.479-4.1-4.03-3.332-6 .83-2.112 3.565.676 5.057 2.441.589.701.988 1.245.988 1.245z" class="prefix__cls-7" data-name="Path 1587" transform="translate(-183.027 -251.027)"/>
        <path id="prefix__Path_1588" d="M265.714 407.411a17.08 17.08 0 0 1-1.177 1.383 18.536 18.536 0 0 1-.215-1.857c-.1-1.809.092-4.21 1.905-3.675s.573 2.701-.513 4.149z" class="prefix__cls-7" data-name="Path 1588" transform="translate(-192.39 -248.728)"/>
        <path id="prefix__Path_1589" d="M298.571 408.329c-.035 1.163-.149 2.09-.149 2.09a14.926 14.926 0 0 1-1.506-1.343c-1.365-1.418-2.876-3.6-.76-4.921 2.204-1.366 2.477 1.861 2.415 4.174z" class="prefix__cls-7" data-name="Path 1589" transform="translate(-209.671 -249.089)"/>
        <path id="prefix__Path_1590" d="M312 412.376a7.788 7.788 0 0 1-3.178 2.393 8.859 8.859 0 0 1-1.062.382l-1.422-2a14.507 14.507 0 0 1 .588-1.94 7.542 7.542 0 0 1 1-1.883c1.974-2.607 5.991.396 4.074 3.048z" class="prefix__cls-7" data-name="Path 1590" transform="translate(-215.973 -251.612)"/>
        <path id="prefix__Path_1591" d="M257.252 414.57c.6.7 1 1.242 1 1.242l-1.194 3.534s-.672-.474-1.519-1.22a6.914 6.914 0 0 1 1.361-3.1 4.121 4.121 0 0 1 .352-.456z" class="prefix__cls-3" data-name="Path 1591" transform="translate(-187.475 -255.114)"/>
        <path id="prefix__Path_1592" d="M265.742 412.2a17.074 17.074 0 0 1-1.177 1.383 18.536 18.536 0 0 1-.215-1.857 2.4 2.4 0 0 1 1.392.474z" class="prefix__cls-3" data-name="Path 1592" transform="translate(-192.417 -253.521)"/>
        <path id="prefix__Path_1593" d="M266.6 427.039l-3 1.317s-.654-.316-1.6-.9c-3.156-1.945-9.5-6.831-5.246-12.591s7.8 4.575 9.2 9.623c.439 1.512.646 2.551.646 2.551z" class="prefix__cls-7" data-name="Path 1593" transform="translate(-187.357 -254.325)"/>
        <path id="prefix__Path_1594" d="M299.22 414.826a2.446 2.446 0 0 1 1.655-.746c-.035 1.163-.149 2.09-.149 2.09a14.919 14.919 0 0 1-1.506-1.343z" class="prefix__cls-3" data-name="Path 1594" transform="translate(-211.979 -254.839)"/>
        <path id="prefix__Path_1595" d="M308.825 418.456a8.858 8.858 0 0 1-1.062.382l-1.422-2a14.507 14.507 0 0 1 .588-1.94 5.08 5.08 0 0 1 1.896 3.558z" class="prefix__cls-3" data-name="Path 1595" transform="translate(-215.973 -255.299)"/>
        <path id="prefix__Path_1596" d="M287.285 431.837l-.5.088c-10.067 1.532-3.319-3.9-3.319-3.9s.439-.417 1.067-1.1c1.216-1.339 3.042-3.688 3.253-5.856.316-3.262.68-6.322 4.531-5.422 3.792.882 4.517 14.28-5.032 16.19z" class="prefix__cls-7" data-name="Path 1596" transform="translate(-201.897 -255.629)"/>
        <path id="prefix__Rectangle_641" d="M0 0H19.233V5.057H0z" class="prefix__cls-4" data-name="Rectangle 641" transform="translate(65.984 201.267)"/>
        <path id="prefix__Rectangle_642" d="M0 0H25.129V17.648H0z" class="prefix__cls-4" data-name="Rectangle 642" transform="translate(62.928 184.831)"/>
        <path id="prefix__Rectangle_643" d="M0 0H19.233V5.057H0z" class="prefix__cls-3" data-name="Rectangle 643" transform="translate(65.8 201.267)"/>
        <path id="prefix__Rectangle_644" d="M0 0H25.129V17.648H0z" class="prefix__cls-3" data-name="Rectangle 644" transform="translate(62.849 184.835)"/>
        <path id="prefix__Rectangle_645" d="M0 0H19.233V5.057H0z" class="prefix__cls-4" data-name="Rectangle 645" transform="translate(67.248 201.267)"/>
        <path id="prefix__Path_1597" d="M274.511 439c.439 1.51.65 2.551.65 2.551l-3 1.317s-.654-.316-1.6-.9a7.53 7.53 0 0 1 3.95-2.968z" class="prefix__cls-3" data-name="Path 1597" transform="translate(-195.901 -268.819)"/>
        <path id="prefix__Path_1598" d="M287.285 446.453l-.5.088c-10.067 1.532-3.319-3.9-3.319-3.9s.439-.417 1.067-1.1a6.631 6.631 0 0 1 2.752 4.912z" class="prefix__cls-3" data-name="Path 1598" transform="translate(-201.897 -270.244)"/>
        <path id="prefix__Path_1599" d="M257.76 455.284s5.637-20.195 13.544-13.961-3.218 15.8-3.218 15.8z" class="prefix__cls-7" data-name="Path 1599" transform="translate(-188.721 -269.453)"/>
        <circle id="prefix__Ellipse_324" cx=".632" cy=".632" r=".632" class="prefix__cls-3" data-name="Ellipse 324" transform="translate(71.252 163.069)"/>
        <circle id="prefix__Ellipse_325" cx=".632" cy=".632" r=".632" class="prefix__cls-3" data-name="Ellipse 325" transform="translate(71.199 166.023)"/>
        <circle id="prefix__Ellipse_326" cx=".632" cy=".632" r=".632" class="prefix__cls-3" data-name="Ellipse 326" transform="translate(89.537 163.648)"/>
        <circle id="prefix__Ellipse_327" cx=".632" cy=".632" r=".632" class="prefix__cls-3" data-name="Ellipse 327" transform="translate(74.782 178.772)"/>
        <circle id="prefix__Ellipse_328" cx=".632" cy=".632" r=".632" class="prefix__cls-3" data-name="Ellipse 328" transform="translate(88.22 168.552)"/>
        <circle id="prefix__Ellipse_329" cx=".632" cy=".632" r=".632" class="prefix__cls-3" data-name="Ellipse 329" transform="translate(81.687 175.085)"/>
        <circle id="prefix__Ellipse_330" cx=".632" cy=".632" r=".632" class="prefix__cls-3" data-name="Ellipse 330" transform="translate(73.412 164.333)"/>
        <circle id="prefix__Ellipse_331" cx=".632" cy=".632" r=".632" class="prefix__cls-3" data-name="Ellipse 331" transform="translate(87.799 165.549)"/>
        <circle id="prefix__Ellipse_332" cx=".632" cy=".632" r=".632" class="prefix__cls-3" data-name="Ellipse 332" transform="translate(85.639 170.449)"/>
        <circle id="prefix__Ellipse_333" cx=".632" cy=".632" r=".632" class="prefix__cls-3" data-name="Ellipse 333" transform="translate(78.996 178.298)"/>
        <circle id="prefix__Ellipse_334" cx=".632" cy=".632" r=".632" class="prefix__cls-3" data-name="Ellipse 334" transform="translate(77.627 175.19)"/>
        <circle id="prefix__Ellipse_335" cx=".632" cy=".632" r=".632" class="prefix__cls-3" data-name="Ellipse 335" transform="translate(74.36 168.183)"/>
        <path id="prefix__Rectangle_646" d="M0 0H19.233V1.848H0z" class="prefix__cls-3" data-name="Rectangle 646" transform="translate(67.248 201.267)"/>
        <path id="prefix__Rectangle_647" d="M0 0H25.129V17.648H0z" class="prefix__cls-4" data-name="Rectangle 647" transform="translate(64.193 184.831)"/>
        <circle id="prefix__Ellipse_336" cx=".632" cy=".632" r=".632" class="prefix__cls-3" data-name="Ellipse 336" transform="translate(79.839 181.143)"/>
        <circle id="prefix__Ellipse_337" cx=".632" cy=".632" r=".632" class="prefix__cls-3" data-name="Ellipse 337" transform="translate(76.046 181.933)"/>
        <path id="prefix__Path_1600" d="M401.383 626s3.13 4.1-1.444 10.277-8.341 11.414-6.831 15.26c0 0 6.91-11.485 12.534-11.643s1.926-6.984-4.259-13.894z" class="prefix__cls-7" data-name="Path 1600" transform="translate(-264.458 -373.723)"/>
        <path id="prefix__Path_1601" d="M401.6 626a5.044 5.044 0 0 1 .641 1.282c5.483 6.445 8.407 12.459 3.135 12.613-4.913.154-10.8 8.934-12.218 11.129.048.171.105.342.167.5 0 0 6.91-11.485 12.534-11.643s1.929-6.971-4.259-13.881z" class="prefix__cls-3" data-name="Path 1601" transform="translate(-264.678 -373.723)"/>
        <path id="prefix__Path_1602" d="M424.73 636.719c0 1.44-.162 2.608-.36 2.608s-.36-1.168-.36-2.608.2-.764.4-.764.32-.68.32.764z" class="prefix__cls-12" data-name="Path 1602" transform="translate(-281.984 -379.218)"/>
        <path id="prefix__Path_1603" d="M427.044 640.556c-1.264.689-2.366 1.106-2.463.931s.852-.878 2.12-1.567.764-.189.878 0 .734-.053-.535.636z" class="prefix__cls-12" data-name="Path 1603" transform="translate(-282.301 -381.334)"/>
        <path id="prefix__Path_1604" d="M365.715 626s-3.13 4.1 1.444 10.277 8.341 11.414 6.827 15.26c0 0-6.906-11.485-12.529-11.643s-1.928-6.984 4.258-13.894z" class="prefix__cls-7" data-name="Path 1604" transform="translate(-245.337 -373.723)"/>
        <path id="prefix__Path_1605" d="M365.715 626a5.045 5.045 0 0 0-.641 1.282c-5.483 6.445-8.407 12.459-3.135 12.613 4.913.154 10.8 8.934 12.218 11.129a4.875 4.875 0 0 1-.171.5s-6.906-11.48-12.529-11.63-1.928-6.984 4.258-13.894z" class="prefix__cls-3" data-name="Path 1605" transform="translate(-245.337 -373.723)"/>
        <path id="prefix__Path_1606" d="M361.44 636.719c0 1.44.162 2.608.36 2.608s.36-1.168.36-2.608-.2-.764-.4-.764-.32-.68-.32.764z" class="prefix__cls-12" data-name="Path 1606" transform="translate(-246.884 -379.218)"/>
        <path id="prefix__Path_1607" d="M355.885 640.556c1.264.689 2.366 1.106 2.463.931s-.852-.878-2.12-1.567-.764-.189-.878 0-.734-.053.535.636z" class="prefix__cls-12" data-name="Path 1607" transform="translate(-243.326 -381.334)"/>
        <ellipse id="prefix__Ellipse_338" cx="32.75" cy="5.027" class="prefix__cls-1" data-name="Ellipse 338" rx="32.75" ry="5.027" transform="translate(95.898 299.102)"/>
        <path id="prefix__Path_1608" d="M388.853 669.164l-.158 1.277-.22 1.809-.088.751-.224 1.809-.092.755-.22 1.8-2.485 20.546c-.224 1.835-3.222 3.262-6.835 3.262h-13.047c-3.617 0-6.585-1.427-6.831-3.262l-2.511-20.546-.219-1.8-.092-.755-.225-1.81-.088-.751-.22-1.809-.158-1.277c-.127-1.036 1.493-1.914 3.543-1.914h26.631c2.042.001 3.666.879 3.539 1.915z" data-name="Path 1608" transform="translate(-243.346 -396.864)" style="fill:#65617d"/>
        <path id="prefix__Path_1609" d="M288.406 623.15l-.219 1.8h-32.958l-.219-1.8z" class="prefix__cls-14" data-name="Path 1609" transform="translate(-143.057 -349.573)"/>
        <path id="prefix__Path_1610" d="M288.491 628.98l-.219 1.809h-32.338l-.224-1.809z" class="prefix__cls-14" data-name="Path 1610" transform="translate(-143.45 -352.843)"/>
        <path id="prefix__Path_1611" d="M288.579 634.81l-.22 1.809H256.65l-.22-1.809z" class="prefix__cls-14" data-name="Path 1611" transform="translate(-143.853 -356.114)"/>
    </g>
</svg>
