<svg xmlns="http://www.w3.org/2000/svg" width="39.348" height="39.349" viewBox="0 0 39.348 39.349">
    <defs>
        <style>
            .cls-1{fill:#fff}
        </style>
    </defs>
    <g id="resume_2_" data-name="resume (2)" transform="translate(-.007)">
        <g id="Group_2398" data-name="Group 2398" transform="translate(.007)">
            <g id="Group_2397" data-name="Group 2397">
                <path id="Path_3512" d="M31.824 11.432a.769.769 0 0 0 .769-.769V2.306A2.308 2.308 0 0 0 30.287 0H2.313A2.308 2.308 0 0 0 .007 2.306v34.737a2.308 2.308 0 0 0 2.306 2.306h27.974a2.308 2.308 0 0 0 2.306-2.306v-5.662a.769.769 0 1 0-1.537 0v5.662a.769.769 0 0 1-.769.769H2.313a.769.769 0 0 1-.769-.769V2.306a.769.769 0 0 1 .769-.769h27.974a.769.769 0 0 1 .769.769v8.358a.769.769 0 0 0 .768.768z" class="cls-1" data-name="Path 3512" transform="translate(-.007)"/>
            </g>
        </g>
        <g id="Group_2400" data-name="Group 2400" transform="translate(9.229 4.15)">
            <g id="Group_2399" data-name="Group 2399">
                <path id="Path_3513" d="M127.077 54a7.067 7.067 0 0 0-4.851 12.21.761.761 0 0 0 .083.077 7.057 7.057 0 0 0 9.536 0 .765.765 0 0 0 .083-.077A7.067 7.067 0 0 0 127.077 54zm0 12.6a5.5 5.5 0 0 1-3.342-1.127 3.843 3.843 0 0 1 6.685 0 5.5 5.5 0 0 1-3.343 1.127zm-1.23-5.841v-.5a1.23 1.23 0 0 1 2.459 0v.5a1.23 1.23 0 0 1-2.459 0zm5.683 3.588a5.332 5.332 0 0 0-2.264-1.9 2.752 2.752 0 0 0 .578-1.69v-.5a2.767 2.767 0 1 0-5.533 0v.5a2.752 2.752 0 0 0 .578 1.69 5.332 5.332 0 0 0-2.264 1.9 5.533 5.533 0 1 1 8.906 0z" class="cls-1" data-name="Path 3513" transform="translate(-120.007 -54)"/>
            </g>
        </g>
        <g id="Group_2402" data-name="Group 2402" transform="translate(15.531 33.662)">
            <g id="Group_2401" data-name="Group 2401">
                <path id="Path_3514" d="M206.926 438h-4.15a.769.769 0 1 0 0 1.537h4.15a.769.769 0 0 0 0-1.537z" class="cls-1" data-name="Path 3514" transform="translate(-202.007 -438)"/>
            </g>
        </g>
        <g id="Group_2404" data-name="Group 2404" transform="translate(8.768 29.358)">
            <g id="Group_2403" data-name="Group 2403">
                <path id="Path_3515" d="M125.689 382h-10.913a.769.769 0 1 0 0 1.537h10.913a.769.769 0 1 0 0-1.537z" class="cls-1" data-name="Path 3515" transform="translate(-114.007 -382)"/>
            </g>
        </g>
        <g id="Group_2406" data-name="Group 2406" transform="translate(8.768 25.054)">
            <g id="Group_2405" data-name="Group 2405">
                <path id="Path_3516" d="M125.689 326h-10.913a.769.769 0 1 0 0 1.537h10.913a.769.769 0 1 0 0-1.537z" class="cls-1" data-name="Path 3516" transform="translate(-114.007 -326)"/>
            </g>
        </g>
        <g id="Group_2408" data-name="Group 2408" transform="translate(5.485 20.75)">
            <g id="Group_2407" data-name="Group 2407">
                <path id="Path_3517" d="M72.6 270.225a.768.768 0 1 0 .225.543.774.774 0 0 0-.225-.543z" class="cls-1" data-name="Path 3517" transform="translate(-71.287 -270)"/>
            </g>
        </g>
        <g id="Group_2410" data-name="Group 2410" transform="translate(5.485 25.054)">
            <g id="Group_2409" data-name="Group 2409">
                <path id="Path_3518" d="M72.6 326.225a.768.768 0 1 0 .225.543.776.776 0 0 0-.225-.543z" class="cls-1" data-name="Path 3518" transform="translate(-71.287 -326)"/>
            </g>
        </g>
        <g id="Group_2412" data-name="Group 2412" transform="translate(5.485 29.358)">
            <g id="Group_2411" data-name="Group 2411">
                <path id="Path_3519" d="M72.6 382.225a.768.768 0 1 0 .225.543.776.776 0 0 0-.225-.543z" class="cls-1" data-name="Path 3519" transform="translate(-71.287 -382)"/>
            </g>
        </g>
        <g id="Group_2414" data-name="Group 2414" transform="translate(8.768 20.75)">
            <g id="Group_2413" data-name="Group 2413">
                <path id="Path_3520" d="M125.689 270h-10.913a.769.769 0 1 0 0 1.537h10.913a.769.769 0 1 0 0-1.537z" class="cls-1" data-name="Path 3520" transform="translate(-114.007 -270)"/>
            </g>
        </g>
        <g id="Group_2416" data-name="Group 2416" transform="translate(22.877 9.582)">
            <g id="Group_2415" data-name="Group 2415">
                <path id="Path_3521" d="M312.454 125.109a3.228 3.228 0 0 0-4.409 1.181l-9.671 16.751a.77.77 0 0 0-.1.3l-.681 6.1a.769.769 0 0 0 1.22.7l4.94-3.639a.768.768 0 0 0 .21-.235l9.671-16.751a3.231 3.231 0 0 0-1.18-4.407zm-13.137 22.754l.355-3.184 2.224 1.284zm3.7-3.028l-2.928-1.691 7.761-13.442 2.928 1.691zm9.283-16.085l-.758 1.312-2.928-1.691.758-1.312a1.691 1.691 0 0 1 2.928 1.691z" class="cls-1" data-name="Path 3521" transform="translate(-297.589 -124.675)"/>
            </g>
        </g>
    </g>
</svg>
