<svg xmlns="http://www.w3.org/2000/svg" width="41.827" height="36.762" viewBox="0 0 41.827 36.762">
    <defs>
        <style>
            .cls-1{fill:#fff}
        </style>
    </defs>
    <path id="portfolio_6_" d="M40.61 4.9H29.492V3.676A3.68 3.68 0 0 0 25.815 0h-9.8a3.68 3.68 0 0 0-3.676 3.676V4.9H1.226A1.229 1.229 0 0 0 0 6.127v26.959a3.68 3.68 0 0 0 3.676 3.676h34.475a3.68 3.68 0 0 0 3.676-3.676V6.148A1.19 1.19 0 0 0 40.61 4.9zM14.787 3.676a1.227 1.227 0 0 1 1.225-1.225h9.8a1.227 1.227 0 0 1 1.225 1.225V4.9h-12.25zM38.9 7.352l-3.8 11.416a1.223 1.223 0 0 1-1.162.838h-6.897v-1.225a1.225 1.225 0 0 0-1.225-1.225h-9.8a1.225 1.225 0 0 0-1.225 1.225v1.225H7.894a1.223 1.223 0 0 1-1.162-.838L2.926 7.352zM24.59 19.606v2.451h-7.352v-2.451zm14.787 13.48a1.227 1.227 0 0 1-1.225 1.225H3.676a1.227 1.227 0 0 1-1.225-1.225V13.678l1.955 5.865a3.671 3.671 0 0 0 3.487 2.514h6.893v1.225a1.225 1.225 0 0 0 1.225 1.225h9.8a1.225 1.225 0 0 0 1.225-1.225v-1.225h6.893a3.671 3.671 0 0 0 3.487-2.514l1.955-5.865zm0 0" class="cls-1" data-name="portfolio (6)"/>
</svg>
