<svg xmlns="http://www.w3.org/2000/svg" width="25.446" height="40" viewBox="0 0 25.446 40">
    <defs>
        <style>
            .prefix__cls-1{fill:#ffebd2}.prefix__cls-4{fill:#aaa}
        </style>
    </defs>
    <g id="prefix__Group_475" data-name="Group 475" transform="translate(-4457 -8714)">
        <path id="prefix__Path_2876" d="M128.377 14.28a11.793 11.793 0 0 1-11.792 11.792h-.5a11.793 11.793 0 0 1-11.797-11.792v-2.488A11.793 11.793 0 0 1 116.08 0h.5a11.791 11.791 0 0 1 11.745 10.741c.065.678.052.884.052 3.539z" class="prefix__cls-1" data-name="Path 2876" transform="translate(4353.387 8714)"/>
        <path id="prefix__Path_2877" d="M126.2 4.989a12.175 12.175 0 0 0-19.1 9.634c0 2.784-.283 5.841 2.159 9.291a11.778 11.778 0 0 1-4.99-9.633 34.165 34.165 0 0 1 .065-3.728A11.793 11.793 0 0 1 116.067 0h.5a11.773 11.773 0 0 1 9.633 4.989z" data-name="Path 2877" transform="translate(4353.4 8714)" style="fill:#fff3e4"/>
        <path id="prefix__Path_2878" d="M122.576 335a1.509 1.509 0 0 1-1.509 1.509h-22.42A1.509 1.509 0 0 1 97.138 335v-1.893a9.874 9.874 0 0 1 9.875-9.874c6.182 0 6.26-.04 7.292.13a9.848 9.848 0 0 1 5.461 2.844c3.112 3.188 2.81 6.659 2.81 8.793z" data-name="Path 2878" transform="translate(4359.862 8417.492)" style="fill:#494a97"/>
        <path id="prefix__Path_2879" d="M193.712 323.362l-.013.08a4.434 4.434 0 0 1-8.868 0l-.013-.08c1.029-.169 1.083-.13 7.292-.13a9.862 9.862 0 0 1 1.602.13z" class="prefix__cls-1" data-name="Path 2879" transform="translate(4280.454 8417.491)"/>
        <path id="prefix__Path_2880" d="M178.846 155.091a1.509 1.509 0 0 1-1.509-1.509v-.482a1.509 1.509 0 0 1 3.019 0v.482a1.509 1.509 0 0 1-1.51 1.509z" class="prefix__cls-4" data-name="Path 2880" transform="translate(4287.229 8576.711)"/>
        <path id="prefix__Path_2881" d="M256.087 155.091a1.509 1.509 0 0 1-1.509-1.509v-.482a1.509 1.509 0 1 1 3.019 0v.482a1.509 1.509 0 0 1-1.51 1.509z" class="prefix__cls-4" data-name="Path 2881" transform="translate(4217.275 8576.711)"/>
        <path id="prefix__Path_2882" d="M128.954 10.741a20.34 20.34 0 0 1-8.046.465 20.128 20.128 0 0 1-6.639-2.141 1.511 1.511 0 0 0-1.66.133 8.857 8.857 0 0 1-7.6 1.357h-.026A11.793 11.793 0 0 1 116.705 0h.5a11.791 11.791 0 0 1 11.749 10.741z" data-name="Path 2882" transform="translate(4352.762 8714)" style="fill:#00bfa6"/>
        <path id="prefix__Path_2883" d="M126.841 4.989c-6.005-4.248-15.726-2.24-18.472 5.834a10.5 10.5 0 0 1-3.392-.271A11.793 11.793 0 0 1 116.705 0h.5a11.773 11.773 0 0 1 9.636 4.989z" data-name="Path 2883" transform="translate(4352.762 8714)" style="fill:#0ed7bd"/>
        <path id="prefix__Path_2884" d="M190.823 327.647a4.443 4.443 0 0 1-5.992-4.148l-.013-.08a9.766 9.766 0 0 1 1.429-.128 4.454 4.454 0 0 0 4.576 4.356z" data-name="Path 2884" transform="translate(4280.454 8417.436)" style="fill:#ffdfba"/>
        <path id="prefix__Path_2885" d="M106.808 327.937a9.875 9.875 0 0 0-6.431 9.256v.6h-1.73a1.509 1.509 0 0 1-1.509-1.509v-1.893a9.875 9.875 0 0 1 8.272-9.743 4.555 4.555 0 0 0 1.398 3.289z" data-name="Path 2885" transform="translate(4359.862 8416.204)" style="fill:#5c5ea7"/>
        <path id="prefix__Path_2886" d="M264.278 327.937a9.875 9.875 0 0 1 6.431 9.256v.6h1.729a1.509 1.509 0 0 0 1.509-1.509v-1.893a9.875 9.875 0 0 0-8.272-9.743 4.556 4.556 0 0 1-1.397 3.289z" data-name="Path 2886" transform="translate(4208.49 8416.204)" style="fill:#444584"/>
    </g>
</svg>
