<svg xmlns="http://www.w3.org/2000/svg" width="51.973" height="70" viewBox="0 0 51.973 70">
    <defs>
        <linearGradient id="prefix__linear-gradient" x1=".5" x2="1" y2="1.436" gradientUnits="objectBoundingBox">
            <stop offset="0" stop-color="#7a81ea"/>
            <stop offset="1" stop-color="#fff"/>
        </linearGradient>
    </defs>
    <path id="prefix__Path_3112" fill="url(#prefix__linear-gradient)" d="M19.664-35.417l-15.6-.105a17.953 17.953 0 0 1-.633-5.693 22.122 22.122 0 0 1 6.905-16.446q6.905-6.747 18.712-6.747 11.491 0 18.449 6.483a20.97 20.97 0 0 1 6.958 15.971q0 13.283-13.494 21.3l-12.967 7.7a12.1 12.1 0 0 0-4.639 4.639H54.98V5.592H3.007a39.528 39.528 0 0 1 3.637-17.553q3.637-7.432 12.492-12.6l11.175-6.536a18.707 18.707 0 0 0 5.8-4.8 9.656 9.656 0 0 0 1.689-5.74 7.776 7.776 0 0 0-2.372-5.8q-2.372-2.319-6.8-2.319a8.925 8.925 0 0 0-7.116 2.846 10.679 10.679 0 0 0-2.477 7.274 13.921 13.921 0 0 0 .629 4.219z" data-name="Path 3112" transform="translate(-3.007 64.408)"/>
</svg>
