<svg xmlns="http://www.w3.org/2000/svg" id="remove_1_" width="18" height="18" data-name="remove (1)" viewBox="0 0 18 18">
    <defs>
        <style>
            .cls-1{fill:#f44336}.cls-2{fill:#fafafa}
        </style>
    </defs>
    <path id="Path_3696" d="M9 0a9 9 0 1 0 9 9 9.01 9.01 0 0 0-9-9zm0 0" class="cls-1" data-name="Path 3696"/>
    <path id="Path_3697" d="M162.32 161.259a.75.75 0 1 1-1.061 1.061l-2.254-2.254-2.254 2.254a.75.75 0 1 1-1.061-1.061l2.254-2.254-2.254-2.254a.75.75 0 1 1 1.061-1.061l2.254 2.254 2.254-2.254a.75.75 0 0 1 1.061 1.061l-2.254 2.254zm0 0" class="cls-2" data-name="Path 3697" transform="translate(-150.006 -150.005)"/>
</svg>
