<svg xmlns="http://www.w3.org/2000/svg" width="507.004" height="354.978" viewBox="0 0 507.004 354.978">
    <defs>
        <style>
            .prefix__cls-1,.prefix__cls-6{fill:#00c2cd}.prefix__cls-1,.prefix__cls-4{opacity:.1}.prefix__cls-2{fill:#3f3d56}.prefix__cls-3{fill:#444584}.prefix__cls-5{fill:#2f2e41}.prefix__cls-7{fill:#f2f2f2}.prefix__cls-8{fill:#ffb9b9}.prefix__cls-9{fill:#d0cde1}.prefix__cls-10{fill:#38bdba}
        </style>
    </defs>
    <g id="prefix__Group_373" data-name="Group 373" transform="translate(-143.996 -1746)">
        <path id="prefix__Path_2269" d="M974.487 392.8c0 49.63-29.5 66.958-65.9 66.958s-65.9-17.328-65.9-66.958 65.9-112.766 65.9-112.766 65.9 63.134 65.9 112.766z" class="prefix__cls-1" data-name="Path 2269" transform="translate(-329.22 1562.237)"/>
        <path id="prefix__Path_2270" d="M877.13 373.591l.675-41.536 28.088-51.385-27.982 44.87.3-18.676 19.358-37.177-19.278 32.235.545-33.59 20.729-29.6-20.639 24.318.341-61.591-2.143 81.536.176-3.364-21.075-32.259 20.738 38.716L875 323.6l-.058-1-24.3-33.948 24.222 37.466-.246 4.691-.044.071.02.385-4.982 95.176h6.657l.8-49.16 24.163-37.374z" class="prefix__cls-2" data-name="Path 2270" transform="translate(-300.162 1640.809)"/>
        <path id="prefix__Path_2271" d="M645.4 262.125c0 64.188-38.158 86.6-85.229 86.6s-85.229-22.412-85.229-86.6 85.229-145.844 85.229-145.844S645.4 197.938 645.4 262.125z" class="prefix__cls-1" data-name="Path 2271" transform="translate(-137.203 1647.738)"/>
        <path id="prefix__Path_2272" d="M539.872 260.334l.873-53.719 36.327-66.458-36.19 58.031.392-24.154 25.036-48.082-24.933 41.69.706-43.443 26.81-38.279-26.7 31.448.441-79.658-2.771 105.453.228-4.35-27.256-41.723 26.82 50.073-2.54 48.518-.075-1.288-31.423-43.906 31.328 48.456-.318 6.068-.057.091.026.5-6.443 123.094h8.609l1.033-63.581 31.251-48.337z" class="prefix__cls-2" data-name="Path 2272" transform="translate(-120.008 1726.31)"/>
        <path id="prefix__Path_2273" d="M565.5 743.057c0 4.831-14.039 9.342-38.3 13.141-43.953 6.891-121.447 11.464-209.707 11.464-136.963 0-248-11.015-248-24.6 0-1.878 2.131-3.718 6.169-5.476 4.554-1.993 11.54-3.89 20.629-5.663 18.737-3.656 46.419-6.781 80.184-9.1 39.194-2.69 86.592-4.291 137.723-4.353q1.641-.007 3.292 0 9.239 0 18.316.067 4.265.029 8.492.076c30.115.32 58.614 1.176 84.514 2.466 1.156.057 2.308.12 3.455.177.392.019.784.043 1.176.062.105 0 .21.01.315.019q7.634.4 14.933.855 2.394.143 4.745.3c15.229.989 29.288 2.141 41.932 3.436q3.24.33 6.355.674c16 1.754 29.469 3.746 39.848 5.911 15.347 3.187 23.929 6.765 23.929 10.544z" class="prefix__cls-3" data-name="Path 2273" transform="translate(74.496 1333.316)"/>
        <ellipse id="prefix__Ellipse_481" cx="54.037" cy="12.521" class="prefix__cls-4" data-name="Ellipse 481" rx="54.037" ry="12.521" transform="translate(449.767 2062.315)"/>
        <path id="prefix__Path_2274" d="M1031.712 758.4c0 4.831-14.039 9.342-38.3 13.141-18.34-2-31.037-6.327-31.037-11.335 0-6.236 19.669-11.406 45.411-12.362 15.344 3.201 23.926 6.78 23.926 10.556z" class="prefix__cls-4" data-name="Path 2274" transform="translate(-391.715 1317.969)"/>
        <path id="prefix__Path_2275" d="M345.108 741.665c0 8.251-58.813 14.937-131.358 14.937-71.865 0-130.251-6.559-131.341-14.7 13.949-6.089 50.672-11.317 100.812-14.766 9.8-.264 20.02-.4 30.529-.4 72.545-.008 131.358 6.678 131.358 14.929z" class="prefix__cls-4" data-name="Path 2275" transform="translate(67.757 1328.997)"/>
        <path id="prefix__Rectangle_956" d="M0 0H217.906V326.419H0z" class="prefix__cls-3" data-name="Rectangle 956" transform="translate(170.795 1746)"/>
        <path id="prefix__Rectangle_957" d="M0 0H204.726V100.166H0z" class="prefix__cls-5" data-name="Rectangle 957" transform="translate(183.975 1859.346)"/>
        <path id="prefix__Rectangle_958" d="M0 0H202.529V95.334H0z" class="prefix__cls-3" data-name="Rectangle 958" transform="translate(266.568 1861.543)"/>
        <path id="prefix__Rectangle_959" d="M0 0H45.251V16.255H0z" class="prefix__cls-6" data-name="Rectangle 959" transform="translate(278.979 1875.601)"/>
        <path id="prefix__Rectangle_960" d="M0 0H166.505V4.393H0z" class="prefix__cls-6" data-name="Rectangle 960" transform="translate(290.182 1904.157)"/>
        <path id="prefix__Rectangle_961" d="M0 0H166.505V4.393H0z" class="prefix__cls-6" data-name="Rectangle 961" transform="translate(290.182 1915.58)"/>
        <path id="prefix__Rectangle_962" d="M0 0H166.505V4.393H0z" class="prefix__cls-6" data-name="Rectangle 962" transform="translate(290.182 1927.002)"/>
        <path id="prefix__Rectangle_963" d="M0 0H166.505V4.393H0z" class="prefix__cls-6" data-name="Rectangle 963" transform="translate(290.182 1938.425)"/>
        <path id="prefix__Rectangle_964" d="M0 0H45.251V16.255H0z" class="prefix__cls-7" data-name="Rectangle 964" transform="translate(185.293 1782.903)"/>
        <path id="prefix__Rectangle_965" d="M0 0H166.505V4.393H0z" class="prefix__cls-7" data-name="Rectangle 965" transform="translate(196.496 1811.46)"/>
        <path id="prefix__Rectangle_966" d="M0 0H166.505V4.393H0z" class="prefix__cls-7" data-name="Rectangle 966" transform="translate(196.496 1822.882)"/>
        <path id="prefix__Rectangle_967" d="M0 0H166.505V4.393H0z" class="prefix__cls-7" data-name="Rectangle 967" transform="translate(196.496 1834.304)"/>
        <path id="prefix__Rectangle_968" d="M0 0H166.505V4.393H0z" class="prefix__cls-7" data-name="Rectangle 968" transform="translate(196.496 1845.727)"/>
        <path id="prefix__Rectangle_969" d="M0 0H45.251V16.255H0z" class="prefix__cls-7" data-name="Rectangle 969" transform="translate(187.05 1969.617)"/>
        <path id="prefix__Rectangle_970" d="M0 0H166.505V4.393H0z" class="prefix__cls-7" data-name="Rectangle 970" transform="translate(198.253 1998.173)"/>
        <path id="prefix__Rectangle_971" d="M0 0H166.505V4.393H0z" class="prefix__cls-7" data-name="Rectangle 971" transform="translate(198.253 2009.595)"/>
        <path id="prefix__Rectangle_972" d="M0 0H166.505V4.393H0z" class="prefix__cls-7" data-name="Rectangle 972" transform="translate(198.253 2021.018)"/>
        <path id="prefix__Rectangle_973" d="M0 0H166.505V4.393H0z" class="prefix__cls-7" data-name="Rectangle 973" transform="translate(198.253 2032.441)"/>
        <path id="prefix__Path_2276" d="M792.563 203.877s9.033 11.574 7.9 19.76 18.637-11.292 18.637-11.292-6.775-14.114-3.105-20.889-23.432 12.421-23.432 12.421z" class="prefix__cls-8" data-name="Path 2276" transform="translate(-303.047 1609.242)"/>
        <path id="prefix__Path_2277" d="M819.672 709.342s11.856 12.985 9.88 15.808-36.7 13.55-40.649 12.985-5.928-3.387-4.517-4.234 10.445-5.646 10.445-5.646l7.622-8.751s5.646-3.105 5.646-4.8 11.573-5.362 11.573-5.362z" class="prefix__cls-5" data-name="Path 2277" transform="translate(-298.54 1338.075)"/>
        <path id="prefix__Path_2278" d="M810.818 739.469s-4.517 7.339-5.363 7.622 4.234 10.445 4.234 10.445l11.856-3.669 6.493-5.363-1.411-7.339z" class="prefix__cls-8" data-name="Path 2278" transform="translate(-309.728 1322.344)"/>
        <path id="prefix__Path_2279" d="M773.5 446.464l-5.646 25.124s-19.478 43.754-5.928 51.376l29.64 56.74 15.808-7.057-26.535-58.151 12.138-66.9z" class="prefix__cls-9" data-name="Path 2279" transform="translate(-284.545 1475.335)"/>
        <path id="prefix__Path_2280" d="M773.5 446.464l-5.646 25.124s-19.478 43.754-5.928 51.376l29.64 56.74 15.808-7.057-26.535-58.151 12.138-66.9z" class="prefix__cls-4" data-name="Path 2280" transform="translate(-284.545 1475.335)"/>
        <path id="prefix__Path_2281" d="M792.329 452.884h-2.864a159.6 159.6 0 0 0 1.453 25.97c1.976 14.4 7.057 47.424 7.057 47.424s-.565 6.21 1.129 8.186 1.976-.565 2.258 3.952 2.964 35.919 2.964 35.919 1.835 6.424-.141 7.836-5.928 9.033-3.105 10.162 22.3 2.541 23.148 1.694 0-53.917 0-53.917-.565-10.727-1.129-11.291-3.105-8.186-2.258-9.88.282-6.775.282-7.622-2.541 0-.282-3.67 2.541-33.028 2.541-33.028 12.138-18.631 8.469-23.43z" class="prefix__cls-9" data-name="Path 2281" transform="translate(-301.401 1472.867)"/>
        <circle id="prefix__Ellipse_482" cx="18.631" cy="18.631" r="18.631" class="prefix__cls-8" data-name="Ellipse 482" transform="translate(478.789 1780.091)"/>
        <path id="prefix__Path_2282" d="M814.047 230.255s-11.292 2.823-15.808 9.6l-3.952.847v3.952s-7.339 23.43-5.646 33.592 0 29.922-2.823 35.286-3.67 6.493-2.258 8.751 3.387 9.88 1.976 13.267 0 6.775 12.985 7.622 31.334.847 31.334-3.67-1.129-17.219 0-20.607 1.694-5.646 1.129-8.751 1.129-37.826 1.129-37.826.287-34.724-18.066-42.063z" class="prefix__cls-5" data-name="Path 2282" transform="translate(-297.996 1588.227)"/>
        <path id="prefix__Path_2283" d="M762.772 412.792l-15.525 23.148s-16.373 14.96-10.447 21.736 21.454-19.76 21.454-19.76l16.937-19.2z" class="prefix__cls-8" data-name="Path 2283" transform="translate(-273.256 1492.917)"/>
        <path id="prefix__Path_2284" d="M780.382 754.363s-.565-3.67-2.541-3.67-15.244 9.033-15.244 9.033-17.5 1.976-10.727 5.646 48.271 4.234 48.554 2.823.847-15.33-1.129-15.287-17.784 3.149-17.784 3.149z" class="prefix__cls-5" data-name="Path 2284" transform="translate(-280.985 1316.484)"/>
        <path id="prefix__Path_2285" d="M789.91 146.5a4.673 4.673 0 0 1-2.129.481c-.761.043-1.67 0-2.075-.65a2.974 2.974 0 0 1-.259-1.356 4.466 4.466 0 0 0-5.219-3.8 6.423 6.423 0 0 0 .832 2.649 5.665 5.665 0 0 1-4.98-.663l-.287 3.8a3.1 3.1 0 0 1-3.193-.108 1.769 1.769 0 0 1 .045-2.83c-1.234-.257-2.743-.81-2.834-2.067-.083-1.147 1.135-1.987 1.359-3.115.183-.92-.322-1.92.035-2.787.469-1.14 2.171-1.432 2.513-2.616a10.269 10.269 0 0 0-.017-1.873c.156-1.636 2.213-2.315 3.853-2.222s3.431.529 4.824-.342a13.986 13.986 0 0 0 1.741-1.629 5.172 5.172 0 0 1 6.006-.522 10.2 10.2 0 0 0 1.971 1.228c1.506.51 3.077-.455 4.651-.678a3.864 3.864 0 0 1 3.239.938 2.652 2.652 0 0 1 .483 3.195 5.193 5.193 0 0 1 2.773.039 1.79 1.79 0 0 1 1.133 2.234 2.891 2.891 0 0 0-.351.717c-.082.492.392.913.87 1.054s1 .115 1.466.286c1.935.708 1.471 3.8 2.994 5.189a12.139 12.139 0 0 0 1.651 1.01 4.017 4.017 0 0 1 1.416 4.853 4.45 4.45 0 0 0-.755 2.06c.086 1.037 1.2 1.6 1.977 2.293a4.6 4.6 0 0 1 1.071 5.281c-.717 1.495-2.268 2.628-2.426 4.278-.068.717.147 1.433.135 2.154a4.438 4.438 0 0 1-1.908 3.351 9.922 9.922 0 0 1-3.662 1.524c-.615.147-1.35.378-1.5.993-.177.729.637 1.393.553 2.138a1.24 1.24 0 0 1-.5.806c-1.1.861-2.844.123-3.517-1.1a7.332 7.332 0 0 1-.483-4.1l.38-5.069c.118-1.577.107-3.45-1.179-4.372-1.422-1.018-3.492-.194-5.1-.882-1.675-.717-2.276-2.816-2.208-4.636s.589-3.644.289-5.442c-.372-2.227-2.353-3.724-4.354-2.281 1.766-.247 2.066 1.771.676 2.589z" class="prefix__cls-5" data-name="Path 2285" transform="translate(-291.164 1642.598)"/>
        <path id="prefix__Path_2286" d="M815.966 258.444s-11.292 4.517-11.292 14.114.565 22.3-1.411 26.535-3.67 5.646-2.541 9.033 3.105 2.823 0 5.363-2.823-1.694-3.105 2.541 2.823 4.8 0 6.775-10.162 9.88-7.057 12.421 11.292 10.727 14.114 7.622 4.234-11.009 8.186-10.445 4.517.847 3.952-1.976-3.105-2.823.282-3.67 4.8 1.129 3.67-1.694-1.976-3.952.282-7.057 3.387-3.952 3.105-7.057 6.21-31.052 6.21-31.052 1.977-23.711-14.395-21.453z" class="prefix__cls-4" data-name="Path 2286" transform="translate(-301.608 1573.588)"/>
        <path id="prefix__Path_2287" d="M809.468 257.263s-11.291 4.517-11.291 14.114.565 22.3-1.411 26.535-3.67 5.646-2.541 9.033 3.105 2.823 0 5.363-2.823-1.694-3.105 2.541 2.823 4.8 0 6.775-10.162 9.88-7.057 12.421 11.292 10.727 14.114 7.622 4.234-11.009 8.186-10.445 4.517.847 3.952-1.976-3.105-2.823.282-3.67 4.8 1.129 3.67-1.694-1.976-3.952.282-7.057 3.387-3.952 3.105-7.057 6.21-31.052 6.21-31.052 1.976-23.716-14.396-21.453z" class="prefix__cls-4" data-name="Path 2287" transform="translate(-298.215 1574.204)"/>
        <path id="prefix__Path_2288" d="M812.421 255.491s-11.291 4.517-11.291 14.114.565 22.3-1.411 26.535-3.67 5.646-2.541 9.033 3.105 2.823 0 5.363-2.823-1.694-3.105 2.541 2.823 4.8 0 6.775-10.162 9.88-7.057 12.421S798.307 343 801.13 339.9s4.234-11.009 8.186-10.445 4.517.847 3.952-1.976-3.105-2.823.282-3.67 4.8 1.129 3.67-1.694-1.976-3.952.282-7.057 3.387-3.952 3.105-7.057 6.21-31.052 6.21-31.052 1.977-23.716-14.396-21.458z" class="prefix__cls-5" data-name="Path 2288" transform="translate(-299.758 1575.13)"/>
        <path id="prefix__Path_2289" d="M964.5 663.787c0 24.7 15.494 44.683 34.642 44.683" class="prefix__cls-3" data-name="Path 2289" transform="translate(-392.822 1361.861)"/>
        <path id="prefix__Path_2290" d="M1036.99 707.921c0-24.975 17.29-45.185 38.658-45.185" class="prefix__cls-10" data-name="Path 2290" transform="translate(-430.673 1362.41)"/>
        <path id="prefix__Path_2291" d="M990.766 668.472c0 23.46 9.88 42.444 22.09 42.444" class="prefix__cls-10" data-name="Path 2291" transform="translate(-406.537 1359.415)"/>
        <path id="prefix__Path_2292" d="M1036.99 694.206c0-31.913 19.985-57.736 44.683-57.736" class="prefix__cls-3" data-name="Path 2292" transform="translate(-430.673 1376.125)"/>
        <path id="prefix__Path_2293" d="M1021.74 755.052s4.913-.151 6.393-1.206 7.557-2.313 7.924-.622 7.383 8.41 1.837 8.454-12.887-.864-14.365-1.764-1.789-4.862-1.789-4.862z" data-name="Path 2293" transform="translate(-422.71 1315.594)" style="fill:#a8a8a8"/>
        <path id="prefix__Path_2294" d="M1038 763.984c-5.547.045-12.887-.864-14.365-1.764-1.125-.686-1.574-3.145-1.724-4.28l-.164.006s.311 3.962 1.789 4.862 8.819 1.809 14.365 1.764c1.6-.013 2.154-.583 2.124-1.426-.225.509-.835.828-2.025.838z" data-name="Path 2294" transform="translate(-422.714 1312.7)" style="opacity:.2"/>
    </g>
</svg>
