<svg xmlns="http://www.w3.org/2000/svg" width="100" height="94.626" viewBox="0 0 100 94.626">
    <defs>
        <style>
            .prefix__cls-1{fill:#444584}.prefix__cls-2{fill:#8384bb}
        </style>
    </defs>
    <g id="prefix__promotion_1_" data-name="promotion (1)">
        <path id="prefix__Path_2747" d="M32.773 210.293l11.719 20.3-16.914 9.766a11.719 11.719 0 1 1-11.719-20.3zm0 0" class="prefix__cls-1" data-name="Path 2747" transform="translate(-8.046 -169.22)"/>
        <path id="prefix__Path_2748" d="M282.4 73.656a3.906 3.906 0 0 1-3.288 5.857l-2.2.432-.049-.248-25.144-43.55-.164-.129 1.406-1.791a3.906 3.906 0 0 1 6.717.08c39.022 67.584-10.207-17.681 22.722 39.349zm0 0" class="prefix__cls-1" data-name="Path 2748" transform="translate(-202.423 -26.035)"/>
        <path id="prefix__Path_2749" d="M120.895 352.823a5.859 5.859 0 0 1-10.149 5.859L100 340.074l10.149-5.859 10.742 18.608zm0 0" class="prefix__cls-2" data-name="Path 2749" transform="translate(-80.472 -268.938)"/>
        <path id="prefix__Path_2750" d="M341.855 108.934l3.906 6.766-4.813 7.289-7.812-13.531zm0 0" data-name="Path 2750" transform="translate(-268.071 -87.658)" style="fill:#e9eef0"/>
        <path id="prefix__Path_2751" d="M176.316 94.791l.049.248-38.041 7.461L126.6 82.2 151 51.11l.164.129zm0 0" class="prefix__cls-2" data-name="Path 2751" transform="translate(-101.878 -41.13)"/>
        <path id="prefix__Path_2752" d="M124.894 293.219a1.953 1.953 0 1 0-2.668-.715 1.954 1.954 0 0 0 2.668.715zm0 0" data-name="Path 2752" transform="translate(-98.143 -233.017)"/>
        <path id="prefix__Path_2753" d="M18.747 91.671l9.836 17.037a7.812 7.812 0 1 0 13.531-7.808l-5.859-10.15 5.074-2.93a1.954 1.954 0 0 0 .715-2.668l-2.54-4.4 37.41-7.338a5.858 5.858 0 0 0 4.749-8.779L75.172 53.39l4.148-6.283a1.954 1.954 0 0 0 .062-2.053l-3.906-6.766a1.957 1.957 0 0 0-1.809-.973l-7.514.451-7.206-12.481a5.808 5.808 0 0 0-5-2.929h-.075a5.808 5.808 0 0 0-4.933 2.7L23.424 57.56 6.837 67.136a13.672 13.672 0 0 0 11.91 24.535zm19.985 11.179a3.906 3.906 0 0 1-6.767 3.905L22.2 89.84l6.766-3.906 9.766 16.917zM34.3 87.363l-1.952-3.383 3.383-1.953 1.953 3.383zm38.4-46.076l2.7 4.675-2.407 3.645-4.652-8.059zM52.2 27.2a1.953 1.953 0 0 1 3.358.039L78.28 66.586a1.953 1.953 0 0 1-1.643 2.928 7.171 7.171 0 0 0-1.071.182l-24.03-41.622c.5-.648.569-.711.669-.875zm-3.268 4.186l22.582 39.105-34.074 6.683-10.361-17.945zM5.215 83.859a9.759 9.759 0 0 1 3.575-13.34l15.222-8.789 9.766 16.914-15.223 8.79a9.778 9.778 0 0 1-13.34-3.575zm0 0" data-name="Path 2753" transform="translate(0 -17.989)"/>
        <path id="prefix__Path_2754" d="M55.045 310.549a1.953 1.953 0 0 0-2.668-.715l-3.383 1.953a1.956 1.956 0 0 1-2.668-.715 1.953 1.953 0 1 0-3.383 1.953 5.867 5.867 0 0 0 8 2.145l3.383-1.953a1.953 1.953 0 0 0 .715-2.668zm0 0" data-name="Path 2754" transform="translate(-34.346 -249.109)"/>
        <path id="prefix__Path_2755" d="M448.162 42.728l-10.883 6.056a1.953 1.953 0 1 0 1.9 3.413l10.883-6.056a1.953 1.953 0 0 0-1.9-3.413zm0 0" data-name="Path 2755" transform="translate(-351.065 -34.184)"/>
        <path id="prefix__Path_2756" d="M450.069 138.71l-7.546-2.022a1.953 1.953 0 1 0-1.011 3.773l7.547 2.022a1.953 1.953 0 1 0 1.01-3.773zm0 0" data-name="Path 2756" transform="translate(-354.114 -109.937)"/>
        <path id="prefix__Path_2757" d="M385.583 1.448L383.559 9a1.953 1.953 0 0 0 3.773 1.012l2.023-7.547a1.953 1.953 0 1 0-3.773-1.012zm0 0" data-name="Path 2757" transform="translate(-308.592)"/>
    </g>
</svg>
