<svg xmlns="http://www.w3.org/2000/svg" width="92.646" height="92.656" viewBox="0 0 92.646 92.656">
    <defs>
        <style>
            .prefix__cls-2{fill:#fafafa}
        </style>
    </defs>
    <g id="prefix__discount_1_" data-name="discount (1)" transform="translate(2.066 2.083)">
        <path id="prefix__Path_2739" d="M84.441 44.253l3.883-10.127a2.769 2.769 0 0 0-.841-3.142l-8.418-6.825-1.7-10.713a2.765 2.765 0 0 0-2.3-2.3l-10.713-1.7-6.82-8.424a2.77 2.77 0 0 0-3.14-.839L44.259 4.071 34.132.188A2.758 2.758 0 0 0 31 1.029l-6.829 8.423-10.713 1.7a2.771 2.771 0 0 0-2.3 2.3l-1.7 10.713-8.423 6.825a2.767 2.767 0 0 0-.841 3.136l3.883 10.127L.195 54.38a2.758 2.758 0 0 0 .841 3.136l8.424 6.82 1.7 10.713a2.765 2.765 0 0 0 2.3 2.3l10.713 1.7L31 87.471a2.752 2.752 0 0 0 3.142.841l10.121-3.877 10.127 3.883a2.768 2.768 0 0 0 3.142-.846l6.82-8.418 10.713-1.7a2.771 2.771 0 0 0 2.3-2.3l1.7-10.713 8.418-6.82a2.761 2.761 0 0 0 .841-3.136z" data-name="Path 2739" style="fill:#444584;stroke:#000;stroke-width:4px"/>
        <g id="prefix__Group_399" data-name="Group 399" transform="translate(27.667 22.126)">
            <path id="prefix__Path_2740" d="M168.318 144.628a8.3 8.3 0 1 1 8.3-8.3 8.306 8.306 0 0 1-8.3 8.3zm0-11.062a2.765 2.765 0 1 0 2.765 2.765 2.766 2.766 0 0 0-2.765-2.765z" class="prefix__cls-2" data-name="Path 2740" transform="translate(-160.022 -128.032)"/>
            <path id="prefix__Path_2741" d="M264.318 304.628a8.3 8.3 0 1 1 8.3-8.3 8.306 8.306 0 0 1-8.3 8.3zm0-11.062a2.765 2.765 0 1 0 2.765 2.765 2.774 2.774 0 0 0-2.765-2.765z" class="prefix__cls-2" data-name="Path 2741" transform="translate(-239.429 -260.378)"/>
            <path id="prefix__Path_2742" d="M162.8 172.267a2.765 2.765 0 0 1-2.246-4.375l27.654-38.716a2.766 2.766 0 0 1 4.5 3.213l-27.654 38.716a2.777 2.777 0 0 1-2.254 1.162z" class="prefix__cls-2" data-name="Path 2742" transform="translate(-160.034 -128.017)"/>
        </g>
    </g>
</svg>
