<svg xmlns="http://www.w3.org/2000/svg" width="102.41" height="108" viewBox="0 0 102.41 108">
    <path id="prefix__Path_2266" d="M323.007 87.408a46.647 46.647 0 0 1-.9 9.155q-.138.7-.3 1.387-.095.415-.2.827-.067.268-.138.535a46.693 46.693 0 0 1-24.529 29.932 45.826 45.826 0 0 1-6.083 2.471q-.475.155-.955.3A46.541 46.541 0 0 1 276.415 134q-.983 0-1.937-.045a38.627 38.627 0 0 1-5.137-.57c-20.865-3.77-31.086-24.317-39.517-45.977q-.314-.8-.617-1.6l-.148-.392c-22.426-59.3 1.894-74.305 47.356-44.6 21.542 14.075 46.592 20.861 46.592 46.592z" data-name="Path 2266" transform="translate(-220.597 -26)" style="fill:#444584;opacity:.1"/>
</svg>
