<svg xmlns="http://www.w3.org/2000/svg" width="50" height="50" viewBox="0 0 50 50">
    <defs>
        <style>
            .prefix__cls-1{fill:#444584}
        </style>
    </defs>
    <g id="prefix__complete">
        <path id="prefix__Path_2239" d="M49.166 50H.833A.834.834 0 0 1 0 49.166V.833A.834.834 0 0 1 .833 0h48.333A.834.834 0 0 1 50 .833v48.333a.834.834 0 0 1-.834.834zm-47.5-1.667h46.667V1.666H1.667zm0 0" class="prefix__cls-1" data-name="Path 2239"/>
        <path id="prefix__Path_2240" d="M241.867 90.332H222.7a.834.834 0 0 1-.833-.834v-3.333a.834.834 0 0 1 .833-.834h19.167a.834.834 0 0 1 .833.834V89.5a.834.834 0 0 1-.833.832zm-18.333-1.667h17.5V87h-17.5zm0 0" class="prefix__cls-1" data-name="Path 2240" transform="translate(-200.2 -76.999)"/>
        <path id="prefix__Path_2241" d="M241.867 235.4H222.7a.834.834 0 0 1-.833-.834v-3.333a.834.834 0 0 1 .833-.833h19.167a.834.834 0 0 1 .833.833v3.333a.834.834 0 0 1-.833.834zm-18.333-1.667h17.5v-1.667h-17.5zm0 0" class="prefix__cls-1" data-name="Path 2241" transform="translate(-200.2 -207.899)"/>
        <path id="prefix__Path_2242" d="M241.867 380.465H222.7a.834.834 0 0 1-.833-.833V376.3a.834.834 0 0 1 .833-.834h19.167a.834.834 0 0 1 .833.834v3.333a.834.834 0 0 1-.833.832zm-18.334-1.665h17.5v-1.667h-17.5zm0 0" class="prefix__cls-1" data-name="Path 2242" transform="translate(-200.2 -338.799)"/>
        <path id="prefix__Path_2243" d="M80.133 115.1a.832.832 0 0 1-.589-.244l-2.5-2.5a.833.833 0 0 1 1.178-1.178l2.5 2.5a.833.833 0 0 1-.589 1.423zm0 0" class="prefix__cls-1" data-name="Path 2243" transform="translate(-69.299 -100.099)"/>
        <path id="prefix__Path_2244" d="M103.23 84.3a.833.833 0 0 1-.677-1.318l4.166-5.833a.833.833 0 1 1 1.356.969l-4.167 5.833a.831.831 0 0 1-.678.349zm0 0" class="prefix__cls-1" data-name="Path 2244" transform="translate(-92.397 -69.304)"/>
        <path id="prefix__Path_2245" d="M80.133 260.165a.832.832 0 0 1-.589-.244l-2.5-2.5a.833.833 0 0 1 1.178-1.178l2.5 2.5a.833.833 0 0 1-.589 1.422zm0 0" class="prefix__cls-1" data-name="Path 2245" transform="translate(-69.299 -230.999)"/>
        <path id="prefix__Path_2246" d="M103.23 229.367a.833.833 0 0 1-.677-1.318l4.166-5.833a.833.833 0 1 1 1.356.969l-4.167 5.833a.831.831 0 0 1-.678.349zm0 0" class="prefix__cls-1" data-name="Path 2246" transform="translate(-92.397 -200.201)"/>
        <path id="prefix__Path_2247" d="M80.133 405.231a.832.832 0 0 1-.589-.244l-2.5-2.5a.833.833 0 0 1 1.178-1.178l2.5 2.5a.833.833 0 0 1-.589 1.423zm0 0" class="prefix__cls-1" data-name="Path 2247" transform="translate(-69.299 -361.898)"/>
        <path id="prefix__Path_2248" d="M103.23 374.433a.833.833 0 0 1-.677-1.318l4.166-5.833a.833.833 0 1 1 1.356.969l-4.167 5.833a.831.831 0 0 1-.678.349zm0 0" class="prefix__cls-1" data-name="Path 2248" transform="translate(-92.397 -331.1)"/>
    </g>
</svg>
