<svg xmlns="http://www.w3.org/2000/svg" width="50.001" height="50" viewBox="0 0 50.001 50">
    <defs>
        <style>
            .prefix__cls-1{fill:#38bdba}
        </style>
    </defs>
    <g id="prefix__rupee_3_" data-name="rupee (3)" transform="translate(-9.997 -10)">
        <path id="prefix__Path_2259" d="M35 60a25 25 0 1 0-17.678-7.322A25 25 0 0 0 35 60zM18.182 18.184a23.78 23.78 0 1 1 0 33.631 23.78 23.78 0 0 1 0-33.631z" class="prefix__cls-1" data-name="Path 2259"/>
        <path id="prefix__Path_2260" d="M78.52 98.6a20.077 20.077 0 1 0-14.2-5.88 20.077 20.077 0 0 0 14.2 5.88zM65.186 65.186a18.857 18.857 0 1 1 0 26.668 18.857 18.857 0 0 1 0-26.668z" class="prefix__cls-1" data-name="Path 2260" transform="translate(-43.523 -43.52)"/>
        <path id="prefix__Path_2261" d="M206.314 192.518a.61.61 0 1 0 .847-.877l-6.691-6.46 1.617.017h.058a5.341 5.341 0 0 0 5.291-4.667l2.562.027H210a.61.61 0 0 0 .006-1.22l-2.562-.027a5.292 5.292 0 0 0-1.493-3.178q-.179-.183-.373-.347l4.465.048h.007a.61.61 0 1 0 .006-1.219l-7.859-.084-3.15-.034h-.007a.61.61 0 0 0-.006 1.22l3.15.034a4.116 4.116 0 0 1 4.032 3.548l-7.22-.077a.61.61 0 0 0-.013 1.22l7.219.077a4.121 4.121 0 0 1-4.061 3.461h-.041l-3.15-.034h-.007a.61.61 0 0 0-.423 1.048z" class="prefix__cls-1" data-name="Path 2261" transform="translate(-169.197 -147.78)"/>
    </g>
</svg>
