<svg xmlns="http://www.w3.org/2000/svg" width="50.198" height="50" viewBox="0 0 50.198 50">
    <defs>
        <style>
            .prefix__cls-1{fill:#38bdba}
        </style>
    </defs>
    <g id="prefix__rising" transform="translate(0 -.501)">
        <path id="prefix__Path_2249" d="M9.541 313.416a.735.735 0 0 0 .735-.735v-18.692A2 2 0 0 0 8.282 292H1.994A2 2 0 0 0 0 293.989v18.691a.735.735 0 0 0 .735.735zm-8.07-19.427a.524.524 0 0 1 .524-.523h6.287a.524.524 0 0 1 .524.523v17.956H1.471zm0 0" class="prefix__cls-1" data-name="Path 2249" transform="translate(0 -262.915)"/>
        <path id="prefix__Path_2250" d="M137.724 241.7a2 2 0 0 0-1.994 1.995v23.622a.735.735 0 0 0 .735.735h8.805a.735.735 0 0 0 .735-.735v-23.623a2 2 0 0 0-1.994-1.995zm6.811 1.995v22.887H137.2v-22.888a.525.525 0 0 1 .524-.524h6.287a.524.524 0 0 1 .525.524zm0 0" class="prefix__cls-1" data-name="Path 2250" transform="translate(-122.423 -217.55)"/>
        <path id="prefix__Path_2251" d="M281.733 221.954V193.4a2 2 0 0 0-1.995-1.995h-6.287a2 2 0 0 0-1.995 1.995v28.553a.735.735 0 0 0 .735.735H281a.735.735 0 0 0 .735-.735zm-1.471-.735h-7.335V193.4a.524.524 0 0 1 .524-.524h6.287a.524.524 0 0 1 .524.524v27.818zm0 0" class="prefix__cls-1" data-name="Path 2251" transform="translate(-244.842 -172.188)"/>
        <path id="prefix__Path_2252" d="M407.923 177.327h8.805a.735.735 0 0 0 .735-.735v-33.485a2 2 0 0 0-1.995-1.994h-6.287a2 2 0 0 0-1.994 1.994v33.484a.735.735 0 0 0 .735.735zm.735-34.22a.524.524 0 0 1 .523-.524h6.287a.524.524 0 0 1 .524.524v32.749h-7.335zm0 0" class="prefix__cls-1" data-name="Path 2252" transform="translate(-367.266 -126.826)"/>
        <path id="prefix__Path_2253" d="M134.385 10.746a1.535 1.535 0 0 0 2.716-.391l2.514-7.555a1.535 1.535 0 0 0-1.4-2.018L130.258.5a1.534 1.534 0 0 0-1.315 2.409l.831 1.2a73.214 73.214 0 0 1-28.237 8.954.735.735 0 0 0 .077 1.466.776.776 0 0 0 .079 0 74.248 74.248 0 0 0 29.516-9.554.743.743 0 0 0 .226-1.05l-1.283-1.847a.064.064 0 0 1 .054-.1l7.955.282a.065.065 0 0 1 .059.084l-2.514 7.546a.064.064 0 0 1-.113.016l-1.138-1.638a.735.735 0 0 0-.987-.208 66.332 66.332 0 0 1-8.513 4.321.735.735 0 1 0 .576 1.353 69.451 69.451 0 0 0 8.109-4.062zm0 0" class="prefix__cls-1" data-name="Path 2253" transform="translate(-90.989)"/>
        <path id="prefix__Path_2254" d="M27.287 132.609a.735.735 0 1 0-.1-1.467c-1.6.1-3.2.159-4.775.159a.735.735 0 0 0-.735.735v5.283a.735.735 0 0 0 .735.735 82.08 82.08 0 0 0 28.712-5.294.735.735 0 1 0-.52-1.375 80.679 80.679 0 0 1-27.457 5.2v-3.813c1.368-.014 2.757-.067 4.137-.158zm0 0" class="prefix__cls-1" data-name="Path 2254" transform="translate(-19.554 -117.831)"/>
    </g>
</svg>
