<svg xmlns="http://www.w3.org/2000/svg" id="prefix__wall-clock" width="50" height="50" viewBox="0 0 50 50">
    <defs>
        <style>
            .prefix__cls-1{fill:#444584}
        </style>
    </defs>
    <path id="prefix__Path_2262" d="M42.146 33.236l-9.584-6.253v-15.2a.781.781 0 0 0-1.562 0V27.83l10.291 6.719a.782.782 0 0 0 .855-1.309z" class="prefix__cls-1" data-name="Path 2262" transform="translate(-6.781 -2.406)"/>
    <path id="prefix__Path_2263" d="M25 0a25 25 0 1 0 25 25A25 25 0 0 0 25 0zm17.1 41l-1.48-1.485a.782.782 0 0 0-1.1 1.11L41 42.109a23.345 23.345 0 0 1-15.221 6.309v-2.324a.781.781 0 0 0-1.562 0v2.324A23.345 23.345 0 0 1 9 42.1l1.484-1.484a.782.782 0 0 0-1.11-1.1L7.891 41a23.345 23.345 0 0 1-6.309-15.219h2.324a.781.781 0 0 0 0-1.562H1.582A23.345 23.345 0 0 1 7.9 9l1.48 1.485a.782.782 0 1 0 1.1-1.11L9 7.891a23.345 23.345 0 0 1 15.219-6.309v2.324a.781.781 0 0 0 1.563 0V1.582A23.345 23.345 0 0 1 41 7.9l-1.485 1.48a.782.782 0 1 0 1.11 1.1L42.109 9a23.345 23.345 0 0 1 6.309 15.221h-2.324a.781.781 0 0 0 0 1.563h2.324A23.345 23.345 0 0 1 42.1 41z" class="prefix__cls-1" data-name="Path 2263"/>
</svg>
