<svg xmlns="http://www.w3.org/2000/svg" xmlns:xlink="http://www.w3.org/1999/xlink" width="977" height="599.438" viewBox="0 0 977 599.438">
  <defs>
    <filter id="Rectangle_977" x="2" y="52.438" width="825" height="547" filterUnits="userSpaceOnUse">
      <feOffset dy="8" input="SourceAlpha"/>
      <feGaussianBlur stdDeviation="15" result="blur"/>
      <feFlood flood-opacity="0.161"/>
      <feComposite operator="in" in2="blur"/>
      <feComposite in="SourceGraphic"/>
    </filter>
    <filter id="Rectangle_987" x="513" y="168.438" width="278" height="132" filterUnits="userSpaceOnUse">
      <feOffset input="SourceAlpha"/>
      <feGaussianBlur stdDeviation="5" result="blur-2"/>
      <feFlood flood-opacity="0.161"/>
      <feComposite operator="in" in2="blur-2"/>
      <feComposite in="SourceGraphic"/>
    </filter>
    <linearGradient id="linear-gradient" x1="-13.852" y1="3.512" x2="-13.852" y2="2.512" gradientUnits="objectBoundingBox">
      <stop offset="0" stop-color="gray" stop-opacity="0.251"/>
      <stop offset="0.54" stop-color="gray" stop-opacity="0.122"/>
      <stop offset="1" stop-color="gray" stop-opacity="0.102"/>
    </linearGradient>
    <linearGradient id="linear-gradient-2" x1="-14.487" y1="3.972" x2="-14.487" y2="2.972" xlink:href="#linear-gradient"/>
    <linearGradient id="linear-gradient-3" x1="-15.813" y1="3.547" x2="-15.813" y2="2.547" xlink:href="#linear-gradient"/>
    <linearGradient id="linear-gradient-4" x1="-16.199" y1="3.374" x2="-16.199" y2="2.375" xlink:href="#linear-gradient"/>
    <linearGradient id="linear-gradient-5" x1="0.5" y1="1" x2="0.5" y2="0" xlink:href="#linear-gradient"/>
  </defs>
  <g id="Group_425" data-name="Group 425" transform="translate(-269 -2638.562)">
    <g id="Group_376" data-name="Group 376" transform="translate(23 -40)">
      <circle id="Ellipse_486" data-name="Ellipse 486" cx="31.5" cy="31.5" r="31.5" transform="translate(280 3201)" fill="#444584" opacity="0.3"/>
      <circle id="Ellipse_487" data-name="Ellipse 487" cx="13.5" cy="13.5" r="13.5" transform="translate(249 3187)" fill="#444584" opacity="0.3"/>
    </g>
    <rect id="Rectangle_986" data-name="Rectangle 986" width="97" height="91" transform="translate(269 2694)" fill="#38bdba" opacity="0.3"/>
    <g id="Group_375" data-name="Group 375" transform="translate(-50)">
      <rect id="Rectangle_985" data-name="Rectangle 985" width="553" height="322" transform="matrix(0.799, -0.602, 0.602, 0.799, 617.808, 2971.365)" fill="#d9dae6"/>
      <circle id="Ellipse_484" data-name="Ellipse 484" cx="64" cy="64" r="64" transform="translate(1168 2801)" fill="#fff"/>
      <circle id="Ellipse_485" data-name="Ellipse 485" cx="53" cy="53" r="53" transform="translate(1179 2812)" fill="#d7f2f1"/>
    </g>
    <g transform="matrix(1, 0, 0, 1, 269, 2638.56)" filter="url(#Rectangle_977)">
      <rect id="Rectangle_977-2" data-name="Rectangle 977" width="735" height="457" rx="4" transform="translate(47 89.44)" fill="#e1f5f6"/>
    </g>
    <rect id="Rectangle_978" data-name="Rectangle 978" width="184" height="457" transform="translate(316 2728)" fill="#444584"/>
    <rect id="Rectangle_979" data-name="Rectangle 979" width="513" height="380" rx="4" transform="translate(522 2789)" fill="#fafafa"/>
    <path id="Rectangle_980" data-name="Rectangle 980" d="M4,0H257a0,0,0,0,1,0,0V380a0,0,0,0,1,0,0H4a4,4,0,0,1-4-4V4A4,4,0,0,1,4,0Z" transform="translate(522 2789)" fill="#fff"/>
    <g transform="matrix(1, 0, 0, 1, 269, 2638.56)" filter="url(#Rectangle_987)">
      <rect id="Rectangle_987-2" data-name="Rectangle 987" width="248" height="102" rx="8" transform="translate(528 183.44)" fill="#fff"/>
    </g>
    <path id="Icon_awesome-check-circle" data-name="Icon awesome-check-circle" d="M22.587,11.575A11.012,11.012,0,1,1,11.575.563,11.012,11.012,0,0,1,22.587,11.575ZM10.3,17.406l8.17-8.17a.71.71,0,0,0,0-1l-1-1a.71.71,0,0,0-1,0L9.8,13.889,6.688,10.778a.711.711,0,0,0-1,0l-1,1a.71.71,0,0,0,0,1L9.3,17.406a.71.71,0,0,0,1,0Z" transform="translate(824.863 2838.438)" fill="#38bdba"/>
    <path id="Rectangle_988" data-name="Rectangle 988" d="M8,0h8a0,0,0,0,1,0,0V102a0,0,0,0,1,0,0H8a8,8,0,0,1-8-8V8A8,8,0,0,1,8,0Z" transform="translate(797 2822)" fill="#38bdba"/>
    <text id="Mobile_Development" data-name="Mobile Development" transform="translate(942 2854)" font-size="14" font-family="Montserrat-SemiBold, Montserrat" font-weight="600" letter-spacing="0.05em" opacity="0.8"><tspan x="-81.508" y="0">Mobile Development</tspan></text>
    <rect id="Rectangle_989" data-name="Rectangle 989" width="173" height="12" rx="6" transform="translate(860 2865)" fill="#f5f5f5"/>
    <rect id="Rectangle_990" data-name="Rectangle 990" width="173" height="12" rx="6" transform="translate(860 2882)" fill="#f5f5f5"/>
    <rect id="Rectangle_991" data-name="Rectangle 991" width="61" height="12" rx="6" transform="translate(860 2899)" fill="#f5f5f5"/>
    <path id="Icon_awesome-check-circle-2" data-name="Icon awesome-check-circle" d="M22.587,11.575A11.012,11.012,0,1,1,11.575.563,11.012,11.012,0,0,1,22.587,11.575ZM10.3,17.406l8.17-8.17a.71.71,0,0,0,0-1l-1-1a.71.71,0,0,0-1,0L9.8,13.889,6.688,10.778a.711.711,0,0,0-1,0l-1,1a.71.71,0,0,0,0,1L9.3,17.406a.71.71,0,0,0,1,0Z" transform="translate(824.863 2953.438)" fill="#38bdba"/>
    <text id="Web_Development" data-name="Web Development" transform="translate(933 2969)" font-size="14" font-family="Montserrat-SemiBold, Montserrat" font-weight="600" letter-spacing="0.05em" opacity="0.8"><tspan x="-72.835" y="0">Web Development</tspan></text>
    <path id="Icon_awesome-check-circle-3" data-name="Icon awesome-check-circle" d="M22.587,11.575A11.012,11.012,0,1,1,11.575.563,11.012,11.012,0,0,1,22.587,11.575ZM10.3,17.406l8.17-8.17a.71.71,0,0,0,0-1l-1-1a.71.71,0,0,0-1,0L9.8,13.889,6.688,10.778a.711.711,0,0,0-1,0l-1,1a.71.71,0,0,0,0,1L9.3,17.406a.71.71,0,0,0,1,0Z" transform="translate(824.863 3005.438)" fill="#38bdba"/>
    <text id="Content_Writing" data-name="Content Writing" transform="translate(923 3021)" font-size="14" font-family="Montserrat-SemiBold, Montserrat" font-weight="600" letter-spacing="0.05em" opacity="0.8"><tspan x="-63.42" y="0">Content Writing</tspan></text>
    <path id="Icon_awesome-check-circle-4" data-name="Icon awesome-check-circle" d="M22.587,11.575A11.012,11.012,0,1,1,11.575.563,11.012,11.012,0,0,1,22.587,11.575ZM10.3,17.406l8.17-8.17a.71.71,0,0,0,0-1l-1-1a.71.71,0,0,0-1,0L9.8,13.889,6.688,10.778a.711.711,0,0,0-1,0l-1,1a.71.71,0,0,0,0,1L9.3,17.406a.71.71,0,0,0,1,0Z" transform="translate(824.863 3057.438)" fill="#38bdba"/>
    <text id="Language_Translation" data-name="Language Translation" transform="translate(945 3073)" font-size="14" font-family="Montserrat-SemiBold, Montserrat" font-weight="600" letter-spacing="0.05em" opacity="0.8"><tspan x="-85.239" y="0">Language Translation</tspan></text>
    <path id="Icon_awesome-check-circle-5" data-name="Icon awesome-check-circle" d="M22.587,11.575A11.012,11.012,0,1,1,11.575.563,11.012,11.012,0,0,1,22.587,11.575ZM10.3,17.406l8.17-8.17a.71.71,0,0,0,0-1l-1-1a.71.71,0,0,0-1,0L9.8,13.889,6.688,10.778a.711.711,0,0,0-1,0l-1,1a.71.71,0,0,0,0,1L9.3,17.406a.71.71,0,0,0,1,0Z" transform="translate(824.863 3109.438)" fill="#38bdba"/>
    <text id="Designing" transform="translate(900 3125)" font-size="14" font-family="Montserrat-SemiBold, Montserrat" font-weight="600" letter-spacing="0.05em" opacity="0.8"><tspan x="-39.928" y="0">Designing</tspan></text>
    <g id="undraw_digital_nomad_9kgl" transform="translate(558.538 2905)">
      <ellipse id="Ellipse_500" data-name="Ellipse 500" cx="23.48" cy="5.359" rx="23.48" ry="5.359" transform="translate(65.249 150.474)" fill="#6c63ff" opacity="0.1"/>
      <path id="Path_2336" data-name="Path 2336" d="M174.471,67.923c5.769-5.135,14.825-6.19,23.07-5.779,25.892,1.29,49.26,13.786,69.481,27.924,7.308,5.12,14.525,10.636,19.275,17.683,9.678,14.349,6.8,34.227-6.646,46.048-4.574,4.021-10.121,7.11-15.815,9.838-10.125,4.859-21.049,8.762-32.54,9.876a107.2,107.2,0,0,1-24.636-.958c-22.759-3.085-45.1-9.911-63.826-21.59-8.221-5.125-15.953-11.489-19.339-19.785s-1.219-18.78,7.168-23.684c3.468-2.028,7.614-2.945,11.675-3.8,5.977-1.266,12.048-2.514,17.44-5.09,5.57-2.659,12.167-7.8,11.061-13.684C169.658,78.6,168.709,73.058,174.471,67.923Z" transform="translate(-122.689 -57.186)" fill="#444584" opacity="0.1"/>
      <path id="Path_2337" data-name="Path 2337" d="M267.217,173.97l-3.889,1.505-5.686,2.2c-.215-.4-.531-.944-.922-1.58-1.347-2.232-3.577-5.7-5.56-8.756-2.234-3.447-4.16-6.344-4.16-6.344l1.394-.4,11.375-3.3Z" transform="translate(-223.028 -133.612)" fill="#e6ecf8"/>
      <path id="Path_2338" data-name="Path 2338" d="M272.883,173.914l-3.889,1.505a29.338,29.338,0,0,1-6.609.608c-1.347-2.232-3.577-5.7-5.56-8.756l-2.765-6.743,11.375-3.3Z" transform="translate(-228.693 -133.556)" opacity="0.1"/>
      <path id="Path_2339" data-name="Path 2339" d="M273.552,166.261a27.018,27.018,0,0,1-15.068,2.765l-7.193-17.537,3.449-.593,11.918-2.046,6.759,17.069Z" transform="translate(-226.47 -126.831)" fill="#444584"/>
      <path id="Path_2340" data-name="Path 2340" d="M287.487,165.889a28.446,28.446,0,0,1-4.725-.134,15.083,15.083,0,0,1-5.135-1.442,15.548,15.548,0,0,1-3.358-2.258c-2.506-2.254-4.057-5.479-5.449-11.189l11.918-2.046Z" transform="translate(-240.538 -126.807)" opacity="0.1"/>
      <path id="Path_2341" data-name="Path 2341" d="M288.639,144.157a32.982,32.982,0,0,1-8.989.336,15.128,15.128,0,0,1-5.135-1.442,15.668,15.668,0,0,1-3.358-2.258c-3.1-2.791-4.74-7.067-6.427-15.7a22.839,22.839,0,0,0,14.725-2.129C279.445,122.968,281.914,138.374,288.639,144.157Z" transform="translate(-237.256 -106.055)" fill="#f9fafb"/>
      <path id="Path_2342" data-name="Path 2342" d="M305.763,210.229a15.127,15.127,0,0,1-5.135-1.442,15.666,15.666,0,0,1-3.358-2.258c2.641-.215,3.02-1.659,3.02-1.659A20.33,20.33,0,0,0,305.763,210.229Z" transform="translate(-263.368 -171.786)" opacity="0.1"/>
      <path id="Path_2343" data-name="Path 2343" d="M284.07,143.137s6.022-.34,7.7-1.637l.257.818a23.055,23.055,0,0,1-7.96,1.778Z" transform="translate(-252.776 -120.933)" fill="#6c63ff" opacity="0.3"/>
      <path id="Path_2344" data-name="Path 2344" d="M284.07,160.317a31.428,31.428,0,0,0,10.235-2.447l.15.342s-3.5,2.04-10.385,2.568Z" transform="translate(-252.776 -134.07)" fill="#6c63ff" opacity="0.3"/>
      <path id="Path_2345" data-name="Path 2345" d="M286.44,168.317a31.493,31.493,0,0,0,10.237-2.447l.148.34s-3.5,2.04-10.385,2.568Z" transform="translate(-254.678 -140.49)" fill="#6c63ff" opacity="0.3"/>
      <path id="Path_2346" data-name="Path 2346" d="M288.82,176.307a31.43,31.43,0,0,0,10.235-2.447l.15.342s-3.5,2.04-10.385,2.568Z" transform="translate(-256.588 -146.901)" fill="#6c63ff" opacity="0.3"/>
      <path id="Path_2347" data-name="Path 2347" d="M291.19,184.307a31.493,31.493,0,0,0,10.237-2.447l.148.34s-3.5,2.04-10.385,2.568Z" transform="translate(-258.489 -153.321)" fill="#6c63ff" opacity="0.3"/>
      <path id="Path_2348" data-name="Path 2348" d="M293.57,192.3a31.428,31.428,0,0,0,10.235-2.447l.15.342s-3.5,2.04-10.385,2.568Z" transform="translate(-260.399 -159.733)" fill="#6c63ff" opacity="0.3"/>
      <path id="Path_2349" data-name="Path 2349" d="M957.177,284.363l.117.085.018-.184-.077-.164-.124.02Z" transform="translate(-768.994 -227.986)" fill="#464a5f"/>
      <path id="Path_2350" data-name="Path 2350" d="M957.177,284.363l.117.085.018-.184-.077-.164-.124.02Z" transform="translate(-768.994 -227.986)" opacity="0.1"/>
      <path id="Path_2351" data-name="Path 2351" d="M957,285.43l.115.087-.079.132-.113-.024-.034-.045Z" transform="translate(-768.817 -229.054)" fill="#9c9ca1"/>
      <path id="Path_2352" data-name="Path 2352" d="M957,285.43l.115.087-.079.132-.113-.024-.034-.045Z" transform="translate(-768.817 -229.054)" opacity="0.1"/>
      <path id="Path_2353" data-name="Path 2353" d="M930.3,245.09l-9.263,12.886a1.082,1.082,0,0,0,.243,1.505l19.775,14.334a1.08,1.08,0,0,0,1.505-.237l9.427-12.919Z" transform="translate(-763.771 -204.063)" fill="#9c9ca1"/>
      <path id="Path_2354" data-name="Path 2354" d="M930.3,245.09l-9.263,12.886a1.082,1.082,0,0,0,.243,1.505l19.775,14.334a1.08,1.08,0,0,0,1.505-.237l9.427-12.919Z" transform="translate(-763.771 -204.063)" opacity="0.1"/>
      <path id="Path_2355" data-name="Path 2355" d="M930.122,244l-9.263,12.886a1.08,1.08,0,0,0,.243,1.5L940.87,272.72a1.081,1.081,0,0,0,1.505-.239l9.427-12.917Z" transform="translate(-763.627 -203.188)" fill="#9c9ca1"/>
      <path id="Path_2356" data-name="Path 2356" d="M968,202.622l.245,7.877,21.687,15.568-.205-8.015a1.147,1.147,0,0,0-.486-.911l-20.875-14.715a.229.229,0,0,0-.365.2Z" transform="translate(-801.619 -169.789)" fill="#464a5f"/>
      <path id="Path_2357" data-name="Path 2357" d="M968,202.622l.245,7.877,21.687,15.568-.205-8.015a1.147,1.147,0,0,0-.486-.911l-20.875-14.715a.229.229,0,0,0-.365.2Z" transform="translate(-801.619 -169.789)" opacity="0.1"/>
      <path id="Path_2358" data-name="Path 2358" d="M967.34,203.147l.245,7.883L989.272,226.6l-.211-8.015a1.15,1.15,0,0,0-.488-.911L967.7,202.957a.227.227,0,0,0-.359.19Z" transform="translate(-801.09 -170.217)" fill="#464a5f"/>
      <g id="Group_377" data-name="Group 377" transform="translate(163.276 44.258)" opacity="0.1">
        <path id="Path_2359" data-name="Path 2359" d="M969.33,261.533l-.561.79a.217.217,0,0,0,.049.3l.79.593a.215.215,0,0,0,.3-.043l.567-.743a.215.215,0,0,0-.037-.3l-.806-.636a.215.215,0,0,0-.3.042Z" transform="translate(-965.482 -261.447)"/>
        <path id="Path_2360" data-name="Path 2360" d="M976.73,266.842l-.561.79a.217.217,0,0,0,.049.3l.79.593a.215.215,0,0,0,.3-.043l.567-.743a.215.215,0,0,0-.037-.3l-.8-.634a.215.215,0,0,0-.31.039Z" transform="translate(-971.42 -265.706)"/>
        <path id="Path_2361" data-name="Path 2361" d="M984.5,272.438l-.561.79a.217.217,0,0,0,.049.3l.79.593a.215.215,0,0,0,.3-.043l.567-.743a.217.217,0,0,0-.038-.3l-.806-.634a.215.215,0,0,0-.3.039Z" transform="translate(-977.656 -270.199)"/>
        <path id="Path_2362" data-name="Path 2362" d="M992.358,278.092l-.561.79a.217.217,0,0,0,.047.3l.79.593a.215.215,0,0,0,.3-.043l.567-.743a.217.217,0,0,0-.037-.3l-.806-.634A.215.215,0,0,0,992.358,278.092Z" transform="translate(-983.961 -274.737)"/>
        <path id="Path_2363" data-name="Path 2363" d="M1000.218,283.738l-.561.79a.217.217,0,0,0,.047.3l.79.593a.217.217,0,0,0,.3-.043l.567-.743a.217.217,0,0,0-.037-.3l-.806-.634a.215.215,0,0,0-.3.039Z" transform="translate(-990.268 -279.267)"/>
        <path id="Path_2364" data-name="Path 2364" d="M1007.97,289.033l-.7.988a.1.1,0,0,0,.022.14l.988.723a.1.1,0,0,0,.14-.02l.705-.924a.1.1,0,0,0-.018-.14l-.988-.79a.1.1,0,0,0-.154.024Z" transform="translate(-996.399 -283.546)"/>
        <path id="Path_2365" data-name="Path 2365" d="M1015.83,294.683l-.7.988a.1.1,0,0,0,.022.14l.987.723a.1.1,0,0,0,.14-.02l.705-.924a.1.1,0,0,0-.018-.14l-.988-.79a.1.1,0,0,0-.154.024Z" transform="translate(-1002.707 -288.08)"/>
        <path id="Path_2366" data-name="Path 2366" d="M1022.782,299.674l-.7.988a.1.1,0,0,0,.024.14l.988.723a.1.1,0,0,0,.142-.02l.705-.922a.1.1,0,0,0-.018-.142l-.988-.79a.1.1,0,0,0-.156.024Z" transform="translate(-1008.284 -292.083)"/>
        <path id="Path_2367" data-name="Path 2367" d="M1030.574,305.3l-.7.988a.1.1,0,0,0,.022.14l.988.723a.1.1,0,0,0,.142-.02l.705-.922a.1.1,0,0,0-.018-.142l-.988-.78a.1.1,0,0,0-.156.014Z" transform="translate(-1014.537 -296.602)"/>
        <path id="Path_2368" data-name="Path 2368" d="M1038.1,310.734l-.7.988a.1.1,0,0,0,.024.14l.988.725a.1.1,0,0,0,.14-.022l.705-.922a.1.1,0,0,0-.018-.142l-.988-.78a.1.1,0,0,0-.156.014Z" transform="translate(-1020.578 -300.964)"/>
        <path id="Path_2369" data-name="Path 2369" d="M1045.67,316.154l-.7.988a.1.1,0,0,0,.022.14l.988.723a.1.1,0,0,0,.14-.02l.705-.924a.1.1,0,0,0-.018-.14l-.988-.78a.1.1,0,0,0-.154.014Z" transform="translate(-1026.653 -305.314)"/>
        <path id="Path_2370" data-name="Path 2370" d="M1053.212,321.554l-.7.988a.1.1,0,0,0,.024.14l.988.725a.1.1,0,0,0,.142-.022l.705-.922a.1.1,0,0,0-.018-.142l-.988-.79a.1.1,0,0,0-.156.024Z" transform="translate(-1032.703 -309.642)"/>
        <path id="Path_2371" data-name="Path 2371" d="M964.166,268.715l-.559.79a.217.217,0,0,0,.047.3l.79.593a.219.219,0,0,0,.3-.043l.567-.743a.217.217,0,0,0-.038-.3l-.806-.636a.219.219,0,0,0-.3.041Z" transform="translate(-961.338 -267.212)"/>
        <path id="Path_2372" data-name="Path 2372" d="M952.886,284.417l-.559.79a.217.217,0,0,0,.047.3l.79.593a.219.219,0,0,0,.3-.042l.567-.743a.217.217,0,0,0-.038-.3l-.806-.636A.217.217,0,0,0,952.886,284.417Z" transform="translate(-952.286 -279.812)"/>
        <path id="Path_2373" data-name="Path 2373" d="M971.558,274.036l-.561.79a.217.217,0,0,0,.047.3l.79.593a.219.219,0,0,0,.3-.044l.567-.743a.217.217,0,0,0-.037-.3l-.806-.636A.217.217,0,0,0,971.558,274.036Z" transform="translate(-967.269 -271.481)"/>
        <path id="Path_2374" data-name="Path 2374" d="M979.336,279.657l-.559.79a.217.217,0,0,0,.047.3l.79.593a.219.219,0,0,0,.3-.042l.567-.743a.217.217,0,0,0-.038-.3l-.806-.636A.217.217,0,0,0,979.336,279.657Z" transform="translate(-973.512 -275.993)"/>
        <path id="Path_2375" data-name="Path 2375" d="M987.2,285.277l-.559.79a.217.217,0,0,0,.047.3l.79.593a.219.219,0,0,0,.3-.041l.567-.745a.215.215,0,0,0-.038-.3l-.806-.636A.217.217,0,0,0,987.2,285.277Z" transform="translate(-979.82 -280.503)"/>
        <path id="Path_2376" data-name="Path 2376" d="M960.466,289.487l-.559.79a.217.217,0,0,0,.047.3l.79.593a.219.219,0,0,0,.3-.041l.567-.745a.215.215,0,0,0-.037-.3l-.806-.636A.217.217,0,0,0,960.466,289.487Z" transform="translate(-958.369 -283.881)"/>
        <path id="Path_2377" data-name="Path 2377" d="M968.235,295.065l-.559.79a.217.217,0,0,0,.047.3l.79.593a.219.219,0,0,0,.3-.043l.567-.743a.217.217,0,0,0-.037-.3l-.806-.636a.219.219,0,0,0-.3.042Z" transform="translate(-964.605 -288.357)"/>
        <path id="Path_2378" data-name="Path 2378" d="M976.1,300.712l-.559.79a.217.217,0,0,0,.047.3l.79.593a.219.219,0,0,0,.3-.043l.567-.743a.217.217,0,0,0-.04-.3l-.8-.636A.217.217,0,0,0,976.1,300.712Z" transform="translate(-970.912 -292.888)"/>
        <path id="Path_2379" data-name="Path 2379" d="M995.056,290.875l-.559.79a.217.217,0,0,0,.047.3l.79.593a.219.219,0,0,0,.3-.041l.567-.745a.215.215,0,0,0-.038-.3l-.8-.65a.217.217,0,0,0-.312.053Z" transform="translate(-986.127 -284.984)"/>
        <path id="Path_2380" data-name="Path 2380" d="M1002.916,296.567l-.559.79a.217.217,0,0,0,.047.3l.79.593a.219.219,0,0,0,.3-.042l.567-.745a.215.215,0,0,0-.038-.3l-.806-.636A.217.217,0,0,0,1002.916,296.567Z" transform="translate(-992.435 -289.563)"/>
        <path id="Path_2381" data-name="Path 2381" d="M1010.662,301.854l-.7.988a.1.1,0,0,0,.024.14l.988.723a.1.1,0,0,0,.142-.02l.705-.922a.1.1,0,0,0-.018-.142l-.988-.79a.1.1,0,0,0-.156.024Z" transform="translate(-998.557 -293.833)"/>
        <path id="Path_2382" data-name="Path 2382" d="M1017.62,306.859l-.7.988a.1.1,0,0,0,.024.14l.988.723a.1.1,0,0,0,.14-.02l.705-.922a.1.1,0,0,0-.018-.142l-.988-.79a.1.1,0,0,0-.156.024Z" transform="translate(-1004.143 -297.849)"/>
        <path id="Path_2383" data-name="Path 2383" d="M1025.412,312.484l-.7.988a.1.1,0,0,0,.024.14l.988.723a.1.1,0,0,0,.14-.02l.705-.922a.1.1,0,0,0-.018-.142l-.988-.78a.1.1,0,0,0-.154.014Z" transform="translate(-1010.394 -302.369)"/>
        <path id="Path_2384" data-name="Path 2384" d="M1032.96,317.893l-.7.988a.1.1,0,0,0,.022.14l.988.723a.1.1,0,0,0,.14-.02l.705-.924a.1.1,0,0,0-.018-.14l-.988-.79a.1.1,0,0,0-.154.024Z" transform="translate(-1016.453 -306.705)"/>
        <path id="Path_2385" data-name="Path 2385" d="M973.967,287.053l-.561.79a.217.217,0,0,0,.047.3l.79.593a.217.217,0,0,0,.3-.043l.567-.743a.217.217,0,0,0-.038-.3l-.794-.638a.215.215,0,0,0-.314.043Z" transform="translate(-969.203 -281.921)"/>
        <path id="Path_2386" data-name="Path 2386" d="M981.828,292.738l-.561.79a.217.217,0,0,0,.047.3l.79.593a.217.217,0,0,0,.3-.043l.567-.743a.217.217,0,0,0-.038-.3l-.806-.634a.215.215,0,0,0-.3.039Z" transform="translate(-975.51 -286.49)"/>
        <path id="Path_2387" data-name="Path 2387" d="M989.686,298.387l-.559.79a.217.217,0,0,0,.047.3l.79.593a.217.217,0,0,0,.3-.043l.567-.743a.219.219,0,0,0-.037-.3l-.806-.634A.217.217,0,0,0,989.686,298.387Z" transform="translate(-981.818 -291.023)"/>
        <path id="Path_2388" data-name="Path 2388" d="M997.566,304.037l-.559.79a.217.217,0,0,0,.047.3l.79.593a.217.217,0,0,0,.3-.043l.567-.743a.217.217,0,0,0-.037-.3L997.87,304A.217.217,0,0,0,997.566,304.037Z" transform="translate(-988.141 -295.557)"/>
        <path id="Path_2389" data-name="Path 2389" d="M1005.294,309.349l-.7.988a.1.1,0,0,0,.022.14l.988.723a.1.1,0,0,0,.142-.02l.705-.924a.1.1,0,0,0-.018-.14l-.988-.78a.1.1,0,0,0-.156.014Z" transform="translate(-994.25 -299.852)"/>
        <path id="Path_2390" data-name="Path 2390" d="M1012.252,314.349l-.7.988a.1.1,0,0,0,.024.14l.988.723a.1.1,0,0,0,.142-.02l.7-.922a.1.1,0,0,0-.018-.142l-.988-.78a.1.1,0,0,0-.154.014Z" transform="translate(-999.833 -303.865)"/>
        <path id="Path_2391" data-name="Path 2391" d="M1020.092,319.919l-.7.988a.1.1,0,0,0,.024.14l.987.723a.1.1,0,0,0,.142-.02l.705-.922a.1.1,0,0,0-.018-.142l-.988-.79a.1.1,0,0,0-.156.024Z" transform="translate(-1006.125 -308.329)"/>
        <path id="Path_2392" data-name="Path 2392" d="M1027.589,325.368l-.7.988a.1.1,0,0,0,.022.142l.987.723a.1.1,0,0,0,.14-.02l.705-.924a.1.1,0,0,0-.018-.14l-.988-.79a.1.1,0,0,0-.154.022Z" transform="translate(-1012.143 -312.705)"/>
        <path id="Path_2393" data-name="Path 2393" d="M1040.5,323.333l-.7.988a.1.1,0,0,0,.024.14l.988.723a.1.1,0,0,0,.142-.02l.705-.922a.1.1,0,0,0-.018-.142l-.987-.78a.1.1,0,0,0-.156.014Z" transform="translate(-1022.504 -311.075)"/>
        <path id="Path_2394" data-name="Path 2394" d="M1048.1,328.748l-.7.988a.1.1,0,0,0,.022.142l.988.723a.1.1,0,0,0,.14-.02l.705-.924a.1.1,0,0,0-.018-.14l-.988-.79a.1.1,0,0,0-.154.022Z" transform="translate(-1028.602 -315.418)"/>
        <path id="Path_2395" data-name="Path 2395" d="M1014.344,327.985l-.656.922a.134.134,0,0,0,.032.188l.924.683a.134.134,0,0,0,.2-.026l.664-.869a.134.134,0,0,0-.024-.2l-.934-.739a.136.136,0,0,0-.2.038Z" transform="translate(-1001.541 -314.788)"/>
        <path id="Path_2396" data-name="Path 2396" d="M1021.891,333.41l-.656.924a.134.134,0,0,0,.03.188l.926.683a.138.138,0,0,0,.2-.028l.664-.869a.136.136,0,0,0-.024-.2l-.936-.737a.134.134,0,0,0-.2.036Z" transform="translate(-1007.596 -319.143)"/>
        <path id="Path_2397" data-name="Path 2397" d="M1029.418,338.875l-.656.924a.136.136,0,0,0,.032.2l.926.683a.134.134,0,0,0,.2-.026l.664-.871a.132.132,0,0,0-.024-.188l-.934-.739a.138.138,0,0,0-.206.018Z" transform="translate(-1013.634 -323.538)"/>
        <path id="Path_2398" data-name="Path 2398" d="M1036.949,344.184l-.7.988a.1.1,0,0,0,.024.142l.987.723a.1.1,0,0,0,.14-.02l.705-.924a.1.1,0,0,0-.018-.14l-.988-.79a.1.1,0,0,0-.156.022Z" transform="translate(-1019.654 -327.803)"/>
        <path id="Path_2399" data-name="Path 2399" d="M958.431,276.107l-.593.847a.217.217,0,0,0,.051.3l2.319,1.651a.215.215,0,0,0,.3-.045l.632-.824a.215.215,0,0,0-.047-.308l-2.356-1.675a.215.215,0,0,0-.3.051Z" transform="translate(-956.71 -273.137)"/>
        <path id="Path_2400" data-name="Path 2400" d="M1034.854,330.868l-.729,1.037a.1.1,0,0,0,.024.14l2.506,1.778a.1.1,0,0,0,.14-.022l.77-1.007a.1.1,0,0,0-.022-.144L1035,330.839a.1.1,0,0,0-.142.03Z" transform="translate(-1017.946 -317.119)"/>
        <path id="Path_2401" data-name="Path 2401" d="M983.622,306.082l-.7.964a.1.1,0,0,0,.022.142l5.432,4.006a.1.1,0,0,0,.14-.02l.766-1.005a.1.1,0,0,0-.022-.144l-5.495-3.964a.1.1,0,0,0-.146.022Z" transform="translate(-976.858 -297.231)"/>
      </g>
      <path id="Path_2402" data-name="Path 2402" d="M969.208,260.8l-.561.79a.217.217,0,0,0,.047.3l.79.593a.217.217,0,0,0,.3-.041l.567-.743a.215.215,0,0,0-.037-.3l-.806-.636a.215.215,0,0,0-.3.039Z" transform="translate(-802.107 -216.6)" fill="#464a5f"/>
      <path id="Path_2403" data-name="Path 2403" d="M976.607,266.122l-.561.79a.217.217,0,0,0,.047.3l.79.593a.215.215,0,0,0,.3-.041l.567-.743a.215.215,0,0,0-.037-.3l-.806-.636A.215.215,0,0,0,976.607,266.122Z" transform="translate(-808.045 -220.873)" fill="#464a5f"/>
      <path id="Path_2404" data-name="Path 2404" d="M984.394,271.648l-.557.79a.217.217,0,0,0,.047.3l.79.593a.219.219,0,0,0,.3-.043l.567-.743a.215.215,0,0,0-.037-.3l-.806-.636a.217.217,0,0,0-.306.041Z" transform="translate(-814.297 -225.306)" fill="#464a5f"/>
      <path id="Path_2405" data-name="Path 2405" d="M992.238,277.343l-.561.79a.217.217,0,0,0,.047.3l.79.593a.219.219,0,0,0,.3-.043l.567-.743a.215.215,0,0,0-.038-.3l-.806-.636a.215.215,0,0,0-.3.042Z" transform="translate(-820.588 -229.876)" fill="#464a5f"/>
      <path id="Path_2406" data-name="Path 2406" d="M1000.1,283l-.559.79a.218.218,0,0,0,.047.3l.79.593a.219.219,0,0,0,.3-.043l.567-.743a.217.217,0,0,0-.037-.3l-.806-.636A.219.219,0,0,0,1000.1,283Z" transform="translate(-826.896 -234.413)" fill="#464a5f"/>
      <path id="Path_2407" data-name="Path 2407" d="M1007.847,288.289l-.7.988a.1.1,0,0,0,.022.14l.988.723a.1.1,0,0,0,.142-.02l.705-.924a.1.1,0,0,0-.018-.14l-.988-.79a.1.1,0,0,0-.156.024Z" transform="translate(-833.024 -238.689)" fill="#464a5f"/>
      <path id="Path_2408" data-name="Path 2408" d="M1015.7,293.944l-.7.988a.1.1,0,0,0,.022.142l.988.723a.1.1,0,0,0,.142-.02l.705-.924a.1.1,0,0,0-.018-.14l-.987-.79a.1.1,0,0,0-.156.022Z" transform="translate(-839.327 -243.228)" fill="#464a5f"/>
      <path id="Path_2409" data-name="Path 2409" d="M1022.662,298.934l-.7.988a.1.1,0,0,0,.024.14l.988.723a.1.1,0,0,0,.142-.02l.705-.924a.1.1,0,0,0-.018-.14l-.988-.79a.1.1,0,0,0-.156.024Z" transform="translate(-844.911 -247.231)" fill="#464a5f"/>
      <path id="Path_2410" data-name="Path 2410" d="M1030.452,304.539l-.7.988a.1.1,0,0,0,.024.14l.988.723a.1.1,0,0,0,.142-.02l.705-.924a.1.1,0,0,0-.018-.14l-.988-.79a.1.1,0,0,0-.156.024Z" transform="translate(-851.163 -251.729)" fill="#464a5f"/>
      <path id="Path_2411" data-name="Path 2411" d="M1038,309.988l-.7.988a.1.1,0,0,0,.022.14l.988.723a.1.1,0,0,0,.14-.02l.705-.922a.1.1,0,0,0-.018-.142l-.988-.78a.1.1,0,0,0-.154.014Z" transform="translate(-857.222 -256.108)" fill="#464a5f"/>
      <path id="Path_2412" data-name="Path 2412" d="M1045.544,315.389l-.7.988a.1.1,0,0,0,.021.14l.988.723a.1.1,0,0,0,.142-.02l.705-.924a.1.1,0,0,0-.018-.14l-.988-.79a.1.1,0,0,0-.083-.025A.1.1,0,0,0,1045.544,315.389Z" transform="translate(-863.274 -260.436)" fill="#464a5f"/>
      <path id="Path_2413" data-name="Path 2413" d="M1053.092,320.824l-.7.988a.1.1,0,0,0,.024.14l.988.723a.1.1,0,0,0,.14-.02l.7-.922a.1.1,0,0,0,.021-.075.1.1,0,0,0-.039-.067l-.988-.78a.1.1,0,0,0-.154.014Z" transform="translate(-869.331 -264.803)" fill="#464a5f"/>
      <path id="Path_2414" data-name="Path 2414" d="M964.046,267.975l-.559.79a.217.217,0,0,0,.047.3l.79.593a.219.219,0,0,0,.3-.043l.567-.743a.217.217,0,0,0-.038-.3l-.806-.636A.219.219,0,0,0,964.046,267.975Z" transform="translate(-797.966 -222.359)" fill="#464a5f"/>
      <path id="Path_2415" data-name="Path 2415" d="M952.763,283.657l-.561.79a.219.219,0,0,0,.049.3l.79.593a.215.215,0,0,0,.3-.041l.569-.745a.215.215,0,0,0-.04-.3l-.8-.636A.217.217,0,0,0,952.763,283.657Z" transform="translate(-788.912 -234.944)" fill="#464a5f"/>
      <path id="Path_2416" data-name="Path 2416" d="M971.446,273.3l-.559.79a.217.217,0,0,0,.047.3l.79.593a.219.219,0,0,0,.3-.043l.567-.743a.217.217,0,0,0-.038-.3l-.806-.636A.219.219,0,0,0,971.446,273.3Z" transform="translate(-803.904 -226.629)" fill="#464a5f"/>
      <path id="Path_2417" data-name="Path 2417" d="M979.216,278.851l-.559.79a.217.217,0,0,0,.047.3l.79.593a.217.217,0,0,0,.3-.043l.567-.743a.219.219,0,0,0-.037-.3l-.8-.638a.217.217,0,0,0-.312.043Z" transform="translate(-810.14 -231.082)" fill="#464a5f"/>
      <path id="Path_2418" data-name="Path 2418" d="M987.076,284.527l-.559.79a.217.217,0,0,0,.047.3l.79.593a.217.217,0,0,0,.3-.043l.567-.743a.219.219,0,0,0-.038-.3l-.806-.634A.217.217,0,0,0,987.076,284.527Z" transform="translate(-816.447 -235.642)" fill="#464a5f"/>
      <path id="Path_2419" data-name="Path 2419" d="M960.346,288.737l-.559.79a.218.218,0,0,0,.047.3l.79.593a.217.217,0,0,0,.3-.043l.567-.743a.217.217,0,0,0-.04-.3l-.8-.634A.217.217,0,0,0,960.346,288.737Z" transform="translate(-794.997 -239.021)" fill="#464a5f"/>
      <path id="Path_2420" data-name="Path 2420" d="M968.116,294.317l-.559.79a.215.215,0,0,0,.047.3l.79.593a.217.217,0,0,0,.3-.043l.569-.743a.217.217,0,0,0-.04-.3l-.8-.636A.217.217,0,0,0,968.116,294.317Z" transform="translate(-801.233 -243.497)" fill="#464a5f"/>
      <path id="Path_2421" data-name="Path 2421" d="M975.974,299.942l-.561.79a.217.217,0,0,0,.049.3l.79.593a.217.217,0,0,0,.3-.043l.569-.743a.217.217,0,0,0-.039-.3l-.794-.638a.217.217,0,0,0-.314.045Z" transform="translate(-807.538 -248.006)" fill="#464a5f"/>
      <path id="Path_2422" data-name="Path 2422" d="M994.936,290.13l-.559.79a.217.217,0,0,0,.047.3l.79.593a.217.217,0,0,0,.3-.043l.567-.743a.217.217,0,0,0-.039-.3l-.786-.638a.217.217,0,0,0-.322.043Z" transform="translate(-822.755 -240.129)" fill="#464a5f"/>
      <path id="Path_2423" data-name="Path 2423" d="M1002.8,295.827l-.559.79a.217.217,0,0,0,.047.3l.79.593a.215.215,0,0,0,.3-.043l.569-.743a.217.217,0,0,0-.04-.3l-.8-.634A.217.217,0,0,0,1002.8,295.827Z" transform="translate(-829.062 -244.711)" fill="#464a5f"/>
      <path id="Path_2424" data-name="Path 2424" d="M1010.542,301.139l-.7.988a.1.1,0,0,0,.024.14l.988.723a.1.1,0,0,0,.142-.02l.705-.924a.1.1,0,0,0-.02-.14l-.988-.78a.1.1,0,0,0-.154.014Z" transform="translate(-835.185 -249.006)" fill="#464a5f"/>
      <path id="Path_2425" data-name="Path 2425" d="M1017.5,306.144l-.7.988a.1.1,0,0,0,.022.14l.988.723a.1.1,0,0,0,.14-.02l.705-.922a.1.1,0,0,0-.018-.142l-.987-.78a.1.1,0,0,0-.154.014Z" transform="translate(-840.771 -253.023)" fill="#464a5f"/>
      <path id="Path_2426" data-name="Path 2426" d="M1025.29,311.744l-.7.988a.1.1,0,0,0,.022.14l.988.723a.1.1,0,0,0,.14-.02l.705-.922a.1.1,0,0,0-.018-.142l-.988-.78a.1.1,0,0,0-.154.014Z" transform="translate(-847.022 -257.517)" fill="#464a5f"/>
      <path id="Path_2427" data-name="Path 2427" d="M1032.837,317.178l-.7.988a.1.1,0,0,0,.022.14l.987.725a.1.1,0,0,0,.14-.02l.705-.924a.1.1,0,0,0-.018-.142l-.987-.78a.1.1,0,0,0-.154.014Z" transform="translate(-853.078 -261.878)" fill="#464a5f"/>
      <path id="Path_2428" data-name="Path 2428" d="M973.846,286.347l-.559.79a.217.217,0,0,0,.047.3l.79.593a.217.217,0,0,0,.3-.043l.567-.743a.217.217,0,0,0-.037-.3l-.806-.634A.217.217,0,0,0,973.846,286.347Z" transform="translate(-805.83 -237.103)" fill="#464a5f"/>
      <path id="Path_2429" data-name="Path 2429" d="M981.706,292l-.559.79a.217.217,0,0,0,.047.3l.79.593a.217.217,0,0,0,.3-.043l.567-.743a.217.217,0,0,0-.037-.3l-.806-.634A.217.217,0,0,0,981.706,292Z" transform="translate(-812.138 -241.637)" fill="#464a5f"/>
      <path id="Path_2430" data-name="Path 2430" d="M989.565,297.655l-.559.79a.218.218,0,0,0,.047.3l.79.593a.219.219,0,0,0,.3-.043l.567-.743a.217.217,0,0,0-.037-.3l-.806-.636A.219.219,0,0,0,989.565,297.655Z" transform="translate(-818.446 -246.177)" fill="#464a5f"/>
      <path id="Path_2431" data-name="Path 2431" d="M997.426,303.3l-.559.79a.217.217,0,0,0,.047.3l.79.593a.219.219,0,0,0,.3-.043l.567-.743a.217.217,0,0,0-.037-.3l-.806-.636A.219.219,0,0,0,997.426,303.3Z" transform="translate(-824.753 -250.703)" fill="#464a5f"/>
      <path id="Path_2432" data-name="Path 2432" d="M1005.172,308.589l-.7.988a.1.1,0,0,0,.024.14l.988.723a.1.1,0,0,0,.142-.02l.705-.924a.1.1,0,0,0-.018-.14l-.988-.79a.1.1,0,0,0-.156.024Z" transform="translate(-830.876 -254.98)" fill="#464a5f"/>
      <path id="Path_2433" data-name="Path 2433" d="M1012.1,313.589l-.7.988a.1.1,0,0,0,.024.14l.988.723a.1.1,0,0,0,.14-.02l.705-.924a.1.1,0,0,0-.018-.14l-.988-.79a.1.1,0,0,0-.156.024Z" transform="translate(-836.437 -258.992)" fill="#464a5f"/>
      <path id="Path_2434" data-name="Path 2434" d="M1019.922,319.189l-.7.988a.1.1,0,0,0,.024.14l.988.723a.1.1,0,0,0,.14-.02l.705-.924a.1.1,0,0,0-.018-.14l-.988-.79a.1.1,0,0,0-.154.024Z" transform="translate(-842.713 -263.486)" fill="#464a5f"/>
      <path id="Path_2435" data-name="Path 2435" d="M1027.47,324.623l-.7.988a.1.1,0,0,0,.022.14l.988.725a.1.1,0,0,0,.14-.022l.705-.922a.1.1,0,0,0-.018-.142l-.988-.79a.1.1,0,0,0-.154.024Z" transform="translate(-848.771 -267.848)" fill="#464a5f"/>
      <path id="Path_2436" data-name="Path 2436" d="M1040.382,322.584l-.7.988a.1.1,0,0,0,.024.14l.988.723a.1.1,0,0,0,.142-.02l.7-.922a.1.1,0,0,0-.018-.142l-.988-.78a.1.1,0,0,0-.156.014Z" transform="translate(-859.131 -266.214)" fill="#464a5f"/>
      <path id="Path_2437" data-name="Path 2437" d="M1047.93,328l-.7.988a.1.1,0,0,0,.022.14l.988.725a.1.1,0,0,0,.14-.022l.705-.922a.1.1,0,0,0-.018-.142l-.988-.79a.1.1,0,0,0-.154.024Z" transform="translate(-865.19 -270.56)" fill="#464a5f"/>
      <path id="Path_2438" data-name="Path 2438" d="M1014.231,327.244l-.656.924a.134.134,0,0,0,.03.188l.926.683a.138.138,0,0,0,.2-.028l.664-.869a.136.136,0,0,0-.024-.2l-.934-.737a.138.138,0,0,0-.2.036Z" transform="translate(-838.173 -269.937)" fill="#464a5f"/>
      <path id="Path_2439" data-name="Path 2439" d="M1021.756,332.686l-.654.922a.138.138,0,0,0,.03.2l.926.683a.134.134,0,0,0,.2-.028l.666-.869a.136.136,0,0,0-.026-.2l-.934-.737a.136.136,0,0,0-.205.028Z" transform="translate(-844.211 -274.307)" fill="#464a5f"/>
      <path id="Path_2440" data-name="Path 2440" d="M1029.317,338.094l-.656.924a.136.136,0,0,0,.032.188l.924.683a.136.136,0,0,0,.2-.028l.664-.869a.134.134,0,0,0-.024-.2l-.934-.737a.138.138,0,0,0-.2.036Z" transform="translate(-850.281 -278.644)" fill="#464a5f"/>
      <path id="Path_2441" data-name="Path 2441" d="M1036.83,343.443l-.7.988a.1.1,0,0,0,.022.14l.987.725a.1.1,0,0,0,.14-.022l.705-.922a.1.1,0,0,0-.018-.142l-.988-.79a.1.1,0,0,0-.154.024Z" transform="translate(-856.283 -282.951)" fill="#464a5f"/>
      <path id="Path_2442" data-name="Path 2442" d="M958.261,275.362l-.593.847a.217.217,0,0,0,.051.3l2.321,1.651a.217.217,0,0,0,.3-.045l.632-.824a.215.215,0,0,0-.047-.308l-2.356-1.675a.217.217,0,0,0-.306.051Z" transform="translate(-793.297 -228.281)" fill="#464a5f"/>
      <path id="Path_2443" data-name="Path 2443" d="M1034.734,330.128l-.729,1.037a.1.1,0,0,0,.024.14l2.506,1.778a.1.1,0,0,0,.138-.022l.772-1.007a.1.1,0,0,0-.022-.144l-2.548-1.811a.1.1,0,0,0-.142.03Z" transform="translate(-854.573 -272.267)" fill="#464a5f"/>
      <path id="Path_2444" data-name="Path 2444" d="M983.485,305.35l-.7.964a.1.1,0,0,0,.022.142l5.432,4.006a.1.1,0,0,0,.14-.022l.766-1.005a.1.1,0,0,0-.022-.144l-5.495-3.962a.1.1,0,0,0-.142.022Z" transform="translate(-813.469 -252.387)" fill="#464a5f"/>
      <path id="Path_2445" data-name="Path 2445" d="M957.377,310.211l-3.073,4.252a.551.551,0,0,0,.119.766l7.932,5.864a.553.553,0,0,0,.774-.118l3.172-4.345a.551.551,0,0,0-.122-.774l-8.031-5.777A.553.553,0,0,0,957.377,310.211Z" transform="translate(-790.545 -256.134)" opacity="0.1"/>
      <path id="Path_2446" data-name="Path 2446" d="M957.254,309.471l-3.075,4.25a.555.555,0,0,0,.121.768l7.932,5.864a.553.553,0,0,0,.774-.119l3.172-4.345a.553.553,0,0,0-.125-.774l-8.029-5.777A.553.553,0,0,0,957.254,309.471Z" transform="translate(-790.446 -255.54)" fill="#939498"/>
      <path id="Path_2447" data-name="Path 2447" d="M972.18,209.646l.132,6.65,20.034,14.353-.178-6.587a1.154,1.154,0,0,0-.47-.9l-19.159-13.7a.229.229,0,0,0-.359.192Z" transform="translate(-804.974 -175.433)" fill="#444584"/>
      <rect id="Rectangle_1033" data-name="Rectangle 1033" width="12.056" height="17.926" rx="2.91" transform="translate(-1.154 70.02) rotate(-35.68)" fill="#3a3768"/>
      <rect id="Rectangle_1034" data-name="Rectangle 1034" width="9.998" height="3.524" rx="0.18" transform="translate(0.64 70.629) rotate(-35.68)" opacity="0.1"/>
      <rect id="Rectangle_1035" data-name="Rectangle 1035" width="9.848" height="3.409" rx="1.705" transform="translate(0.732 70.645) rotate(-35.68)" fill="#e6e8ec"/>
      <rect id="Rectangle_1036" data-name="Rectangle 1036" width="1.989" height="2.21" rx="0.994" transform="translate(3.835 74.48) rotate(-35.68)" opacity="0.1"/>
      <rect id="Rectangle_1037" data-name="Rectangle 1037" width="1.981" height="2.202" rx="0.991" transform="translate(5.478 72.983) rotate(-35.605)" opacity="0.1"/>
      <rect id="Rectangle_1038" data-name="Rectangle 1038" width="1.989" height="2.21" rx="0.994" transform="translate(7.783 71.645) rotate(-35.68)" opacity="0.1"/>
      <rect id="Rectangle_1039" data-name="Rectangle 1039" width="1.989" height="2.21" rx="0.994" transform="translate(9.785 70.267) rotate(-35.68)" opacity="0.1"/>
      <rect id="Rectangle_1040" data-name="Rectangle 1040" width="1.989" height="2.21" rx="0.994" transform="translate(5.251 76.456) rotate(-35.68)" opacity="0.1"/>
      <rect id="Rectangle_1041" data-name="Rectangle 1041" width="1.989" height="2.21" rx="0.994" transform="translate(7.227 75.036) rotate(-35.68)" opacity="0.1"/>
      <rect id="Rectangle_1042" data-name="Rectangle 1042" width="1.989" height="2.21" rx="0.994" transform="translate(9.199 73.619) rotate(-35.68)" opacity="0.1"/>
      <rect id="Rectangle_1043" data-name="Rectangle 1043" width="1.989" height="2.21" rx="0.994" transform="translate(6.818 78.633) rotate(-35.68)" opacity="0.1"/>
      <rect id="Rectangle_1044" data-name="Rectangle 1044" width="1.989" height="2.21" rx="0.994" transform="translate(8.791 77.215) rotate(-35.68)" opacity="0.1"/>
      <rect id="Rectangle_1045" data-name="Rectangle 1045" width="1.989" height="2.21" rx="0.994" transform="translate(10.766 75.8) rotate(-35.68)" opacity="0.1"/>
      <rect id="Rectangle_1046" data-name="Rectangle 1046" width="1.989" height="2.21" rx="0.994" transform="translate(12.33 77.978) rotate(-35.68)" opacity="0.1"/>
      <rect id="Rectangle_1047" data-name="Rectangle 1047" width="1.989" height="2.21" rx="0.91" transform="translate(11.201 72.239) rotate(-35.68)" opacity="0.1"/>
      <rect id="Rectangle_1048" data-name="Rectangle 1048" width="4.418" height="2.21" rx="1.105" transform="translate(8.38 80.812) rotate(-35.68)" opacity="0.1"/>
      <rect id="Rectangle_1049" data-name="Rectangle 1049" width="2.179" height="4.892" rx="1.089" transform="translate(12.584 74.491) rotate(-35.68)" opacity="0.1"/>
      <rect id="Rectangle_1050" data-name="Rectangle 1050" width="0.871" height="0.095" transform="translate(9.306 67.955) rotate(-35.68)" fill="#6c63ff"/>
      <rect id="Rectangle_1051" data-name="Rectangle 1051" width="0.871" height="0.095" transform="translate(8.271 68.698) rotate(-35.68)" fill="#6c63ff"/>
      <rect id="Rectangle_1052" data-name="Rectangle 1052" width="0.871" height="0.095" transform="translate(7.235 69.44) rotate(-35.68)" fill="#6c63ff"/>
      <rect id="Rectangle_1053" data-name="Rectangle 1053" width="0.871" height="0.095" transform="translate(6.2 70.185) rotate(-35.68)" fill="#6c63ff"/>
      <g id="Group_379" data-name="Group 379" transform="translate(110.936 13.407)" opacity="0.1">
        <path id="Path_2448" data-name="Path 2448" d="M700.269,105.25H687.934a.646.646,0,0,0-.644.644v7.8a.648.648,0,0,0,.644.646h9.678s.251,1.329-.573,1.473c0,0,1.845.132,1.523-1.473h1.706a.648.648,0,0,0,.646-.646v-7.8A.648.648,0,0,0,700.269,105.25Z" transform="translate(-687.29 -105.25)"/>
        <g id="Group_378" data-name="Group 378" transform="translate(1.817 2.068)" opacity="0.2">
          <rect id="Rectangle_1054" data-name="Rectangle 1054" width="9.99" height="0.608" rx="0.304"/>
          <rect id="Rectangle_1055" data-name="Rectangle 1055" width="9.99" height="0.608" rx="0.304" transform="translate(0 2.722)"/>
          <rect id="Rectangle_1056" data-name="Rectangle 1056" width="8.379" height="0.608" rx="0.304" transform="translate(0 4.083)"/>
          <rect id="Rectangle_1057" data-name="Rectangle 1057" width="4.331" height="0.608" rx="0.304" transform="translate(0 1.361)"/>
        </g>
      </g>
      <path id="Path_2449" data-name="Path 2449" d="M700.808,105H688.476a.646.646,0,0,0-.646.644v7.792a.646.646,0,0,0,.646.65h9.678s.251,1.331-.573,1.473c0,0,1.843.132,1.521-1.473h1.71a.646.646,0,0,0,.644-.644v-7.8A.646.646,0,0,0,700.808,105Z" transform="translate(-576.787 -91.642)" fill="#f9fafb"/>
      <g id="Group_380" data-name="Group 380" transform="translate(112.859 15.422)" opacity="0.2">
        <rect id="Rectangle_1058" data-name="Rectangle 1058" width="9.99" height="0.608" rx="0.304" fill="#6c63ff"/>
        <rect id="Rectangle_1059" data-name="Rectangle 1059" width="9.99" height="0.608" rx="0.304" transform="translate(0 2.722)" fill="#6c63ff"/>
        <rect id="Rectangle_1060" data-name="Rectangle 1060" width="8.379" height="0.608" rx="0.304" transform="translate(0 4.081)" fill="#6c63ff"/>
        <rect id="Rectangle_1061" data-name="Rectangle 1061" width="4.331" height="0.608" rx="0.304" transform="translate(0 1.361)" fill="#6c63ff"/>
      </g>
      <g id="Group_382" data-name="Group 382" transform="translate(120.213 0.124)" opacity="0.1">
        <path id="Path_2450" data-name="Path 2450" d="M749.867,38H735.034a.776.776,0,0,0-.774.79v9.362a.776.776,0,0,0,.774.776h11.637s.3,1.6-.689,1.778c0,0,2.218.158,1.829-1.778h2.056a.778.778,0,0,0,.776-.776V38.79a.776.776,0,0,0-.776-.79Z" transform="translate(-734.259 -38)"/>
        <g id="Group_381" data-name="Group 381" transform="translate(2.185 2.493)" opacity="0.2">
          <rect id="Rectangle_1062" data-name="Rectangle 1062" width="12.017" height="0.733" rx="0.366"/>
          <rect id="Rectangle_1063" data-name="Rectangle 1063" width="9.915" height="0.733" rx="0.366" transform="translate(0 3.273)"/>
          <rect id="Rectangle_1064" data-name="Rectangle 1064" width="7.138" height="0.733" rx="0.366" transform="translate(0 1.637)"/>
        </g>
      </g>
      <path id="Path_2451" data-name="Path 2451" d="M750.848,37.37H736.014a.776.776,0,0,0-.774.776v9.372a.776.776,0,0,0,.774.774h11.638s.3,1.6-.689,1.778c0,0,2.218.16,1.831-1.778h2.054a.778.778,0,0,0,.776-.774V38.146A.778.778,0,0,0,750.848,37.37Z" transform="translate(-614.833 -37.37)" fill="#f9fafb"/>
      <g id="Group_383" data-name="Group 383" transform="translate(122.591 2.489)" opacity="0.2">
        <rect id="Rectangle_1065" data-name="Rectangle 1065" width="12.017" height="0.733" rx="0.366" fill="#6c63ff"/>
        <rect id="Rectangle_1066" data-name="Rectangle 1066" width="9.915" height="0.733" rx="0.366" transform="translate(0 3.273)" fill="#6c63ff"/>
        <rect id="Rectangle_1067" data-name="Rectangle 1067" width="7.138" height="0.733" rx="0.366" transform="translate(0 1.635)" fill="#6c63ff"/>
      </g>
      <path id="Path_2452" data-name="Path 2452" d="M314.739,532.9l13.4-5.005a1.272,1.272,0,0,1,1.639.749h0a1.274,1.274,0,0,1-.747,1.639l-13.4,5.005L312.76,535Z" transform="translate(-275.799 -430.941)" fill="#be8b87"/>
      <path id="Path_2453" data-name="Path 2453" d="M329.371,529.045h0a1.276,1.276,0,0,1-.747,1.641l-13.4,5.005-2.155-.217-.312.33,2.872.288,13.4-5.005a1.274,1.274,0,0,0,.747-1.639h0a1.27,1.27,0,0,0-.521-.638A1.246,1.246,0,0,1,329.371,529.045Z" transform="translate(-275.799 -431.744)" fill="#fff" opacity="0.1"/>
      <path id="Path_2454" data-name="Path 2454" d="M193.809,516.19l.893,2.388-2.356-.237-.516-.051.7-.747Z" transform="translate(-154.867 -414.236)" fill="#efc8c4"/>
      <path id="Path_2455" data-name="Path 2455" d="M313.465,560.41a.519.519,0,0,1,.136.15.215.215,0,0,1,0,.233.549.549,0,0,1-.128.093.431.431,0,0,0-.2.322l-.516-.051Z" transform="translate(-275.799 -457.102)" fill="#727a9c"/>
      <g id="Group_384" data-name="Group 384" transform="translate(120.471 91.097)" opacity="0.5">
        <rect id="Rectangle_1068" data-name="Rectangle 1068" width="4.404" height="14.403" transform="translate(0 1.099) rotate(-14.452)" fill="url(#linear-gradient)"/>
      </g>
      <rect id="Rectangle_1069" data-name="Rectangle 1069" width="4.186" height="14.21" transform="translate(120.632 92.255) rotate(-14.452)" fill="#f9fafb"/>
      <rect id="Rectangle_1070" data-name="Rectangle 1070" width="2.96" height="2.96" transform="translate(121.284 92.318) rotate(-14.452)" fill="#f7b643"/>
      <rect id="Rectangle_1071" data-name="Rectangle 1071" width="2.955" height="2.955" transform="translate(122.065 95.213) rotate(-14.61)" fill="#f7b643" opacity="0.5"/>
      <rect id="Rectangle_1072" data-name="Rectangle 1072" width="2.955" height="2.955" transform="translate(122.965 98.665) rotate(-14.61)" fill="#f7b643" opacity="0.3"/>
      <g id="Group_385" data-name="Group 385" transform="translate(116.61 92.527)" opacity="0.5">
        <rect id="Rectangle_1073" data-name="Rectangle 1073" width="4.397" height="14.326" transform="translate(0 2.391) rotate(-32.95)" fill="url(#linear-gradient-2)"/>
      </g>
      <rect id="Rectangle_1074" data-name="Rectangle 1074" width="4.179" height="14.132" transform="translate(116.781 94.92) rotate(-32.95)" fill="#f9fafb"/>
      <rect id="Rectangle_1075" data-name="Rectangle 1075" width="2.955" height="2.955" transform="translate(117.422 94.777) rotate(-32.95)" fill="#f97878"/>
      <rect id="Rectangle_1076" data-name="Rectangle 1076" width="2.955" height="2.955" transform="translate(119.363 97.769) rotate(-32.95)" fill="#f97878" opacity="0.5"/>
      <rect id="Rectangle_1077" data-name="Rectangle 1077" width="2.955" height="2.955" transform="translate(121.304 100.763) rotate(-32.95)" fill="#f97878" opacity="0.3"/>
      <g id="Group_386" data-name="Group 386" transform="translate(114.915 94.136)" opacity="0.5">
        <rect id="Rectangle_1078" data-name="Rectangle 1078" width="4.397" height="14.326" transform="translate(0 3.09) rotate(-44.65)" fill="url(#linear-gradient-3)"/>
      </g>
      <rect id="Rectangle_1079" data-name="Rectangle 1079" width="4.179" height="14.132" transform="translate(115.087 97.192) rotate(-44.65)" fill="#f9fafb"/>
      <rect id="Rectangle_1080" data-name="Rectangle 1080" width="2.955" height="2.955" transform="translate(115.684 96.925) rotate(-44.65)" fill="#73b53b"/>
      <rect id="Rectangle_1081" data-name="Rectangle 1081" width="2.955" height="2.955" transform="translate(118.19 99.462) rotate(-44.65)" fill="#73b53b" opacity="0.5"/>
      <rect id="Rectangle_1082" data-name="Rectangle 1082" width="2.955" height="2.955" transform="translate(120.695 102) rotate(-44.65)" fill="#73b53b" opacity="0.3"/>
      <g id="Group_387" data-name="Group 387" transform="translate(114.132 95.592)" opacity="0.5">
        <rect id="Rectangle_1083" data-name="Rectangle 1083" width="4.397" height="14.326" transform="translate(0 3.458) rotate(-51.85)" fill="url(#linear-gradient-4)"/>
      </g>
      <rect id="Rectangle_1084" data-name="Rectangle 1084" width="4.179" height="14.132" transform="translate(114.295 98.994) rotate(-51.85)" fill="#fff"/>
      <rect id="Rectangle_1085" data-name="Rectangle 1085" width="2.955" height="2.955" transform="translate(114.854 98.654) rotate(-51.85)" fill="#6c63ff"/>
      <rect id="Rectangle_1086" data-name="Rectangle 1086" width="2.955" height="2.955" transform="translate(117.658 100.857) rotate(-51.85)" fill="#6c63ff" opacity="0.5"/>
      <rect id="Rectangle_1087" data-name="Rectangle 1087" width="2.955" height="2.955" transform="translate(120.466 103.059) rotate(-51.85)" fill="#6c63ff" opacity="0.3"/>
      <path id="Path_2456" data-name="Path 2456" d="M927.7,597.474a3.05,3.05,0,1,0,1.487,4.051A3.05,3.05,0,0,0,927.7,597.474Zm-2.076,4.484a1.888,1.888,0,1,1,1.445.06A1.89,1.89,0,0,1,925.622,601.957Z" transform="translate(-765.804 -486.619)" fill="#f0cbc6"/>
      <path id="Path_2457" data-name="Path 2457" d="M898.263,559l-5.675,3.992a2.778,2.778,0,0,0-1.2,2.273c0,1.434.654,3.587,3.782,5.53a2.831,2.831,0,0,0,3.063-.049l5.53-3.7Z" transform="translate(-740.142 -455.971)" fill="#f0cbc6"/>
      <path id="Path_2458" data-name="Path 2458" d="M930.473,566.105c-.911.756-3.069-.352-4.825-2.473s-2.443-4.45-1.533-5.2,3.073.354,4.829,2.473c.111.136.221.273.322.409l.115.156a8.138,8.138,0,0,1,1.406,2.85c.02.095.04.188.051.278A1.574,1.574,0,0,1,930.473,566.105Z" transform="translate(-766.08 -455.322)" fill="#f0cbc6"/>
      <ellipse id="Ellipse_501" data-name="Ellipse 501" cx="1.73" cy="4.031" rx="1.73" ry="4.031" transform="translate(157.311 104.937) rotate(-39.63)" fill="#f9fafb"/>
      <path id="Path_2459" data-name="Path 2459" d="M932.813,568.357c-.014.026-.03.049-.043.073a.787.787,0,0,1-.14.15c-.448.373-1.274.186-2.173-.395l-.093-.063a7.353,7.353,0,0,1-.837-.675,9.071,9.071,0,0,1-.8-.855,7.218,7.218,0,0,1-.472-.62,7.737,7.737,0,0,1-.563-.936.305.305,0,0,1-.02-.036c-.593-1.163-.693-2.2-.184-2.617.737-.61,2.485.286,3.9,2a6.965,6.965,0,0,1,.47.622c.032.042.061.085.089.128C932.827,566.431,933.175,567.713,932.813,568.357Z" transform="translate(-768.845 -458.531)" opacity="0.1"/>
      <path id="Path_2460" data-name="Path 2460" d="M935.712,577.026a1.267,1.267,0,0,1-.648.608l-.091.031a1,1,0,0,1-.2.04,1.644,1.644,0,0,1-.693-.081c-.932-.294-1.363-.288-1.558-.2a7.351,7.351,0,0,1-.838-.675,9.07,9.07,0,0,1-.8-.855,7.217,7.217,0,0,1-.472-.62,7.731,7.731,0,0,1-.563-.936c.942.375,2.779,1.039,3.4.756a1.93,1.93,0,0,0,.711-.687h0l.061-.095.026-.042c.049-.081.1-.16.142-.243A8.165,8.165,0,0,1,935.712,577.026Z" transform="translate(-771.005 -468.032)" opacity="0.1"/>
      <path id="Path_2461" data-name="Path 2461" d="M935.763,577.9a1.275,1.275,0,0,1-.79.745.99.99,0,0,1-.2.04h0a1.646,1.646,0,0,1-.693-.081,3.95,3.95,0,0,0-1.335-.251.648.648,0,0,0-.223.047,7.345,7.345,0,0,1-.838-.676,9.063,9.063,0,0,1-.8-.855,7.245,7.245,0,0,1-.472-.62,7.587,7.587,0,0,1-.563-.936c.042.018.083.036.13.051.974.383,2.676.974,3.267.707a1.94,1.94,0,0,0,.713-.693l.061-.095.026-.042a.668.668,0,0,0,.037-.061,4.579,4.579,0,0,0,.219-.409,8.134,8.134,0,0,1,1.406,2.85C935.732,577.715,935.752,577.808,935.763,577.9Z" transform="translate(-771.005 -468.626)" opacity="0.1"/>
      <path id="Path_2462" data-name="Path 2462" d="M938.019,553.931a2.8,2.8,0,0,1-.731.419,2.37,2.37,0,0,0-1.406,2.694l.012.049c.322,1.357.182,3.253-.92,3.569a1.008,1.008,0,0,1-.2.04,1.647,1.647,0,0,1-.693-.081c-.932-.294-1.363-.288-1.558-.2a7.342,7.342,0,0,1-.837-.675,9.063,9.063,0,0,1-.8-.855,7.226,7.226,0,0,1-.472-.62,7.748,7.748,0,0,1-.563-.936c.942.375,2.779,1.039,3.4.759a1.941,1.941,0,0,0,.713-.693l.061-.095.026-.042a4.778,4.778,0,0,0,.7-2.214c.073-1.067.545-2.919,2.994-2.339a.693.693,0,0,1,.273,1.219Z" transform="translate(-771.005 -450.837)" fill="#59393c"/>
      <path id="Path_2463" data-name="Path 2463" d="M796.447,820.256s-8.351-.5-7.365,5.349a1.423,1.423,0,0,0,.741,1.5s.016-.434.857-.286a3.828,3.828,0,0,0,.907.043,1.875,1.875,0,0,0,1.11-.458h0s2.346-.97,3.261-4.805c0,0,.674-.837.648-1.053l-1.41.6a2.524,2.524,0,0,1,.1,1.861s-.046-1.823-.316-1.778c-.055,0-.733.354-.733.354a4.145,4.145,0,0,1,.2,3.057s.239-2.173-.462-2.929l-.988.579a4.38,4.38,0,0,1,.312,3.32s.168-2.287-.52-3.18l-.9.7s.909,1.8.354,3.04c0,0-.071-2.664-.549-2.866a5.168,5.168,0,0,0-.906.988s.624,1.307.237,2c0,0-.237-1.778-.433-1.778a5.837,5.837,0,0,0-.863,1.975,4.282,4.282,0,0,1,.673-2.1,2.35,2.35,0,0,0-1.2.62s.123-.831,1.393-.9a5.485,5.485,0,0,1,.822-.948,5.157,5.157,0,0,0-2.03.235,2.263,2.263,0,0,1,2.261-.429l.887-.725a7.3,7.3,0,0,0-2.37.026,2.9,2.9,0,0,1,2.609-.2l.968-.577a8.814,8.814,0,0,0-2.266-.2,3.47,3.47,0,0,1,2.548.039l.691-.31s-1.041-.2-1.345-.237-.32-.117-.32-.117A3.606,3.606,0,0,1,795,820.9,8.721,8.721,0,0,0,796.447,820.256Z" transform="translate(-657.976 -665.617)" fill="#00c2cd"/>
      <ellipse id="Ellipse_502" data-name="Ellipse 502" cx="5.91" cy="0.999" rx="5.91" ry="0.999" transform="translate(126.81 161.001)" fill="#6c63ff" opacity="0.1"/>
      <path id="Path_2464" data-name="Path 2464" d="M890.76,742.215s-4.707-.284-4.148,3.014a.8.8,0,0,0,.419.847s0-.243.482-.16a2.209,2.209,0,0,0,.512.024,1.068,1.068,0,0,0,.626-.259h0a3.728,3.728,0,0,0,1.837-2.71s.381-.47.365-.593l-.79.34a1.426,1.426,0,0,1,.057,1.049s-.026-1.029-.178-1c-.032,0-.413.2-.413.2a2.344,2.344,0,0,1,.115,1.724s.134-1.23-.261-1.651l-.559.318a2.472,2.472,0,0,1,.176,1.872,3.523,3.523,0,0,0-.292-1.793l-.508.4a2.4,2.4,0,0,1,.2,1.712s-.04-1.5-.31-1.616a3.059,3.059,0,0,0-.51.553s.35.737.132,1.126c0,0-.132-1-.243-1.005a3.319,3.319,0,0,0-.488,1.118,2.416,2.416,0,0,1,.381-1.185,1.337,1.337,0,0,0-.677.35s.069-.468.79-.51a3.07,3.07,0,0,1,.462-.533,2.9,2.9,0,0,0-1.144.132,1.281,1.281,0,0,1,1.274-.241l.5-.409a4.128,4.128,0,0,0-1.337.014,1.613,1.613,0,0,1,1.472-.107l.545-.326a4.982,4.982,0,0,0-1.278-.111,1.964,1.964,0,0,1,1.438.024l.395-.176s-.593-.115-.758-.132-.18-.067-.18-.067a2.032,2.032,0,0,1,1.1.122A4.72,4.72,0,0,0,890.76,742.215Z" transform="translate(-736.271 -602.994)" fill="#00c2cd"/>
      <ellipse id="Ellipse_503" data-name="Ellipse 503" cx="3.332" cy="0.563" rx="3.332" ry="0.563" transform="translate(147.916 142.808)" fill="#6c63ff" opacity="0.1"/>
      <path id="Path_2465" data-name="Path 2465" d="M746.52,756.7s-5.683-.344-5.013,3.64a.972.972,0,0,0,.506,1.023s.01-.294.593-.2a2.685,2.685,0,0,0,.616.03,1.306,1.306,0,0,0,.757-.312h0s1.6-.66,2.218-3.273c0,0,.46-.569.442-.715l-.96.409a1.72,1.72,0,0,1,.069,1.268s-.03-1.242-.215-1.213c-.037,0-.5.239-.5.239a2.832,2.832,0,0,1,.138,2.082s.162-1.485-.314-1.995l-.676.4a2.975,2.975,0,0,1,.211,2.262,4.281,4.281,0,0,0-.354-2.173l-.612.476a2.916,2.916,0,0,1,.243,2.07s-.049-1.813-.375-1.952a3.678,3.678,0,0,0-.616.668s.425.889.16,1.361c0,0-.16-1.209-.292-1.215a3.965,3.965,0,0,0-.593,1.349,2.907,2.907,0,0,1,.458-1.426,1.608,1.608,0,0,0-.816.423s.083-.567.948-.616a3.718,3.718,0,0,1,.559-.644,3.517,3.517,0,0,0-1.383.16,1.55,1.55,0,0,1,1.541-.292l.6-.492a4.968,4.968,0,0,0-1.614.016,1.967,1.967,0,0,1,1.778-.128l.658-.4a6.487,6.487,0,0,0-1.542-.132,2.361,2.361,0,0,1,1.734.028l.472-.211s-.709-.14-.917-.162-.217-.079-.217-.079a2.455,2.455,0,0,1,1.329.148A5.768,5.768,0,0,0,746.52,756.7Z" transform="translate(-619.819 -614.616)" fill="#00c2cd"/>
      <ellipse id="Ellipse_504" data-name="Ellipse 504" cx="4.023" cy="0.679" rx="4.023" ry="0.679" transform="translate(118.765 146.415)" fill="#6c63ff" opacity="0.1"/>
      <path id="Path_2466" data-name="Path 2466" d="M481.836,149.859s.308-.922-.122-1.4l-.893-.988-4.543-6.589s-1.106-1.311-.922-2.086-1.045-1.61-1.045-1.61.668-.828.277-1.321a5.452,5.452,0,0,1-1.015-1.521,10.391,10.391,0,0,0-5.436-4.6l.095-.069a4.872,4.872,0,0,0-.539-.089A15.261,15.261,0,0,1,462.5,128.4l-.1.109-.265-.109c-.539-.229-1.146-.51-1.865-.863s-1.491-.747-2.433-1.236a6.487,6.487,0,0,1-1.185-2.19c-.034-.1-.063-.2-.091-.306A6.759,6.759,0,0,0,460,117.95a6.607,6.607,0,0,0-.9-3.344c-.037-.065-.081-.126-.12-.2.014-.016.028-.03.039-.045a1.556,1.556,0,0,0,.111-.17,2.713,2.713,0,0,0,.164-.371c.024-.063.045-.126.067-.2.089-.259.178-.518.269-.776l.267-.776a5.155,5.155,0,0,0,.326-1.458,1.89,1.89,0,0,0-.075-.624,1.6,1.6,0,0,0-.122-.288,1.467,1.467,0,0,0-.087-.138c-.45-.636-1.416-.9-1.624-1.647a1.379,1.379,0,0,1-.042-.361V107a1.082,1.082,0,0,0-.016-.16,1.267,1.267,0,0,0-.042-.176.045.045,0,0,0-.014-.04,1.4,1.4,0,0,0-.067-.158h0a1.3,1.3,0,0,0-.1-.158.142.142,0,0,0-.016-.022,2.591,2.591,0,0,0-1.361-.869,5.36,5.36,0,0,0-3.678.237,1.2,1.2,0,0,1-.518.154c-.292,0-.517-.241-.77-.383-.814-.46-1.833.028-2.615.537a4.01,4.01,0,0,0-1.041.873c-.257.34-.4.747-.638,1.1-.751,1.116-2.248,1.475-3.332,2.293a5.42,5.42,0,0,0-1.989,3.741,10.368,10.368,0,0,0,.565,4.26,4.775,4.775,0,0,0,.164.452,14.565,14.565,0,0,0,.733,4.74c.186.685-2.212,2.862-2.212,2.862l-7.381,6.39s-.03-.184-.976-.117-2.72,2.214-2.72,2.214l.142.012c-.091.1-.142.168-.142.168l.385.032c-1.146.988-2.5,2.173-3.2,2.866-.2.186-.356.346-.47.47-.988,1.073-.338,4.025-.338,4.025s-.154,1.817,2.706,2.056c0,0,3.32.656,4.95,0a19.427,19.427,0,0,1,4.725-.82s-1.266,4.249-1.185,5.5a40.979,40.979,0,0,1-.845,5.7l-2.828,14.867s-2.647,5.167,5.333,5.925v.241s.2.03.508.063c-.014.17-.028.348-.042.531a29.6,29.6,0,0,0-.16,3.042,1.4,1.4,0,0,0,.494.567l.308,2.623a19.2,19.2,0,0,0,.592,2.919,8.718,8.718,0,0,1,.861,2.984,8.8,8.8,0,0,0,.46,2.443s.276,1.819.369,2.265,0,4.888,0,4.888a8.464,8.464,0,0,0,1.815.652c.018.071.036.146.055.221.29,1.185.7,2.828.92,3.684.367,1.43,1.167,3.934,1.167,3.934s.091,3.251.644,3.877.431,6.767,2.765,10.522A76.075,76.075,0,0,1,455,231.5c-.038,1.2-.095,2.52-.178,3.644a2.615,2.615,0,0,0-.64,1.157,13.173,13.173,0,0,1-2,3.6,12.243,12.243,0,0,1-2.491,1.671,1.306,1.306,0,0,0-.371.2c-.758.539-1.649,1.961.156,2.52a6.654,6.654,0,0,0,2.747.038,3.5,3.5,0,0,0,0,.559s-.922,2.265-1.323,3.131c-.146.316-.474.77-.764,1.25-.51.841-.9,1.76,0,2.149.277.119,5.043-.089,6.64.417s2.736-1.163,2.736-1.163a8.76,8.76,0,0,1,.492-2.414,3.755,3.755,0,0,0-.1-2h0c-.128-.529-.265-.944-.265-.944a28.612,28.612,0,0,1-.4-4.308l2.352-1.714a2.117,2.117,0,0,0,.826-2.222l-.079-.314a18.161,18.161,0,0,0-1.545-4.345,4.088,4.088,0,0,1,.4-1.009c.737-1.072,2.092-7.721,2.429-8.736a10.026,10.026,0,0,0,.245-1.071c.425-2.094,1.069-7.19.024-9.548l-.535-5.759a36.234,36.234,0,0,1,.032-6.109,28.609,28.609,0,0,0,.352-3.32v-.079l3.186.156V182.055l.279-5.226.028-.529h0a3.357,3.357,0,0,0,.431.119,2.585,2.585,0,0,0,.729-2.285,9.591,9.591,0,0,0-.107-1.541,3.739,3.739,0,0,0,1.029-1.809l6.67-6.028.028-.053c.15-.3.907-1.827,1.2-2.631.267-.743.091-4.74.022-6.068.436.038.966.079,1.469.1a5.923,5.923,0,0,0,1.689-.049c.555-.239,1.26-1.91,1.813-2.921S481.836,149.859,481.836,149.859Zm-34.889-23.364s.156-1.483.174-3.314l.988-.328a5.469,5.469,0,0,0,.466.4q.039.2.071.415a9.708,9.708,0,0,1-.039,3.618,4.869,4.869,0,0,0-1.671,1.861,1.391,1.391,0,0,1-1.136.812,3.542,3.542,0,0,1-.778.061l-1.211.2Zm6.573,71.186c-.042-.113-.077-.213-.111-.3l.085-.051v-.685h0c.008.267.014.624.026,1.031Z" transform="translate(-367.008 -91.805)" fill="url(#linear-gradient-5)"/>
      <path id="Path_2467" data-name="Path 2467" d="M540.16,188.516s-3.332,4.254-6,7.608c-1.72,2.159-3.16,3.95-3.269,3.98a1.693,1.693,0,0,1-.324-.016c-1.343-.119-6.445-.83-8.766-1.157l-1.161-.164s.073-2.007.381-4.44c.365-2.919,1.071-6.451,2.382-7.861a4.012,4.012,0,0,0,.843-1.436,9.212,9.212,0,0,0,.209-4.205,15.839,15.839,0,0,0-.606-2.568s8.467-4.991,8.021-.444a8.647,8.647,0,0,0,.31,3.462,5.91,5.91,0,0,0,1.92,2.963l.036.026Z" transform="translate(-442.62 -148.54)" fill="#ffb9b9"/>
      <path id="Path_2468" data-name="Path 2468" d="M545.253,181.283a6.779,6.779,0,0,1-7.717-.458,15.852,15.852,0,0,0-.606-2.568s8.467-4.991,8.021-.444A8.648,8.648,0,0,0,545.253,181.283Z" transform="translate(-455.692 -148.54)" opacity="0.1"/>
      <path id="Path_2469" data-name="Path 2469" d="M540.453,144.6a6.769,6.769,0,1,1-.881-3.334A6.769,6.769,0,0,1,540.453,144.6Z" transform="translate(-447.655 -117.988)" fill="#ffb9b9"/>
      <path id="Path_2470" data-name="Path 2470" d="M539.562,141.307a1.119,1.119,0,0,1-.077.12,2.265,2.265,0,0,1-2.062.642,2.623,2.623,0,0,1-2.248-1.2c-.35-.743-.253-1.539-1.215-1.649-.833-.1-1.951-.679-2.765-.346a1.966,1.966,0,0,0-.958,1.74,5.3,5.3,0,0,1-.324,2.05c-.306.583-.9.97-1.213,1.55a3.692,3.692,0,0,0-.184,2.185,3.935,3.935,0,0,1-.138,2.19,1.431,1.431,0,0,1-.095.17,6.775,6.775,0,1,1,11.278-7.456Z" transform="translate(-447.645 -118.034)" opacity="0.1"/>
      <path id="Path_2471" data-name="Path 2471" d="M519.661,116.367a2.613,2.613,0,0,0,2.248,1.195,2.255,2.255,0,0,0,2.062-.642,2.59,2.59,0,0,0,.33-.729l.517-1.549a2.883,2.883,0,0,0,.042-2.5c-.436-.634-1.371-.9-1.57-1.643a8.721,8.721,0,0,1-.049-1.069,2.034,2.034,0,0,0-1.545-1.42,5.021,5.021,0,0,0-3.555.237,1.15,1.15,0,0,1-.5.152c-.282,0-.5-.239-.745-.381-.79-.458-1.778.028-2.526.535a3.882,3.882,0,0,0-1.007.871c-.247.338-.4.743-.616,1.094-.727,1.112-2.173,1.469-3.219,2.285a5.429,5.429,0,0,0-1.922,3.727,10.7,10.7,0,0,0,.543,4.247,3.024,3.024,0,0,0,.326.772c.427.648,1.276.924,1.691,1.58.334.527.365,1.266.873,1.631a1.327,1.327,0,0,0,1.831-.677,3.964,3.964,0,0,0,.138-2.192,3.692,3.692,0,0,1,.184-2.184c.308-.581.909-.968,1.213-1.55a5.3,5.3,0,0,0,.324-2.05,1.957,1.957,0,0,1,.96-1.738c.808-.336,1.926.249,2.765.344C519.408,114.828,519.311,115.622,519.661,116.367Z" transform="translate(-432.125 -93.884)" fill="#b96b6b"/>
      <g id="Group_388" data-name="Group 388" transform="translate(75.991 14.853)" opacity="0.1">
        <path id="Path_2472" data-name="Path 2472" d="M512.062,174.456c-.417-.656-1.266-.932-1.693-1.58a.114.114,0,0,1,0-.016c.012.045.026.091.039.136a3.024,3.024,0,0,0,.326.772c.427.648,1.276.924,1.691,1.58.024.038.047.077.069.118A6.926,6.926,0,0,0,512.062,174.456Z" transform="translate(-510.369 -160.952)"/>
        <path id="Path_2473" data-name="Path 2473" d="M585.226,113.445a1.219,1.219,0,0,0,.314.531,4.741,4.741,0,0,0,0-.709,1.371,1.371,0,0,0-.34-.7,3.692,3.692,0,0,0,.026.875Z" transform="translate(-570.408 -112.57)"/>
        <path id="Path_2474" data-name="Path 2474" d="M529.308,136.515c-.833-.095-1.953-.679-2.765-.344a1.955,1.955,0,0,0-.958,1.738,5.227,5.227,0,0,1-.326,2.05c-.3.583-.9.97-1.211,1.551a3.676,3.676,0,0,0-.184,2.184,3.959,3.959,0,0,1-.138,2.192,1.334,1.334,0,0,1-1.833.677,1.223,1.223,0,0,1-.354-.425c.2.476.3,1.019.711,1.315a1.327,1.327,0,0,0,1.831-.677,3.966,3.966,0,0,0,.138-2.192,3.692,3.692,0,0,1,.184-2.184c.308-.581.908-.968,1.213-1.551a5.3,5.3,0,0,0,.324-2.05,1.957,1.957,0,0,1,.96-1.738c.808-.336,1.926.249,2.765.344a.946.946,0,0,1,.707.367C530.173,137.163,530.1,136.608,529.308,136.515Z" transform="translate(-519.333 -131.427)"/>
        <path id="Path_2475" data-name="Path 2475" d="M573.023,129.339c-.03-.041-.059-.081-.091-.118a4.441,4.441,0,0,1-.308,1.726l-.516,1.549a2.539,2.539,0,0,1-.332.729,2.264,2.264,0,0,1-2.062.642,2.788,2.788,0,0,1-2.135-1,5.19,5.19,0,0,0,.245.7,2.612,2.612,0,0,0,2.248,1.195,2.255,2.255,0,0,0,2.062-.642,2.59,2.59,0,0,0,.33-.729c.172-.516.346-1.031.517-1.548A2.883,2.883,0,0,0,573.023,129.339Z" transform="translate(-556.28 -125.931)"/>
      </g>
      <rect id="Rectangle_1088" data-name="Rectangle 1088" width="4.464" height="9.431" rx="2.232" transform="translate(75.702 23.419) rotate(-18.77)" fill="#464a5f"/>
      <rect id="Rectangle_1089" data-name="Rectangle 1089" width="4.464" height="9.431" rx="2.232" transform="translate(75.543 23.419) rotate(-18.77)" fill="#9c9ca1"/>
      <circle id="Ellipse_505" data-name="Ellipse 505" cx="0.701" cy="0.701" r="0.701" transform="translate(77.769 24.636)" fill="#939498"/>
      <path id="Path_2476" data-name="Path 2476" d="M520.49,571.472s.861,3.624,1.219,5.05,1.13,3.923,1.13,3.923.089,3.237.622,3.861.417,6.745,2.674,10.488,5.23,12.153,5.23,12.153l.4,2.852,3.8-4.426-3.16-16.2s-1.841-6.565-1.278-8.615-2.346-10.012-2.346-10.012Z" transform="translate(-442.5 -465.24)" fill="#ffb9b9"/>
      <path id="Path_2477" data-name="Path 2477" d="M535.514,605.372l-3.8,4.428-.4-2.852s-2.963-8.408-5.23-12.153-2.139-9.862-2.674-10.486-.622-3.863-.622-3.863-.772-2.5-1.13-3.923c-.213-.851-.606-2.493-.889-3.67-.2-.79-.33-1.383-.33-1.383l8.3-.92s.093.251.239.676c.685,1.965,2.568,7.65,2.107,9.336-.565,2.05,1.28,8.616,1.28,8.616Z" transform="translate(-442.459 -465.24)" opacity="0.05"/>
      <path id="Path_2478" data-name="Path 2478" d="M551.5,753.944l-3.322,2.495c-1.606,1.724-6.32,3.15-8.379,2.5-1.746-.557-.885-1.975-.15-2.512a1.221,1.221,0,0,1,.358-.2,11.887,11.887,0,0,0,2.408-1.665,13.24,13.24,0,0,0,1.93-3.595c.267-1.337,2.173-2.437,2.173-2.437s2.554-2.495,3.713-1.991c.756.332,1.539,3.036,1.993,4.871l.075.314A2.143,2.143,0,0,1,551.5,753.944Z" transform="translate(-457.175 -606.413)" fill="#c7c0d9"/>
      <path id="Path_2479" data-name="Path 2479" d="M551.5,774.038l-3.322,2.495c-1.606,1.724-6.32,3.15-8.379,2.5-1.746-.557-.885-1.975-.15-2.512.709,1.108,3.3.909,3.3.909l4.606-2.05,4.667-3.865.075.314A2.143,2.143,0,0,1,551.5,774.038Z" transform="translate(-457.175 -626.507)" opacity="0.1"/>
      <path id="Path_2480" data-name="Path 2480" d="M530.476,605.86s-2.963-8.41-5.228-12.153-2.139-9.864-2.674-10.488-.624-3.861-.624-3.861-.772-2.5-1.128-3.923c-.215-.853-.608-2.493-.891-3.67-.2-.79-.33-1.383-.33-1.383l7.776-.865-.022-.057-8.3.922s.138.593.33,1.383c.281,1.185.676,2.817.889,3.67.356,1.426,1.128,3.923,1.128,3.923s.089,3.237.624,3.861.415,6.745,2.674,10.488,5.228,12.153,5.228,12.153l.4,2.852.462-.537Z" transform="translate(-441.352 -464.365)" opacity="0.05"/>
      <rect id="Rectangle_1090" data-name="Rectangle 1090" width="9.269" height="10.707" transform="translate(99.502 52.977)" fill="#caa8b1"/>
      <path id="Path_2481" data-name="Path 2481" d="M633.4,346.3c-.281.8-1.011,2.319-1.157,2.619-.016.038-.026.055-.026.055l-6.662,6.2-.16.148-.042-.136c-.352-1.185-2.858-9.589-3.16-10.048a6.9,6.9,0,0,1-.049-2.591c.028-.265.049-.435.049-.435L622,336.3l.988-1.9,9.147,2.9,1.282,2.518S633.713,345.411,633.4,346.3Z" transform="translate(-523.96 -275.733)" fill="#caa8b1"/>
      <path id="Path_2482" data-name="Path 2482" d="M629.932,379.538a.591.591,0,0,1-.026.055l-6.662,6.2-.2.012-2.275.136L619.12,372.55s.271.247.721.618c1.311,1.08,4.148,3.223,6.32,3.506A5.174,5.174,0,0,1,629.932,379.538Z" transform="translate(-521.649 -306.347)" fill="none"/>
      <path id="Path_2483" data-name="Path 2483" d="M629.932,379.538a.591.591,0,0,1-.026.055l-6.662,6.2-.2.012-2.275.136L619.12,372.55s.271.247.721.618c1.311,1.08,4.148,3.223,6.32,3.506A5.174,5.174,0,0,1,629.932,379.538Z" transform="translate(-521.649 -306.347)" opacity="0.1"/>
      <path id="Path_2484" data-name="Path 2484" d="M660.722,382.326a4.26,4.26,0,0,1-1.975-.679,16.549,16.549,0,0,0-2.117-1.416l2.161,2.384S660.432,383.147,660.722,382.326Z" transform="translate(-551.75 -312.51)" opacity="0.1"/>
      <path id="Path_2485" data-name="Path 2485" d="M650.05,398.51s.132,2.427,1.6,2.451S650.05,398.51,650.05,398.51Z" transform="translate(-546.47 -327.18)" opacity="0.1"/>
      <path id="Path_2486" data-name="Path 2486" d="M657.72,398.51s1.114,2.026,1.649,1.76S657.72,398.51,657.72,398.51Z" transform="translate(-552.625 -327.18)" opacity="0.1"/>
      <path id="Path_2487" data-name="Path 2487" d="M456.335,265.6l-1.554.575a18.257,18.257,0,0,0-4.567.818c-1.574.654-4.784,0-4.784,0s5.586-7.28,5.674-7.308,5.914-2.173,5.914-2.173Z" transform="translate(-382.265 -214.029)" fill="#cbcdda"/>
      <path id="Path_2488" data-name="Path 2488" d="M456.335,265.6l-1.554.575a18.257,18.257,0,0,0-4.567.818c-1.574.654-4.784,0-4.784,0s5.586-7.28,5.674-7.308,5.914-2.173,5.914-2.173Z" transform="translate(-382.265 -214.029)" fill="#e41749"/>
      <path id="Path_2489" data-name="Path 2489" d="M573.435,587.629c-.326,1.011-1.633,7.638-2.346,8.706s-1.544,7.219-1.544,7.219l-.16.113-.346.243s-5.114-.237-4.521-1.157a2.678,2.678,0,0,0,.223-.861c.4-2.5.431-9.151.431-9.151l.059-10.549s1.343-3.4.415-5.912a13.115,13.115,0,0,1-.832-4.634s.148-2.437-.506-3.417c-.529-.79-.63-4.993-.648-6.538v-.573l.83-1.238,9.086.624s-.02.733-.075,1.683a28.5,28.5,0,0,1-.34,3.308,37.28,37.28,0,0,0-.03,6.089l.506,5.728C574.831,580.084,573.763,586.619,573.435,587.629Z" transform="translate(-477.143 -456.677)" fill="#ffb9b9"/>
      <path id="Path_2490" data-name="Path 2490" d="M529.019,571.248v.067a10.69,10.69,0,0,1-8.2,1.558c-.2-.79-.33-1.383-.33-1.383l8.3-.92S528.872,570.819,529.019,571.248Z" transform="translate(-442.5 -465.256)" opacity="0.05"/>
      <path id="Path_2491" data-name="Path 2491" d="M523.155,448.645l-.12,2.307-.267,5.208-12.983,2.111v13.1a10.363,10.363,0,0,1-10.271.83s.089-4.426,0-4.873-.357-2.258-.357-2.258a9.1,9.1,0,0,1-.444-2.435,9.064,9.064,0,0,0-.833-2.963,20.437,20.437,0,0,1-.563-2.909l-.3-2.625a1.383,1.383,0,0,1-.476-.567c-.051-.168.055-1.73.154-3.03.075-.964.144-1.778.144-1.778l12.121-2.287Z" transform="translate(-423.266 -365.675)" fill="#444584"/>
      <path id="Path_2492" data-name="Path 2492" d="M557.622,513.46V523.73a1.5,1.5,0,0,1-.614-1.359c-.053-1.367-.162-4.6-.355-6.06a5.558,5.558,0,0,1,.739-3.032Z" transform="translate(-471.498 -419.281)" opacity="0.05"/>
      <path id="Path_2493" data-name="Path 2493" d="M524.1,493.09a3.38,3.38,0,0,0,2.526,1.693C528.56,495.138,524.1,493.09,524.1,493.09Z" transform="translate(-445.397 -403.079)" opacity="0.1"/>
      <path id="Path_2494" data-name="Path 2494" d="M514.63,506.63s4.1.683,5.08.654" transform="translate(-437.797 -413.945)" opacity="0.1"/>
      <path id="Path_2495" data-name="Path 2495" d="M520.94,519.525a10.885,10.885,0,0,0,3.636-.565" transform="translate(-442.861 -423.84)" opacity="0.1"/>
      <path id="Path_2496" data-name="Path 2496" d="M518.54,543.142s5.941-2.267,6.654-3.453" transform="translate(-440.935 -440.475)" opacity="0.1"/>
      <path id="Path_2497" data-name="Path 2497" d="M525.61,555.612c.2-.03,5.436-3.18,5.882-4.012" transform="translate(-446.608 -450.033)" opacity="0.1"/>
      <path id="Path_2498" data-name="Path 2498" d="M573.607,560.464s-.02.733-.075,1.683l-9.842-.5h0v-.573l.83-1.238Z" transform="translate(-477.167 -456.645)" opacity="0.1"/>
      <path id="Path_2499" data-name="Path 2499" d="M573.17,500.585s5.009-1.236,6.064-.44S573.17,500.585,573.17,500.585Z" transform="translate(-484.775 -408.526)" opacity="0.1"/>
      <path id="Path_2500" data-name="Path 2500" d="M547.87,459.09s1.009,9.449,1.843,10.073,4.367-10.073,4.367-10.073Z" transform="translate(-464.472 -375.795)" opacity="0.1"/>
      <path id="Path_2501" data-name="Path 2501" d="M548.77,457.29s1.011,9.449,1.843,10.073,4.367-10.073,4.367-10.073Z" transform="translate(-465.194 -374.35)" fill="#444584"/>
      <path id="Path_2502" data-name="Path 2502" d="M523.835,448.661l-.12,2.307a8.493,8.493,0,0,1-2.554-1.475,1.093,1.093,0,0,0-.124-.095,3.537,3.537,0,0,0-3.2-.152,6.261,6.261,0,0,0-.891.395s-13.133.446-13.133.089c0-.263-1.859.138-3.109.484a9.344,9.344,0,0,0-.988.318h0a6.4,6.4,0,0,1-2.3.034h-.042c.075-.964.144-1.778.144-1.778l12.121-2.287Z" transform="translate(-423.946 -365.691)" opacity="0.1"/>
      <path id="Path_2503" data-name="Path 2503" d="M522.321,302.042a3.378,3.378,0,0,1-.417-.12,8.4,8.4,0,0,1-2.583-1.485c-.042-.034-.081-.065-.124-.095a3.537,3.537,0,0,0-3.2-.15,6,6,0,0,0-.891.4s-13.133.446-13.133.089c0-.263-1.859.138-3.109.484a9.986,9.986,0,0,0-.988.316h0a6.434,6.434,0,0,1-2.3.036c-.292-.036-.492-.065-.492-.065v-.1l.65-16.479,1.87-14.675.685-6.151,2.222-1.082,2.234-1.088a5.815,5.815,0,0,0,.853.948,4.991,4.991,0,0,0,6.3.577,9.048,9.048,0,0,0,.932-.632c1.007-.776,1.953.1,2.822,1.993,3.4,7.371,5.615,30.125,5.615,30.125l3.358,2.173s.115.429.225,1.039C523.07,299.358,523.267,301.42,522.321,302.042Z" transform="translate(-422.108 -217.528)" opacity="0.1"/>
      <path id="Path_2504" data-name="Path 2504" d="M522.353,303.85a3.106,3.106,0,0,1-.417-.118,8.5,8.5,0,0,1-2.583-1.485,1.4,1.4,0,0,0-.124-.095,3.544,3.544,0,0,0-3.2-.152,6.131,6.131,0,0,0-.891.4s-13.125.456-13.125.091c0-.265-1.859.136-3.109.482a9.842,9.842,0,0,0-.988.318h0a6.392,6.392,0,0,1-2.3.034c-.292-.034-.492-.063-.492-.063v-.1l.65-16.477L497.64,272l.685-6.151,2.222-1.082,2.234-1.086a5.758,5.758,0,0,0,.853.946,4.989,4.989,0,0,0,6.3.579,9.07,9.07,0,0,0,.932-.634c1.007-.776,1.953.1,2.822,1.993,3.4,7.369,5.613,30.125,5.613,30.125l3.358,2.173s.115.429.225,1.037C523.1,301.168,523.3,303.228,522.353,303.85Z" transform="translate(-422.141 -218.981)" fill="#fff"/>
      <path id="Path_2505" data-name="Path 2505" d="M582.736,260.879a7.809,7.809,0,0,1-3.648,2.256,15.959,15.959,0,0,1-3,.707l-.2-.851c-.484-1.942-1.7-6.715-2.406-8.493a20.3,20.3,0,0,1-1.132-4.871,25.513,25.513,0,0,0-1.319-7.012c-.575-1.671-.9-6.413-1.082-11.1-.073-1.847-.124-3.686-.162-5.323-.073-3.372-.079-5.892-.079-5.892l1.069-1.695a3.475,3.475,0,0,1,.484-2.173,5.592,5.592,0,0,1,1.09-1.365c.419.223.8.431,1.167.62l6.024,4.252s-3.332,4.254-6,7.608c3.4,7.369,5.613,30.125,5.613,30.125l3.358,2.173S582.625,260.287,582.736,260.879Z" transform="translate(-481.998 -179.972)" opacity="0.1"/>
      <path id="Path_2506" data-name="Path 2506" d="M583.278,248.849c-.18,3.445,2.019,9.208,2.019,9.208-.356,4.1-7.427,4.875-7.427,4.875s-1.724-7.071-2.615-9.331a20.4,20.4,0,0,1-1.13-4.873,25.542,25.542,0,0,0-1.321-7.01c-1.264-3.686-1.323-22.319-1.323-22.319l1.071-1.693a3.475,3.475,0,0,1,.482-2.173,5.625,5.625,0,0,1,1.092-1.365c.911.488,1.683.893,2.352,1.233s1.282.632,1.8.861a14.494,14.494,0,0,0,5.017,1.175,4.166,4.166,0,0,1,.521.089c3.1.709,5.519,4.4,5.519,4.655a5.489,5.489,0,0,0,.988,1.515c.385.488-.269,1.315-.269,1.315s1.185.833,1.011,1.606.891,2.08.891,2.08l-6.656,5.05S583.455,245.4,583.278,248.849Z" transform="translate(-483.418 -179.25)" fill="#e41749"/>
      <circle id="Ellipse_506" data-name="Ellipse 506" cx="0.367" cy="0.367" r="0.367" transform="translate(88.729 43.107)" fill="#767d9f"/>
      <circle id="Ellipse_507" data-name="Ellipse 507" cx="0.367" cy="0.367" r="0.367" transform="translate(88.729 48.01)" fill="#767d9f"/>
      <circle id="Ellipse_508" data-name="Ellipse 508" cx="0.367" cy="0.367" r="0.367" transform="translate(90.023 59.679)" fill="#767d9f"/>
      <circle id="Ellipse_509" data-name="Ellipse 509" cx="0.367" cy="0.367" r="0.367" transform="translate(90.959 65.652)" fill="#767d9f"/>
      <circle id="Ellipse_510" data-name="Ellipse 510" cx="0.367" cy="0.367" r="0.367" transform="translate(91.872 71.956)" fill="#767d9f"/>
      <circle id="Ellipse_511" data-name="Ellipse 511" cx="0.367" cy="0.367" r="0.367" transform="translate(89.464 53.747)" fill="#767d9f"/>
      <path id="Path_2507" data-name="Path 2507" d="M582.769,217.2a8.118,8.118,0,0,1-1.868,1.58c-.336,0-1.148-.934-1.58-1.458a5.638,5.638,0,0,1,1.092-1.363C581.327,216.458,582.1,216.863,582.769,217.2Z" transform="translate(-489.71 -180.686)" opacity="0.1"/>
      <path id="Path_2508" data-name="Path 2508" d="M582.769,215.432a8.294,8.294,0,0,1-1.868,1.59c-.336,0-1.148-.934-1.58-1.458a5.625,5.625,0,0,1,1.092-1.365C581.327,214.688,582.1,215.093,582.769,215.432Z" transform="translate(-489.71 -179.274)" fill="#e41749"/>
      <path id="Path_2509" data-name="Path 2509" d="M505.413,225.85s-.895,2.145-1.76,3.709a6.845,6.845,0,0,1-.942,1.4,9.882,9.882,0,0,0-1.365,3.344c-.359,1.308-.593,2.479-.593,2.479-.506.774-.506,10.369-.506,10.369.863,3.686-.713,14.142-.713,14.142l-.464,5.076-.142,1.529-.026.29c-.334.014-.656.024-.964.028h0a22.133,22.133,0,0,1-2.291-.081c-.172-.014-.338-.032-.5-.051l.65-16.477,1.87-14.677.685-6.151,2.222-1.082c.365-2.919,1.071-6.451,2.382-7.861a4.01,4.01,0,0,0,.843-1.436,6.559,6.559,0,0,1,.531-.421s.229.44.5.968c.29.567.63,1.234.79,1.58C505.948,223.176,505.413,225.85,505.413,225.85Z" transform="translate(-422.165 -183.912)" opacity="0.1"/>
      <path id="Path_2510" data-name="Path 2510" d="M482.425,224.99s-1.722,4.13-2.7,5.11-1.961,5.823-1.961,5.823c-.506.774-.506,10.369-.506,10.369.861,3.686-.713,14.142-.713,14.142l-.64,6.893c-11.782.545-8.55-5.971-8.55-5.971l2.734-14.814a40.366,40.366,0,0,0,.818-5.684c-.089-1.248,1.136-5.481,1.136-5.481s-2.161-11.231-1.938-11.742,7.754-1.778,7.754-1.778a3.31,3.31,0,0,0,.753-.061,1.342,1.342,0,0,0,1.1-.808,4.817,4.817,0,0,1,1.622-1.859s.227.44.5.97c.29.567.632,1.234.8,1.58C482.956,222.316,482.425,224.99,482.425,224.99Z" transform="translate(-399.532 -183.23)" fill="#e41749"/>
      <path id="Path_2511" data-name="Path 2511" d="M529.262,221.858c-1.167,1.053-2.422,4.841-2.422,4.841l-.79-3.144a1.342,1.342,0,0,0,1.1-.808,4.821,4.821,0,0,1,1.622-1.857Z" transform="translate(-446.961 -184.642)" opacity="0.1"/>
      <path id="Path_2512" data-name="Path 2512" d="M529.262,220.06c-1.167,1.053-2.422,4.841-2.422,4.841l-.79-3.144a1.342,1.342,0,0,0,1.1-.808,4.816,4.816,0,0,1,1.622-1.859Z" transform="translate(-446.961 -183.198)" fill="#e41749"/>
      <path id="Path_2513" data-name="Path 2513" d="M472.24,435.3s.156,1.805,3.856.691S472.24,435.3,472.24,435.3Z" transform="translate(-403.78 -356.641)" opacity="0.1"/>
      <path id="Path_2514" data-name="Path 2514" d="M653.82,297.956c-.535,1.009-1.219,2.674-1.752,2.911a5.6,5.6,0,0,1-1.633.051c-1.108-.059-2.348-.2-2.348-.2s2.791-6.074-1.013-7.62H643.63l-2.2-2.3,5.793-5.556.863.506,4.4,6.555s.446.5.863.988.116,1.4.116,1.4S654.355,296.947,653.82,297.956Z" transform="translate(-539.552 -236.29)" fill="#e41749"/>
      <path id="Path_2515" data-name="Path 2515" d="M588.588,243.592s1.669-13.1,6.648-16.668a4.532,4.532,0,0,0-.519-.089,14.345,14.345,0,0,1-5.019-1.185,13.036,13.036,0,0,0-3.524,9.678c.365,6.686,0,8.246,0,8.246h.593c1.063,2.153,5.574,11.1,8.078,12.975l.267-2.275s-6.5-7.506-7.065-10.7Z" transform="translate(-495.193 -188.462)" opacity="0.1"/>
      <path id="Path_2516" data-name="Path 2516" d="M592.2,242.732s1.669-13.1,6.648-16.668a4.133,4.133,0,0,0-.519-.089,14.559,14.559,0,0,1-5.019-1.175,13.036,13.036,0,0,0-3.524,9.678c.365,6.686,0,8.246,0,8.246h.593c1.063,2.153,5.574,11.094,8.078,12.973l.267-2.273s-6.5-7.506-7.063-10.7Z" transform="translate(-498.09 -187.78)" opacity="0.1"/>
      <path id="Path_2517" data-name="Path 2517" d="M589.86,312.185s5.455,11.3,8.307,13.431l.267-2.273s-7.65-8.829-7.071-11.412Z" transform="translate(-498.168 -257.701)" fill="#6e6d84"/>
      <path id="Path_2518" data-name="Path 2518" d="M597.048,226.1c-4.981,3.571-6.65,16.668-6.65,16.668h-2.423s.365-1.56,0-8.246a13.036,13.036,0,0,1,3.526-9.678,14.5,14.5,0,0,0,5.017,1.175A4.173,4.173,0,0,1,597.048,226.1Z" transform="translate(-496.638 -187.812)" fill="#6e6d84"/>
      <path id="Path_2519" data-name="Path 2519" d="M498.356,342.86l-.156,9.092,1.537.78Z" transform="translate(-400.725 -275.14)" opacity="0.1"/>
      <path id="Path_2520" data-name="Path 2520" d="M637.07,274.4c1.025-.245,3.654-1.114,3.753-1.975S637.07,274.4,637.07,274.4Z" transform="translate(-536.053 -225.871)" opacity="0.1"/>
      <path id="Path_2521" data-name="Path 2521" d="M637.716,283.68a23.378,23.378,0,0,0,3.767-1.872C642,281.274,637.227,282.612,637.716,283.68Z" transform="translate(-536.544 -233.431)" opacity="0.1"/>
      <path id="Path_2522" data-name="Path 2522" d="M518.892,243.68s-1.42,2.8-.565,3.093S518.892,243.68,518.892,243.68Z" transform="translate(-440.544 -202.931)" opacity="0.1"/>
      <path id="Path_2523" data-name="Path 2523" d="M539.419,398.51s-11.408,6.737-9,7.122S539.419,398.51,539.419,398.51Z" transform="translate(-450.198 -327.18)" opacity="0.1"/>
      <path id="Path_2524" data-name="Path 2524" d="M612,470.67s3,.565,2.882,1.487" transform="translate(-515.935 -385.087)" opacity="0.1"/>
      <path id="Path_2525" data-name="Path 2525" d="M609.194,289.649l-.134,3.468s-.845,1.469-1.462,1.655a.792.792,0,0,1-.227.016h0c-1.211-.065-5.781-1.4-6.19-2.161-.446-.824-7.2-3.786-7.2-3.786s-5.681-8.625-1.426-10.719,4.055,8.134,4.055,8.134a31.4,31.4,0,0,1,4.345.891c.411.269,4.2.081,5.333.018l.294-.01,1.2.221Z" transform="translate(-499.064 -230.343)" fill="#ffb9b9"/>
      <path id="Path_2526" data-name="Path 2526" d="M671.373,327.495l-.134,3.468s-.845,1.47-1.462,1.655a.791.791,0,0,1-.227.016h0l-.12-.014s2.765-6.028-.97-7.61l.3-.01,1.2.221Z" transform="translate(-561.243 -268.189)" opacity="0.1"/>
      <path id="Path_2527" data-name="Path 2527" d="M674.286,331.6c-1.106-.059-2.346-.2-2.346-.2s2.789-6.072-1.009-7.626h0l2.976-.294C677.632,325.953,675.054,330.428,674.286,331.6Z" transform="translate(-563.226 -266.969)" opacity="0.1"/>
      <path id="Path_2528" data-name="Path 2528" d="M673.358,331.638c-1.108-.059-2.348-.2-2.348-.2s2.795-6.074-1.009-7.62h0l2.984-.29C676.715,325.993,674.13,330.469,673.358,331.638Z" transform="translate(-562.479 -267.009)" fill="#cbcdda"/>
      <path id="Path_2529" data-name="Path 2529" d="M460.49,181.511l8.614-7.664s2.317-2.173,2.139-2.852-2.109-6.715,1.128-7.071,2.173,10.1,2.173,10.1l-9.24,11.349Z" transform="translate(-394.35 -138.921)" fill="#ffb9b9"/>
      <path id="Path_2530" data-name="Path 2530" d="M432.282,258.373s-.624-2.941.326-4.009,5.26-4.813,5.26-4.813,2.163,3.358,6,2.868l-4.3,5.748s-1.9,2.5-4.665,2.258S432.282,258.373,432.282,258.373Z" transform="translate(-371.553 -207.642)" opacity="0.1"/>
      <path id="Path_2531" data-name="Path 2531" d="M431.374,259.275s-.624-2.941.328-4.011,5.258-4.813,5.258-4.813,3.686,3.713,5.8,4.16l-4.1,4.456s-1.9,2.5-4.665,2.26S431.374,259.275,431.374,259.275Z" transform="translate(-370.824 -208.364)" fill="#e41749"/>
      <path id="Path_2532" data-name="Path 2532" d="M453.754,249.138l-3.844-.342s1.714-2.139,2.629-2.206.942.117.942.117l-1.213,1.078Z" transform="translate(-385.86 -205.254)" opacity="0.1"/>
      <path id="Path_2533" data-name="Path 2533" d="M453.754,248.238l-3.844-.342s1.714-2.139,2.629-2.206.942.117.942.117l-1.213,1.078Z" transform="translate(-385.86 -204.532)" fill="#cbcdda"/>
      <path id="Path_2534" data-name="Path 2534" d="M472.463,263.28s-.988,3.5,2.435,3.735l1.092-3.4A6.08,6.08,0,0,1,472.463,263.28Z" transform="translate(-403.852 -218.66)" opacity="0.1"/>
      <path id="Path_2535" data-name="Path 2535" d="M473.362,262.38s-1,3.49,2.433,3.735l1.092-3.4A6.052,6.052,0,0,1,473.362,262.38Z" transform="translate(-404.572 -217.937)" fill="#cbcdda"/>
      <path id="Path_2536" data-name="Path 2536" d="M577.219,575.963l-.506-5.728a37.278,37.278,0,0,1,.03-6.089,28.945,28.945,0,0,0,.342-3.308c.053-.95.075-1.683.075-1.683l-9.086-.624-.024.036,8.58.593s-.022.733-.075,1.683a29.362,29.362,0,0,1-.34,3.308,37.116,37.116,0,0,0-.032,6.089l.508,5.728c1.185,2.765.117,9.3-.209,10.308s-1.635,7.638-2.348,8.706-1.551,7.215-1.551,7.215l-.464.328.492.03.508-.358s.83-6.148,1.543-7.219,2.023-7.7,2.348-8.706S578.408,578.726,577.219,575.963Z" transform="translate(-480.666 -455.594)" opacity="0.1"/>
      <path id="Path_2537" data-name="Path 2537" d="M448.519,452.41l1.841,1.128v14.827l-13.378-.674L436.06,456.8l2.192-2.666Z" transform="translate(-350.858 -363.053)" fill="#444584"/>
      <path id="Path_2538" data-name="Path 2538" d="M570.58,532.35s5.647,4.6,7.369,4.9" transform="translate(-482.696 -434.585)" opacity="0.1"/>
      <path id="Path_2539" data-name="Path 2539" d="M572.833,773.738a2.746,2.746,0,0,0-.16.47l-.346.243s-5.114-.239-4.521-1.159a2.68,2.68,0,0,0,.223-.861c1.195-.277,3.221,1.1,3.221,1.1Z" transform="translate(-480.432 -627.217)" opacity="0.1"/>
      <path id="Path_2540" data-name="Path 2540" d="M554.544,785.144a9.022,9.022,0,0,0-.474,2.406s-1.1,1.663-2.645,1.159-6.151-.3-6.419-.415c-.867-.395-.488-1.3,0-2.141.283-.48.593-.932.741-1.246.4-.863,1.278-3.121,1.278-3.121a5.389,5.389,0,0,1,1.248-3.417l.593-3.863c1-1.007,3.713.834,3.713.834l1.58.209c-.8,1.752.03,6.654.03,6.654s.13.411.255.938h0A3.865,3.865,0,0,1,554.544,785.144Z" transform="translate(-461.758 -628.67)" fill="#c7c0d9"/>
      <path id="Path_2541" data-name="Path 2541" d="M554.544,821.469a9.022,9.022,0,0,0-.474,2.406s-1.1,1.663-2.645,1.159-6.151-.3-6.419-.415c-.867-.395-.488-1.3,0-2.141,2.092.115,6.771.334,7.812-.059,1.335-.5,1.635-2.244,1.622-2.949A3.814,3.814,0,0,1,554.544,821.469Z" transform="translate(-461.758 -664.995)" opacity="0.1"/>
      <circle id="Ellipse_512" data-name="Ellipse 512" cx="0.306" cy="0.306" r="0.306" transform="translate(89.871 150.412)" fill="#605b89"/>
      <circle id="Ellipse_513" data-name="Ellipse 513" cx="0.306" cy="0.306" r="0.306" transform="translate(86.213 150.412)" fill="#605b89"/>
      <circle id="Ellipse_514" data-name="Ellipse 514" cx="0.306" cy="0.306" r="0.306" transform="translate(89.871 152.072)" fill="#605b89"/>
      <circle id="Ellipse_515" data-name="Ellipse 515" cx="0.306" cy="0.306" r="0.306" transform="translate(86.136 152.072)" fill="#605b89"/>
      <circle id="Ellipse_516" data-name="Ellipse 516" cx="0.306" cy="0.306" r="0.306" transform="translate(88.952 155.832)" fill="#605b89"/>
      <circle id="Ellipse_517" data-name="Ellipse 517" cx="0.306" cy="0.306" r="0.306" transform="translate(85.83 155.832)" fill="#605b89"/>
      <circle id="Ellipse_518" data-name="Ellipse 518" cx="0.306" cy="0.306" r="0.306" transform="translate(89.101 154.989)" fill="#605b89"/>
      <circle id="Ellipse_519" data-name="Ellipse 519" cx="0.306" cy="0.306" r="0.306" transform="translate(85.907 154.989)" fill="#605b89"/>
      <circle id="Ellipse_520" data-name="Ellipse 520" cx="0.306" cy="0.306" r="0.306" transform="translate(89.259 154.015)" fill="#605b89"/>
      <circle id="Ellipse_521" data-name="Ellipse 521" cx="0.306" cy="0.306" r="0.306" transform="translate(86.213 154.015)" fill="#605b89"/>
      <circle id="Ellipse_522" data-name="Ellipse 522" cx="0.306" cy="0.306" r="0.306" transform="translate(89.565 153.043)" fill="#605b89"/>
      <circle id="Ellipse_523" data-name="Ellipse 523" cx="0.306" cy="0.306" r="0.306" transform="translate(86.213 153.043)" fill="#605b89"/>
      <path id="Path_2542" data-name="Path 2542" d="M567,789a2.434,2.434,0,0,0,3.447.4" transform="translate(-479.823 -640.543)" fill="none" stroke="#000" stroke-miterlimit="10" stroke-width="1" opacity="0.1"/>
      <path id="Path_2543" data-name="Path 2543" d="M562.089,800.45s3.964.988,3.658,1.659c0,0-3.486-.5-3.735,0s3.429.972,3.429.972-3.024.472-3.358,0,3.046.972,3.046.972-3.046-.306-3.046,0,2.888.974,2.888.974-2.7-.284-2.888,0,2.686.4,2.74.843-3.123-.306-3.123,0,4.041-5.42,4.041-5.42" transform="translate(-475.57 -649.731)" fill="none" stroke="#605b89" stroke-miterlimit="10" stroke-width="1" opacity="0.2"/>
      <ellipse id="Ellipse_524" data-name="Ellipse 524" cx="5.91" cy="0.999" rx="5.91" ry="0.999" transform="translate(5.414 155.35)" fill="#6c63ff" opacity="0.1"/>
      <path id="Path_2544" data-name="Path 2544" d="M162.86,798.072s3.372-.1,4.387-.828,5.185-1.58,5.438-.427,5.066,5.769,1.26,5.8-8.843-.593-9.858-1.211S162.86,798.072,162.86,798.072Z" transform="translate(-155.506 -646.364)" fill="#a8a8a8"/>
      <path id="Path_2545" data-name="Path 2545" d="M174,809.578c-3.806.032-8.843-.593-9.856-1.211-.772-.47-1.08-2.157-1.185-2.937h-.113s.213,2.718,1.227,3.336,6.052,1.24,9.858,1.211c1.1-.01,1.477-.4,1.458-.988C175.242,809.353,174.821,809.572,174,809.578Z" transform="translate(-155.498 -653.728)" opacity="0.2"/>
    </g>
    <circle id="Ellipse_483" data-name="Ellipse 483" cx="37" cy="37" r="37" transform="translate(371 2765)" fill="#fff"/>
    <rect id="Rectangle_984" data-name="Rectangle 984" width="98" height="16" rx="6" transform="translate(359 2856)" fill="#fff"/>
    <rect id="Rectangle_981" data-name="Rectangle 981" width="141" height="12" rx="6" transform="translate(338 2923)" fill="#fff"/>
    <rect id="Rectangle_982" data-name="Rectangle 982" width="141" height="11" rx="5.5" transform="translate(338 2950)" fill="#fff"/>
    <rect id="Rectangle_983" data-name="Rectangle 983" width="142" height="11" rx="5.5" transform="translate(338 2976)" fill="#fff"/>
    <rect id="Rectangle_1135" data-name="Rectangle 1135" width="141" height="12" rx="6" transform="translate(338 3002)" fill="#fff"/>
    <rect id="Rectangle_1136" data-name="Rectangle 1136" width="109" height="11" rx="5.5" transform="translate(338 3119)" fill="#fff"/>
    <rect id="Rectangle_1137" data-name="Rectangle 1137" width="76" height="11" rx="5.5" transform="translate(338 3140)" fill="#fff"/>
    <rect id="Rectangle_1138" data-name="Rectangle 1138" width="71" height="22" rx="11" transform="translate(965 2750)" fill="#fff"/>
    <path id="Icon_ionic-ios-arrow-down" data-name="Icon ionic-ios-arrow-down" d="M10.562,14.739l3.307-3.309a.622.622,0,0,1,.883,0,.63.63,0,0,1,0,.885L11,16.064a.624.624,0,0,1-.862.018L6.37,12.318a.625.625,0,1,1,.883-.885Z" transform="translate(1010.814 2747.177)" opacity="0.8"/>
  </g>
</svg>
