<svg xmlns="http://www.w3.org/2000/svg" xmlns:xlink="http://www.w3.org/1999/xlink" width="977" height="599.438" viewBox="0 0 977 599.438">
  <defs>
    <filter id="Rectangle_977" x="2" y="52.438" width="825" height="547" filterUnits="userSpaceOnUse">
      <feOffset dy="8" input="SourceAlpha"/>
      <feGaussianBlur stdDeviation="15" result="blur"/>
      <feFlood flood-opacity="0.161"/>
      <feComposite operator="in" in2="blur"/>
      <feComposite in="SourceGraphic"/>
    </filter>
    <filter id="Rectangle_987" x="513" y="168.438" width="278" height="132" filterUnits="userSpaceOnUse">
      <feOffset input="SourceAlpha"/>
      <feGaussianBlur stdDeviation="5" result="blur-2"/>
      <feFlood flood-opacity="0.161"/>
      <feComposite operator="in" in2="blur-2"/>
      <feComposite in="SourceGraphic"/>
    </filter>
    <linearGradient id="linear-gradient" x1="0.5" y1="1" x2="0.5" gradientUnits="objectBoundingBox">
      <stop offset="0" stop-color="gray" stop-opacity="0.251"/>
      <stop offset="0.54" stop-color="gray" stop-opacity="0.122"/>
      <stop offset="1" stop-color="gray" stop-opacity="0.102"/>
    </linearGradient>
    <linearGradient id="linear-gradient-2" y1="1" y2="0" xlink:href="#linear-gradient"/>
    <linearGradient id="linear-gradient-3" x1="0" y1="0.5" x2="1" y2="0.5" xlink:href="#linear-gradient"/>
    <linearGradient id="linear-gradient-4" x1="2.581" y1="1" x2="2.581" y2="0" xlink:href="#linear-gradient"/>
    <linearGradient id="linear-gradient-5" y1="1" y2="0" xlink:href="#linear-gradient"/>
    <linearGradient id="linear-gradient-6" x1="-25.357" y1="1.001" x2="-25.357" y2="0" xlink:href="#linear-gradient"/>
  </defs>
  <g id="Group_427" data-name="Group 427" transform="translate(-269 -2638.562)">
    <g id="Group_376" data-name="Group 376" transform="translate(23 -40)">
      <circle id="Ellipse_486" data-name="Ellipse 486" cx="31.5" cy="31.5" r="31.5" transform="translate(280 3201)" fill="#444584" opacity="0.3"/>
      <circle id="Ellipse_487" data-name="Ellipse 487" cx="13.5" cy="13.5" r="13.5" transform="translate(249 3187)" fill="#444584" opacity="0.3"/>
    </g>
    <rect id="Rectangle_986" data-name="Rectangle 986" width="97" height="91" transform="translate(269 2694)" fill="#38bdba" opacity="0.3"/>
    <g id="Group_375" data-name="Group 375" transform="translate(-50)">
      <rect id="Rectangle_985" data-name="Rectangle 985" width="553" height="322" transform="matrix(0.799, -0.602, 0.602, 0.799, 617.808, 2971.365)" fill="#d3d4e0"/>
      <circle id="Ellipse_484" data-name="Ellipse 484" cx="64" cy="64" r="64" transform="translate(1168 2801)" fill="#fff"/>
      <path id="Path_2782" data-name="Path 2782" d="M53,0A53,53,0,1,1,0,53,53,53,0,0,1,53,0Z" transform="translate(1179 2812)" fill="#d7f2f1"/>
    </g>
    <g transform="matrix(1, 0, 0, 1, 269, 2638.56)" filter="url(#Rectangle_977)">
      <rect id="Rectangle_977-2" data-name="Rectangle 977" width="735" height="457" rx="4" transform="translate(47 89.44)" fill="#e1f5f6"/>
    </g>
    <rect id="Rectangle_978" data-name="Rectangle 978" width="184" height="457" transform="translate(316 2728)" fill="#444584"/>
    <rect id="Rectangle_979" data-name="Rectangle 979" width="513" height="380" rx="4" transform="translate(522 2789)" fill="#fafafa"/>
    <path id="Rectangle_980" data-name="Rectangle 980" d="M4,0H257a0,0,0,0,1,0,0V380a0,0,0,0,1,0,0H4a4,4,0,0,1-4-4V4A4,4,0,0,1,4,0Z" transform="translate(522 2789)" fill="#fff"/>
    <g transform="matrix(1, 0, 0, 1, 269, 2638.56)" filter="url(#Rectangle_987)">
      <rect id="Rectangle_987-2" data-name="Rectangle 987" width="248" height="102" rx="8" transform="translate(528 183.44)" fill="#fff"/>
    </g>
    <path id="Icon_awesome-check-circle" data-name="Icon awesome-check-circle" d="M22.587,11.575A11.012,11.012,0,1,1,11.575.563,11.012,11.012,0,0,1,22.587,11.575ZM10.3,17.406l8.17-8.17a.71.71,0,0,0,0-1l-1-1a.71.71,0,0,0-1,0L9.8,13.889,6.688,10.778a.711.711,0,0,0-1,0l-1,1a.71.71,0,0,0,0,1L9.3,17.406a.71.71,0,0,0,1,0Z" transform="translate(824.863 2838.438)" fill="#38bdba"/>
    <path id="Rectangle_988" data-name="Rectangle 988" d="M8,0h8a0,0,0,0,1,0,0V102a0,0,0,0,1,0,0H8a8,8,0,0,1-8-8V8A8,8,0,0,1,8,0Z" transform="translate(797 2822)" fill="#38bdba"/>
    <text id="Mystery_Audits" data-name="Mystery Audits" transform="translate(918 2854)" font-size="14" font-family="Montserrat-SemiBold, Montserrat" font-weight="600" letter-spacing="0.05em" opacity="0.8"><tspan x="-58.401" y="0">Mystery Audits</tspan></text>
    <rect id="Rectangle_989" data-name="Rectangle 989" width="173" height="12" rx="6" transform="translate(860 2865)" fill="#f5f5f5"/>
    <rect id="Rectangle_990" data-name="Rectangle 990" width="173" height="12" rx="6" transform="translate(860 2882)" fill="#f5f5f5"/>
    <rect id="Rectangle_991" data-name="Rectangle 991" width="61" height="12" rx="6" transform="translate(860 2899)" fill="#f5f5f5"/>
    <path id="Icon_awesome-check-circle-2" data-name="Icon awesome-check-circle" d="M22.587,11.575A11.012,11.012,0,1,1,11.575.563,11.012,11.012,0,0,1,22.587,11.575ZM10.3,17.406l8.17-8.17a.71.71,0,0,0,0-1l-1-1a.71.71,0,0,0-1,0L9.8,13.889,6.688,10.778a.711.711,0,0,0-1,0l-1,1a.71.71,0,0,0,0,1L9.3,17.406a.71.71,0,0,0,1,0Z" transform="translate(824.863 2953.438)" fill="#38bdba"/>
    <text id="Product_Sampling" data-name="Product Sampling" transform="translate(931 2969)" font-size="14" font-family="Montserrat-SemiBold, Montserrat" font-weight="600" letter-spacing="0.05em" opacity="0.8"><tspan x="-70.763" y="0">Product Sampling</tspan></text>
    <path id="Icon_awesome-check-circle-3" data-name="Icon awesome-check-circle" d="M22.587,11.575A11.012,11.012,0,1,1,11.575.563,11.012,11.012,0,0,1,22.587,11.575ZM10.3,17.406l8.17-8.17a.71.71,0,0,0,0-1l-1-1a.71.71,0,0,0-1,0L9.8,13.889,6.688,10.778a.711.711,0,0,0-1,0l-1,1a.71.71,0,0,0,0,1L9.3,17.406a.71.71,0,0,0,1,0Z" transform="translate(824.863 3005.438)" fill="#38bdba"/>
    <text id="Beta_Testing" data-name="Beta Testing" transform="translate(909 3021)" font-size="14" font-family="Montserrat-SemiBold, Montserrat" font-weight="600" letter-spacing="0.05em" opacity="0.8"><tspan x="-49.147" y="0">Beta Testing</tspan></text>
    <path id="Icon_awesome-check-circle-4" data-name="Icon awesome-check-circle" d="M22.587,11.575A11.012,11.012,0,1,1,11.575.563,11.012,11.012,0,0,1,22.587,11.575ZM10.3,17.406l8.17-8.17a.71.71,0,0,0,0-1l-1-1a.71.71,0,0,0-1,0L9.8,13.889,6.688,10.778a.711.711,0,0,0-1,0l-1,1a.71.71,0,0,0,0,1L9.3,17.406a.71.71,0,0,0,1,0Z" transform="translate(824.863 3057.438)" fill="#38bdba"/>
    <text id="In_Depth_Interview" data-name="In Depth Interview" transform="translate(934 3073)" font-size="14" font-family="Montserrat-SemiBold, Montserrat" font-weight="600" letter-spacing="0.05em" opacity="0.8"><tspan x="-73.598" y="0">In Depth Interview</tspan></text>
    <path id="Icon_awesome-check-circle-5" data-name="Icon awesome-check-circle" d="M22.587,11.575A11.012,11.012,0,1,1,11.575.563,11.012,11.012,0,0,1,22.587,11.575ZM10.3,17.406l8.17-8.17a.71.71,0,0,0,0-1l-1-1a.71.71,0,0,0-1,0L9.8,13.889,6.688,10.778a.711.711,0,0,0-1,0l-1,1a.71.71,0,0,0,0,1L9.3,17.406a.71.71,0,0,0,1,0Z" transform="translate(824.863 3109.438)" fill="#38bdba"/>
    <text id="Customer_Survey_" data-name="Customer Survey " transform="translate(929 3125)" font-size="14" font-family="Montserrat-SemiBold, Montserrat" font-weight="600" letter-spacing="0.05em" opacity="0.8"><tspan x="-69.013" y="0">Customer Survey </tspan></text>
    <g id="undraw_people_search_wctu" transform="translate(533.046 2894.006)">
      <path id="Path_2616" data-name="Path 2616" d="M266.471,121.57c-8.349,11.456-5.594,27.808-.768,40.835,1.616,4.361,3.453,8.973,2.614,13.718-1.024,5.8-5.834,10.146-10.835,12.513a28.712,28.712,0,0,1-28.04-1.81c-7.037-4.691-11.991-12.488-19.165-16.955-12.006-7.474-27.592-4.135-40.954,1.572-9.453,4.037-19.809,9.236-29.021,5.508-6.483-2.623-10.848-9.3-13.145-16.437-1.109-3.446-1.885-7.186-4.094-9.884a15.114,15.114,0,0,0-4.834-3.655c-16.29-8.53-37.244-3.2-53.037-12.716-10.662-6.427-17.3-18.9-20.056-32.013s-2.075-26.955-.977-40.56c.78-9.669,2.015-20,7.828-27.6,6.148-8.033,16.452-11.225,25.667-9.967s17.476,6.376,24.7,12.486c9.04,7.622,17.356,17.19,28.6,20.084,7.658,1.97,15.793.576,23.754-.041,13.307-1.028,26.567.156,39.745,1.493,12.616,1.279,25.319,2.708,37.267,6.9,8.455,2.968,15.158,8.579,23.118,12.413,5.188,2.5,10.9,3.079,15.78,6.308,6.026,3.977,11.473,11.023,9.7,19.478C278.656,111.281,270.907,115.491,266.471,121.57Z" transform="translate(-43.2 -23.86)" fill="#6c63ff" opacity="0.1"/>
      <g id="Group_391" data-name="Group 391" transform="translate(168.417 76.297)" opacity="0.5">
        <path id="Path_2617" data-name="Path 2617" d="M898.19,504.41s.7-20.847,11.982-32.627a31.6,31.6,0,0,0,8.666-18.015,53.153,53.153,0,0,0,.264-9.718" transform="translate(-884.282 -430.747)" fill="none" stroke="#535461" stroke-miterlimit="10" stroke-width="2"/>
        <path id="Path_2618" data-name="Path 2618" d="M997.63,387.507c-.772,2.329-7.225,7.677-7.225,7.677s-1.977-8.148-1.2-10.475a4.441,4.441,0,1,1,8.43,2.8Z" transform="translate(-955.744 -381.666)" fill="#00c2cd"/>
        <path id="Path_2619" data-name="Path 2619" d="M1004.236,450.781C1002.317,452.316,994,453.3,994,453.3s2.772-7.914,4.691-9.447a4.44,4.44,0,1,1,5.544,6.926Z" transform="translate(-959.661 -429.735)" fill="#00c2cd"/>
        <path id="Path_2620" data-name="Path 2620" d="M969.02,550.639c-2.427.358-10.11-2.985-10.11-2.985s6.385-5.434,8.811-5.792a4.441,4.441,0,0,1,1.3,8.786Z" transform="translate(-932.053 -507.662)" fill="#00c2cd"/>
        <path id="Path_2621" data-name="Path 2621" d="M923.16,622.985c-2.331.763-10.471-1.241-10.471-1.241s5.376-6.434,7.707-7.2a4.441,4.441,0,0,1,2.772,8.438Z" transform="translate(-895.69 -564.71)" fill="#00c2cd"/>
        <path id="Path_2622" data-name="Path 2622" d="M949.969,456.578c1.132,2.175,8.362,6.434,8.362,6.434s.657-8.357-.476-10.534a4.44,4.44,0,1,0-7.877,4.1Z" transform="translate(-924.631 -435.495)" fill="#00c2cd"/>
        <path id="Path_2623" data-name="Path 2623" d="M896,537.13c1.732,1.738,9.895,3.64,9.895,3.64s-1.874-8.172-3.6-9.91A4.44,4.44,0,1,0,896,537.128Z" transform="translate(-881.543 -498.017)" fill="#00c2cd"/>
        <path id="Path_2624" data-name="Path 2624" d="M859.194,627.815c1.412,2,9.138,5.261,9.138,5.261s-.465-8.37-1.879-10.377a4.44,4.44,0,1,0-7.25,5.118Z" transform="translate(-852.901 -569.725)" fill="#00c2cd"/>
        <path id="Path_2625" data-name="Path 2625" d="M871.779,564.851s-6.4-9.306-5.276-18.062a17.112,17.112,0,0,0-2.022-10.633,28.8,28.8,0,0,0-3.011-4.316" transform="translate(-855.393 -499.816)" fill="none" stroke="#535461" stroke-miterlimit="10" stroke-width="2"/>
        <path id="Path_2626" data-name="Path 2626" d="M847.339,499.831c.412,1.262-.676,5.668-.676,5.668s-3.482-2.913-3.894-4.173a2.4,2.4,0,1,1,4.57-1.493Z" transform="translate(-840.586 -473.329)" fill="#6c63ff"/>
        <path id="Path_2627" data-name="Path 2627" d="M875.716,521.787c-.339,1.279-3.649,4.391-3.649,4.391s-1.339-4.337-1-5.621a2.4,2.4,0,0,1,4.649,1.23Z" transform="translate(-862.9 -489.53)" fill="#6c63ff"/>
        <path id="Path_2628" data-name="Path 2628" d="M890.815,574.038c-.94.936-5.365,1.949-5.365,1.949s1.032-4.421,1.975-5.357a2.405,2.405,0,1,1,3.391,3.412Z" transform="translate(-874.259 -529.784)" fill="#6c63ff"/>
        <path id="Path_2629" data-name="Path 2629" d="M895.969,620.736c-.77,1.081-4.969,2.823-4.969,2.823s.271-4.532,1.041-5.613a2.4,2.4,0,0,1,3.92,2.785Z" transform="translate(-878.625 -566.764)" fill="#6c63ff"/>
        <path id="Path_2630" data-name="Path 2630" d="M848.866,545.165c1.192.584,5.707.115,5.707.115s-2.4-3.851-3.6-4.433a2.4,2.4,0,0,0-2.111,4.318Z" transform="translate(-844.415 -506.709)" fill="#6c63ff"/>
        <path id="Path_2631" data-name="Path 2631" d="M851.293,597.643c1.314.2,5.481-1.6,5.481-1.6s-3.446-2.956-4.758-3.148a2.4,2.4,0,1,0-.723,4.753Z" transform="translate(-845.778 -547.831)" fill="#6c63ff"/>
        <path id="Path_2632" data-name="Path 2632" d="M864.694,649.06c1.26.427,5.672-.64,5.672-.64s-2.9-3.5-4.156-3.915a2.4,2.4,0,0,0-1.516,4.564Z" transform="translate(-856.633 -588.358)" fill="#6c63ff"/>
        <path id="Path_2633" data-name="Path 2633" d="M847.339,499.831c.412,1.262-.676,5.668-.676,5.668s-3.482-2.913-3.894-4.173a2.4,2.4,0,1,1,4.57-1.493Z" transform="translate(-840.586 -473.329)" fill="#fff" opacity="0.5"/>
        <path id="Path_2634" data-name="Path 2634" d="M875.716,521.787c-.339,1.279-3.649,4.391-3.649,4.391s-1.339-4.337-1-5.621a2.4,2.4,0,0,1,4.649,1.23Z" transform="translate(-862.9 -489.53)" fill="#fff" opacity="0.5"/>
        <path id="Path_2635" data-name="Path 2635" d="M890.815,574.038c-.94.936-5.365,1.949-5.365,1.949s1.032-4.421,1.975-5.357a2.405,2.405,0,1,1,3.391,3.412Z" transform="translate(-874.259 -529.784)" fill="#fff" opacity="0.5"/>
        <path id="Path_2636" data-name="Path 2636" d="M895.969,620.736c-.77,1.081-4.969,2.823-4.969,2.823s.271-4.532,1.041-5.613a2.4,2.4,0,0,1,3.92,2.785Z" transform="translate(-878.625 -566.764)" fill="#fff" opacity="0.5"/>
        <path id="Path_2637" data-name="Path 2637" d="M848.866,545.165c1.192.584,5.707.115,5.707.115s-2.4-3.851-3.6-4.433a2.4,2.4,0,0,0-2.111,4.318Z" transform="translate(-844.415 -506.709)" fill="#fff" opacity="0.5"/>
        <path id="Path_2638" data-name="Path 2638" d="M851.293,597.643c1.314.2,5.481-1.6,5.481-1.6s-3.446-2.956-4.758-3.148a2.4,2.4,0,1,0-.723,4.753Z" transform="translate(-845.778 -547.831)" fill="#fff" opacity="0.5"/>
        <path id="Path_2639" data-name="Path 2639" d="M864.694,649.06c1.26.427,5.672-.64,5.672-.64s-2.9-3.5-4.156-3.915a2.4,2.4,0,0,0-1.516,4.564Z" transform="translate(-856.633 -588.358)" fill="#fff" opacity="0.5"/>
        <path id="Path_2640" data-name="Path 2640" d="M794.319,678.73h18.2l4.551-27.75h-27.3Z" transform="translate(-789.77 -588.461)" fill="#170000"/>
        <path id="Path_2641" data-name="Path 2641" d="M793.252,650.98l4.25,25.931h15.311l-.3,1.819h-18.2l-4.549-27.75Z" transform="translate(-789.77 -588.461)" opacity="0.1"/>
      </g>
      <rect id="Rectangle_1123" data-name="Rectangle 1123" width="133.494" height="161.067" transform="translate(42.923 8.374)" fill="url(#linear-gradient)"/>
      <rect id="Rectangle_1124" data-name="Rectangle 1124" width="130.082" height="156.951" transform="translate(44.629 10.434)" fill="#fff"/>
      <rect id="Rectangle_1125" data-name="Rectangle 1125" width="52.459" height="2.559" transform="translate(95.169 28.134)" fill="#c0bccf"/>
      <rect id="Rectangle_1126" data-name="Rectangle 1126" width="52.459" height="2.559" transform="translate(95.169 36.237)" fill="#c0bccf"/>
      <rect id="Rectangle_1127" data-name="Rectangle 1127" width="27.296" height="2.559" transform="translate(107.75 44.34)" fill="#444584"/>
      <rect id="Rectangle_1128" data-name="Rectangle 1128" width="52.459" height="2.559" transform="translate(95.169 79.527)" fill="#c0bccf" opacity="0.5"/>
      <rect id="Rectangle_1129" data-name="Rectangle 1129" width="52.459" height="2.559" transform="translate(95.169 87.63)" fill="#c0bccf" opacity="0.5"/>
      <rect id="Rectangle_1130" data-name="Rectangle 1130" width="27.296" height="2.559" transform="translate(107.75 95.733)" fill="#444584" opacity="0.5"/>
      <rect id="Rectangle_1131" data-name="Rectangle 1131" width="52.459" height="2.559" transform="translate(95.169 130.919)" fill="#c0bccf" opacity="0.5"/>
      <rect id="Rectangle_1132" data-name="Rectangle 1132" width="52.459" height="2.559" transform="translate(95.169 139.023)" fill="#c0bccf" opacity="0.5"/>
      <rect id="Rectangle_1133" data-name="Rectangle 1133" width="27.296" height="2.559" transform="translate(107.75 147.126)" fill="#444584" opacity="0.5"/>
      <g id="Group_392" data-name="Group 392" transform="translate(51.666 74.406)" opacity="0.5">
        <path id="Path_2642" data-name="Path 2642" d="M314.482,387.3a14.433,14.433,0,0,1-3.491,9.436c-.111.13-.226.258-.343.384q-.087.1-.179.192a14.229,14.229,0,0,1-1.548,1.405l-.038.028a14.175,14.175,0,0,1-2.751,1.689h0a14.292,14.292,0,0,1-1.544.618l-.194.062c-.119.041-.243.077-.365.111l-.049.015a14.571,14.571,0,0,1-8.007,0h-.021c-.213-.062-.427-.126-.623-.2l-.181-.064a14.059,14.059,0,0,1-2-.887l-.04-.021a14.558,14.558,0,0,1-2.841-2.011l-.07-.066a13.549,13.549,0,0,1-1.239-1.28c-.051-.058-.1-.117-.149-.177-.094-.111-.183-.226-.273-.341a14.5,14.5,0,1,1,25.952-8.9Z" transform="translate(-285.48 -372.798)" fill="#c0bccf"/>
        <path id="Path_2643" data-name="Path 2643" d="M321.764,403.977l-1.1-.495a4.356,4.356,0,0,0,.021-.5,3.961,3.961,0,0,0,0-.427,9.617,9.617,0,0,0-1.329-3.124,8.873,8.873,0,0,1-.868-2.985,14.431,14.431,0,0,0-.469-3.809,6.872,6.872,0,0,0-1.945-2.5,9.871,9.871,0,0,0-3.124-1.981,5.525,5.525,0,0,0-3.721-.1,8.03,8.03,0,0,0-2.681,1.936,9.011,9.011,0,0,0-1.514,1.723,7.452,7.452,0,0,0-.853,2.606,39.857,39.857,0,0,0-.525,4.354c-.083,1.218-.213,2.6-1.254,3.346-.508.365-1.222.569-1.454,1.122a1.147,1.147,0,0,0-.077.522,1.92,1.92,0,0,0,.032.441c.015.085.032.168.053.254a18.712,18.712,0,0,0-.751,2.278c-.156.576-.3,1.141-.427,1.689h.529l1.987.047h.028l2.132.049h.011l1.987.047h.049l.574.041h.188l7.948.183h.043l.529.013h.186l1.591.036h0l2.346.053h.017l1.766.043h.55l-.094-1.851C322.534,404.154,321.764,403.977,321.764,403.977Zm-8.929-.226c0,1.569-1.68,3.491-1.68,3.491l-1.691-2.3.062-.09,1.629,2.218s1.68-1.919,1.68-3.491a1.85,1.85,0,0,1,.134-.23l.038.119A2.265,2.265,0,0,0,312.835,403.751Zm2.585,6.159a1.287,1.287,0,0,0-.015-.239c-.015-.079-.013-.149-.023-.226s-.019-.151-.03-.228-.026-.151-.041-.228-.03-.151-.047-.228a.359.359,0,0,0-.017-.077q-.035-.15-.077-.3c-.028-.1-.045-.162-.07-.241a.327.327,0,0,0-.034-.107c-.013-.034-.036-.115-.055-.173l-.038-.111c-.017-.049-.034-.1-.053-.149-.032-.09-.066-.177-.1-.267s-.07-.177-.107-.264c-.073-.179-.151-.356-.23-.535-.309-.691-.657-1.371-.977-2.045a10.861,10.861,0,0,1-.456-1.083l-.041.053a2.265,2.265,0,0,0-.173.288c0,1.569-1.68,3.491-1.68,3.491l-1.691-2.3-1.48,2.132a1.725,1.725,0,0,0-.593.985c-.047.139-.092.292-.134.452-.03.109-.058.213-.083.335-.015.058-.028.115-.041.175l-.038.181v.028c-.026.124-.051.252-.075.382s-.051.279-.075.427q-.026.139-.045.275c-.03.177-.055.356-.081.535-.015.1-.03.213-.043.309l-.051.4c.109.326.23.64.356.968a1.523,1.523,0,0,1,.139.548,15.541,15.541,0,0,0,8.008,0,.072.072,0,0,1,0-.019,2.226,2.226,0,0,1-.051-.544h0a14.052,14.052,0,0,1,.213-1.527,5.212,5.212,0,0,0,.041-.751v-.09c-.006-.081-.009-.154-.011-.224Zm0,0a1.287,1.287,0,0,0-.015-.239c-.015-.079-.013-.149-.023-.226s-.019-.151-.03-.228-.026-.151-.041-.228-.03-.151-.047-.228a.359.359,0,0,0-.017-.077q-.035-.15-.077-.3c-.028-.1-.045-.162-.07-.241a.327.327,0,0,0-.034-.107c-.013-.034-.036-.115-.055-.173l-.038-.111c-.017-.049-.034-.1-.053-.149-.032-.09-.066-.177-.1-.267s-.07-.177-.107-.264c-.073-.179-.151-.356-.23-.535-.309-.691-.657-1.371-.977-2.045a10.861,10.861,0,0,1-.456-1.083l-.041.053a2.265,2.265,0,0,0-.173.288c0,1.569-1.68,3.491-1.68,3.491l-1.691-2.3-1.48,2.132a1.725,1.725,0,0,0-.593.985c-.047.139-.092.292-.134.452-.03.109-.058.213-.083.335-.015.058-.028.115-.041.175l-.038.181v.028c-.026.124-.051.252-.075.382s-.051.279-.075.427q-.026.139-.045.275c-.03.177-.055.356-.081.535-.015.1-.03.213-.043.309l-.051.4c.109.326.23.64.356.968a1.523,1.523,0,0,1,.139.548,15.541,15.541,0,0,0,8.008,0,.072.072,0,0,1,0-.019,2.226,2.226,0,0,1-.051-.544h0a14.052,14.052,0,0,1,.213-1.527,5.212,5.212,0,0,0,.041-.751v-.09c-.006-.081-.009-.154-.011-.224Zm0,0a1.287,1.287,0,0,0-.015-.239c-.015-.079-.013-.149-.023-.226s-.019-.151-.03-.228-.026-.151-.041-.228-.03-.151-.047-.228a.359.359,0,0,0-.017-.077q-.035-.15-.077-.3c-.028-.1-.045-.162-.07-.241a.327.327,0,0,0-.034-.107c-.013-.034-.036-.115-.055-.173l-.038-.111c-.017-.049-.034-.1-.053-.149-.032-.09-.066-.177-.1-.267s-.07-.177-.107-.264c-.073-.179-.151-.356-.23-.535-.309-.691-.657-1.371-.977-2.045a10.861,10.861,0,0,1-.456-1.083l-.041.053a2.265,2.265,0,0,0-.173.288c0,1.569-1.68,3.491-1.68,3.491l-1.691-2.3-1.48,2.132a1.725,1.725,0,0,0-.593.985c-.047.139-.092.292-.134.452-.03.109-.058.213-.083.335-.015.058-.028.115-.041.175l-.038.181v.028c-.026.124-.051.252-.075.382s-.051.279-.075.427q-.026.139-.045.275c-.03.177-.055.356-.081.535-.015.1-.03.213-.043.309l-.051.4c.109.326.23.64.356.968a1.523,1.523,0,0,1,.139.548,15.541,15.541,0,0,0,8.008,0,.072.072,0,0,1,0-.019,2.226,2.226,0,0,1-.051-.544h0a14.052,14.052,0,0,1,.213-1.527,5.212,5.212,0,0,0,.041-.751v-.09c-.006-.081-.009-.154-.011-.224Zm0,0a1.287,1.287,0,0,0-.015-.239c-.015-.079-.013-.149-.023-.226s-.019-.151-.03-.228-.026-.151-.041-.228-.03-.151-.047-.228a.359.359,0,0,0-.017-.077q-.035-.15-.077-.3c-.028-.1-.045-.162-.07-.241a.327.327,0,0,0-.034-.107c-.013-.034-.036-.115-.055-.173l-.038-.111c-.017-.049-.034-.1-.053-.149-.032-.09-.066-.177-.1-.267s-.07-.177-.107-.264c-.073-.179-.151-.356-.23-.535-.309-.691-.657-1.371-.977-2.045a10.861,10.861,0,0,1-.456-1.083l-.041.053a2.265,2.265,0,0,0-.173.288c0,1.569-1.68,3.491-1.68,3.491l-1.691-2.3-1.48,2.132a1.725,1.725,0,0,0-.593.985c-.047.139-.092.292-.134.452-.03.109-.058.213-.083.335-.015.058-.028.115-.041.175l-.038.181v.028c-.026.124-.051.252-.075.382s-.051.279-.075.427q-.026.139-.045.275c-.03.177-.055.356-.081.535-.015.1-.03.213-.043.309l-.051.4c.109.326.23.64.356.968a1.523,1.523,0,0,1,.139.548,15.541,15.541,0,0,0,8.008,0,.072.072,0,0,1,0-.019,2.226,2.226,0,0,1-.051-.544h0a14.052,14.052,0,0,1,.213-1.527,5.212,5.212,0,0,0,.041-.751v-.09c-.006-.081-.009-.154-.011-.224Z" transform="translate(-296.731 -384.583)" fill="url(#linear-gradient-2)"/>
        <rect id="Rectangle_1134" data-name="Rectangle 1134" width="9.809" height="6.611" transform="translate(8.956 10.452)" fill="#493545"/>
        <path id="Path_2644" data-name="Path 2644" d="M338.529,433.294l-4.105,5.783-4.291-.373s-5.6.371-1.866-3.917a9.206,9.206,0,0,0,2.506-5.007,3.877,3.877,0,0,0-.267-2.081l4.664-.559a3.48,3.48,0,0,0-.077,1.947C335.678,431.509,338.529,433.294,338.529,433.294Z" transform="translate(-318.134 -415.552)" fill="#c77485"/>
        <path id="Path_2645" data-name="Path 2645" d="M348.077,429.065a4.662,4.662,0,0,1-4.32.7,3.877,3.877,0,0,0-.267-2.081l4.664-.559A3.48,3.48,0,0,0,348.077,429.065Z" transform="translate(-331.119 -415.536)" opacity="0.1"/>
        <circle id="Ellipse_560" data-name="Ellipse 560" cx="4.664" cy="4.664" r="4.664" transform="translate(9.481 4.961)" fill="#c77485"/>
        <path id="Path_2646" data-name="Path 2646" d="M333.823,450.51l-.109-.426-.094-.375-.139-.554-.026-.1-.021-.085s.111-.335-.621-.226l-.136.023c-.115.023-.25.055-.4.1l-.139.043-.183.058h0a4,4,0,0,0-1.548.934,3.486,3.486,0,0,0-.518.627c-.015.021-.026.041-.038.058a2.01,2.01,0,0,0-.134.247c0,1.68-1.68,3.732-1.68,3.732l-1.64-2.369-.032-.047-.39-.567-.139-.183-.047-.064-.853-1.145-.213-.286-.07-.1-.1-.139-.245-.326-.96.561-1.28.746-.746,4.851v.134l.023.4.156,2.636v.036l-.273,1.092.041.021a14.059,14.059,0,0,0,2,.887l.181.064c.213.07.414.134.623.2a.752.752,0,0,1,.017.1c0-.03,0-.062,0-.092a14.571,14.571,0,0,0,8.007,0l.049-.015c.122-.034.245-.07.365-.111l.194-.062a14.283,14.283,0,0,0,1.544-.618l.179-3.817.128-2.753v-.158Z" transform="translate(-313.599 -432.528)" opacity="0.1"/>
        <path id="Path_2647" data-name="Path 2647" d="M332.461,458.3a1.473,1.473,0,0,0-.015-.256c-.015-.085-.013-.16-.023-.241s-.019-.162-.03-.243-.026-.162-.04-.243-.03-.162-.047-.243a.368.368,0,0,0-.017-.081c-.023-.107-.049-.213-.077-.322s-.045-.173-.07-.258a.364.364,0,0,0-.034-.113c-.013-.036-.036-.124-.055-.186l-.038-.119c-.017-.053-.034-.107-.053-.16-.032-.1-.066-.19-.1-.286s-.07-.19-.107-.284c-.073-.192-.151-.382-.23-.572-.309-.738-.657-1.465-.977-2.186a12.091,12.091,0,0,1-.456-1.158l-.04.058a2.467,2.467,0,0,0-.173.307c0,1.678-1.68,3.732-1.68,3.732l-1.691-2.463-1.48,2.275a1.858,1.858,0,0,0-.593,1.053c-.047.149-.092.311-.134.484-.03.115-.058.237-.083.358-.015.062-.028.124-.04.188l-.038.194v.03c-.026.132-.051.269-.075.407s-.051.3-.075.45q-.026.147-.045.294c-.03.19-.055.382-.081.572-.015.111-.03.213-.043.331l-.051.427c.109.35.23.7.356,1.034a1.718,1.718,0,0,1,.139.586,14.571,14.571,0,0,0,8.008,0,.081.081,0,0,1,0-.021,2.54,2.54,0,0,1-.051-.582h0a16,16,0,0,1,.213-1.631,5.965,5.965,0,0,0,.041-.8v-.1C332.465,458.451,332.463,458.374,332.461,458.3Zm0,0a1.473,1.473,0,0,0-.015-.256c-.015-.085-.013-.16-.023-.241s-.019-.162-.03-.243-.026-.162-.04-.243-.03-.162-.047-.243a.368.368,0,0,0-.017-.081c-.023-.107-.049-.213-.077-.322s-.045-.173-.07-.258a.364.364,0,0,0-.034-.113c-.013-.036-.036-.124-.055-.186l-.038-.119c-.017-.053-.034-.107-.053-.16-.032-.1-.066-.19-.1-.286s-.07-.19-.107-.284c-.073-.192-.151-.382-.23-.572-.309-.738-.657-1.465-.977-2.186a12.091,12.091,0,0,1-.456-1.158l-.04.058a2.467,2.467,0,0,0-.173.307c0,1.678-1.68,3.732-1.68,3.732l-1.691-2.463-1.48,2.275a1.858,1.858,0,0,0-.593,1.053c-.047.149-.092.311-.134.484-.03.115-.058.237-.083.358-.015.062-.028.124-.04.188l-.038.194v.03c-.026.132-.051.269-.075.407s-.051.3-.075.45q-.026.147-.045.294c-.03.19-.055.382-.081.572-.015.111-.03.213-.043.331l-.051.427c.109.35.23.7.356,1.034a1.718,1.718,0,0,1,.139.586,14.571,14.571,0,0,0,8.008,0,.081.081,0,0,1,0-.021,2.54,2.54,0,0,1-.051-.582h0a16,16,0,0,1,.213-1.631,5.965,5.965,0,0,0,.041-.8v-.1C332.465,458.451,332.463,458.374,332.461,458.3Zm0,0a1.473,1.473,0,0,0-.015-.256c-.015-.085-.013-.16-.023-.241s-.019-.162-.03-.243-.026-.162-.04-.243-.03-.162-.047-.243a.368.368,0,0,0-.017-.081c-.023-.107-.049-.213-.077-.322s-.045-.173-.07-.258a.364.364,0,0,0-.034-.113c-.013-.036-.036-.124-.055-.186l-.038-.119c-.017-.053-.034-.107-.053-.16-.032-.1-.066-.19-.1-.286s-.07-.19-.107-.284c-.073-.192-.151-.382-.23-.572-.309-.738-.657-1.465-.977-2.186a12.091,12.091,0,0,1-.456-1.158l-.04.058a2.467,2.467,0,0,0-.173.307c0,1.678-1.68,3.732-1.68,3.732l-1.691-2.463-1.48,2.275a1.858,1.858,0,0,0-.593,1.053c-.047.149-.092.311-.134.484-.03.115-.058.237-.083.358-.015.062-.028.124-.04.188l-.038.194v.03c-.026.132-.051.269-.075.407s-.051.3-.075.45q-.026.147-.045.294c-.03.19-.055.382-.081.572-.015.111-.03.213-.043.331l-.051.427c.109.35.23.7.356,1.034a1.718,1.718,0,0,1,.139.586,14.571,14.571,0,0,0,8.008,0,.081.081,0,0,1,0-.021,2.54,2.54,0,0,1-.051-.582h0a16,16,0,0,1,.213-1.631,5.965,5.965,0,0,0,.041-.8v-.1C332.465,458.451,332.463,458.374,332.461,458.3Zm2.26-4-.761-3.039-.13-.52-.036-.143h0l-.186-.742a.134.134,0,0,0,0-.019h0a.17.17,0,0,0-.015-.1c-.028-.055-.1-.113-.262-.128a1.328,1.328,0,0,0-.188,0h0a3.25,3.25,0,0,0-.548.1c-.087.023-.181.049-.281.081l-.183.058h-.017a4.067,4.067,0,0,0-1.343.746,3.624,3.624,0,0,0-.682.755l-.041.058a2.459,2.459,0,0,0-.173.307c0,1.678-1.68,3.732-1.68,3.732l-1.691-2.463-.1-.139-.017-.023-.245-.36-.186-.247-.049-.064-.874-1.166h0l-.277-.377v-.013l-.1-.13-.183-.243-.64.373-1.6.932-.738,4.8v.051l.021.35.158,2.672v.151l-.241.962a14.064,14.064,0,0,0,2,.887l.181.064c.213.07.414.134.623.2a.754.754,0,0,1,.017.1v-.092a14.572,14.572,0,0,0,8.007,0l.049-.015c.122-.034.245-.07.365-.111l.194-.062a14.286,14.286,0,0,0,1.544-.618h0l.177-3.813.128-2.723Zm-10.488,7.363a.754.754,0,0,1,.017.1c0-.03,0-.062,0-.092Zm8.227-3.361a1.473,1.473,0,0,0-.015-.256c-.015-.085-.013-.16-.023-.241s-.019-.162-.03-.243-.026-.162-.04-.243-.03-.162-.047-.243a.368.368,0,0,0-.017-.081c-.023-.107-.049-.213-.077-.322s-.045-.173-.07-.258a.364.364,0,0,0-.034-.113c-.013-.036-.036-.124-.055-.186l-.038-.119c-.017-.053-.034-.107-.053-.16-.032-.1-.066-.19-.1-.286s-.07-.19-.107-.284c-.073-.192-.151-.382-.23-.572-.309-.738-.657-1.465-.977-2.186a12.091,12.091,0,0,1-.456-1.158l-.04.058a2.467,2.467,0,0,0-.173.307c0,1.678-1.68,3.732-1.68,3.732l-1.691-2.463-1.48,2.275a1.858,1.858,0,0,0-.593,1.053c-.047.149-.092.311-.134.484-.03.115-.058.237-.083.358-.015.062-.028.124-.04.188l-.038.194v.03c-.026.132-.051.269-.075.407s-.051.3-.075.45q-.026.147-.045.294c-.03.19-.055.382-.081.572-.015.111-.03.213-.043.331l-.051.427c.109.35.23.7.356,1.034a1.718,1.718,0,0,1,.139.586,14.571,14.571,0,0,0,8.008,0,.081.081,0,0,1,0-.021,2.54,2.54,0,0,1-.051-.582h0a16,16,0,0,1,.213-1.631,5.965,5.965,0,0,0,.041-.8v-.1C332.465,458.451,332.463,458.374,332.461,458.3Zm0,0a1.473,1.473,0,0,0-.015-.256c-.015-.085-.013-.16-.023-.241s-.019-.162-.03-.243-.026-.162-.04-.243-.03-.162-.047-.243a.368.368,0,0,0-.017-.081c-.023-.107-.049-.213-.077-.322s-.045-.173-.07-.258a.364.364,0,0,0-.034-.113c-.013-.036-.036-.124-.055-.186l-.038-.119c-.017-.053-.034-.107-.053-.16-.032-.1-.066-.19-.1-.286s-.07-.19-.107-.284c-.073-.192-.151-.382-.23-.572-.309-.738-.657-1.465-.977-2.186a12.091,12.091,0,0,1-.456-1.158l-.04.058a2.467,2.467,0,0,0-.173.307c0,1.678-1.68,3.732-1.68,3.732l-1.691-2.463-1.48,2.275a1.858,1.858,0,0,0-.593,1.053c-.047.149-.092.311-.134.484-.03.115-.058.237-.083.358-.015.062-.028.124-.04.188l-.038.194v.03c-.026.132-.051.269-.075.407s-.051.3-.075.45q-.026.147-.045.294c-.03.19-.055.382-.081.572-.015.111-.03.213-.043.331l-.051.427c.109.35.23.7.356,1.034a1.718,1.718,0,0,1,.139.586,14.571,14.571,0,0,0,8.008,0,.081.081,0,0,1,0-.021,2.54,2.54,0,0,1-.051-.582h0a16,16,0,0,1,.213-1.631,5.965,5.965,0,0,0,.041-.8v-.1C332.465,458.451,332.463,458.374,332.461,458.3Zm0,0a1.473,1.473,0,0,0-.015-.256c-.015-.085-.013-.16-.023-.241s-.019-.162-.03-.243-.026-.162-.04-.243-.03-.162-.047-.243a.368.368,0,0,0-.017-.081c-.023-.107-.049-.213-.077-.322s-.045-.173-.07-.258a.364.364,0,0,0-.034-.113c-.013-.036-.036-.124-.055-.186l-.038-.119c-.017-.053-.034-.107-.053-.16-.032-.1-.066-.19-.1-.286s-.07-.19-.107-.284c-.073-.192-.151-.382-.23-.572-.309-.738-.657-1.465-.977-2.186a12.091,12.091,0,0,1-.456-1.158l-.04.058a2.467,2.467,0,0,0-.173.307c0,1.678-1.68,3.732-1.68,3.732l-1.691-2.463-1.48,2.275a1.858,1.858,0,0,0-.593,1.053c-.047.149-.092.311-.134.484-.03.115-.058.237-.083.358-.015.062-.028.124-.04.188l-.038.194v.03c-.026.132-.051.269-.075.407s-.051.3-.075.45q-.026.147-.045.294c-.03.19-.055.382-.081.572-.015.111-.03.213-.043.331l-.051.427c.109.35.23.7.356,1.034a1.718,1.718,0,0,1,.139.586,14.571,14.571,0,0,0,8.008,0,.081.081,0,0,1,0-.021,2.54,2.54,0,0,1-.051-.582h0a16,16,0,0,1,.213-1.631,5.965,5.965,0,0,0,.041-.8v-.1C332.465,458.451,332.463,458.374,332.461,458.3Zm0,0a1.473,1.473,0,0,0-.015-.256c-.015-.085-.013-.16-.023-.241s-.019-.162-.03-.243-.026-.162-.04-.243-.03-.162-.047-.243a.368.368,0,0,0-.017-.081c-.023-.107-.049-.213-.077-.322s-.045-.173-.07-.258a.364.364,0,0,0-.034-.113c-.013-.036-.036-.124-.055-.186l-.038-.119c-.017-.053-.034-.107-.053-.16-.032-.1-.066-.19-.1-.286s-.07-.19-.107-.284c-.073-.192-.151-.382-.23-.572-.309-.738-.657-1.465-.977-2.186a12.091,12.091,0,0,1-.456-1.158l-.04.058a2.467,2.467,0,0,0-.173.307c0,1.678-1.68,3.732-1.68,3.732l-1.691-2.463-1.48,2.275a1.858,1.858,0,0,0-.593,1.053c-.047.149-.092.311-.134.484-.03.115-.058.237-.083.358-.015.062-.028.124-.04.188l-.038.194v.03c-.026.132-.051.269-.075.407s-.051.3-.075.45q-.026.147-.045.294c-.03.19-.055.382-.081.572-.015.111-.03.213-.043.331l-.051.427c.109.35.23.7.356,1.034a1.718,1.718,0,0,1,.139.586,14.571,14.571,0,0,0,8.008,0,.081.081,0,0,1,0-.021,2.54,2.54,0,0,1-.051-.582h0a16,16,0,0,1,.213-1.631,5.965,5.965,0,0,0,.041-.8v-.1C332.465,458.451,332.463,458.374,332.461,458.3Zm0,0a1.473,1.473,0,0,0-.015-.256c-.015-.085-.013-.16-.023-.241s-.019-.162-.03-.243-.026-.162-.04-.243-.03-.162-.047-.243a.368.368,0,0,0-.017-.081c-.023-.107-.049-.213-.077-.322s-.045-.173-.07-.258a.364.364,0,0,0-.034-.113c-.013-.036-.036-.124-.055-.186l-.038-.119c-.017-.053-.034-.107-.053-.16-.032-.1-.066-.19-.1-.286s-.07-.19-.107-.284c-.073-.192-.151-.382-.23-.572-.309-.738-.657-1.465-.977-2.186a12.091,12.091,0,0,1-.456-1.158l-.04.058a2.467,2.467,0,0,0-.173.307c0,1.678-1.68,3.732-1.68,3.732l-1.691-2.463-1.48,2.275a1.858,1.858,0,0,0-.593,1.053c-.047.149-.092.311-.134.484-.03.115-.058.237-.083.358-.015.062-.028.124-.04.188l-.038.194v.03c-.026.132-.051.269-.075.407s-.051.3-.075.45q-.026.147-.045.294c-.03.19-.055.382-.081.572-.015.111-.03.213-.043.331l-.051.427c.109.35.23.7.356,1.034a1.718,1.718,0,0,1,.139.586,14.571,14.571,0,0,0,8.008,0,.081.081,0,0,1,0-.021,2.54,2.54,0,0,1-.051-.582h0a16,16,0,0,1,.213-1.631,5.965,5.965,0,0,0,.041-.8v-.1C332.465,458.451,332.463,458.374,332.461,458.3Zm0,0a1.473,1.473,0,0,0-.015-.256c-.015-.085-.013-.16-.023-.241s-.019-.162-.03-.243-.026-.162-.04-.243-.03-.162-.047-.243a.368.368,0,0,0-.017-.081c-.023-.107-.049-.213-.077-.322s-.045-.173-.07-.258a.364.364,0,0,0-.034-.113c-.013-.036-.036-.124-.055-.186l-.038-.119c-.017-.053-.034-.107-.053-.16-.032-.1-.066-.19-.1-.286s-.07-.19-.107-.284c-.073-.192-.151-.382-.23-.572-.309-.738-.657-1.465-.977-2.186a12.091,12.091,0,0,1-.456-1.158l-.04.058a2.467,2.467,0,0,0-.173.307c0,1.678-1.68,3.732-1.68,3.732l-1.691-2.463-1.48,2.275a1.858,1.858,0,0,0-.593,1.053c-.047.149-.092.311-.134.484-.03.115-.058.237-.083.358-.015.062-.028.124-.04.188l-.038.194v.03c-.026.132-.051.269-.075.407s-.051.3-.075.45q-.026.147-.045.294c-.03.19-.055.382-.081.572-.015.111-.03.213-.043.331l-.051.427c.109.35.23.7.356,1.034a1.718,1.718,0,0,1,.139.586,14.571,14.571,0,0,0,8.008,0,.081.081,0,0,1,0-.021,2.54,2.54,0,0,1-.051-.582h0a16,16,0,0,1,.213-1.631,5.965,5.965,0,0,0,.041-.8v-.1C332.465,458.451,332.463,458.374,332.461,458.3Zm0,0a1.473,1.473,0,0,0-.015-.256c-.015-.085-.013-.16-.023-.241s-.019-.162-.03-.243-.026-.162-.04-.243-.03-.162-.047-.243a.368.368,0,0,0-.017-.081c-.023-.107-.049-.213-.077-.322s-.045-.173-.07-.258a.364.364,0,0,0-.034-.113c-.013-.036-.036-.124-.055-.186l-.038-.119c-.017-.053-.034-.107-.053-.16-.032-.1-.066-.19-.1-.286s-.07-.19-.107-.284c-.073-.192-.151-.382-.23-.572-.309-.738-.657-1.465-.977-2.186a12.091,12.091,0,0,1-.456-1.158l-.04.058a2.467,2.467,0,0,0-.173.307c0,1.678-1.68,3.732-1.68,3.732l-1.691-2.463-1.48,2.275a1.858,1.858,0,0,0-.593,1.053c-.047.149-.092.311-.134.484-.03.115-.058.237-.083.358-.015.062-.028.124-.04.188l-.038.194v.03c-.026.132-.051.269-.075.407s-.051.3-.075.45q-.026.147-.045.294c-.03.19-.055.382-.081.572-.015.111-.03.213-.043.331l-.051.427c.109.35.23.7.356,1.034a1.718,1.718,0,0,1,.139.586,14.571,14.571,0,0,0,8.008,0,.081.081,0,0,1,0-.021,2.54,2.54,0,0,1-.051-.582h0a16,16,0,0,1,.213-1.631,5.965,5.965,0,0,0,.041-.8v-.1C332.465,458.451,332.463,458.374,332.461,458.3Zm0,0a1.473,1.473,0,0,0-.015-.256c-.015-.085-.013-.16-.023-.241s-.019-.162-.03-.243-.026-.162-.04-.243-.03-.162-.047-.243a.368.368,0,0,0-.017-.081c-.023-.107-.049-.213-.077-.322s-.045-.173-.07-.258a.364.364,0,0,0-.034-.113c-.013-.036-.036-.124-.055-.186l-.038-.119c-.017-.053-.034-.107-.053-.16-.032-.1-.066-.19-.1-.286s-.07-.19-.107-.284c-.073-.192-.151-.382-.23-.572-.309-.738-.657-1.465-.977-2.186a12.091,12.091,0,0,1-.456-1.158l-.04.058a2.467,2.467,0,0,0-.173.307c0,1.678-1.68,3.732-1.68,3.732l-1.691-2.463-1.48,2.275a1.858,1.858,0,0,0-.593,1.053c-.047.149-.092.311-.134.484-.03.115-.058.237-.083.358-.015.062-.028.124-.04.188l-.038.194v.03c-.026.132-.051.269-.075.407s-.051.3-.075.45q-.026.147-.045.294c-.03.19-.055.382-.081.572-.015.111-.03.213-.043.331l-.051.427c.109.35.23.7.356,1.034a1.718,1.718,0,0,1,.139.586,14.571,14.571,0,0,0,8.008,0,.081.081,0,0,1,0-.021,2.54,2.54,0,0,1-.051-.582h0a16,16,0,0,1,.213-1.631,5.965,5.965,0,0,0,.041-.8v-.1C332.465,458.451,332.463,458.374,332.461,458.3Z" transform="translate(-313.772 -433.226)" fill="#fff"/>
        <path id="Path_2648" data-name="Path 2648" d="M311.02,453.04l-.143-.019a5.2,5.2,0,0,1-.64-.128l-.079-.021c-.52-.147-1.09-.412-1.218-.876a.83.83,0,0,1,.013-.454,3.9,3.9,0,0,1,.29-.734v-.013a1.015,1.015,0,0,1,.053-.1,2.133,2.133,0,0,1,.77-.838l-.256.041-2.167.352-3.359.542s-.6-.119-1.41,2.12a.345.345,0,0,1-.028.083c-.2.548-.4,1.233-.616,2.088-.147.593-.281,1.175-.405,1.74-.036.171-.073.339-.107.505a13.545,13.545,0,0,0,1.239,1.279l.07.066a14.554,14.554,0,0,0,2.841,2.011l.04.021a14.059,14.059,0,0,0,2,.887l.181.064c.038-.395.081-.832.132-1.28a.365.365,0,0,1,.017-.134l.051-.426c.013-.109.028-.213.043-.331.026-.19.051-.382.081-.571q.019-.147.045-.294c.023-.151.049-.3.075-.45s.049-.275.075-.407v-.03l.038-.194c.013-.064.026-.126.041-.188.026-.122.053-.243.083-.358.043-.173.087-.335.134-.484a1.823,1.823,0,0,1,.593-1.053l1.48-2.275.062-.1.028-.043Z" transform="translate(-298.257 -433.427)" opacity="0.1"/>
        <path id="Path_2649" data-name="Path 2649" d="M310.343,453.06l-1.572,2.414a1.8,1.8,0,0,0-.582,1.021c-.049.158-.1.331-.145.512a25.5,25.5,0,0,0-.482,2.791.332.332,0,0,1-.017.128c-.073.593-.132,1.175-.181,1.689a14.061,14.061,0,0,1-2-.887l-.04-.021a14.557,14.557,0,0,1-2.841-2.011l-.07-.066a13.553,13.553,0,0,1-1.239-1.279c-.051-.058-.1-.117-.149-.177.023-.111.047-.213.073-.333.122-.565.256-1.145.4-1.736a21.009,21.009,0,0,1,.725-2.388.651.651,0,0,1,.028-.068c.755-1.943,1.3-1.834,1.3-1.834l3.546-.572,2.239-.363-.07.041a2.271,2.271,0,0,0-.616.657l-.062.1c-.026.041-.049.085-.075.13a3.774,3.774,0,0,0-.294.746.785.785,0,0,0,.051.61,2.031,2.031,0,0,0,1.316.763l.083.021A5.346,5.346,0,0,0,310.343,453.06Z" transform="translate(-297.706 -433.442)" fill="#444176"/>
        <path id="Path_2650" data-name="Path 2650" d="M378.125,455.363l-.087-1.894c.373-2.985-.373-3.171-.373-3.171l-.887-.427h-.023l-3.568-1.729-.139-.068-.043-.019h0l-.465-.226h0l-.294-.143-.55-.267-.186-.09v.74c0,.213.019.463.036.753.038.729.109,1.706.235,2.858.07.667.16,1.4.271,2.179.066.463.113.923.143,1.373a24.167,24.167,0,0,1-.141,4.542l.194-.062a14.283,14.283,0,0,0,1.544-.618h0a14.172,14.172,0,0,0,2.751-1.689l.038-.028a14.229,14.229,0,0,0,1.548-1.405Z" transform="translate(-353.164 -431.436)" opacity="0.1"/>
        <path id="Path_2651" data-name="Path 2651" d="M378.989,455.324l-.087-1.9c.373-2.985-.373-3.171-.373-3.171l-1.066-.516h-.021L373.863,448l-.164-.079-.032-.015-.262-.128-.348-.168-.687-.333v.3h0v.375c0,.213.019.493.038.81.036.68.1,1.572.213,2.632.077.727.173,1.535.3,2.405q.1.7.141,1.38a24.139,24.139,0,0,1-.132,4.478,14.292,14.292,0,0,0,1.544-.618h0a14.167,14.167,0,0,0,2.751-1.689l.038-.028a14.226,14.226,0,0,0,1.548-1.405q.094-.094.179-.192Z" transform="translate(-353.841 -431.397)" fill="#444176"/>
        <path id="Path_2652" data-name="Path 2652" d="M319.506,391.185a3.1,3.1,0,0,0-.292,1.066c-.228.834-1.132,1.356-1.339,2.2-.122.49.019,1.011-.064,1.51-.151.919-.992,1.542-1.461,2.346a3.165,3.165,0,0,0-.194,2.751,4.407,4.407,0,0,1,.271.7,2.539,2.539,0,0,1-.066,1.066,3.379,3.379,0,0,0,.043,2.28,2.182,2.182,0,0,0,1.6,1.024,6.208,6.208,0,0,0,1.956-.09,5.658,5.658,0,0,0,2.043-.6l-2.31-5.574a4.653,4.653,0,0,1-.469-1.755,3.858,3.858,0,0,1,.288-1.309,11.346,11.346,0,0,1,1.919-3.316c.335.388.309.979.589,1.41a2.225,2.225,0,0,0,.951.71A31.506,31.506,0,0,0,326.334,397a.441.441,0,0,1,.328.657l-.87,3.591a2.786,2.786,0,0,0,.132,2.346c.493.64,1.6.943,1.61,1.768a2.825,2.825,0,0,0,0,.392c.058.386.516.572.906.591a2.7,2.7,0,0,0,2.71-2.211c.213-1.412-.721-2.713-1.111-4.088-.657-2.314.213-5.028-1.077-7.061-1.045-1.648-2.949-2.1-4.758-2.3C322.937,390.539,320.4,390.006,319.506,391.185Z" transform="translate(-309.436 -386.677)" opacity="0.1"/>
        <path id="Path_2653" data-name="Path 2653" d="M319.506,390.185a3.1,3.1,0,0,0-.292,1.066c-.228.834-1.132,1.356-1.339,2.2-.122.49.019,1.011-.064,1.51-.151.919-.992,1.542-1.461,2.346a3.165,3.165,0,0,0-.194,2.751,4.406,4.406,0,0,1,.271.7,2.539,2.539,0,0,1-.066,1.066,3.379,3.379,0,0,0,.043,2.28,2.182,2.182,0,0,0,1.6,1.024,6.208,6.208,0,0,0,1.956-.09,5.657,5.657,0,0,0,2.043-.6l-2.31-5.574a4.653,4.653,0,0,1-.469-1.755,3.858,3.858,0,0,1,.288-1.309,11.345,11.345,0,0,1,1.919-3.316c.335.388.309.979.589,1.41a2.225,2.225,0,0,0,.951.71A31.5,31.5,0,0,0,326.334,396a.441.441,0,0,1,.328.657l-.87,3.591a2.786,2.786,0,0,0,.132,2.346c.493.64,1.6.943,1.61,1.768a2.825,2.825,0,0,0,0,.392c.058.386.516.572.906.591a2.7,2.7,0,0,0,2.71-2.211c.213-1.412-.721-2.713-1.111-4.088-.657-2.314.213-5.028-1.077-7.061-1.045-1.648-2.949-2.1-4.758-2.3C322.937,389.539,320.4,389.006,319.506,390.185Z" transform="translate(-309.436 -385.89)" fill="#493545"/>
      </g>
      <g id="Group_393" data-name="Group 393" transform="translate(51.666 125.799)" opacity="0.5">
        <path id="Path_2654" data-name="Path 2654" d="M314.482,628.3a14.432,14.432,0,0,1-3.491,9.436c-.111.13-.226.258-.343.384q-.087.1-.179.192a14.225,14.225,0,0,1-1.548,1.405l-.038.028a14.173,14.173,0,0,1-2.751,1.689h0a14.28,14.28,0,0,1-1.544.618l-.194.062c-.119.041-.243.077-.365.111l-.049.015a14.571,14.571,0,0,1-8.007,0h-.021c-.213-.062-.427-.126-.623-.2l-.181-.064a14.056,14.056,0,0,1-2-.887l-.04-.021a14.557,14.557,0,0,1-2.841-2.011l-.07-.066a13.553,13.553,0,0,1-1.239-1.28c-.051-.058-.1-.117-.149-.177-.094-.111-.183-.226-.273-.341a14.5,14.5,0,1,1,25.952-8.9Z" transform="translate(-285.48 -613.798)" fill="#c0bccf"/>
        <path id="Path_2655" data-name="Path 2655" d="M322.839,647.9l-.087-1.919c.373-3.034-.373-3.224-.373-3.224l-1.066-.525-.021-.011-3.578-1.764-.164-.081-.021-.087s.07-.213-.284-.25a1.3,1.3,0,0,1-.09-.544,2.331,2.331,0,0,1,.586-1.066,4.38,4.38,0,0,0,.7-3.107,7.308,7.308,0,0,0-1.19-3l-.068-.1a3.614,3.614,0,0,0,.126-.943c0-2.455-2.482-4.444-5.544-4.444-2.772,0-5.082,1.64-5.483,3.779a1.945,1.945,0,0,0-.168.264c-.563,1.053.307,1.84.335,2.892a3.739,3.739,0,0,1-.853,1.96,1.96,1.96,0,0,0-.275,2.036c.13.2.326.352.444.561.412.727-.273,1.561-.522,2.359a2.258,2.258,0,0,0-.068.284l-1.646.269s-.544-.111-1.3,1.864a.671.671,0,0,0-.028.07,21.62,21.62,0,0,0-.725,2.429q-.221.9-.4,1.764c-.026.113-.049.226-.073.339.049.06.1.122.149.179a13.693,13.693,0,0,0,1.239,1.305l.07.068a14.562,14.562,0,0,0,2.84,2.045l.041.021a13.947,13.947,0,0,0,2,.9l.181.064c.213.073.414.137.623.2a.774.774,0,0,1,.017.1v-.094a14.343,14.343,0,0,0,8.008,0l.049-.015c.122-.034.245-.073.365-.113l.194-.062a14.38,14.38,0,0,0,4.295-2.346l.038-.028a14.311,14.311,0,0,0,1.548-1.429q.094-.094.179-.194Z" transform="translate(-297.69 -624.051)" fill="url(#linear-gradient-3)"/>
        <path id="Path_2656" data-name="Path 2656" d="M321.684,647.355a3.589,3.589,0,0,1-.853,1.919,1.9,1.9,0,0,0-.275,2c.13.2.326.348.444.552.412.714-.273,1.535-.522,2.32a2.912,2.912,0,0,0,.653,2.655,7.065,7.065,0,0,0,2.286,1.67,20.4,20.4,0,0,0,5.655,2.013,5.414,5.414,0,0,0,3.1-.139,3.3,3.3,0,0,0,1.862-3.625c-.245-1.122-1.066-2.024-1.493-3.084a1.443,1.443,0,0,1-.141-.667,2.253,2.253,0,0,1,.586-1.045,4.265,4.265,0,0,0,.691-3.034,7.122,7.122,0,0,0-1.19-2.956,3.237,3.237,0,0,0-.853-.938,3.742,3.742,0,0,0-1.6-.482c-2.316-.324-4.715-.678-7.05-.8a1.513,1.513,0,0,0-1.644.8C320.788,645.547,321.656,646.321,321.684,647.355Z" transform="translate(-312.926 -637.334)" fill="#444176"/>
        <path id="Path_2657" data-name="Path 2657" d="M342.579,673.81l-4.4,6.25-4.291-.373s-.141,1.493-1.866-3.917c-.964-3.026,1-1.975,1.382-2.813s1.066-1.578,1.124-2.2a3.877,3.877,0,0,0-.267-2.081l4.664-.559a3.481,3.481,0,0,0-.077,1.947C339.437,672.494,342.579,673.81,342.579,673.81Z" transform="translate(-321.893 -656.536)" fill="#c77485"/>
        <ellipse id="Ellipse_561" data-name="Ellipse 561" cx="5.544" cy="4.372" rx="5.544" ry="4.372" transform="translate(8.53 3.201)" fill="#444176"/>
        <path id="Path_2658" data-name="Path 2658" d="M348.077,670.065a4.662,4.662,0,0,1-4.32.7,3.877,3.877,0,0,0-.267-2.081l4.664-.559A3.48,3.48,0,0,0,348.077,670.065Z" transform="translate(-331.119 -656.536)" opacity="0.1"/>
        <circle id="Ellipse_562" data-name="Ellipse 562" cx="4.664" cy="4.664" r="4.664" transform="translate(9.481 4.961)" fill="#c77485"/>
        <path id="Path_2659" data-name="Path 2659" d="M333.823,691.51l-.109-.426-.094-.375-.139-.554-.026-.1-.021-.085s.111-.335-.621-.226l-.136.023c-.115.023-.25.055-.4.1l-.139.043-.183.058h0a4,4,0,0,0-1.548.934,3.488,3.488,0,0,0-.518.627c-.015.021-.026.041-.038.058a2.013,2.013,0,0,0-.134.247c0,1.68-1.68,3.732-1.68,3.732l-1.64-2.369-.032-.047-.39-.567-.139-.183-.047-.064-.853-1.145-.213-.286-.07-.1-.1-.139-.245-.326-.96.561-1.28.746-.746,4.851v.134l.023.4.156,2.636v.036l-.273,1.092.041.021a14.055,14.055,0,0,0,2,.887l.181.064c.213.07.414.134.623.2a.755.755,0,0,1,.017.1v-.092a14.571,14.571,0,0,0,8.007,0l.049-.015c.122-.034.245-.07.365-.111l.194-.062a14.292,14.292,0,0,0,1.544-.618l.179-3.817.128-2.753v-.158Z" transform="translate(-313.599 -673.528)" opacity="0.1"/>
        <path id="Path_2660" data-name="Path 2660" d="M332.461,699.3a1.474,1.474,0,0,0-.015-.256c-.015-.085-.013-.16-.023-.241s-.019-.162-.03-.243-.026-.162-.04-.243-.03-.162-.047-.243a.367.367,0,0,0-.017-.081c-.023-.107-.049-.213-.077-.322s-.045-.173-.07-.258a.365.365,0,0,0-.034-.113c-.013-.036-.036-.124-.055-.185l-.038-.119c-.017-.053-.034-.107-.053-.16-.032-.1-.066-.19-.1-.286s-.07-.19-.107-.284c-.073-.192-.151-.382-.23-.571-.309-.738-.657-1.465-.977-2.186a12.081,12.081,0,0,1-.456-1.158l-.04.058a2.46,2.46,0,0,0-.173.307c0,1.678-1.68,3.732-1.68,3.732l-1.691-2.463-1.48,2.275a1.858,1.858,0,0,0-.593,1.053c-.047.149-.092.311-.134.484-.03.115-.058.237-.083.358-.015.062-.028.124-.04.188l-.038.194v.03c-.026.132-.051.269-.075.407s-.051.3-.075.45q-.026.147-.045.294c-.03.19-.055.382-.081.572-.015.111-.03.213-.043.33l-.051.427c.109.35.23.7.356,1.034a1.718,1.718,0,0,1,.139.586,14.571,14.571,0,0,0,8.008,0,.08.08,0,0,1,0-.021,2.54,2.54,0,0,1-.051-.582h0a15.987,15.987,0,0,1,.213-1.631,5.965,5.965,0,0,0,.041-.8v-.1C332.465,699.451,332.463,699.374,332.461,699.3Zm0,0a1.474,1.474,0,0,0-.015-.256c-.015-.085-.013-.16-.023-.241s-.019-.162-.03-.243-.026-.162-.04-.243-.03-.162-.047-.243a.367.367,0,0,0-.017-.081c-.023-.107-.049-.213-.077-.322s-.045-.173-.07-.258a.365.365,0,0,0-.034-.113c-.013-.036-.036-.124-.055-.185l-.038-.119c-.017-.053-.034-.107-.053-.16-.032-.1-.066-.19-.1-.286s-.07-.19-.107-.284c-.073-.192-.151-.382-.23-.571-.309-.738-.657-1.465-.977-2.186a12.081,12.081,0,0,1-.456-1.158l-.04.058a2.46,2.46,0,0,0-.173.307c0,1.678-1.68,3.732-1.68,3.732l-1.691-2.463-1.48,2.275a1.858,1.858,0,0,0-.593,1.053c-.047.149-.092.311-.134.484-.03.115-.058.237-.083.358-.015.062-.028.124-.04.188l-.038.194v.03c-.026.132-.051.269-.075.407s-.051.3-.075.45q-.026.147-.045.294c-.03.19-.055.382-.081.572-.015.111-.03.213-.043.33l-.051.427c.109.35.23.7.356,1.034a1.718,1.718,0,0,1,.139.586,14.571,14.571,0,0,0,8.008,0,.08.08,0,0,1,0-.021,2.54,2.54,0,0,1-.051-.582h0a15.987,15.987,0,0,1,.213-1.631,5.965,5.965,0,0,0,.041-.8v-.1C332.465,699.451,332.463,699.374,332.461,699.3Zm0,0a1.474,1.474,0,0,0-.015-.256c-.015-.085-.013-.16-.023-.241s-.019-.162-.03-.243-.026-.162-.04-.243-.03-.162-.047-.243a.367.367,0,0,0-.017-.081c-.023-.107-.049-.213-.077-.322s-.045-.173-.07-.258a.365.365,0,0,0-.034-.113c-.013-.036-.036-.124-.055-.185l-.038-.119c-.017-.053-.034-.107-.053-.16-.032-.1-.066-.19-.1-.286s-.07-.19-.107-.284c-.073-.192-.151-.382-.23-.571-.309-.738-.657-1.465-.977-2.186a12.081,12.081,0,0,1-.456-1.158l-.04.058a2.46,2.46,0,0,0-.173.307c0,1.678-1.68,3.732-1.68,3.732l-1.691-2.463-1.48,2.275a1.858,1.858,0,0,0-.593,1.053c-.047.149-.092.311-.134.484-.03.115-.058.237-.083.358-.015.062-.028.124-.04.188l-.038.194v.03c-.026.132-.051.269-.075.407s-.051.3-.075.45q-.026.147-.045.294c-.03.19-.055.382-.081.572-.015.111-.03.213-.043.33l-.051.427c.109.35.23.7.356,1.034a1.718,1.718,0,0,1,.139.586,14.571,14.571,0,0,0,8.008,0,.08.08,0,0,1,0-.021,2.54,2.54,0,0,1-.051-.582h0a15.987,15.987,0,0,1,.213-1.631,5.965,5.965,0,0,0,.041-.8v-.1C332.465,699.451,332.463,699.374,332.461,699.3Zm2.26-4-.761-3.039-.13-.52-.036-.143h0l-.186-.742a.135.135,0,0,0,0-.019h0a.17.17,0,0,0-.015-.1c-.028-.055-.1-.113-.262-.128a1.328,1.328,0,0,0-.188,0h0a3.252,3.252,0,0,0-.548.1c-.087.023-.181.049-.281.081l-.183.058h-.017a4.071,4.071,0,0,0-1.343.746,3.623,3.623,0,0,0-.682.755l-.041.058a2.46,2.46,0,0,0-.173.307c0,1.678-1.68,3.732-1.68,3.732l-1.691-2.463-.1-.139-.017-.023-.245-.36-.186-.247-.049-.064-.874-1.167h0l-.277-.377v-.013l-.1-.13-.183-.243-.64.373-1.6.932-.738,4.8v.051l.021.35.158,2.672v.151l-.241.962a14.064,14.064,0,0,0,2,.887l.181.064c.213.07.414.134.623.2a.755.755,0,0,1,.017.1v-.092a14.571,14.571,0,0,0,8.007,0l.049-.015c.122-.034.245-.07.365-.111l.194-.062a14.3,14.3,0,0,0,1.544-.618h0l.177-3.813.128-2.723Zm-10.488,7.363a.76.76,0,0,1,.017.1v-.092Zm8.227-3.361a1.474,1.474,0,0,0-.015-.256c-.015-.085-.013-.16-.023-.241s-.019-.162-.03-.243-.026-.162-.04-.243-.03-.162-.047-.243a.367.367,0,0,0-.017-.081c-.023-.107-.049-.213-.077-.322s-.045-.173-.07-.258a.365.365,0,0,0-.034-.113c-.013-.036-.036-.124-.055-.185l-.038-.119c-.017-.053-.034-.107-.053-.16-.032-.1-.066-.19-.1-.286s-.07-.19-.107-.284c-.073-.192-.151-.382-.23-.571-.309-.738-.657-1.465-.977-2.186a12.081,12.081,0,0,1-.456-1.158l-.04.058a2.46,2.46,0,0,0-.173.307c0,1.678-1.68,3.732-1.68,3.732l-1.691-2.463-1.48,2.275a1.858,1.858,0,0,0-.593,1.053c-.047.149-.092.311-.134.484-.03.115-.058.237-.083.358-.015.062-.028.124-.04.188l-.038.194v.03c-.026.132-.051.269-.075.407s-.051.3-.075.45q-.026.147-.045.294c-.03.19-.055.382-.081.572-.015.111-.03.213-.043.33l-.051.427c.109.35.23.7.356,1.034a1.718,1.718,0,0,1,.139.586,14.571,14.571,0,0,0,8.008,0,.08.08,0,0,1,0-.021,2.54,2.54,0,0,1-.051-.582h0a15.987,15.987,0,0,1,.213-1.631,5.965,5.965,0,0,0,.041-.8v-.1C332.465,699.451,332.463,699.374,332.461,699.3Zm0,0a1.474,1.474,0,0,0-.015-.256c-.015-.085-.013-.16-.023-.241s-.019-.162-.03-.243-.026-.162-.04-.243-.03-.162-.047-.243a.367.367,0,0,0-.017-.081c-.023-.107-.049-.213-.077-.322s-.045-.173-.07-.258a.365.365,0,0,0-.034-.113c-.013-.036-.036-.124-.055-.185l-.038-.119c-.017-.053-.034-.107-.053-.16-.032-.1-.066-.19-.1-.286s-.07-.19-.107-.284c-.073-.192-.151-.382-.23-.571-.309-.738-.657-1.465-.977-2.186a12.081,12.081,0,0,1-.456-1.158l-.04.058a2.46,2.46,0,0,0-.173.307c0,1.678-1.68,3.732-1.68,3.732l-1.691-2.463-1.48,2.275a1.858,1.858,0,0,0-.593,1.053c-.047.149-.092.311-.134.484-.03.115-.058.237-.083.358-.015.062-.028.124-.04.188l-.038.194v.03c-.026.132-.051.269-.075.407s-.051.3-.075.45q-.026.147-.045.294c-.03.19-.055.382-.081.572-.015.111-.03.213-.043.33l-.051.427c.109.35.23.7.356,1.034a1.718,1.718,0,0,1,.139.586,14.571,14.571,0,0,0,8.008,0,.08.08,0,0,1,0-.021,2.54,2.54,0,0,1-.051-.582h0a15.987,15.987,0,0,1,.213-1.631,5.965,5.965,0,0,0,.041-.8v-.1C332.465,699.451,332.463,699.374,332.461,699.3Zm0,0a1.474,1.474,0,0,0-.015-.256c-.015-.085-.013-.16-.023-.241s-.019-.162-.03-.243-.026-.162-.04-.243-.03-.162-.047-.243a.367.367,0,0,0-.017-.081c-.023-.107-.049-.213-.077-.322s-.045-.173-.07-.258a.365.365,0,0,0-.034-.113c-.013-.036-.036-.124-.055-.185l-.038-.119c-.017-.053-.034-.107-.053-.16-.032-.1-.066-.19-.1-.286s-.07-.19-.107-.284c-.073-.192-.151-.382-.23-.571-.309-.738-.657-1.465-.977-2.186a12.081,12.081,0,0,1-.456-1.158l-.04.058a2.46,2.46,0,0,0-.173.307c0,1.678-1.68,3.732-1.68,3.732l-1.691-2.463-1.48,2.275a1.858,1.858,0,0,0-.593,1.053c-.047.149-.092.311-.134.484-.03.115-.058.237-.083.358-.015.062-.028.124-.04.188l-.038.194v.03c-.026.132-.051.269-.075.407s-.051.3-.075.45q-.026.147-.045.294c-.03.19-.055.382-.081.572-.015.111-.03.213-.043.33l-.051.427c.109.35.23.7.356,1.034a1.718,1.718,0,0,1,.139.586,14.571,14.571,0,0,0,8.008,0,.08.08,0,0,1,0-.021,2.54,2.54,0,0,1-.051-.582h0a15.987,15.987,0,0,1,.213-1.631,5.965,5.965,0,0,0,.041-.8v-.1C332.465,699.451,332.463,699.374,332.461,699.3Zm0,0a1.474,1.474,0,0,0-.015-.256c-.015-.085-.013-.16-.023-.241s-.019-.162-.03-.243-.026-.162-.04-.243-.03-.162-.047-.243a.367.367,0,0,0-.017-.081c-.023-.107-.049-.213-.077-.322s-.045-.173-.07-.258a.365.365,0,0,0-.034-.113c-.013-.036-.036-.124-.055-.185l-.038-.119c-.017-.053-.034-.107-.053-.16-.032-.1-.066-.19-.1-.286s-.07-.19-.107-.284c-.073-.192-.151-.382-.23-.571-.309-.738-.657-1.465-.977-2.186a12.081,12.081,0,0,1-.456-1.158l-.04.058a2.46,2.46,0,0,0-.173.307c0,1.678-1.68,3.732-1.68,3.732l-1.691-2.463-1.48,2.275a1.858,1.858,0,0,0-.593,1.053c-.047.149-.092.311-.134.484-.03.115-.058.237-.083.358-.015.062-.028.124-.04.188l-.038.194v.03c-.026.132-.051.269-.075.407s-.051.3-.075.45q-.026.147-.045.294c-.03.19-.055.382-.081.572-.015.111-.03.213-.043.33l-.051.427c.109.35.23.7.356,1.034a1.718,1.718,0,0,1,.139.586,14.571,14.571,0,0,0,8.008,0,.08.08,0,0,1,0-.021,2.54,2.54,0,0,1-.051-.582h0a15.987,15.987,0,0,1,.213-1.631,5.965,5.965,0,0,0,.041-.8v-.1C332.465,699.451,332.463,699.374,332.461,699.3Zm0,0a1.474,1.474,0,0,0-.015-.256c-.015-.085-.013-.16-.023-.241s-.019-.162-.03-.243-.026-.162-.04-.243-.03-.162-.047-.243a.367.367,0,0,0-.017-.081c-.023-.107-.049-.213-.077-.322s-.045-.173-.07-.258a.365.365,0,0,0-.034-.113c-.013-.036-.036-.124-.055-.185l-.038-.119c-.017-.053-.034-.107-.053-.16-.032-.1-.066-.19-.1-.286s-.07-.19-.107-.284c-.073-.192-.151-.382-.23-.571-.309-.738-.657-1.465-.977-2.186a12.081,12.081,0,0,1-.456-1.158l-.04.058a2.46,2.46,0,0,0-.173.307c0,1.678-1.68,3.732-1.68,3.732l-1.691-2.463-1.48,2.275a1.858,1.858,0,0,0-.593,1.053c-.047.149-.092.311-.134.484-.03.115-.058.237-.083.358-.015.062-.028.124-.04.188l-.038.194v.03c-.026.132-.051.269-.075.407s-.051.3-.075.45q-.026.147-.045.294c-.03.19-.055.382-.081.572-.015.111-.03.213-.043.33l-.051.427c.109.35.23.7.356,1.034a1.718,1.718,0,0,1,.139.586,14.571,14.571,0,0,0,8.008,0,.08.08,0,0,1,0-.021,2.54,2.54,0,0,1-.051-.582h0a15.987,15.987,0,0,1,.213-1.631,5.965,5.965,0,0,0,.041-.8v-.1C332.465,699.451,332.463,699.374,332.461,699.3Zm0,0a1.474,1.474,0,0,0-.015-.256c-.015-.085-.013-.16-.023-.241s-.019-.162-.03-.243-.026-.162-.04-.243-.03-.162-.047-.243a.367.367,0,0,0-.017-.081c-.023-.107-.049-.213-.077-.322s-.045-.173-.07-.258a.365.365,0,0,0-.034-.113c-.013-.036-.036-.124-.055-.185l-.038-.119c-.017-.053-.034-.107-.053-.16-.032-.1-.066-.19-.1-.286s-.07-.19-.107-.284c-.073-.192-.151-.382-.23-.571-.309-.738-.657-1.465-.977-2.186a12.081,12.081,0,0,1-.456-1.158l-.04.058a2.46,2.46,0,0,0-.173.307c0,1.678-1.68,3.732-1.68,3.732l-1.691-2.463-1.48,2.275a1.858,1.858,0,0,0-.593,1.053c-.047.149-.092.311-.134.484-.03.115-.058.237-.083.358-.015.062-.028.124-.04.188l-.038.194v.03c-.026.132-.051.269-.075.407s-.051.3-.075.45q-.026.147-.045.294c-.03.19-.055.382-.081.572-.015.111-.03.213-.043.33l-.051.427c.109.35.23.7.356,1.034a1.718,1.718,0,0,1,.139.586,14.571,14.571,0,0,0,8.008,0,.08.08,0,0,1,0-.021,2.54,2.54,0,0,1-.051-.582h0a15.987,15.987,0,0,1,.213-1.631,5.965,5.965,0,0,0,.041-.8v-.1C332.465,699.451,332.463,699.374,332.461,699.3Zm0,0a1.474,1.474,0,0,0-.015-.256c-.015-.085-.013-.16-.023-.241s-.019-.162-.03-.243-.026-.162-.04-.243-.03-.162-.047-.243a.367.367,0,0,0-.017-.081c-.023-.107-.049-.213-.077-.322s-.045-.173-.07-.258a.365.365,0,0,0-.034-.113c-.013-.036-.036-.124-.055-.185l-.038-.119c-.017-.053-.034-.107-.053-.16-.032-.1-.066-.19-.1-.286s-.07-.19-.107-.284c-.073-.192-.151-.382-.23-.571-.309-.738-.657-1.465-.977-2.186a12.081,12.081,0,0,1-.456-1.158l-.04.058a2.46,2.46,0,0,0-.173.307c0,1.678-1.68,3.732-1.68,3.732l-1.691-2.463-1.48,2.275a1.858,1.858,0,0,0-.593,1.053c-.047.149-.092.311-.134.484-.03.115-.058.237-.083.358-.015.062-.028.124-.04.188l-.038.194v.03c-.026.132-.051.269-.075.407s-.051.3-.075.45q-.026.147-.045.294c-.03.19-.055.382-.081.572-.015.111-.03.213-.043.33l-.051.427c.109.35.23.7.356,1.034a1.718,1.718,0,0,1,.139.586,14.571,14.571,0,0,0,8.008,0,.08.08,0,0,1,0-.021,2.54,2.54,0,0,1-.051-.582h0a15.987,15.987,0,0,1,.213-1.631,5.965,5.965,0,0,0,.041-.8v-.1C332.465,699.451,332.463,699.374,332.461,699.3Zm0,0a1.474,1.474,0,0,0-.015-.256c-.015-.085-.013-.16-.023-.241s-.019-.162-.03-.243-.026-.162-.04-.243-.03-.162-.047-.243a.367.367,0,0,0-.017-.081c-.023-.107-.049-.213-.077-.322s-.045-.173-.07-.258a.365.365,0,0,0-.034-.113c-.013-.036-.036-.124-.055-.185l-.038-.119c-.017-.053-.034-.107-.053-.16-.032-.1-.066-.19-.1-.286s-.07-.19-.107-.284c-.073-.192-.151-.382-.23-.571-.309-.738-.657-1.465-.977-2.186a12.081,12.081,0,0,1-.456-1.158l-.04.058a2.46,2.46,0,0,0-.173.307c0,1.678-1.68,3.732-1.68,3.732l-1.691-2.463-1.48,2.275a1.858,1.858,0,0,0-.593,1.053c-.047.149-.092.311-.134.484-.03.115-.058.237-.083.358-.015.062-.028.124-.04.188l-.038.194v.03c-.026.132-.051.269-.075.407s-.051.3-.075.45q-.026.147-.045.294c-.03.19-.055.382-.081.572-.015.111-.03.213-.043.33l-.051.427c.109.35.23.7.356,1.034a1.718,1.718,0,0,1,.139.586,14.571,14.571,0,0,0,8.008,0,.08.08,0,0,1,0-.021,2.54,2.54,0,0,1-.051-.582h0a15.987,15.987,0,0,1,.213-1.631,5.965,5.965,0,0,0,.041-.8v-.1C332.465,699.451,332.463,699.374,332.461,699.3Z" transform="translate(-313.772 -674.226)" fill="#444176"/>
        <path id="Path_2661" data-name="Path 2661" d="M311.02,694.04l-.143-.019a5.2,5.2,0,0,1-.64-.128l-.079-.021c-.52-.147-1.09-.412-1.218-.876a.83.83,0,0,1,.013-.454,3.894,3.894,0,0,1,.29-.734v-.013a1.006,1.006,0,0,1,.053-.1,2.132,2.132,0,0,1,.77-.838l-.256.041-2.167.352-3.359.542s-.6-.119-1.41,2.12a.346.346,0,0,1-.028.083c-.2.548-.4,1.233-.616,2.088-.147.593-.281,1.175-.405,1.74-.036.171-.073.339-.107.505a13.541,13.541,0,0,0,1.239,1.279l.07.066a14.557,14.557,0,0,0,2.841,2.011l.04.021a14.062,14.062,0,0,0,2,.887l.181.064c.038-.394.081-.832.132-1.279a.364.364,0,0,1,.017-.134l.051-.427c.013-.109.028-.213.043-.331.026-.19.051-.382.081-.571q.019-.147.045-.294c.023-.151.049-.3.075-.45s.049-.275.075-.407v-.03l.038-.194c.013-.064.026-.126.041-.188.026-.122.053-.243.083-.358.043-.173.087-.335.134-.484a1.822,1.822,0,0,1,.593-1.053l1.48-2.275.062-.1.028-.043Z" transform="translate(-298.257 -674.427)" opacity="0.1"/>
        <path id="Path_2662" data-name="Path 2662" d="M310.343,694.06l-1.572,2.414a1.8,1.8,0,0,0-.582,1.021c-.049.158-.1.331-.145.512a25.494,25.494,0,0,0-.482,2.791.332.332,0,0,1-.017.128c-.073.593-.132,1.175-.181,1.689a14.058,14.058,0,0,1-2-.887l-.04-.021a14.56,14.56,0,0,1-2.841-2.011l-.07-.066a13.557,13.557,0,0,1-1.239-1.28c-.051-.058-.1-.117-.149-.177.023-.111.047-.213.073-.333.122-.565.256-1.145.4-1.736a21.02,21.02,0,0,1,.725-2.388.663.663,0,0,1,.028-.068c.755-1.943,1.3-1.834,1.3-1.834l3.546-.572,2.239-.362-.07.041a2.271,2.271,0,0,0-.616.657l-.062.1c-.026.041-.049.085-.075.13a3.775,3.775,0,0,0-.294.746.785.785,0,0,0,.051.61,2.031,2.031,0,0,0,1.316.763l.083.021A5.335,5.335,0,0,0,310.343,694.06Z" transform="translate(-297.706 -674.442)" fill="#f1d2d7"/>
        <path id="Path_2663" data-name="Path 2663" d="M378.125,696.363l-.087-1.894c.373-2.985-.373-3.171-.373-3.171l-.887-.427h-.023l-3.568-1.729-.139-.068-.043-.019h0l-.465-.226h0l-.294-.143-.55-.267-.186-.09v.74c0,.213.019.463.036.753.038.729.109,1.706.235,2.858.07.667.16,1.4.271,2.179.066.463.113.923.143,1.373a24.167,24.167,0,0,1-.141,4.542l.194-.062a14.289,14.289,0,0,0,1.544-.618h0a14.169,14.169,0,0,0,2.751-1.689l.038-.028a14.235,14.235,0,0,0,1.548-1.405Z" transform="translate(-353.164 -672.436)" opacity="0.1"/>
        <path id="Path_2664" data-name="Path 2664" d="M378.989,696.324l-.087-1.9c.373-2.985-.373-3.171-.373-3.171l-1.066-.516h-.021L373.863,689l-.164-.079-.032-.015-.262-.128-.348-.168-.687-.333v.3h0v.375c0,.213.019.493.038.81.036.68.1,1.572.213,2.631.077.727.173,1.535.3,2.405q.1.7.141,1.38a24.139,24.139,0,0,1-.132,4.478,14.439,14.439,0,0,0,4.295-2.307l.038-.028a14.226,14.226,0,0,0,1.548-1.405q.094-.094.179-.192Z" transform="translate(-353.841 -672.397)" fill="#f1d2d7"/>
        <path id="Path_2665" data-name="Path 2665" d="M333.33,638.194a5.336,5.336,0,0,1,2-.213,6.536,6.536,0,0,1,1.525.74,3.947,3.947,0,0,0,1.574.416.926.926,0,0,0,.578-.113.9.9,0,0,0,.258-.879,5.044,5.044,0,0,0-1.279-2.4,4.693,4.693,0,0,0-.8-.812,4.235,4.235,0,0,0-2.727-.618,6.833,6.833,0,0,0-3.124.8c-.64.367-2.107,1.523-1.6,2.359C330.266,638.352,332.492,638.337,333.33,638.194Z" transform="translate(-320.211 -629.935)" opacity="0.1"/>
        <path id="Path_2666" data-name="Path 2666" d="M333.33,637.194a5.334,5.334,0,0,1,2-.213,6.536,6.536,0,0,1,1.525.74,3.948,3.948,0,0,0,1.574.416.925.925,0,0,0,.578-.113.9.9,0,0,0,.258-.879,5.045,5.045,0,0,0-1.279-2.4,4.693,4.693,0,0,0-.8-.812,4.235,4.235,0,0,0-2.727-.618,6.834,6.834,0,0,0-3.124.8c-.64.367-2.107,1.523-1.6,2.359C330.266,637.352,332.492,637.337,333.33,637.194Z" transform="translate(-320.211 -629.148)" fill="#444176"/>
      </g>
      <path id="Path_2667" data-name="Path 2667" d="M619.667,384.109h.032c.047,1.429.25,2.721.64,3.079.93.853,4.785-.853,4.521-1.885-.053-.213-.143-.563-.256-1a3,3,0,0,0,2.284-1.036l.67,2.064.047.147h.051c.441,4.184,1.442,12.872,2.241,14.036,1.066,1.542,2.292,8.223,2.292,8.223l2.292,13.705s.883,7.89,1.412,8.743a.991.991,0,0,0,.58.3,8.4,8.4,0,0,1-1.279,2.61c-1.066,1.2-2.469,3.6-3.7,3.427s-1.587,2.4.706,2.74a18.951,18.951,0,0,0,4.847-.284,1.735,1.735,0,0,0,1.678,1.655c2.292.343,7.054-.685,7.054-.685s4.052-1.706,4.233-2.913a38.133,38.133,0,0,0-.838-6.225c.64-1.026-.043-9.878-.043-9.878l-1.235-16.96s.706-9.421,0-11.136c-.441-1.066-.606-5.971-.667-9.479l.853.055a1.573,1.573,0,0,0,.132-.186l.213.015a2.833,2.833,0,0,0,.177-3.084c-.655-1.4-.531-7.726-.426-10.876h0l.126-1.493a.427.427,0,0,0,.1-.162,15.642,15.642,0,0,0,4.762-1.442,4.833,4.833,0,0,0,1.25-.759c.883-.853.352-6-1.412-13.705s-3.35-7.024-3.35-7.024-4.233-.343-6.174-2.913-3.244-2.536-3.244-2.536h0c-.049-.337-.083-.655-.107-.951,0-.111-.017-.213-.023-.324a5.639,5.639,0,0,0,1.467-2.224,11.02,11.02,0,0,0,1.265-.552,1.506,1.506,0,0,0,.262-.243,2.156,2.156,0,0,0,.68-1.341,5.486,5.486,0,0,0-.079-1.682,4.077,4.077,0,0,0-2.691-3.694q-2.8-1.469-5.611-2.909a3.1,3.1,0,0,0-1.2-.427,3.2,3.2,0,0,0-2.03.96,8.646,8.646,0,0,0-.693.608,3.89,3.89,0,0,0-.51.548,5.256,5.256,0,0,0-.7,3.922.537.537,0,0,0,.569.48,5.5,5.5,0,0,0-.586,2.474,5.609,5.609,0,0,0,2.6,4.711c0,.119,0,.237.011.35a12.507,12.507,0,0,1-.043,1.311s-4.691,2.536-5.218,3.734a5.578,5.578,0,0,1-2.469,2.056s-3.7,1.885-3.7,8.566l-1.941,9.421-.352,17.987s.243-.213.64-.516c-.013.119-.023.243-.034.369a20.316,20.316,0,0,0-.053,2.066Zm23.692,46.554c-.073.275-.179.64-.313,1.066-.06-.354-.119-.7-.179-1.036.154-.015.318-.023.493-.03Z" transform="translate(-496.322 -260.707)" fill="url(#linear-gradient-4)"/>
      <path id="Path_2668" data-name="Path 2668" d="M679.807,808.63s-.68,3.058-1.706,4.246-2.369,3.568-3.555,3.4-1.529,2.378.68,2.717,6.783-.678,6.783-.678,3.907-1.706,4.075-2.887-1.019-7.3-1.019-7.3Z" transform="translate(-539.176 -640.882)" fill="#53526b"/>
      <path id="Path_2669" data-name="Path 2669" d="M679.807,808.63s-.68,3.058-1.706,4.246-2.369,3.568-3.555,3.4-1.529,2.378.68,2.717,6.783-.678,6.783-.678,3.907-1.706,4.075-2.887-1.019-7.3-1.019-7.3Z" transform="translate(-539.176 -640.882)" fill="#400000"/>
      <path id="Path_2670" data-name="Path 2670" d="M709.265,814.992s-.68,3.058-1.706,4.246-2.376,3.568-3.559,3.4-1.529,2.378.68,2.717,6.794-.68,6.794-.68,3.907-1.706,4.075-2.887-1.019-7.3-1.019-7.3Z" transform="translate(-562.349 -645.886)" fill="#400000"/>
      <path id="Path_2671" data-name="Path 2671" d="M659.66,598.67s1.358,14.605,2.378,16.134,2.207,8.153,2.207,8.153l2.207,13.586s.853,7.813,1.358,8.662,6.809.484,6.809.484L670.7,600.706Z" transform="translate(-528.201 -476.097)" fill="#5f5d7e"/>
      <path id="Path_2672" data-name="Path 2672" d="M659.66,598.67s1.358,14.605,2.378,16.134,2.207,8.153,2.207,8.153l2.207,13.586s.853,7.813,1.358,8.662,6.809.484,6.809.484L670.7,600.706Z" transform="translate(-528.201 -476.097)"/>
      <path id="Path_2673" data-name="Path 2673" d="M646.92,566l.444,1.41,2.4,7.615.047.145h.013c.322.073,7.12,1.636,8.588,2.115a2.078,2.078,0,0,1,.232.087c.68.339,1.529,12.567,1.529,12.567s.51,11.55.853,12.4,1.706,18.339,2.548,17.832,6.963,0,6.963,0c.68-.68,0-9.85,0-9.85l-1.207-16.81s.68-9.34,0-11.04-.68-13.076-.68-13.076l-13.9-2.173-1.343-.213Z" transform="translate(-518.177 -450.394)" fill="#0c0c0c"/>
      <path id="Path_2674" data-name="Path 2674" d="M649,570.85l2.4,7.615.058.149c.322.073,7.12,1.636,8.588,2.115h.147l-3.8-10.07-.109-.29-1.235.079Z" transform="translate(-519.814 -453.832)" opacity="0.02"/>
      <path id="Path_2675" data-name="Path 2675" d="M666.356,406.73s-6.284,6.794-10.191,1.188l-3.736,2.548.68,3.907-2.209,29.55a34.459,34.459,0,0,1,9.85,1.188,6.321,6.321,0,0,0,6.624-1.529L666.7,417.6l1.529-7.982Z" transform="translate(-521.309 -325.088)" opacity="0.1"/>
      <path id="Path_2676" data-name="Path 2676" d="M666.356,404.34s-6.284,6.794-10.191,1.188l-3.736,2.548.68,3.907-2.209,29.55a34.459,34.459,0,0,1,9.85,1.188,6.321,6.321,0,0,0,6.624-1.529l-.672-25.982,1.529-7.982Z" transform="translate(-521.309 -323.208)" fill="#fff"/>
      <g id="TESLA" transform="translate(130.521 110.689)">
        <g id="g8">
          <path id="polyline10" d="M614.222,522.36v1.07h-.341v-.712h-1.247v.712h-.343v-1.068l1.932,0" transform="translate(-612.241 -521.661)" fill="#e82127"/>
          <path id="path12" d="M656.936,543.294h-1.318a.486.486,0,0,1-.358-.354h2.032a.488.488,0,0,1-.358.354" transform="translate(-655.26 -542.94)" fill="#e82127"/>
        </g>
        <g id="g30" transform="translate(11.37 0.013)">
          <path id="path32" d="M710.8,543a.493.493,0,0,1-.356.352h-.554l-.028.011v1.4h-.341v-1.4l-.032-.011h-.554a.5.5,0,0,1-.356-.352H710.8" transform="translate(-708.58 -543)" fill="#e82127"/>
        </g>
      </g>
      <path id="Path_2677" data-name="Path 2677" d="M632.6,569.2s0,4.416-1.019,6.284-6.963.853-6.963.853l1.188-6.284Z" transform="translate(-500.633 -452.912)" fill="#d6dbe6"/>
      <path id="Path_2678" data-name="Path 2678" d="M625.345,587.687c.9.853,4.608-.853,4.352-1.868-.179-.719-.806-3.29-1.162-4.749l-.247-1.026s-2.175-.68-2.943,0a4.842,4.842,0,0,0-.567,2.4C624.62,584.489,624.78,587.146,625.345,587.687Z" transform="translate(-500.712 -461.206)" fill="#fdc2cc"/>
      <path id="Path_2679" data-name="Path 2679" d="M666,376.138l5.943,4.585s8.831-.51,6.623-4.755a15.832,15.832,0,0,1-1.706-6,12.55,12.55,0,0,1,0-2.322s-8.152-7.464-7.133,1.019a19.259,19.259,0,0,1,.141,1.962C669.99,376.993,666,376.138,666,376.138Z" transform="translate(-533.189 -291.95)" fill="#fdc2cc"/>
      <path id="Path_2680" data-name="Path 2680" d="M683.234,368.66a19.241,19.241,0,0,1,.141,1.962,5.566,5.566,0,0,0,3.086.926c1.521,0,2.64-1.48,3.651-2.463-.113-1.41.254-1.444.254-1.444S682.215,360.168,683.234,368.66Z" transform="translate(-546.679 -291.944)" opacity="0.1"/>
      <circle id="Ellipse_563" data-name="Ellipse 563" cx="5.604" cy="5.604" r="5.604" transform="translate(134.178 68.056)" fill="#fdc2cc"/>
      <path id="Path_2681" data-name="Path 2681" d="M700.551,394.38s.934.085,2.8,2.631S709.3,399.9,709.3,399.9s1.529-.68,3.227,6.963,2.207,12.737,1.358,13.586-4.246,2.041-5.952,2.041c0,0-.51,10.7.339,12.567a2.9,2.9,0,0,1-.171,3.058l-7.464-.51a17.763,17.763,0,0,1-3.058-8.831c-.51-5.6-2.207-21.57-1.358-23.438s4.585-6.624,4.416-7.133A30.67,30.67,0,0,1,700.551,394.38Z" transform="translate(-556.779 -315.372)" opacity="0.1"/>
      <path id="Path_2682" data-name="Path 2682" d="M701.838,394.14s1.256-.034,3.124,2.514,5.941,2.887,5.941,2.887,1.529-.68,3.226,6.963,2.207,12.737,1.358,13.586-4.246,2.039-5.943,2.039c0,0-.51,10.7.339,12.567a2.9,2.9,0,0,1-.171,3.058l-7.464-.51a17.762,17.762,0,0,1-3.058-8.831c-.51-5.6-2.211-21.568-1.363-23.428s4.585-6.623,4.416-7.133S701.838,394.14,701.838,394.14Z" transform="translate(-558.047 -315.183)" fill="#fff7dd"/>
      <path id="Path_2683" data-name="Path 2683" d="M625,582.434a5.567,5.567,0,0,1,3.757-1.373l-.247-1.026s-2.175-.68-2.943,0A4.764,4.764,0,0,0,625,582.434Z" transform="translate(-500.932 -461.198)" opacity="0.1"/>
      <path id="Path_2684" data-name="Path 2684" d="M637.322,399.16s-4.331,2.8-4.841,3.992a5.4,5.4,0,0,1-2.378,2.039s-3.565,1.868-3.565,8.492l-1.868,9.34,8.492,11.889s1.019-11.889,1.529-14.776,1.188-8.317,1.188-8.317,2.548-3.226,2.207-4.075S637.322,399.16,637.322,399.16Z" transform="translate(-500.672 -319.132)" opacity="0.1"/>
      <path id="Path_2685" data-name="Path 2685" d="M635.395,398.92s-4.517,2.514-5.024,3.7a5.407,5.407,0,0,1-2.378,2.039s-3.565,1.868-3.565,8.492l-1.868,9.34-.339,17.832s3.058-2.887,5.265-1.529,3.565-4.416,3.565-4.416,1.019-11.889,1.529-14.776,1.188-8.317,1.188-8.317,2.548-3.226,2.207-4.075S635.395,398.92,635.395,398.92Z" transform="translate(-498.745 -318.944)" fill="#fff7dd"/>
      <path id="Path_2686" data-name="Path 2686" d="M672.724,330.208a5.543,5.543,0,0,1,.989-.977,3.032,3.032,0,0,1,1.956-.951,2.927,2.927,0,0,1,1.156.414q2.708,1.427,5.4,2.883a5.023,5.023,0,0,1,1.81,1.382,5.329,5.329,0,0,1,.781,2.282,5.594,5.594,0,0,1,.077,1.668,2.092,2.092,0,0,1-.738,1.4c-.484.352-1.147.354-1.552.815a4.541,4.541,0,0,0-.5.964c-.166.324-.454.64-.783.582a.822.822,0,0,1-.574-.757,4.6,4.6,0,0,1,.062-1.066,2.525,2.525,0,0,0-.388-1.793c-.256-.324-.623-.52-.87-.853-.593-.8-.322-2.133-.972-2.885a1.542,1.542,0,0,0-1.493-.426,6.381,6.381,0,0,0-1.493.64,11.09,11.09,0,0,1-2.045.789c-.593.162-1.279.55-1.482-.239A5.258,5.258,0,0,1,672.724,330.208Z" transform="translate(-537.861 -263.366)" opacity="0.1"/>
      <path id="Path_2687" data-name="Path 2687" d="M673.521,329.419a5.544,5.544,0,0,1,.99-.977,3.032,3.032,0,0,1,1.956-.951,2.926,2.926,0,0,1,1.156.414c1.8.951,3.3.051,5.4,2.883.448.606,1.348.738,1.81,1.382a5.327,5.327,0,0,1,.78,2.282,5.592,5.592,0,0,1,.077,1.668,2.092,2.092,0,0,1-.738,1.4c-.484.352-1.147.354-1.552.815a4.539,4.539,0,0,0-.5.964c-.166.324-.454.64-.783.582a.822.822,0,0,1-.574-.757,4.6,4.6,0,0,1,.062-1.066,2.525,2.525,0,0,0-.388-1.793c-.256-.324-.623-.52-.87-.853-.593-.8-.322-2.133-.972-2.885a1.542,1.542,0,0,0-1.493-.427,6.381,6.381,0,0,0-1.493.64,11.088,11.088,0,0,1-2.045.789c-.593.162-1.279.55-1.482-.239A5.246,5.246,0,0,1,673.521,329.419Z" transform="translate(-538.487 -262.745)" fill="#865a61"/>
      <path id="Path_2688" data-name="Path 2688" d="M736.5,458.09s2.265,5.775.565,8.152l-3.736-.853s3.4,1.019,2.887-1.019S736.5,458.09,736.5,458.09Z" transform="translate(-586.161 -365.496)" opacity="0.1"/>
      <path id="Path_2689" data-name="Path 2689" d="M730.814,522.49s-4.926.339-6.284-.68a13.009,13.009,0,0,0,6.131,2.548Z" transform="translate(-579.237 -415.627)" opacity="0.1"/>
      <path id="Path_2690" data-name="Path 2690" d="M645.687,474s-2.548,7.813-2.378,9,.51,14.266.51,14.266l.51-.171-.171-14.266Z" transform="translate(-515.331 -378.013)" opacity="0.1"/>
      <path id="Path_2691" data-name="Path 2691" d="M315.144,153.688l-58.217-46.915a3.642,3.642,0,0,0-2.58-1.066h-2.474a31.561,31.561,0,1,0-5.466,5.466v2.472a3.642,3.642,0,0,0,1.066,2.58l58.217,46.915a3.625,3.625,0,0,0,5.148,0l4.291-4.286A3.661,3.661,0,0,0,315.144,153.688Zm-88.172-47.981a19.418,19.418,0,1,1,13.748-5.687,19.435,19.435,0,0,1-13.748,5.687Z" transform="translate(-162.968 -48.152)" fill="url(#linear-gradient-5)"/>
      <path id="Path_2692" data-name="Path 2692" d="M317.144,151.688l-58.217-46.915a3.642,3.642,0,0,0-2.58-1.066h-2.474a31.561,31.561,0,1,0-5.466,5.466v2.472a3.642,3.642,0,0,0,1.066,2.58l58.217,46.915a3.625,3.625,0,0,0,5.148,0l4.291-4.286A3.661,3.661,0,0,0,317.144,151.688Zm-88.172-47.981a19.418,19.418,0,1,1,13.748-5.687,19.435,19.435,0,0,1-13.748,5.687Z" transform="translate(-164.541 -46.578)" fill="#444584"/>
      <path id="Path_2693" data-name="Path 2693" d="M711.139,476.789s-8.5-9.745-7.3-3.058c.853,4.755,4.075,7.3,5.6,7.813S711.139,476.789,711.139,476.789Z" transform="translate(-562.866 -375.957)" fill="#fdc2cc"/>
      <path id="Path_2694" data-name="Path 2694" d="M727.394,454.51s.171,6.284,1.019,7.133-.51,1.868-.51,1.868l-3.4-.853s.853,5.6-2.717,4.926a10.825,10.825,0,0,0,4.755,2.548c2.378.341,2.207-.51,2.207-.51l3.565-4.246Z" transform="translate(-577.082 -362.679)" fill="#fff7dd"/>
      <path id="Path_2695" data-name="Path 2695" d="M702.2,490.149l3.446-.757-.461-1.589-2.132-.853-2.772,1.279Z" transform="translate(-550.946 -383.113)" fill="#d6dbe6"/>
      <path id="Path_2696" data-name="Path 2696" d="M280.78,146.312a14.433,14.433,0,0,0,2.9,8.7c.19.254.388.5.6.74.111.13.226.258.343.384q.087.1.179.192a14.226,14.226,0,0,0,1.548,1.405l.038.028a14.439,14.439,0,0,0,4.295,2.307l.194.062c.119.041.243.077.365.111l.049.015c.062.017.124.036.188.051a14.438,14.438,0,0,0,3.8.505c.213,0,.437,0,.655-.015a14.339,14.339,0,0,0,3.363-.55h.021c.2-.06.4-.122.6-.19h.021l.181-.064a14.056,14.056,0,0,0,2-.887l.04-.021.213-.117A14.463,14.463,0,0,0,305,157.07l.07-.066a13.545,13.545,0,0,0,1.239-1.28l.045-.053c.036-.041.07-.081.1-.124.094-.111.183-.226.273-.341a14.5,14.5,0,1,0-25.957-8.895Z" transform="translate(-230.116 -108.797)" fill="#c0bccf"/>
      <path id="Path_2697" data-name="Path 2697" d="M296.529,162.916s3.145-.267,4.587-2.267c1.405-1.947,2.361-1.97,2.408-1.97h0c.036-.26.062-.508.079-.738v-.032a.426.426,0,0,1-.2.087c-.282.043-.529-.224-.67-.508a3.96,3.96,0,0,0-.427-.84c-.348-.4-.917-.4-1.331-.708a1.83,1.83,0,0,1-.64-1.22,3.358,3.358,0,0,1-.026-.533,5.907,5.907,0,0,1,.09-1.137,4.681,4.681,0,0,1,.67-1.985c.395-.557,1.166-.676,1.55-1.2,1.8-2.465,3.079-1.683,4.625-2.51a2.478,2.478,0,0,1,.989-.36,2.587,2.587,0,0,1,1.674.83,4.78,4.78,0,0,1,.853.853,4.628,4.628,0,0,1,.674,2.589,3.877,3.877,0,0,1-.1,1.013c-.124.49-.458.458-.825.348a4.431,4.431,0,0,1-1.506,5.562v.224a.387.387,0,0,0,0,.049,10.1,10.1,0,0,0,.034,1.019c.036.019,3.484,1.975,3.875,2.9a4.211,4.211,0,0,0,1.836,1.6,5.737,5.737,0,0,1,2.346,3.531l-.045.053a13.673,13.673,0,0,1-1.239,1.305l-.07.068a14.472,14.472,0,0,1-2.632,1.919c-.068.041-.139.081-.213.119l-.041.021a13.943,13.943,0,0,1-2,.9l-.181.066h-.021c-.2.07-.4.132-.6.192h-.021a14.121,14.121,0,0,1-3.363.559c-.213.011-.427.015-.655.015a14.212,14.212,0,0,1-3.792-.493c-.064-.015-.126-.034-.188-.051l-.049-.015c-.122-.034-.245-.072-.365-.113l-.194-.062a14.378,14.378,0,0,1-4.3-2.348l-.038-.028a14.319,14.319,0,0,1-1.548-1.429q-.092-.094-.179-.2c-.117-.128-.232-.258-.343-.39-.213-.245-.405-.495-.595-.753C295.561,162.476,296.529,162.916,296.529,162.916Z" transform="translate(-240.848 -120.737)" fill="url(#linear-gradient-6)"/>
      <path id="Path_2698" data-name="Path 2698" d="M335.461,192.531l4.587-3.538s-3.073.659-2.985-4.252a.387.387,0,0,1,0-.049,12.567,12.567,0,0,1,.107-1.465c.787-6.553-5.5-.787-5.5-.787a9.377,9.377,0,0,1,0,1.744v.047a12.184,12.184,0,0,1-1.309,4.63C328.648,192.136,335.461,192.531,335.461,192.531Z" transform="translate(-268.904 -146.783)" fill="#fdc2cc"/>
      <path id="Path_2699" data-name="Path 2699" d="M338.081,183.274c.778.757,1.254,2.133,2.425,2.133a4.3,4.3,0,0,0,2.382-.714,12.567,12.567,0,0,1,.107-1.465c.787-6.553-5.5-.787-5.5-.787S338.164,182.207,338.081,183.274Z" transform="translate(-274.733 -146.783)" opacity="0.1"/>
      <circle id="Ellipse_564" data-name="Ellipse 564" cx="4.325" cy="4.325" r="4.325" transform="translate(61.448 29.761)" fill="#fdc2cc"/>
      <path id="Path_2700" data-name="Path 2700" d="M332.513,151.652a4.745,4.745,0,0,0-.853-.836,2.586,2.586,0,0,0-1.674-.815,2.505,2.505,0,0,0-.99.354c-1.546.815-2.828.045-4.625,2.467-.384.518-1.154.64-1.55,1.184a4.537,4.537,0,0,0-.67,1.953,4.789,4.789,0,0,0-.066,1.429,1.789,1.789,0,0,0,.64,1.2c.414.3.983.3,1.331.7a3.87,3.87,0,0,1,.427.825c.141.277.388.54.67.5a.69.69,0,0,0,.49-.64,3.932,3.932,0,0,0-.053-.911,2.178,2.178,0,0,1,.333-1.535c.213-.279.533-.446.744-.729.508-.685.277-1.834.834-2.469a1.32,1.32,0,0,1,1.28-.356,5.451,5.451,0,0,1,1.279.55,9.5,9.5,0,0,0,1.751.676c.508.139,1.1.471,1.269-.213A4.507,4.507,0,0,0,332.513,151.652Z" transform="translate(-262.593 -123.105)" opacity="0.1"/>
      <path id="Path_2701" data-name="Path 2701" d="M332.513,150.652a4.745,4.745,0,0,0-.853-.836,2.586,2.586,0,0,0-1.674-.815,2.506,2.506,0,0,0-.99.354c-1.546.815-2.828.045-4.625,2.467-.384.518-1.154.64-1.55,1.184a4.536,4.536,0,0,0-.67,1.953,4.789,4.789,0,0,0-.066,1.429,1.789,1.789,0,0,0,.64,1.2c.414.3.983.3,1.331.7a3.87,3.87,0,0,1,.427.825c.141.277.388.54.67.5a.69.69,0,0,0,.49-.64,3.932,3.932,0,0,0-.053-.911,2.178,2.178,0,0,1,.333-1.535c.213-.279.533-.446.744-.729.508-.685.277-1.834.834-2.469a1.32,1.32,0,0,1,1.28-.356,5.451,5.451,0,0,1,1.279.55,9.493,9.493,0,0,0,1.751.676c.508.139,1.1.471,1.269-.213A4.507,4.507,0,0,0,332.513,150.652Z" transform="translate(-262.593 -122.318)" fill="#865a61"/>
      <path id="Path_2702" data-name="Path 2702" d="M327.023,218.145l-.085,3.273a14.439,14.439,0,0,0,3.8.505c.213,0,.437,0,.655-.015a14.34,14.34,0,0,0,3.363-.55h.021c.2-.06.4-.122.6-.19h.021l.181-.064a14.061,14.061,0,0,0,2-.887l.04-.021.213-.117-.331-4.412.527-3.026-2.883-1.964a5.075,5.075,0,0,1-.542.657,3.625,3.625,0,0,1-.985.729c-2.069,1.019-4.423-.6-5.594-1.6l-.267-.237c-.3-.275-.476-.463-.476-.463l-1.442,2.226Z" transform="translate(-265.575 -170.122)" opacity="0.1"/>
      <path id="Path_2703" data-name="Path 2703" d="M327.023,219.145l-.085,3.273a14.439,14.439,0,0,0,3.8.505c.213,0,.437,0,.655-.015a14.339,14.339,0,0,0,3.363-.55h.021c.2-.06.4-.122.6-.19h.021l.181-.064a14.056,14.056,0,0,0,2-.887l.04-.021.213-.117-.331-4.412.527-3.026-2.883-1.964a5.075,5.075,0,0,1-.542.657,3.625,3.625,0,0,1-.985.729c-2.069,1.019-4.423-.6-5.594-1.6l-.267-.237c-.3-.275-.476-.463-.476-.463l-1.442,2.226Z" transform="translate(-265.575 -170.908)" fill="#53526b"/>
      <path id="Path_2704" data-name="Path 2704" d="M294.36,210.912c.19.254.388.5.595.74.111.13.226.258.343.384q.087.1.179.192a14.227,14.227,0,0,0,1.548,1.405l.038.028a14.44,14.44,0,0,0,4.295,2.307l.194.062c.119.041.243.077.365.111l.049.015c.062.017.124.036.188.051a14.439,14.439,0,0,0,3.8.505c.213,0,.437,0,.655-.015.166-2.721.213-4.9-.047-5.466a8.794,8.794,0,0,0-.527-.943c-1.053-1.693-2.985-4.239-2.881-4.561a3.337,3.337,0,0,0,.087-.48c.113-.84.226-2.378.226-2.378h0c-.047,0-1,.023-2.408,1.938-1.442,1.966-4.587,2.228-4.587,2.228S295.514,206.61,294.36,210.912Z" transform="translate(-240.8 -164.701)" fill="#555388"/>
      <path id="Path_2705" data-name="Path 2705" d="M362.489,216.158s.158,1.256.365,2.757h.021l.181-.064a14.061,14.061,0,0,0,2-.887l.041-.021.213-.117a14.463,14.463,0,0,0,2.631-1.894l.07-.066a13.552,13.552,0,0,0,1.239-1.279l.045-.053a5.641,5.641,0,0,0-2.346-3.474,4.189,4.189,0,0,1-1.836-1.574c-.395-.917-3.877-2.855-3.877-2.855v.015c0,.164-.055,1.668-.139,3.18-.053.983-.119,1.97-.2,2.6a3.032,3.032,0,0,1-.111.6C360.525,213.669,362.489,216.158,362.489,216.158Z" transform="translate(-293.048 -167.659)" fill="#555388"/>
    </g>
    <circle id="Ellipse_483" data-name="Ellipse 483" cx="37" cy="37" r="37" transform="translate(371 2765)" fill="#fff"/>
    <rect id="Rectangle_984" data-name="Rectangle 984" width="98" height="16" rx="6" transform="translate(359 2856)" fill="#fff"/>
    <rect id="Rectangle_981" data-name="Rectangle 981" width="141" height="12" rx="6" transform="translate(338 2923)" fill="#fff"/>
    <rect id="Rectangle_982" data-name="Rectangle 982" width="141" height="11" rx="5.5" transform="translate(338 2950)" fill="#fff"/>
    <rect id="Rectangle_983" data-name="Rectangle 983" width="142" height="11" rx="5.5" transform="translate(338 2976)" fill="#fff"/>
    <rect id="Rectangle_1135" data-name="Rectangle 1135" width="141" height="12" rx="6" transform="translate(338 3002)" fill="#fff"/>
    <rect id="Rectangle_1136" data-name="Rectangle 1136" width="109" height="11" rx="5.5" transform="translate(338 3119)" fill="#fff"/>
    <rect id="Rectangle_1137" data-name="Rectangle 1137" width="76" height="11" rx="5.5" transform="translate(338 3140)" fill="#fff"/>
    <rect id="Rectangle_1138" data-name="Rectangle 1138" width="71" height="22" rx="11" transform="translate(965 2750)" fill="#fff"/>
    <path id="Icon_ionic-ios-arrow-down" data-name="Icon ionic-ios-arrow-down" d="M10.562,14.739l3.307-3.309a.622.622,0,0,1,.883,0,.63.63,0,0,1,0,.885L11,16.064a.624.624,0,0,1-.862.018L6.37,12.318a.625.625,0,1,1,.883-.885Z" transform="translate(1010.814 2747.177)" opacity="0.8"/>
  </g>
</svg>
