<svg xmlns="http://www.w3.org/2000/svg" xmlns:xlink="http://www.w3.org/1999/xlink" width="977" height="599.438" viewBox="0 0 977 599.438">
  <defs>
    <filter id="Rectangle_977" x="2" y="52.438" width="825" height="547" filterUnits="userSpaceOnUse">
      <feOffset dy="8" input="SourceAlpha"/>
      <feGaussianBlur stdDeviation="15" result="blur"/>
      <feFlood flood-opacity="0.161"/>
      <feComposite operator="in" in2="blur"/>
      <feComposite in="SourceGraphic"/>
    </filter>
    <filter id="Rectangle_987" x="513" y="168.438" width="278" height="132" filterUnits="userSpaceOnUse">
      <feOffset input="SourceAlpha"/>
      <feGaussianBlur stdDeviation="5" result="blur-2"/>
      <feFlood flood-opacity="0.161"/>
      <feComposite operator="in" in2="blur-2"/>
      <feComposite in="SourceGraphic"/>
    </filter>
  </defs>
  <g id="Group_428" data-name="Group 428" transform="translate(-269 -2638.562)">
    <g id="Group_376" data-name="Group 376" transform="translate(23 -40)">
      <circle id="Ellipse_486" data-name="Ellipse 486" cx="31.5" cy="31.5" r="31.5" transform="translate(280 3201)" fill="#444584" opacity="0.3"/>
      <circle id="Ellipse_487" data-name="Ellipse 487" cx="13.5" cy="13.5" r="13.5" transform="translate(249 3187)" fill="#444584" opacity="0.3"/>
    </g>
    <rect id="Rectangle_986" data-name="Rectangle 986" width="97" height="91" transform="translate(269 2694)" fill="#38bdba" opacity="0.3"/>
    <g id="Group_375" data-name="Group 375" transform="translate(-50)">
      <rect id="Rectangle_985" data-name="Rectangle 985" width="553" height="322" transform="matrix(0.799, -0.602, 0.602, 0.799, 617.808, 2971.365)" fill="#d3d4e0"/>
      <circle id="Ellipse_484" data-name="Ellipse 484" cx="64" cy="64" r="64" transform="translate(1168 2801)" fill="#fff"/>
      <circle id="Ellipse_485" data-name="Ellipse 485" cx="53" cy="53" r="53" transform="translate(1179 2812)" fill="#d7f2f1" opacity="0.32"/>
    </g>
    <g transform="matrix(1, 0, 0, 1, 269, 2638.56)" filter="url(#Rectangle_977)">
      <rect id="Rectangle_977-2" data-name="Rectangle 977" width="735" height="457" rx="4" transform="translate(47 89.44)" fill="#e1f5f6"/>
    </g>
    <rect id="Rectangle_978" data-name="Rectangle 978" width="184" height="457" transform="translate(316 2728)" fill="#444584"/>
    <rect id="Rectangle_979" data-name="Rectangle 979" width="513" height="380" rx="4" transform="translate(522 2789)" fill="#fafafa"/>
    <path id="Rectangle_980" data-name="Rectangle 980" d="M4,0H257a0,0,0,0,1,0,0V380a0,0,0,0,1,0,0H4a4,4,0,0,1-4-4V4A4,4,0,0,1,4,0Z" transform="translate(522 2789)" fill="#fff"/>
    <g transform="matrix(1, 0, 0, 1, 269, 2638.56)" filter="url(#Rectangle_987)">
      <rect id="Rectangle_987-2" data-name="Rectangle 987" width="248" height="102" rx="8" transform="translate(528 183.44)" fill="#fff"/>
    </g>
    <path id="Icon_awesome-check-circle" data-name="Icon awesome-check-circle" d="M22.587,11.575A11.012,11.012,0,1,1,11.575.563,11.012,11.012,0,0,1,22.587,11.575ZM10.3,17.406l8.17-8.17a.71.71,0,0,0,0-1l-1-1a.71.71,0,0,0-1,0L9.8,13.889,6.688,10.778a.711.711,0,0,0-1,0l-1,1a.71.71,0,0,0,0,1L9.3,17.406a.71.71,0,0,0,1,0Z" transform="translate(824.863 2838.438)" fill="#38bdba"/>
    <path id="Rectangle_988" data-name="Rectangle 988" d="M8,0h8a0,0,0,0,1,0,0V102a0,0,0,0,1,0,0H8a8,8,0,0,1-8-8V8A8,8,0,0,1,8,0Z" transform="translate(797 2822)" fill="#38bdba"/>
    <text id="Data_Entry" data-name="Data Entry" transform="translate(902 2854)" font-size="14" font-family="Montserrat-SemiBold, Montserrat" font-weight="600" letter-spacing="0.05em" opacity="0.8"><tspan x="-41.874" y="0">Data Entry</tspan></text>
    <rect id="Rectangle_989" data-name="Rectangle 989" width="173" height="12" rx="6" transform="translate(860 2865)" fill="#f5f5f5"/>
    <rect id="Rectangle_990" data-name="Rectangle 990" width="173" height="12" rx="6" transform="translate(860 2882)" fill="#f5f5f5"/>
    <rect id="Rectangle_991" data-name="Rectangle 991" width="61" height="12" rx="6" transform="translate(860 2899)" fill="#f5f5f5"/>
    <path id="Icon_awesome-check-circle-2" data-name="Icon awesome-check-circle" d="M22.587,11.575A11.012,11.012,0,1,1,11.575.563,11.012,11.012,0,0,1,22.587,11.575ZM10.3,17.406l8.17-8.17a.71.71,0,0,0,0-1l-1-1a.71.71,0,0,0-1,0L9.8,13.889,6.688,10.778a.711.711,0,0,0-1,0l-1,1a.71.71,0,0,0,0,1L9.3,17.406a.71.71,0,0,0,1,0Z" transform="translate(824.863 2953.438)" fill="#38bdba"/>
    <text id="Data_Transcription" data-name="Data Transcription" transform="translate(933 2969)" font-size="14" font-family="Montserrat-SemiBold, Montserrat" font-weight="600" letter-spacing="0.05em" opacity="0.8"><tspan x="-72.884" y="0">Data Transcription</tspan></text>
    <path id="Icon_awesome-check-circle-3" data-name="Icon awesome-check-circle" d="M22.587,11.575A11.012,11.012,0,1,1,11.575.563,11.012,11.012,0,0,1,22.587,11.575ZM10.3,17.406l8.17-8.17a.71.71,0,0,0,0-1l-1-1a.71.71,0,0,0-1,0L9.8,13.889,6.688,10.778a.711.711,0,0,0-1,0l-1,1a.71.71,0,0,0,0,1L9.3,17.406a.71.71,0,0,0,1,0Z" transform="translate(824.863 3005.438)" fill="#38bdba"/>
    <text id="Data_Digitization" data-name="Data Digitization" transform="translate(927 3021)" font-size="14" font-family="Montserrat-SemiBold, Montserrat" font-weight="600" letter-spacing="0.05em" opacity="0.8"><tspan x="-66.731" y="0">Data Digitization</tspan></text>
    <path id="Icon_awesome-check-circle-4" data-name="Icon awesome-check-circle" d="M22.587,11.575A11.012,11.012,0,1,1,11.575.563,11.012,11.012,0,0,1,22.587,11.575ZM10.3,17.406l8.17-8.17a.71.71,0,0,0,0-1l-1-1a.71.71,0,0,0-1,0L9.8,13.889,6.688,10.778a.711.711,0,0,0-1,0l-1,1a.71.71,0,0,0,0,1L9.3,17.406a.71.71,0,0,0,1,0Z" transform="translate(824.863 3057.438)" fill="#38bdba"/>
    <text id="Data_Curation" data-name="Data Curation" transform="translate(915 3073)" font-size="14" font-family="Montserrat-SemiBold, Montserrat" font-weight="600" letter-spacing="0.05em" opacity="0.8"><tspan x="-54.565" y="0">Data Curation</tspan></text>
    <g id="undraw_all_the_data_h4ki" transform="translate(535 2893)">
      <ellipse id="Ellipse_488" data-name="Ellipse 488" cx="29.658" cy="3.849" rx="29.658" ry="3.849" transform="translate(170.684 163.503)" fill="#3f3d56"/>
      <rect id="Rectangle_992" data-name="Rectangle 992" width="89.536" height="55.857" transform="translate(0 6.442)" fill="#f2f2f2"/>
      <rect id="Rectangle_993" data-name="Rectangle 993" width="89.536" height="55.857" transform="translate(5.647 1)" fill="none" stroke="#3f3d56" stroke-miterlimit="10" stroke-width="2"/>
      <path id="Path_2295" data-name="Path 2295" d="M299.65,110.053A19.3,19.3,0,0,0,286,77.1V96.4Z" transform="translate(-235.482 -67.577)" fill="#3f3d56"/>
      <path id="Path_2296" data-name="Path 2296" d="M211.3,77.1a19.306,19.306,0,0,0-9.235,36.259L211.3,96.4Z" transform="translate(-160.78 -67.577)" fill="#444584"/>
      <path id="Path_2297" data-name="Path 2297" d="M263.916,184.75l-13.65-13.65-9.234,16.955A19.314,19.314,0,0,0,263.916,184.75Z" transform="translate(-199.749 -142.274)" fill="#575a89"/>
      <rect id="Rectangle_994" data-name="Rectangle 994" width="3.696" height="3.696" transform="translate(9.036 45.254)" fill="#6c63ff"/>
      <rect id="Rectangle_995" data-name="Rectangle 995" width="3.696" height="3.696" transform="translate(14.375 45.254)" fill="#3f3d56"/>
      <rect id="Rectangle_996" data-name="Rectangle 996" width="3.696" height="3.696" transform="translate(19.714 45.254)" fill="#575a89"/>
      <rect id="Rectangle_997" data-name="Rectangle 997" width="15.196" height="0.616" transform="translate(72.902 46.076)" fill="#3f3d56"/>
      <rect id="Rectangle_998" data-name="Rectangle 998" width="15.196" height="0.616" transform="translate(72.902 47.924)" fill="#3f3d56"/>
      <rect id="Rectangle_999" data-name="Rectangle 999" width="15.196" height="0.616" transform="translate(72.902 49.772)" fill="#3f3d56"/>
      <rect id="Rectangle_1000" data-name="Rectangle 1000" width="50.929" height="55.857" transform="translate(28.134 84.272)" fill="#f2f2f2"/>
      <rect id="Rectangle_1001" data-name="Rectangle 1001" width="50.929" height="55.857" transform="translate(33.268 78.933)" fill="none" stroke="#3f3d56" stroke-miterlimit="10" stroke-width="2"/>
      <rect id="Rectangle_1002" data-name="Rectangle 1002" width="2.746" height="2.746" transform="translate(35.938 128.489)" fill="#6c63ff"/>
      <rect id="Rectangle_1003" data-name="Rectangle 1003" width="2.746" height="2.746" transform="translate(39.904 128.489)" fill="#3f3d56"/>
      <rect id="Rectangle_1004" data-name="Rectangle 1004" width="2.746" height="2.746" transform="translate(43.87 128.489)" fill="#575a89"/>
      <rect id="Rectangle_1005" data-name="Rectangle 1005" width="10.679" height="0.433" transform="translate(66.741 129.681)" fill="#3f3d56"/>
      <rect id="Rectangle_1006" data-name="Rectangle 1006" width="10.679" height="0.433" transform="translate(66.741 130.98)" fill="#3f3d56"/>
      <rect id="Rectangle_1007" data-name="Rectangle 1007" width="10.679" height="0.433" transform="translate(66.741 132.279)" fill="#3f3d56"/>
      <path id="Path_2298" data-name="Path 2298" d="M326,463.1v4.518a13.554,13.554,0,0,1,9.584,23.137l3.195,3.195A18.071,18.071,0,0,0,326,463.1Z" transform="translate(-267.268 -374.31)" fill="#3f3d56"/>
      <path id="Path_2299" data-name="Path 2299" d="M296.466,600.963l-3.195-3.195a13.55,13.55,0,0,1-17.784,1.206l-2.734,3.6A18.071,18.071,0,0,0,296.466,600.963Z" transform="translate(-224.956 -481.323)" fill="#575a89"/>
      <path id="Path_2300" data-name="Path 2300" d="M242.514,481.171a13.554,13.554,0,0,1,13.554-13.554V463.1a18.071,18.071,0,0,0-10.935,32.459l2.734-3.6a13.53,13.53,0,0,1-5.353-10.789Z" transform="translate(-197.335 -374.31)" fill="#444584"/>
      <path id="Path_2301" data-name="Path 2301" d="M929.937,172.543s-.838,6.225,1.317,6.943,1.556,6.225,1.556,6.225l-6.464,4.908-5.746.479-1.436-7.422L920,181.76s3.232-3.83.958-7.781S929.937,172.543,929.937,172.543Z" transform="translate(-738.621 -142.794)" fill="#ffb9b9"/>
      <path id="Path_2302" data-name="Path 2302" d="M929.937,172.543s-.838,6.225,1.317,6.943,1.556,6.225,1.556,6.225l-6.464,4.908-5.746.479-1.436-7.422L920,181.76s3.232-3.83.958-7.781S929.937,172.543,929.937,172.543Z" transform="translate(-738.621 -142.794)" opacity="0.1"/>
      <path id="Path_2303" data-name="Path 2303" d="M847.062,287.53l-7.541,17.716s-5.865-3.352-9.337-2.993-7.781-3.83-7.781-3.83l4.309-20.828,8.02-22.145,11.132,7.062Z" transform="translate(-661.731 -209.302)" fill="#575a89"/>
      <path id="Path_2304" data-name="Path 2304" d="M847.062,287.53l-7.541,17.716s-5.865-3.352-9.337-2.993-7.781-3.83-7.781-3.83l4.309-20.828,8.02-22.145,11.132,7.062Z" transform="translate(-661.731 -209.302)" fill="#00bfa6" opacity="0.1"/>
      <path id="Path_2305" data-name="Path 2305" d="M939.343,740v5.746h-5.387l.838-6.7Z" transform="translate(-742.161 -586.482)" fill="#575a89"/>
      <path id="Path_2306" data-name="Path 2306" d="M1009.859,695.328l3.949,2.394-2.873,6.584-2.992-.359-2.873-4.07Z" transform="translate(-798.672 -551.743)" fill="#575a89"/>
      <path id="Path_2307" data-name="Path 2307" d="M919.314,403.505l7.062,16.639s-2.514,18.434-2.394,19.99a5.626,5.626,0,0,1-.359,3.471,4.941,4.941,0,0,0-.479,3.711c.359,1.556.479,2.155.239,2.753s-1.915,25.257-2.753,26.933.479,4.429-.359,4.668-7.062-.359-7.422-1.8,1.2-4.908.359-5.985.12-39.861-1.077-42.494-14.364-5.027-14.364-5.027-1.2-7.661-.479-8.858,1.676-8.738,1.676-8.738Z" transform="translate(-721.056 -326.953)"/>
      <path id="Path_2308" data-name="Path 2308" d="M967.455,794.831s3.352-3.95,6.225,0c0,0,.239,4.668,2.274,5.626s1.077,4.788-1.8,4.908-6.584.6-6.7-.958.479-2.514-.6-2.992,0-3.232,0-3.232Z" transform="translate(-776.14 -636.522)" fill="#2f2e41"/>
      <path id="Path_2309" data-name="Path 2309" d="M914.635,504.472s-.12,8.619-.958,9.816-1.317,1.915-.838,3.232,1.2,3.711.838,4.19.359,2.992.359,2.992,9.217,4.429,13.526,13.646c0,0,4.429,7.3,5.746,7.422s2.873-.838,2.155,1.915-3.471,6.344-5.506,5.985-3.59-3.83-3.59-3.83-15.92-16.16-17.6-16.639-6.464-4.309-7.3-6.7-2.633-22.384-1.8-23.7,3.95-3.112,3.95-3.112Z" transform="translate(-722.96 -403.381)"/>
      <path id="Path_2310" data-name="Path 2310" d="M1056.855,727.6s7.422.239,7.541,2.035-3.112,12.449-2.633,14.963-3.711,8.259-6.464,7.062-.6-7.422-.6-7.422-2.753-8.5-2.274-8.619,5.267-1.556,5.027-2.993S1056.855,727.6,1056.855,727.6Z" transform="translate(-844.473 -584.49)" fill="#2f2e41"/>
      <circle id="Ellipse_489" data-name="Ellipse 489" cx="7.422" cy="7.422" r="7.422" transform="translate(178.328 21.31)" fill="#ffb9b9"/>
      <path id="Path_2311" data-name="Path 2311" d="M900.355,213.693s-4.07,4.309-7.062,3.591-4.549-5.865-4.549-5.865l-5.387-.958s-3.831,17-3.831,18.674,3.831,19.751,3.831,22.983-3.112,5.147,1.676,5.027,2.514-1.676,9.456-1.8,8.02,1.436,9.456-1.077a20.029,20.029,0,0,1,3.591-4.429l-2.514-8.858-.36-25.018s-3.069-5.985-4.467-5.506C900.2,210.461,900.954,213.095,900.355,213.693Z" transform="translate(-707.124 -173.531)" fill="#fff"/>
      <path id="Path_2312" data-name="Path 2312" d="M969.749,205.411s6.382.7,8.178,2.016,6.823,2.274,6.7,3.232-5.865,14.6-5.865,14.6-2.633,10.773-.359,13.287,10.773,29.925,9.337,32.2-5.985-6.943-5.985-6.943-6.1-19.751-9.456-23.1-3.591-21.426-3.591-22.265S969.749,205.411,969.749,205.411Z" transform="translate(-777.993 -169.539)" fill="#00bfa6"/>
      <path id="Path_2313" data-name="Path 2313" d="M834.619,204.236s-7.864-2.963-10.617-1.766a19.281,19.281,0,0,1-4.429,1.436l-.958,11.731s-.359,16.878-3.471,20.948-5.147,21.068-4.668,22.743-.838,4.549,1.2,3.83,7.661-17.237,7.661-17.237,0-9.456,3.352-12.09,8.858-13.526,9.1-16.16,2.514-9.935,2.514-9.935Z" transform="translate(-652.197 -166.976)" fill="#00bfa6"/>
      <path id="Path_2314" data-name="Path 2314" d="M1005.3,385.923s-3.592,6.7-4.07,7.9-3.831,9.337-8.619,7.541,4.668-10.534,4.668-10.534l2.155-7.3S1005.066,382.332,1005.3,385.923Z" transform="translate(-795.914 -310.927)" fill="#ffb9b9"/>
      <path id="Path_2315" data-name="Path 2315" d="M774.466,207.461h-1.2a2.756,2.756,0,0,0-2.633-.359c-1.436.6-4.788-.239-4.788.12s-3.711-1.077-5.267-.359-7.182.958-7.182.958-2.274,5.746-.718,6.823,3.831.239,4.908,1.077,3.112-.12,3.831.958,3.352,2.993,3.95,1.8-.6-2.274,1.915-.958a16.808,16.808,0,0,0,6.464,1.317Z" transform="translate(-605.894 -170.531)" fill="#00bfa6"/>
      <path id="Path_2316" data-name="Path 2316" d="M917.753,116.613a7.984,7.984,0,0,0-3.064.192,4.2,4.2,0,0,1-3-.346,4.742,4.742,0,0,1-1.393-1.78,2.049,2.049,0,0,1-.3-.785,1.828,1.828,0,0,1,.6-1.31,9.9,9.9,0,0,1,6.091-2.928,10.523,10.523,0,0,1,5.561.679,7.276,7.276,0,0,1,3.9,3.914,11.111,11.111,0,0,1,.583,2.8,8.347,8.347,0,0,1,.039,2.117,9.074,9.074,0,0,1-.41,1.534l-1.128,3.4a2.243,2.243,0,0,1-.443.878.767.767,0,0,1-.9.2,2.8,2.8,0,0,0,.04-1.13.953.953,0,0,0-.752-.758c-.416-.044-.771.278-1.165.417a1.433,1.433,0,0,1-1.809-1.077,5.311,5.311,0,0,0-.105-1.172c-.173-.428-.631-.653-.976-.961a2.246,2.246,0,0,1-.616-2.334c.092-.283.353-.412.3-.738C918.746,117,918.116,116.7,917.753,116.613Z" transform="translate(-731.335 -93.365)" fill="#2f2e41"/>
      <rect id="Rectangle_1008" data-name="Rectangle 1008" width="50.929" height="55.857" transform="translate(104.116 49.362)" fill="#f2f2f2"/>
      <rect id="Rectangle_1009" data-name="Rectangle 1009" width="50.929" height="55.857" transform="translate(109.25 44.022)" fill="none" stroke="#3f3d56" stroke-miterlimit="10" stroke-width="2"/>
      <path id="Path_2317" data-name="Path 2317" d="M556,227.5v42.714h41.277" transform="translate(-441.821 -179.987)" fill="none" stroke="#3f3d56" stroke-miterlimit="10" stroke-width="2"/>
      <rect id="Rectangle_1010" data-name="Rectangle 1010" width="9.241" height="14.786" transform="translate(116.438 75.237)" fill="#575a89"/>
      <rect id="Rectangle_1011" data-name="Rectangle 1011" width="9.241" height="24.848" transform="translate(129.786 65.174)" fill="#3f3d56"/>
      <path id="Path_2709" data-name="Path 2709" d="M0,0H9.241V36.554H0Z" transform="translate(143.134 53.469)" fill="#444584"/>
      <rect id="Rectangle_1013" data-name="Rectangle 1013" width="2.746" height="2.746" transform="translate(113.563 93.578)" fill="#6c63ff"/>
      <rect id="Rectangle_1014" data-name="Rectangle 1014" width="2.746" height="2.746" transform="translate(117.529 93.578)" fill="#3f3d56"/>
      <rect id="Rectangle_1015" data-name="Rectangle 1015" width="2.746" height="2.746" transform="translate(121.495 93.578)" fill="#575a89"/>
      <rect id="Rectangle_1016" data-name="Rectangle 1016" width="10.679" height="0.433" transform="translate(144.366 94.771)" fill="#3f3d56"/>
      <rect id="Rectangle_1017" data-name="Rectangle 1017" width="10.679" height="0.433" transform="translate(144.366 96.069)" fill="#3f3d56"/>
      <rect id="Rectangle_1018" data-name="Rectangle 1018" width="10.679" height="0.433" transform="translate(144.366 97.368)" fill="#3f3d56"/>
      <path id="Path_2318" data-name="Path 2318" d="M749.76,212.268a3.814,3.814,0,0,1,3.568,4.246c-.214,1.968-1,4.416-3.489,5.357-4.429,1.676-4.19-7.781-3.352-8.14C747.047,213.492,747.924,212.188,749.76,212.268Z" transform="translate(-601.018 -174.985)" fill="#ffb9b9"/>
      <path id="Path_2319" data-name="Path 2319" d="M1015.734,227.854l1.317.64s2.873,5.865,2.993,6.7,2.035,3.95,1.317,4.788-1.8,2.993-1.077,3.83,2.394,4.19,2.394,5.387-1.8,4.429-.6,4.788.838,5.027.6,5.387-3.352,6.224-3.352,6.224-.6-6.7-6.464-3.95c0,0-.479-3.352,0-3.591s1.676-1.676.718-1.915-2.274-3.112-2.035-3.471.838-.838.239-1.2-1.077-2.394-.958-2.753-1.317-2.035-1.317-2.035Z" transform="translate(-810.414 -187.373)" fill="#00bfa6"/>
    </g>
    <circle id="Ellipse_483" data-name="Ellipse 483" cx="37" cy="37" r="37" transform="translate(371 2765)" fill="#fff"/>
    <rect id="Rectangle_984" data-name="Rectangle 984" width="98" height="16" rx="6" transform="translate(359 2856)" fill="#fff"/>
    <rect id="Rectangle_981" data-name="Rectangle 981" width="141" height="12" rx="6" transform="translate(338 2923)" fill="#fff"/>
    <rect id="Rectangle_982" data-name="Rectangle 982" width="141" height="11" rx="5.5" transform="translate(338 2950)" fill="#fff"/>
    <rect id="Rectangle_983" data-name="Rectangle 983" width="142" height="11" rx="5.5" transform="translate(338 2976)" fill="#fff"/>
    <rect id="Rectangle_1135" data-name="Rectangle 1135" width="141" height="12" rx="6" transform="translate(338 3002)" fill="#fff"/>
    <rect id="Rectangle_1136" data-name="Rectangle 1136" width="109" height="11" rx="5.5" transform="translate(338 3119)" fill="#fff"/>
    <rect id="Rectangle_1137" data-name="Rectangle 1137" width="76" height="11" rx="5.5" transform="translate(338 3140)" fill="#fff"/>
    <rect id="Rectangle_1138" data-name="Rectangle 1138" width="71" height="22" rx="11" transform="translate(965 2750)" fill="#fff"/>
    <path id="Icon_ionic-ios-arrow-down" data-name="Icon ionic-ios-arrow-down" d="M10.562,14.739l3.307-3.309a.622.622,0,0,1,.883,0,.63.63,0,0,1,0,.885L11,16.064a.624.624,0,0,1-.862.018L6.37,12.318a.625.625,0,1,1,.883-.885Z" transform="translate(1010.814 2747.177)" opacity="0.8"/>
  </g>
</svg>
