<svg xmlns="http://www.w3.org/2000/svg" xmlns:xlink="http://www.w3.org/1999/xlink" width="977" height="599.438" viewBox="0 0 977 599.438">
  <defs>
    <filter id="Path_2708" x="2" y="52.438" width="825" height="547" filterUnits="userSpaceOnUse">
      <feOffset dy="8" input="SourceAlpha"/>
      <feGaussianBlur stdDeviation="15" result="blur"/>
      <feFlood flood-opacity="0.161"/>
      <feComposite operator="in" in2="blur"/>
      <feComposite in="SourceGraphic"/>
    </filter>
    <filter id="Rectangle_987" x="513" y="168.438" width="278" height="132" filterUnits="userSpaceOnUse">
      <feOffset input="SourceAlpha"/>
      <feGaussianBlur stdDeviation="5" result="blur-2"/>
      <feFlood flood-opacity="0.161"/>
      <feComposite operator="in" in2="blur-2"/>
      <feComposite in="SourceGraphic"/>
    </filter>
    <linearGradient id="linear-gradient" x1="-1.02" y1="1" x2="-1.02" gradientUnits="objectBoundingBox">
      <stop offset="0" stop-color="gray" stop-opacity="0.251"/>
      <stop offset="0.54" stop-color="gray" stop-opacity="0.122"/>
      <stop offset="1" stop-color="gray" stop-opacity="0.102"/>
    </linearGradient>
    <linearGradient id="linear-gradient-2" x1="0" y1="0.5" x2="1.001" y2="0.5" xlink:href="#linear-gradient"/>
  </defs>
  <g id="Group_424" data-name="Group 424" transform="translate(-269 -2638.562)">
    <g id="Group_376" data-name="Group 376" transform="translate(23 -40)">
      <circle id="Ellipse_486" data-name="Ellipse 486" cx="31.5" cy="31.5" r="31.5" transform="translate(280 3201)" fill="#444584" opacity="0.3"/>
      <circle id="Ellipse_487" data-name="Ellipse 487" cx="13.5" cy="13.5" r="13.5" transform="translate(249 3187)" fill="#444584" opacity="0.3"/>
    </g>
    <rect id="Rectangle_986" data-name="Rectangle 986" width="97" height="91" transform="translate(269 2694)" fill="#38bdba" opacity="0.3"/>
    <g id="Group_375" data-name="Group 375" transform="translate(-50)">
      <rect id="Rectangle_985" data-name="Rectangle 985" width="553" height="322" transform="matrix(0.799, -0.602, 0.602, 0.799, 617.808, 2971.365)" fill="#444584" opacity="0.2"/>
      <circle id="Ellipse_484" data-name="Ellipse 484" cx="64" cy="64" r="64" transform="translate(1168 2801)" fill="#fff"/>
      <circle id="Ellipse_485" data-name="Ellipse 485" cx="53" cy="53" r="53" transform="translate(1179 2812)" fill="#38bdba" opacity="0.2"/>
    </g>
    <g transform="matrix(1, 0, 0, 1, 269, 2638.56)" filter="url(#Path_2708)">
      <path id="Path_2708-2" data-name="Path 2708" d="M4,0H731a4,4,0,0,1,4,4V453a4,4,0,0,1-4,4H4a4,4,0,0,1-4-4V4A4,4,0,0,1,4,0Z" transform="translate(47 89.44)" fill="#e1f5f6"/>
    </g>
    <rect id="Rectangle_978" data-name="Rectangle 978" width="184" height="457" transform="translate(316 2728)" fill="#444584"/>
    <rect id="Rectangle_979" data-name="Rectangle 979" width="513" height="380" rx="4" transform="translate(522 2789)" fill="#fafafa"/>
    <circle id="Ellipse_483" data-name="Ellipse 483" cx="37" cy="37" r="37" transform="translate(371 2765)" fill="#fff"/>
    <path id="Rectangle_980" data-name="Rectangle 980" d="M4,0H257a0,0,0,0,1,0,0V380a0,0,0,0,1,0,0H4a4,4,0,0,1-4-4V4A4,4,0,0,1,4,0Z" transform="translate(522 2789)" fill="#fff"/>
    <rect id="Rectangle_984" data-name="Rectangle 984" width="98" height="16" rx="6" transform="translate(359 2856)" fill="#fff"/>
    <g transform="matrix(1, 0, 0, 1, 269, 2638.56)" filter="url(#Rectangle_987)">
      <rect id="Rectangle_987-2" data-name="Rectangle 987" width="248" height="102" rx="8" transform="translate(528 183.44)" fill="#fff"/>
    </g>
    <path id="Icon_awesome-check-circle" data-name="Icon awesome-check-circle" d="M22.587,11.575A11.012,11.012,0,1,1,11.575.563,11.012,11.012,0,0,1,22.587,11.575ZM10.3,17.406l8.17-8.17a.71.71,0,0,0,0-1l-1-1a.71.71,0,0,0-1,0L9.8,13.889,6.688,10.778a.711.711,0,0,0-1,0l-1,1a.71.71,0,0,0,0,1L9.3,17.406a.71.71,0,0,0,1,0Z" transform="translate(824.863 2838.438)" fill="#38bdba"/>
    <path id="Rectangle_988" data-name="Rectangle 988" d="M8,0h8a0,0,0,0,1,0,0V102a0,0,0,0,1,0,0H8a8,8,0,0,1-8-8V8A8,8,0,0,1,8,0Z" transform="translate(797 2822)" fill="#38bdba"/>
    <text id="Content_Creation" data-name="Content Creation" transform="translate(927 2854)" font-size="14" font-family="Montserrat-SemiBold, Montserrat" font-weight="600" letter-spacing="0.05em" opacity="0.8"><tspan x="-67.158" y="0">Content Creation</tspan></text>
    <rect id="Rectangle_989" data-name="Rectangle 989" width="173" height="12" rx="6" transform="translate(860 2865)" fill="#f5f5f5"/>
    <rect id="Rectangle_990" data-name="Rectangle 990" width="173" height="12" rx="6" transform="translate(860 2882)" fill="#f5f5f5"/>
    <rect id="Rectangle_991" data-name="Rectangle 991" width="61" height="12" rx="6" transform="translate(860 2899)" fill="#f5f5f5"/>
    <path id="Icon_awesome-check-circle-2" data-name="Icon awesome-check-circle" d="M22.587,11.575A11.012,11.012,0,1,1,11.575.563,11.012,11.012,0,0,1,22.587,11.575ZM10.3,17.406l8.17-8.17a.71.71,0,0,0,0-1l-1-1a.71.71,0,0,0-1,0L9.8,13.889,6.688,10.778a.711.711,0,0,0-1,0l-1,1a.71.71,0,0,0,0,1L9.3,17.406a.71.71,0,0,0,1,0Z" transform="translate(824.863 2953.438)" fill="#38bdba"/>
    <text id="Content_Distribution" data-name="Content Distribution" transform="translate(941 2969)" font-size="14" font-family="Montserrat-SemiBold, Montserrat" font-weight="600" letter-spacing="0.05em" opacity="0.8"><tspan x="-80.976" y="0">Content Distribution</tspan></text>
    <path id="Icon_awesome-check-circle-3" data-name="Icon awesome-check-circle" d="M22.587,11.575A11.012,11.012,0,1,1,11.575.563,11.012,11.012,0,0,1,22.587,11.575ZM10.3,17.406l8.17-8.17a.71.71,0,0,0,0-1l-1-1a.71.71,0,0,0-1,0L9.8,13.889,6.688,10.778a.711.711,0,0,0-1,0l-1,1a.71.71,0,0,0,0,1L9.3,17.406a.71.71,0,0,0,1,0Z" transform="translate(824.863 3005.438)" fill="#38bdba"/>
    <text id="Drive_App_Installs" data-name="Drive App Installs" transform="translate(929 3021)" font-size="14" font-family="Montserrat-SemiBold, Montserrat" font-weight="600" letter-spacing="0.05em" opacity="0.8"><tspan x="-69.167" y="0">Drive App Installs</tspan></text>
    <path id="Icon_awesome-check-circle-4" data-name="Icon awesome-check-circle" d="M22.587,11.575A11.012,11.012,0,1,1,11.575.563,11.012,11.012,0,0,1,22.587,11.575ZM10.3,17.406l8.17-8.17a.71.71,0,0,0,0-1l-1-1a.71.71,0,0,0-1,0L9.8,13.889,6.688,10.778a.711.711,0,0,0-1,0l-1,1a.71.71,0,0,0,0,1L9.3,17.406a.71.71,0,0,0,1,0Z" transform="translate(824.863 3057.438)" fill="#38bdba"/>
    <text id="Product_Reviews" data-name="Product Reviews" transform="translate(926 3073)" font-size="14" font-family="Montserrat-SemiBold, Montserrat" font-weight="600" letter-spacing="0.05em" opacity="0.8"><tspan x="-65.597" y="0">Product Reviews</tspan></text>
    <path id="Icon_awesome-check-circle-5" data-name="Icon awesome-check-circle" d="M22.587,11.575A11.012,11.012,0,1,1,11.575.563,11.012,11.012,0,0,1,22.587,11.575ZM10.3,17.406l8.17-8.17a.71.71,0,0,0,0-1l-1-1a.71.71,0,0,0-1,0L9.8,13.889,6.688,10.778a.711.711,0,0,0-1,0l-1,1a.71.71,0,0,0,0,1L9.3,17.406a.71.71,0,0,0,1,0Z" transform="translate(824.863 3109.438)" fill="#38bdba"/>
    <text id="Insta_Amplification" data-name="Insta Amplification" transform="translate(935 3125)" font-size="14" font-family="Montserrat-SemiBold, Montserrat" font-weight="600" letter-spacing="0.05em" opacity="0.8"><tspan x="-74.977" y="0">Insta Amplification</tspan></text>
    <g id="undraw_email_campaign_qa8y" transform="translate(529.106 2904.105)">
      <path id="Path_2546" data-name="Path 2546" d="M174.3,70.9c-15.37-.533-30.011-5.5-43.989-10.925s-27.827-11.443-42.828-14.32c-9.65-1.85-20.685-2.111-28.46,3.062-7.477,4.969-9.9,13.573-11.2,21.547-.978,6-1.553,12.306,1.125,17.929,1.861,3.9,5.164,7.178,7.45,10.912,7.946,13,2.334,29.024-6.285,41.712-4.031,5.954-8.727,11.632-11.844,17.967s-4.56,13.6-1.833,20.062c2.705,6.408,9.147,11.22,16.126,14.6,14.176,6.875,30.881,8.844,47.169,9.958,36.058,2.466,72.308,1.4,108.462.329,13.38-.4,26.817-.8,39.981-2.867,7.307-1.148,14.853-2.971,20.157-7.373,6.737-5.589,8.407-15.052,3.891-22.067-7.571-11.753-28.506-14.672-33.8-27.286-2.913-6.942.079-14.679,4.311-21.116,9.081-13.815,24.3-25.935,25.1-41.723.552-10.844-6.766-21.706-18.08-26.836-11.861-5.379-28.3-4.7-37.055,4.2C203.708,67.841,187.876,71.367,174.3,70.9Z" transform="translate(-35 -44.04)" fill="#444584" opacity="0.1"/>
      <g id="Group_389" data-name="Group 389" transform="translate(83.705 18.242)" opacity="0.9">
        <rect id="Rectangle_1091" data-name="Rectangle 1091" width="2.103" height="17.341" rx="1.051" transform="translate(69.97 32.455)" fill="#3a3768"/>
        <rect id="Rectangle_1092" data-name="Rectangle 1092" width="1.18" height="5.71" rx="0.59" transform="translate(0.042 18.869)" fill="#3a3768"/>
        <rect id="Rectangle_1093" data-name="Rectangle 1093" width="1.33" height="9.938" rx="0.665" transform="translate(0 29.321)" fill="#3a3768"/>
        <rect id="Rectangle_1094" data-name="Rectangle 1094" width="1.267" height="10.023" rx="0.633" transform="translate(0.021 42.735)" fill="#3a3768"/>
        <rect id="Rectangle_1095" data-name="Rectangle 1095" width="70.395" height="143.066" rx="35.197" transform="translate(0.711)" fill="#3a3768"/>
        <rect id="Rectangle_1096" data-name="Rectangle 1096" width="9.83" height="1.997" rx="0.998" transform="translate(29.117 4.273)" fill="#e6e8ec"/>
        <circle id="Ellipse_525" data-name="Ellipse 525" cx="1.133" cy="1.133" r="1.133" transform="translate(40.433 4.137)" fill="#e6e8ec"/>
      </g>
      <path id="Path_2547" data-name="Path 2547" d="M509.449,146.1h-8.063v.972a4.6,4.6,0,0,1-4.6,4.6H471.091a4.6,4.6,0,0,1-4.6-4.6V146.1h-7.556a5.591,5.591,0,0,0-5.591,5.591v124.43a5.591,5.591,0,0,0,5.591,5.591h50.518a5.591,5.591,0,0,0,5.591-5.591V151.691A5.591,5.591,0,0,0,509.449,146.1Z" transform="translate(-364.577 -124.13)" fill="#fff" opacity="0.5"/>
      <rect id="Rectangle_1097" data-name="Rectangle 1097" width="61.748" height="5.699" transform="translate(88.814 31.507)" fill="#e6e8ec"/>
      <rect id="Rectangle_1098" data-name="Rectangle 1098" width="5.226" height="0.475" transform="translate(90.716 32.693)" fill="#3a3768"/>
      <rect id="Rectangle_1099" data-name="Rectangle 1099" width="5.226" height="0.475" transform="translate(90.716 34.119)" fill="#3a3768"/>
      <rect id="Rectangle_1100" data-name="Rectangle 1100" width="5.226" height="0.475" transform="translate(90.716 35.545)" fill="#3a3768"/>
      <path id="Path_2548" data-name="Path 2548" d="M713.687,197.167h-.193l-.074-.059a1.625,1.625,0,0,0,.378-1.04,1.579,1.579,0,1,0-1.57,1.589,1.63,1.63,0,0,0,1.035-.38l.072.062v.2l1.218,1.222.365-.367Zm-1.46,0a1.093,1.093,0,1,1,.776-.322A1.1,1.1,0,0,1,712.227,197.167Z" transform="translate(-567.283 -162.261)" fill="#3a3768"/>
      <circle id="Ellipse_526" data-name="Ellipse 526" cx="2.612" cy="2.612" r="2.612" transform="translate(90.716 45.044)" fill="#e6e8ec"/>
      <rect id="Rectangle_1101" data-name="Rectangle 1101" width="36.338" height="1.426" transform="translate(101.522 50.268)" fill="#e6e8ec"/>
      <rect id="Rectangle_1102" data-name="Rectangle 1102" width="36.338" height="1.426" transform="translate(101.641 53.355)" fill="#e6e8ec"/>
      <rect id="Rectangle_1103" data-name="Rectangle 1103" width="36.338" height="1.426" transform="translate(101.759 56.445)" fill="#e6e8ec"/>
      <circle id="Ellipse_527" data-name="Ellipse 527" cx="2.612" cy="2.612" r="2.612" transform="translate(90.716 62.857)" fill="#e6e8ec"/>
      <rect id="Rectangle_1104" data-name="Rectangle 1104" width="36.338" height="1.426" transform="translate(101.522 68.081)" fill="#e6e8ec"/>
      <rect id="Rectangle_1105" data-name="Rectangle 1105" width="36.338" height="1.426" transform="translate(101.641 71.168)" fill="#e6e8ec"/>
      <rect id="Rectangle_1106" data-name="Rectangle 1106" width="36.338" height="1.426" transform="translate(101.759 74.255)" fill="#e6e8ec"/>
      <circle id="Ellipse_528" data-name="Ellipse 528" cx="2.612" cy="2.612" r="2.612" transform="translate(90.716 80.669)" fill="#e6e8ec"/>
      <rect id="Rectangle_1107" data-name="Rectangle 1107" width="36.338" height="1.426" transform="translate(101.522 85.893)" fill="#e6e8ec"/>
      <rect id="Rectangle_1108" data-name="Rectangle 1108" width="36.338" height="1.426" transform="translate(101.641 88.98)" fill="#e6e8ec"/>
      <rect id="Rectangle_1109" data-name="Rectangle 1109" width="36.338" height="1.426" transform="translate(101.759 92.067)" fill="#e6e8ec"/>
      <circle id="Ellipse_529" data-name="Ellipse 529" cx="2.612" cy="2.612" r="2.612" transform="translate(90.716 98.482)" fill="#e6e8ec"/>
      <rect id="Rectangle_1110" data-name="Rectangle 1110" width="36.338" height="1.426" transform="translate(101.522 103.705)" fill="#e6e8ec"/>
      <rect id="Rectangle_1111" data-name="Rectangle 1111" width="36.338" height="1.426" transform="translate(101.641 106.793)" fill="#e6e8ec"/>
      <rect id="Rectangle_1112" data-name="Rectangle 1112" width="36.338" height="1.426" transform="translate(101.759 109.88)" fill="#e6e8ec"/>
      <circle id="Ellipse_530" data-name="Ellipse 530" cx="2.612" cy="2.612" r="2.612" transform="translate(90.716 116.294)" fill="#e6e8ec"/>
      <rect id="Rectangle_1113" data-name="Rectangle 1113" width="36.338" height="1.426" transform="translate(101.522 121.518)" fill="#e6e8ec"/>
      <rect id="Rectangle_1114" data-name="Rectangle 1114" width="36.338" height="1.426" transform="translate(101.641 124.605)" fill="#e6e8ec"/>
      <rect id="Rectangle_1115" data-name="Rectangle 1115" width="36.338" height="1.426" transform="translate(101.759 127.692)" fill="#e6e8ec"/>
      <circle id="Ellipse_531" data-name="Ellipse 531" cx="2.612" cy="2.612" r="2.612" transform="translate(90.716 134.106)" fill="#e6e8ec"/>
      <rect id="Rectangle_1116" data-name="Rectangle 1116" width="36.338" height="1.426" transform="translate(101.522 139.33)" fill="#e6e8ec"/>
      <rect id="Rectangle_1117" data-name="Rectangle 1117" width="36.338" height="1.426" transform="translate(101.641 142.417)" fill="#e6e8ec"/>
      <rect id="Rectangle_1118" data-name="Rectangle 1118" width="36.338" height="1.426" transform="translate(101.759 145.505)" fill="#e6e8ec"/>
      <circle id="Ellipse_532" data-name="Ellipse 532" cx="6.65" cy="6.65" r="6.65" transform="translate(131.327 140.281)" opacity="0.1"/>
      <circle id="Ellipse_533" data-name="Ellipse 533" cx="5.937" cy="5.937" r="5.937" transform="translate(132.04 140.994)" fill="#444584"/>
      <path id="Path_2549" data-name="Path 2549" d="M305.536,158.329,293.923,164.6a.242.242,0,0,0,.017.424l1.982.745a.482.482,0,0,1,.261.244l1.538,3.17c.03.14.289.176.291.034l-.236-2.618a.942.942,0,0,1,.212-.53l6.022-5.9a.149.149,0,0,1,.132-.038.138.138,0,0,1,.074.212l-5.19,6.378a1.157,1.157,0,0,0-.212.522l-.3,2.262c.025.2.18.272.3.1l1.118-1.313a.233.233,0,0,1,.329-.055l2.881,2.1a.233.233,0,0,0,.367-.142l2.364-11.6a.235.235,0,0,0-.339-.261Z" transform="translate(-238.892 -133.743)" fill="#444584"/>
      <path id="Path_2550" data-name="Path 2550" d="M883.449,169.886l-11.612,6.283a.242.242,0,0,0,.019.424l1.98.747a.461.461,0,0,1,.261.244l1.54,3.168c.03.14.286.178.291.036l-.236-2.62a.929.929,0,0,1,.212-.528l6.02-5.9a.144.144,0,0,1,.132-.038.138.138,0,0,1,.076.212l-5.192,6.348a1.16,1.16,0,0,0-.212.524l-.312,2.262c.025.2.18.274.305.1l1.118-1.311a.233.233,0,0,1,.329-.055l2.881,2.1a.231.231,0,0,0,.365-.142l2.364-11.6a.235.235,0,0,0-.339-.261Z" transform="translate(-694.185 -142.834)" fill="#444584"/>
      <path id="Path_2551" data-name="Path 2551" d="M559.495,61.62l-7.929,4.288a.165.165,0,0,0,.011.3l1.354.509a.325.325,0,0,1,.178.165l1.061,2.164c.021.1.2.121.2.025l-.161-1.791a.65.65,0,0,1,.144-.361l4.112-4.031a.1.1,0,0,1,.089-.025.093.093,0,0,1,.051.151l-3.543,4.335a.794.794,0,0,0-.138.356l-.212,1.545c.017.136.121.187.212.066l.764-.9a.159.159,0,0,1,.212-.038l1.967,1.434a.159.159,0,0,0,.25-.1l1.615-7.923a.159.159,0,0,0-.231-.178Z" transform="translate(-441.892 -57.556)" fill="#444584"/>
      <path id="Path_2552" data-name="Path 2552" d="M772.172,42.606l-7.929,4.29a.166.166,0,0,0,.011.295l1.354.509a.32.32,0,0,1,.178.168l1.05,2.162c.021.1.2.121.2.025l-.153-1.789a.651.651,0,0,1,.144-.363l4.112-4.031a.1.1,0,0,1,.089-.025.093.093,0,0,1,.051.151l-3.548,4.339a.793.793,0,0,0-.138.356l-.212,1.547c.017.134.123.185.212.064l.764-.9a.159.159,0,0,1,.223-.038l1.969,1.434a.157.157,0,0,0,.248-.1l1.6-7.923a.159.159,0,0,0-.231-.178Z" transform="translate(-609.445 -42.58)" fill="#444584"/>
      <path id="Path_2553" data-name="Path 2553" d="M855.4,295.214l-23.408-1.933a.424.424,0,0,0-.395.662l2.226,3.038a.83.83,0,0,1,.153.617l-.789,6.217c-.091.236.257.543.4.335l2.2-4.142a1.657,1.657,0,0,1,.83-.581l14.7-2.932a.261.261,0,0,1,.231.07.246.246,0,0,1-.1.4l-13.9,4.42a2.074,2.074,0,0,0-.813.581l-2.663,3.068c-.153.32,0,.581.361.439l2.943-.868a.424.424,0,0,1,.543.238l2.249,5.928a.424.424,0,0,0,.685.144l14.8-14.986a.424.424,0,0,0-.253-.719Z" transform="translate(-662.514 -240.081)" fill="#444584"/>
      <path id="Path_2554" data-name="Path 2554" d="M645.779,366.249a3.778,3.778,0,0,0,.8.806c.2.163.4.331.613.48.059.042.121.083.182.123,0,.011-.013.021-.017.034a.482.482,0,0,0-.055.295.636.636,0,0,0,.227.306,3.141,3.141,0,0,1,.957,1.729c.072.384-.187.8-.17,1.186a3.451,3.451,0,0,0,.3,1.108,5.979,5.979,0,0,0,1.315,2.279,7.367,7.367,0,0,0,1.475,3.635,11.818,11.818,0,0,0,2.489,2.181,4.837,4.837,0,0,0,.919.577,5.191,5.191,0,0,0,.91.244,46.932,46.932,0,0,0,8,.9q.113,2.4.1,4.793a1.978,1.978,0,0,1-.11.774,3.442,3.442,0,0,1-.463.649,4.524,4.524,0,0,0-.594,2.943,27.093,27.093,0,0,0,.424,3.56c.278,1.507.023,3.17.558,4.6l.637,1.7a1.5,1.5,0,0,1,.125.5,2.217,2.217,0,0,1-.424,1.01,2.926,2.926,0,0,0-.371,1.543.321.321,0,0,0,.045.172c.07.093.212.085.327.068a13.75,13.75,0,0,1,1.417-.132,2.6,2.6,0,0,0-.229.337,4.962,4.962,0,0,0-.3.62,5.864,5.864,0,0,0-.4,1.108,1.34,1.34,0,0,0-.04.17c-.025.115-.049.231-.068.346a11.454,11.454,0,0,0-.125,2.037,21.578,21.578,0,0,1-.253,2.983,4.916,4.916,0,0,0,.257,2.266,5.366,5.366,0,0,0,.308,1.7,10.233,10.233,0,0,0,.212,1.791q1.1,6.2,2.334,12.379c.074.359.144.715.24,1.061a8.682,8.682,0,0,0,1.589,3.142,14.286,14.286,0,0,1,1.659,2.656c-.049.225-.1.45-.153.673a48.056,48.056,0,0,0-1.3,5.928,8.219,8.219,0,0,1-.424,2.37,3.63,3.63,0,0,0-.424,1.148,1.273,1.273,0,0,0,.176.745c-.055.04-.108.083-.159.125l-.087.072a5.562,5.562,0,0,1-2.154.77,2.329,2.329,0,0,0-1.772,1.324,1.159,1.159,0,0,0-.036.142,1.877,1.877,0,0,0,.849,1.8,4.767,4.767,0,0,0,2.122.651,6.906,6.906,0,0,1,2.183.5,13.833,13.833,0,0,0,1.7.97l.108.032c-.138.083-.278.163-.424.238a6.388,6.388,0,0,1-2.035.637c-.717.1-1.574.146-1.944.772h0a1.377,1.377,0,0,0,.352,1.623,3.371,3.371,0,0,0,1.621.717,29.5,29.5,0,0,0,4.031.5l1.318.1c1.273.1,2.572.2,3.862.212a26.6,26.6,0,0,0,4.749-.414.518.518,0,0,0,.378-.182.539.539,0,0,0,.057-.3,23.2,23.2,0,0,0-.6-4.787c-.108-.471-.751.172-1.112.579-.047-.236-.1-.469-.163-.7l.282-.134a1.016,1.016,0,0,0,.518-.424,1.036,1.036,0,0,0,.055-.5,7,7,0,0,0-.607-3.019,6.4,6.4,0,0,0-1.2-1.462,55.774,55.774,0,0,0-1.175-9.684A13.232,13.232,0,0,0,677.4,433.3c-.117-.172-.244-.344-.371-.516a41.7,41.7,0,0,0-.566-4.653,1.2,1.2,0,0,1,0-.62,1.908,1.908,0,0,1,.342-.471c.564-.728.333-1.763.267-2.684a12.818,12.818,0,0,1,.528-3.925q.577-2.385,1.148-4.772a7.731,7.731,0,0,1,.4-1.322,13.059,13.059,0,0,1,1.036-1.668,9.406,9.406,0,0,0,1.439-5.667c.212.076.424.155.649.24.159-1.332-.4-2.845,0-4.1a5.266,5.266,0,0,0,1.625-1.935c.314-.7.4-1.5.732-2.2a6.769,6.769,0,0,0,.556-1.178,8.223,8.223,0,0,0-.032-1.95c.021-1.419,1.061-2.737.828-4.14a10.574,10.574,0,0,1-.471-1.958,3.279,3.279,0,0,1,.274-1.061c.781-2.069,1.551-4.271,1.15-6.448a7.3,7.3,0,0,1-.253-1.676,10.093,10.093,0,0,0,.25-1.92,1.457,1.457,0,0,0-.289-.673,8.061,8.061,0,0,0,.711-1.362,1.951,1.951,0,0,0,.189-.87,1.54,1.54,0,0,0-.613-1.035,6.2,6.2,0,0,0-1.061-.617.866.866,0,0,1-.312-.223,2.275,2.275,0,0,1-.176-.335c-.212-.363-.664-.477-1.023-.7-1.294-.789-1.169-2.824-2.275-3.866a2.211,2.211,0,0,0-2.758-.146.677.677,0,0,1-.39.193.749.749,0,0,1-.378-.212,1.521,1.521,0,0,0-.934-.259,8.959,8.959,0,0,1-.28-2.476h.1a1.309,1.309,0,0,0,.386-.045,2.036,2.036,0,0,0,1.125-1.3,9.863,9.863,0,0,0,.5-1.426c.013-.047.023-.093.034-.138,1.088.764,2.353,1.564,2.654,1.4.558-.308-2.493-2.478-2.493-2.478h0a2.428,2.428,0,0,0,.637-1.4,7.617,7.617,0,0,0,.025-3.066,3.62,3.62,0,0,0-1.75-2.421,4.2,4.2,0,0,1-1.186-.673h0a.764.764,0,0,1-.115-.157h0a.4.4,0,0,1-.047-.083,1.157,1.157,0,0,0-.127-.25c-.168-.193-.471-.134-.724-.1h-.219c-.9.019-1.78-.486-2.695-.486a6.855,6.855,0,0,0-2.739.98c-.178.081-.348.155-.507.229a2.289,2.289,0,0,0-1.273,1.156,1.794,1.794,0,0,0-.367.711,1.672,1.672,0,0,0-.047.365,6.071,6.071,0,0,0,2.729,10.185c.021.059.042.119.062.178a5.105,5.105,0,0,1,.265,1.7v.121a4.607,4.607,0,0,0-1.309.533,2.531,2.531,0,0,0-1.1,1.356,1.316,1.316,0,0,0-.034.129,3.492,3.492,0,0,0-1-.172,1.071,1.071,0,0,0-.849.257.782.782,0,0,0-.161.329c-.117.108-.14.295-.212.437-.257.448-.919.3-1.417.424-.541.134-.968.637-1.526.637a2.6,2.6,0,0,0-.637-.023c-.212.051-.373.337-.212.482a.677.677,0,0,0-.637.308c-.153.2-.255.437-.424.624a.649.649,0,0,0-.662-.257,2.459,2.459,0,0,0-.7.276,1,1,0,0,1-.308.108,1.325,1.325,0,0,1-.376-.034,3,3,0,0,0-1.757.246c-.484.229-.948-.191-1.485-.225a.83.83,0,0,1-.543-.168,1.061,1.061,0,0,1-.212-.424,2.122,2.122,0,0,0-1.553-1.375,1.808,1.808,0,0,0-1.061-2.23,1.929,1.929,0,0,0-.662-1.68,3.1,3.1,0,0,1-.335-.263,1.607,1.607,0,0,1-.308-.569l-.471-1.248c-.212-.042-.371-.129-.569-.163v-.127a4.093,4.093,0,0,0-.212-1.252,7.012,7.012,0,0,0-1.006-1.831,5.276,5.276,0,0,0-1.617-1.625,5.806,5.806,0,0,0-.69-.318l-1.214-.5a.589.589,0,0,0-.212-.059c-.327,0-.386.505-.212.774.369.545,1.2.7,1.436,1.315a.936.936,0,0,0-.868.675.473.473,0,0,1-.117.274c-.106.087-.274.036-.4.1-.212.117-.121.439-.144.683a3.273,3.273,0,0,1-.212.615A1.318,1.318,0,0,0,645.779,366.249Zm29.094,85.084c0-.125-.017-.25-.028-.373.025.066.049.134.074.2.212.56.452,1.112.7,1.657l-.042-.023a2.1,2.1,0,0,0-.579-.165.593.593,0,0,1-.161-.015,4.523,4.523,0,0,0,.034-1.275Z" transform="translate(-515.998 -287.509)" fill="url(#linear-gradient)"/>
      <path id="Path_2555" data-name="Path 2555" d="M762.6,408.518c-.023.887-.323,1.744-.369,2.629,2.608.129,5.181-1.135,7.766-.749a3.591,3.591,0,0,1-1.337-2.139,8.926,8.926,0,0,1-.255-3.285,1.362,1.362,0,0,1,.034-.182,4.642,4.642,0,0,0,.276-1.388c-.087-.45-.511-.361-.9-.335a33.731,33.731,0,0,0-3.482.45c-.3.051-3.225.781-3.268.7a13.75,13.75,0,0,1,1.273,2.608A5.066,5.066,0,0,1,762.6,408.518Z" transform="translate(-607.013 -326.557)" fill="#ee8e9e"/>
      <path id="Path_2556" data-name="Path 2556" d="M645.8,395.567a3.822,3.822,0,0,0,.8.8c.2.163.4.329.613.477a2.621,2.621,0,0,0,1.3.53,3.474,3.474,0,0,0,2.334-.849,1.532,1.532,0,0,0,.223-.891,4.046,4.046,0,0,0-.212-1.245,6.95,6.95,0,0,0-1.006-1.821,5.365,5.365,0,0,0-1.617-1.617,6.154,6.154,0,0,0-.69-.318l-1.214-.5a.591.591,0,0,0-.212-.059c-.327,0-.386.5-.212.77.369.543,1.2.694,1.437,1.309a.931.931,0,0,0-.868.67.467.467,0,0,1-.117.272c-.106.087-.274.038-.4.1-.212.117-.121.437-.144.681a3.294,3.294,0,0,1-.212.611A1.3,1.3,0,0,0,645.8,395.567Z" transform="translate(-516.013 -316.343)" fill="#ee8e9e"/>
      <path id="Path_2557" data-name="Path 2557" d="M796.133,819.3c-.2-.212-.528-.168-.808-.123a30.023,30.023,0,0,1-4.551.369c-.191-.932.363-1.838.541-2.773a2.447,2.447,0,0,1,.18-.7,1.6,1.6,0,0,1,1.152-.7c.821-.172,2.1-.477,2.561.35A12.44,12.44,0,0,1,796.133,819.3Z" transform="translate(-630.383 -651.244)" fill="#65617d"/>
      <path id="Path_2558" data-name="Path 2558" d="M734.329,801.483a4.765,4.765,0,0,0,2.122.649,6.9,6.9,0,0,1,2.183.5,13.81,13.81,0,0,0,1.7.963,3.517,3.517,0,0,0,1.75.028,2.6,2.6,0,0,0,1.8-.978,3.008,3.008,0,0,0,.25-1.829c-.053-.707-.1-1.413-.157-2.122a1,1,0,0,0-.132-.511c-.5-.73-1.714.3-2.366.3a4.56,4.56,0,0,1-2.879-1.243.921.921,0,0,0-.225-.17c-.293-.132-.588.112-.849.325l-.087.072a5.594,5.594,0,0,1-2.154.768,2.329,2.329,0,0,0-1.772,1.315,1.147,1.147,0,0,0-.036.14A1.839,1.839,0,0,0,734.329,801.483Z" transform="translate(-585.253 -636.951)" fill="#3f3d56"/>
      <path id="Path_2559" data-name="Path 2559" d="M734.329,801.483a4.765,4.765,0,0,0,2.122.649,6.9,6.9,0,0,1,2.183.5,13.81,13.81,0,0,0,1.7.963,3.517,3.517,0,0,0,1.75.028,2.6,2.6,0,0,0,1.8-.978,3.008,3.008,0,0,0,.25-1.829c-.053-.707-.1-1.413-.157-2.122a1,1,0,0,0-.132-.511c-.5-.73-1.714.3-2.366.3a4.56,4.56,0,0,1-2.879-1.243.921.921,0,0,0-.225-.17c-.293-.132-.588.112-.849.325l-.087.072a5.594,5.594,0,0,1-2.154.768,2.329,2.329,0,0,0-1.772,1.315,1.147,1.147,0,0,0-.036.14A1.839,1.839,0,0,0,734.329,801.483Z" transform="translate(-585.253 -636.951)" opacity="0.05"/>
      <path id="Path_2560" data-name="Path 2560" d="M734.059,801.741a4.764,4.764,0,0,0,2.122.649,6.9,6.9,0,0,1,2.183.5,13.8,13.8,0,0,0,1.7.963,3.515,3.515,0,0,0,1.75.027,2.892,2.892,0,0,0,1.8-1.216,3.008,3.008,0,0,0,.25-1.829c-.053-.707-.1-1.413-.157-2.122a1,1,0,0,0-.132-.511c-.5-.73-1.714.3-2.366.3a4.56,4.56,0,0,1-2.879-1.243.923.923,0,0,0-.225-.17c-.293-.132-.588.112-.849.325a6.074,6.074,0,0,0,.723,1.485,3.121,3.121,0,0,0,2.27,1.422,7.448,7.448,0,0,1,1.379.062c.446.119.849.573.7,1.008s-.7.513-1.148.537a5.084,5.084,0,0,1-1.874-.129c-.365-.123-.7-.325-1.061-.471-1.511-.637-3.418-.276-4.668-1.335a2.812,2.812,0,0,0-.382-.293C732.872,800.4,733.479,801.344,734.059,801.741Z" transform="translate(-584.983 -636.966)" fill="#e8eaf2"/>
      <path id="Path_2561" data-name="Path 2561" d="M734.059,801.741a4.764,4.764,0,0,0,2.122.649,6.9,6.9,0,0,1,2.183.5,13.8,13.8,0,0,0,1.7.963,3.515,3.515,0,0,0,1.75.027,2.892,2.892,0,0,0,1.8-1.216,3.008,3.008,0,0,0,.25-1.829c-.053-.707-.1-1.413-.157-2.122a1,1,0,0,0-.132-.511c-.5-.73-1.714.3-2.366.3a4.56,4.56,0,0,1-2.879-1.243.923.923,0,0,0-.225-.17c-.293-.132-.588.112-.849.325a6.074,6.074,0,0,0,.723,1.485,3.121,3.121,0,0,0,2.27,1.422,7.448,7.448,0,0,1,1.379.062c.446.119.849.573.7,1.008s-.7.513-1.148.537a5.084,5.084,0,0,1-1.874-.129c-.365-.123-.7-.325-1.061-.471-1.511-.637-3.418-.276-4.668-1.335a2.812,2.812,0,0,0-.382-.293C732.872,800.4,733.479,801.344,734.059,801.741Z" transform="translate(-584.983 -636.966)" opacity="0.05"/>
      <path id="Path_2562" data-name="Path 2562" d="M750.733,591.165a9.287,9.287,0,0,1-1.273,6.853,12.82,12.82,0,0,0-1.035,1.659,7.665,7.665,0,0,0-.4,1.315l-1.148,4.757a12.844,12.844,0,0,0-.528,3.9c.066.917.3,1.946-.267,2.671a1.909,1.909,0,0,0-.342.467,1.194,1.194,0,0,0,0,.617c.581,3.446,1.01,7.051-.038,10.384-.948,3.021-1,6.365-1.812,9.433a2.09,2.09,0,0,1-.5,1.046,1.657,1.657,0,0,1-.753.359,5.548,5.548,0,0,1-3.556-.564c-.781-.361-1.621-1-1.553-1.852a3.937,3.937,0,0,1,.424-1.142,7.854,7.854,0,0,0,.424-2.357,47.2,47.2,0,0,1,1.3-5.9,14.088,14.088,0,0,0,.39-5.983,52.376,52.376,0,0,0-3.851-11.842,1.385,1.385,0,0,0-.352-.528,3.769,3.769,0,0,1-.5-.342,1.5,1.5,0,0,1-.227-.622,6.737,6.737,0,0,0-1.035-1.634c-.874-1.388-.6-3.166-.564-4.8a33.129,33.129,0,0,1,.064-4.772,4.471,4.471,0,0,1,2.676-3.671,5.754,5.754,0,0,1,2.349-.11A45.758,45.758,0,0,1,750.733,591.165Z" transform="translate(-585.265 -472.62)" fill="#303d5c"/>
      <path id="Path_2563" data-name="Path 2563" d="M750.733,591.165a9.287,9.287,0,0,1-1.273,6.853,12.82,12.82,0,0,0-1.035,1.659,7.665,7.665,0,0,0-.4,1.315l-1.148,4.757a12.844,12.844,0,0,0-.528,3.9c.066.917.3,1.946-.267,2.671a1.909,1.909,0,0,0-.342.467,1.194,1.194,0,0,0,0,.617c.581,3.446,1.01,7.051-.038,10.384-.948,3.021-1,6.365-1.812,9.433a2.09,2.09,0,0,1-.5,1.046,1.657,1.657,0,0,1-.753.359,5.548,5.548,0,0,1-3.556-.564c-.781-.361-1.621-1-1.553-1.852a3.937,3.937,0,0,1,.424-1.142,7.854,7.854,0,0,0,.424-2.357,47.2,47.2,0,0,1,1.3-5.9,14.088,14.088,0,0,0,.39-5.983,52.376,52.376,0,0,0-3.851-11.842,1.385,1.385,0,0,0-.352-.528,3.769,3.769,0,0,1-.5-.342,1.5,1.5,0,0,1-.227-.622,6.737,6.737,0,0,0-1.035-1.634c-.874-1.388-.6-3.166-.564-4.8a33.129,33.129,0,0,1,.064-4.772,4.471,4.471,0,0,1,2.676-3.671,5.754,5.754,0,0,1,2.349-.11A45.758,45.758,0,0,1,750.733,591.165Z" transform="translate(-585.265 -472.62)" opacity="0.05"/>
      <path id="Path_2564" data-name="Path 2564" d="M732.636,603.986a9.973,9.973,0,0,0,.212,1.842q1.1,6.172,2.334,12.306c.074.356.144.711.24,1.061a8.624,8.624,0,0,0,1.589,3.125c3.459,4.309,3.758,10.569,5.633,15.765.125.352.252.7.386,1.061a26.291,26.291,0,0,0,1.159,2.582.728.728,0,0,0,.238.308.71.71,0,0,0,.378.074,11,11,0,0,0,4.88-1.11,1.01,1.01,0,0,0,.518-.424,1.032,1.032,0,0,0,.055-.5,6.923,6.923,0,0,0-.607-3,6.368,6.368,0,0,0-1.2-1.456,55.206,55.206,0,0,0-1.175-9.633,13.132,13.132,0,0,0-1.755-4.613c-.692-1.008-1.683-2-1.562-3.217.055-.535.278-1.2-.157-1.513-.189-.138-.471-.155-.6-.352a.651.651,0,0,1-.085-.3,7.477,7.477,0,0,1,.155-2.5,13.42,13.42,0,0,0,.371-1.625,2.04,2.04,0,0,0-.409-1.57c-.023-1.11,0-2.262-.015-3.372a6.283,6.283,0,0,1,.157-1.882c.083-.291.212-.569.276-.866.233-1.061-.346-2.334.344-3.183a4.683,4.683,0,0,1,1.106-.781,4.045,4.045,0,0,0,1.519-2.183,12.065,12.065,0,0,0,.424-2.673,2.793,2.793,0,0,0,0-.579,1.083,1.083,0,0,0-.078-.289,1.758,1.758,0,0,0-1.3-.791,42.134,42.134,0,0,0-9.951-1.163c-1.239-.849-1.937-.543-2.461.352a9.074,9.074,0,0,0-.7,1.712c-.24.724-.255,4.785-.488,5.517C731.764,601.058,732.636,602.993,732.636,603.986Z" transform="translate(-584.11 -475.451)" fill="#303d5c"/>
      <path id="Path_2565" data-name="Path 2565" d="M809.927,469.323a9.656,9.656,0,0,1-.25,1.91,7.229,7.229,0,0,0,.253,1.668c.4,2.164-.369,4.356-1.15,6.414a3.243,3.243,0,0,0-.274,1.061,10.732,10.732,0,0,0,.471,1.95c.223,1.394-.806,2.705-.827,4.116a7.725,7.725,0,0,1,.032,1.939,6.665,6.665,0,0,1-.556,1.173c-.329.694-.424,1.485-.732,2.183a7.342,7.342,0,0,1-2.951,2.854,2.982,2.982,0,0,1-1.74-1.076,2.664,2.664,0,0,1-.3-.946,24.368,24.368,0,0,1-.233-4.381,27.317,27.317,0,0,1,.2-3.775c.235-1.591.751-3.125,1.122-4.691a45.287,45.287,0,0,1,1.434-5.911,19.934,19.934,0,0,1,2.686-4.589c.4-.547.715-1.326,1.485-1.2A1.632,1.632,0,0,1,809.927,469.323Z" transform="translate(-638.991 -377.735)" fill="#3f3d56"/>
      <path id="Path_2566" data-name="Path 2566" d="M809.927,469.323a9.656,9.656,0,0,1-.25,1.91,7.229,7.229,0,0,0,.253,1.668c.4,2.164-.369,4.356-1.15,6.414a3.243,3.243,0,0,0-.274,1.061,10.732,10.732,0,0,0,.471,1.95c.223,1.394-.806,2.705-.827,4.116a7.725,7.725,0,0,1,.032,1.939,6.665,6.665,0,0,1-.556,1.173c-.329.694-.424,1.485-.732,2.183a7.342,7.342,0,0,1-2.951,2.854,2.982,2.982,0,0,1-1.74-1.076,2.664,2.664,0,0,1-.3-.946,24.368,24.368,0,0,1-.233-4.381,27.317,27.317,0,0,1,.2-3.775c.235-1.591.751-3.125,1.122-4.691a45.287,45.287,0,0,1,1.434-5.911,19.934,19.934,0,0,1,2.686-4.589c.4-.547.715-1.326,1.485-1.2A1.632,1.632,0,0,1,809.927,469.323Z" transform="translate(-638.991 -377.735)" fill="#444584"/>
      <path id="Path_2567" data-name="Path 2567" d="M761.07,404.224a13.75,13.75,0,0,1,1.273,2.608,5.975,5.975,0,0,0,1.439.174,5.512,5.512,0,0,0,4.318-2.421c.1-.424.692-.838.624-1.18-.087-.45-.511-.361-.9-.335a33.731,33.731,0,0,0-3.482.45C764.038,403.57,761.112,404.309,761.07,404.224Z" transform="translate(-607.013 -326.557)" opacity="0.1"/>
      <circle id="Ellipse_534" data-name="Ellipse 534" cx="6.026" cy="6.026" r="6.026" transform="translate(150.735 68.233)" fill="#ee8e9e"/>
      <path id="Path_2568" data-name="Path 2568" d="M737.93,592.851c1.042-.062,2.092-.021,3.138.021a10.917,10.917,0,0,1,1.95.2c.791.18,1.532.541,2.313.766a21.174,21.174,0,0,0,3.864.509,22.213,22.213,0,0,1,2.529.395,1.078,1.078,0,0,0-.078-.289,1.758,1.758,0,0,0-1.3-.791,42.137,42.137,0,0,0-9.951-1.163C739.152,591.659,738.454,591.96,737.93,592.851Z" transform="translate(-588.782 -475.422)" opacity="0.1"/>
      <path id="Path_2569" data-name="Path 2569" d="M732.654,432.548c.263.3.615.637,1.006.539a1.388,1.388,0,0,0,.39-.212,5.889,5.889,0,0,1,2.364-.677,34.732,34.732,0,0,0,4.88-1.095,4.976,4.976,0,0,1,1.441-.293A3.479,3.479,0,0,1,745.3,432.3c.639.8,1.086,1.738,1.723,2.542.448.573.98,1.078,1.4,1.674a7.34,7.34,0,0,1,1.008,5.283,21.454,21.454,0,0,1-1.717,5.22,17.988,17.988,0,0,1-1.4,2.828,6.744,6.744,0,0,1-.541,4.2,4.217,4.217,0,0,0-.547,1.248,3.157,3.157,0,0,0,.038.915l.308,2.181c.093.664.187,1.33.308,1.99.212,1.207.522,2.516-.038,3.607-.671,1.307.034,2.985-.142,4.456a22.37,22.37,0,0,0-5.886-1.4,20.991,20.991,0,0,1-3.862-.505c-.781-.227-1.521-.588-2.313-.768a10.718,10.718,0,0,0-1.95-.2,23.186,23.186,0,0,0-4.326.1c-.117.017-.257.025-.327-.068a.313.313,0,0,1-.045-.17,2.891,2.891,0,0,1,.371-1.534,2.188,2.188,0,0,0,.424-1.006,1.485,1.485,0,0,0-.125-.5l-.636-1.7c-.535-1.426-.28-3.081-.558-4.579a26.827,26.827,0,0,1-.424-3.541,4.432,4.432,0,0,1,.594-2.93,3.345,3.345,0,0,0,.463-.637,1.965,1.965,0,0,0,.11-.77q.019-3.049-.168-6.1c.535-.961,1.093-1.944,1.627-2.9a12.458,12.458,0,0,0,1.5-3.512c.166-.832.159-1.687.278-2.525a1.1,1.1,0,0,1,.212-.588,1.068,1.068,0,0,1,.849-.255A3.747,3.747,0,0,1,732.654,432.548Z" transform="translate(-579.401 -348.431)" fill="#444584"/>
      <path id="Path_2570" data-name="Path 2570" d="M653.31,417.177a2.621,2.621,0,0,0,1.3.53,3.474,3.474,0,0,0,2.334-.849,1.531,1.531,0,0,0,.223-.891,1.1,1.1,0,0,0-.259-.049,6.789,6.789,0,0,0-2.022.081,2.277,2.277,0,0,0-1.57,1.178Z" transform="translate(-522.117 -336.667)" opacity="0.1"/>
      <path id="Path_2571" data-name="Path 2571" d="M673.7,430.754a4.206,4.206,0,0,1-1.273,1.2,4.1,4.1,0,0,1-1.977.3,47.459,47.459,0,0,1-8.275-.908,5.191,5.191,0,0,1-.91-.244,4.825,4.825,0,0,1-.919-.575,11.583,11.583,0,0,1-2.489-2.168,7.318,7.318,0,0,1-1.475-3.618,5.914,5.914,0,0,1-1.316-2.266,3.422,3.422,0,0,1-.3-1.1c-.017-.39.242-.8.17-1.184a3.118,3.118,0,0,0-.957-1.719.636.636,0,0,1-.227-.3.475.475,0,0,1,.055-.293,2.265,2.265,0,0,1,1.568-1.18,6.8,6.8,0,0,1,2.024-.081,4.693,4.693,0,0,1,.662.176l.471,1.241a1.6,1.6,0,0,0,.308.567,3.081,3.081,0,0,0,.335.261,1.91,1.91,0,0,1,.662,1.672,1.8,1.8,0,0,1,1.061,2.219,2.122,2.122,0,0,1,1.553,1.366,1.035,1.035,0,0,0,.212.424.829.829,0,0,0,.543.168c.533.032,1,.452,1.485.225a3,3,0,0,1,1.757-.246,1.322,1.322,0,0,0,.375.032.946.946,0,0,0,.308-.106,2.521,2.521,0,0,1,.7-.276.653.653,0,0,1,.662.257c.17-.185.272-.424.424-.62a.681.681,0,0,1,.637-.308c-.161-.142,0-.424.212-.48a2.833,2.833,0,0,1,.636.023c.558,0,.985-.509,1.526-.637.5-.123,1.161.023,1.417-.424.089-.157.108-.369.261-.467a.509.509,0,0,1,.337-.038,3.294,3.294,0,0,1,1.016.308,14.242,14.242,0,0,1-.151,6.23A5.463,5.463,0,0,1,673.7,430.754Z" transform="translate(-522.464 -337.218)" fill="#444584"/>
      <path id="Path_2572" data-name="Path 2572" d="M745.672,515.3l2.595,5.232c-.28-.484-.872-.673-1.339-.982a3.561,3.561,0,0,1-1.273-1.719,10.609,10.609,0,0,1-.49-2.122,1.919,1.919,0,0,1,0-1.1C745.453,514.674,745.549,515.053,745.672,515.3Z" transform="translate(-594.415 -414.45)" opacity="0.1"/>
      <path id="Path_2573" data-name="Path 2573" d="M779.07,534.963a22.991,22.991,0,0,0,1.946,1.519,17.967,17.967,0,0,1,3.626,4.456,7.2,7.2,0,0,1,.74,1.349c-.123.106-.308,0-.424-.11l-2.037-1.791a4.522,4.522,0,0,1-.679-.687c-.354-.477-.511-1.061-.832-1.57a6.183,6.183,0,0,0-1.239-1.273c-.467-.4-2.618-2.219-2.094-2.926C778.45,534.132,778.76,534.656,779.07,534.963Z" transform="translate(-620.347 -429.671)" opacity="0.1"/>
      <path id="Path_2574" data-name="Path 2574" d="M757.682,427.428a6.046,6.046,0,0,1,2.158-.711,4.522,4.522,0,0,1,1.371-.1c.424.053.832.212,1.258.24a5.672,5.672,0,0,0,1.753-.367,2.106,2.106,0,0,1,1.736.129.734.734,0,0,0,.378.2.673.673,0,0,0,.39-.191,2.219,2.219,0,0,1,2.758.146c1.106,1.035.98,3.06,2.275,3.845.359.212.815.331,1.023.694a2.5,2.5,0,0,0,.176.333.888.888,0,0,0,.312.212,6.184,6.184,0,0,1,1.061.613,1.532,1.532,0,0,1,.613,1.031,1.934,1.934,0,0,1-.189.866,8.124,8.124,0,0,1-7.9,5.048,1.247,1.247,0,0,1-.828-.257,1.567,1.567,0,0,1-.291-.477c-.609-1.273-1.751-2.219-2.478-3.433-.424-.724-.709-1.532-1.161-2.243a10.781,10.781,0,0,0-2.737-2.652,3.147,3.147,0,0,0-1.931-.864c-.637.028-1.108.062-.872-.726A2.516,2.516,0,0,1,757.682,427.428Z" transform="translate(-603.412 -344.816)" fill="#3f3d56"/>
      <path id="Path_2575" data-name="Path 2575" d="M757.682,427.428a6.046,6.046,0,0,1,2.158-.711,4.522,4.522,0,0,1,1.371-.1c.424.053.832.212,1.258.24a5.672,5.672,0,0,0,1.753-.367,2.106,2.106,0,0,1,1.736.129.734.734,0,0,0,.378.2.673.673,0,0,0,.39-.191,2.219,2.219,0,0,1,2.758.146c1.106,1.035.98,3.06,2.275,3.845.359.212.815.331,1.023.694a2.5,2.5,0,0,0,.176.333.888.888,0,0,0,.312.212,6.184,6.184,0,0,1,1.061.613,1.532,1.532,0,0,1,.613,1.031,1.934,1.934,0,0,1-.189.866,8.124,8.124,0,0,1-7.9,5.048,1.247,1.247,0,0,1-.828-.257,1.567,1.567,0,0,1-.291-.477c-.609-1.273-1.751-2.219-2.478-3.433-.424-.724-.709-1.532-1.161-2.243a10.781,10.781,0,0,0-2.737-2.652,3.147,3.147,0,0,0-1.931-.864c-.637.028-1.108.062-.872-.726A2.516,2.516,0,0,1,757.682,427.428Z" transform="translate(-603.412 -344.816)" fill="#444584" opacity="0.05"/>
      <path id="Path_2576" data-name="Path 2576" d="M745.467,825.654a3.374,3.374,0,0,0,1.621.713,29.461,29.461,0,0,0,4.031.5l1.318.1c1.273.1,2.572.2,3.862.2a26.6,26.6,0,0,0,4.749-.412.518.518,0,0,0,.378-.182.529.529,0,0,0,.057-.3,22.986,22.986,0,0,0-.588-4.761c-.148-.637-1.3.8-1.354.849a1.313,1.313,0,0,1-1.046.556,6.961,6.961,0,0,1-3.864-1.451,4.88,4.88,0,0,0-.715-.443,2.172,2.172,0,0,0-.579-.166,3.5,3.5,0,0,0-1.971.4c-.794.393-1.485.957-2.27,1.36a6.387,6.387,0,0,1-2.035.637c-.717.1-1.574.146-1.944.768h0A1.381,1.381,0,0,0,745.467,825.654Z" transform="translate(-594.333 -655.706)" fill="#3f3d56"/>
      <path id="Path_2577" data-name="Path 2577" d="M745.148,825.921a3.351,3.351,0,0,0,1.621.711,29.139,29.139,0,0,0,4.031.5l1.318.1c1.273.1,2.572.2,3.862.2a26.6,26.6,0,0,0,4.749-.412.518.518,0,0,0,.378-.182,2.121,2.121,0,0,0,.295-.537,23.34,23.34,0,0,0-.823-4.768c-.148-.637-1.3.8-1.354.849a1.313,1.313,0,0,1-1.046.556,6.961,6.961,0,0,1-3.864-1.451,4.88,4.88,0,0,0-.715-.443,2.175,2.175,0,0,0-.579-.166,4.74,4.74,0,0,0,2.245,2.457c1.428.709,3.125.356,4.719.439a.637.637,0,0,1,.333.081.674.674,0,0,1,.2.626c-.013.38-.062.827-.393,1.021a1.142,1.142,0,0,1-.528.11,74.644,74.644,0,0,1-11.765-.424,6.408,6.408,0,0,1-1.91-.424,5.046,5.046,0,0,1-1.112-.715C744.295,824.464,744.713,825.516,745.148,825.921Z" transform="translate(-594.014 -655.736)" fill="#e8eaf2"/>
      <path id="Path_2578" data-name="Path 2578" d="M755.843,368.6c.023.622-.4,1.831.762,1.485.7-.2.891-1.023,1.772-.849s1.084,1.273,1.383,1.98a3.794,3.794,0,0,0,2.746,2.219,1.651,1.651,0,0,0,.755,0,2.034,2.034,0,0,0,1.125-1.292,9.845,9.845,0,0,0,.5-1.417,6.015,6.015,0,0,0,.18-1.042h0a4.812,4.812,0,0,0,0-.719,5.835,5.835,0,0,0-1.946-3.686,17.421,17.421,0,0,0-3.524-2.379,5.119,5.119,0,0,0-1.3-.579,4.316,4.316,0,0,0-1.373-.057,4.813,4.813,0,0,0-1.746.409,2.443,2.443,0,0,0-.615.424,1.848,1.848,0,0,0-.533.889,3.264,3.264,0,0,0,.834,2.463A4.555,4.555,0,0,1,755.843,368.6Z" transform="translate(-601.427 -294.408)" fill="#3f3d56"/>
      <path id="Path_2579" data-name="Path 2579" d="M670.35,444.24c.248-.637,1.294-2.364.993-2.97a7.941,7.941,0,0,0-.8,1.424C670.348,443.188,670.509,443.839,670.35,444.24Z" transform="translate(-535.542 -356.671)" opacity="0.1"/>
      <path id="Path_2580" data-name="Path 2580" d="M754.712,369.308a3.249,3.249,0,0,1-.836-2.463,1.91,1.91,0,0,1,.679-1.014,1.618,1.618,0,0,0-.172.424,3.253,3.253,0,0,0,.834,2.463,4.377,4.377,0,0,1,.976,2.122c.023.624-.4,1.833.764,1.485.694-.2.889-1.025,1.772-.849s1.082,1.273,1.381,1.98a3.792,3.792,0,0,0,2.746,2.217,1.651,1.651,0,0,0,.755,0,1.115,1.115,0,0,0,.356-.174,1.542,1.542,0,0,1-.861.762,1.651,1.651,0,0,1-.755,0,3.8,3.8,0,0,1-2.748-2.219c-.3-.711-.492-1.793-1.381-1.98s-1.078.637-1.772.849c-1.167.337-.741-.872-.764-1.485A4.3,4.3,0,0,0,754.712,369.308Z" transform="translate(-601.306 -297.238)" opacity="0.1"/>
      <path id="Path_2581" data-name="Path 2581" d="M755.426,365.278a5.408,5.408,0,0,0,.359.511,6.132,6.132,0,0,0,.823.849c.178.155.363.3.556.437a8.88,8.88,0,0,0,1.125.671,20.494,20.494,0,0,0,3.607,1.29l2.406.7c.295.212.836.626,1.432,1.044a6.015,6.015,0,0,0,.18-1.042h0a4.8,4.8,0,0,0,0-.719,5.835,5.835,0,0,0-1.946-3.686,17.417,17.417,0,0,0-3.524-2.379,5.119,5.119,0,0,0-1.3-.579,4.316,4.316,0,0,0-1.373-.057,4.812,4.812,0,0,0-1.746.409,2.444,2.444,0,0,0-.615.424,2.358,2.358,0,0,0-.308.651A1.849,1.849,0,0,0,755.426,365.278Z" transform="translate(-602.27 -294.448)" opacity="0.1"/>
      <path id="Path_2582" data-name="Path 2582" d="M755.429,360.3a5.345,5.345,0,0,0,.359.509,5.908,5.908,0,0,0,.823.849,6.471,6.471,0,0,0,.554.441,9.165,9.165,0,0,0,1.125.673,20.838,20.838,0,0,0,3.607,1.29l2.406.7c.849.637,3.649,2.718,4.12,2.457.558-.306-2.493-2.466-2.493-2.466l-.14.106a2.235,2.235,0,0,0,.781-1.485,7.543,7.543,0,0,0,.025-3.051,3.605,3.605,0,0,0-1.75-2.408,4.187,4.187,0,0,1-1.186-.668.814.814,0,0,1-.115-.155A.539.539,0,0,1,763.5,357a1.1,1.1,0,0,0-.127-.248c-.168-.193-.471-.136-.724-.1h-.081a1.01,1.01,0,0,1-.138,0c-.9.021-1.78-.482-2.695-.482a6.91,6.91,0,0,0-2.739.974c-.178.081-.348.155-.507.229a2.189,2.189,0,0,0-1.379,1.458A1.83,1.83,0,0,0,755.429,360.3Z" transform="translate(-602.274 -289.628)" fill="#ffbd5c"/>
      <path id="Path_2583" data-name="Path 2583" d="M789.585,358.436a.44.44,0,0,0-.055.212.425.425,0,0,0,.151.325.744.744,0,0,0,.38.134,2.759,2.759,0,0,0,.3.023.8.8,0,0,0,.39-.066.469.469,0,0,0,.068-.045.814.814,0,0,1-.115-.155c-.023.017-.047.013-.136,0a2.238,2.238,0,0,1-.488-.083.562.562,0,0,1-.182-.089.535.535,0,0,1-.172-.263Z" transform="translate(-629.434 -291.408)" opacity="0.1"/>
      <path id="Path_2584" data-name="Path 2584" d="M800.3,396.466a1.145,1.145,0,0,1-.424.155,1.673,1.673,0,0,1-.322.051,1.786,1.786,0,0,1-.789-.212" transform="translate(-636.706 -321.369)" opacity="0.1"/>
      <rect id="Rectangle_1119" data-name="Rectangle 1119" width="10.976" height="5.385" transform="translate(42.708 72.356)" fill="#3f3d56" opacity="0.1"/>
      <rect id="Rectangle_1120" data-name="Rectangle 1120" width="10.976" height="5.385" transform="translate(42.708 87.474)" fill="#3f3d56" opacity="0.1"/>
      <rect id="Rectangle_1121" data-name="Rectangle 1121" width="10.976" height="5.385" transform="translate(42.708 102.591)" fill="#3f3d56" opacity="0.1"/>
      <rect id="Rectangle_1122" data-name="Rectangle 1122" width="10.976" height="5.385" transform="translate(42.708 117.709)" fill="#3f3d56" opacity="0.1"/>
      <path id="Path_2585" data-name="Path 2585" d="M224.425,384.381c.306-.2.185-.717-.132-.9a1.539,1.539,0,0,0-1.061-.051.424.424,0,0,0-.227-.456V382.9a.565.565,0,0,0-.123-.8,1.621,1.621,0,0,0-.989-.174,1.311,1.311,0,0,0-.424-1.118.35.35,0,0,0-.229-.11c-.2,0-.263.265-.278.463a9.136,9.136,0,0,1-.255,1.53l-6.431,10.772c-.717,1.035,1.511-2.062.794-1.027A9.279,9.279,0,0,1,213.8,394a6.255,6.255,0,0,1-1.432.957,1.685,1.685,0,0,1-.978-.276,3.957,3.957,0,0,1-.94-.931,18.379,18.379,0,0,1-1.517-2.255,2.832,2.832,0,0,1-.348-.806,7.408,7.408,0,0,0-.178-1.349,2.1,2.1,0,0,0-.276-.439l-.443-.592a.1.1,0,0,1,0-.025,3.339,3.339,0,0,0-1.422-2.122,3.859,3.859,0,0,0-1.91-1.1c-.4-.051-.806.025-1.205-.025-.325-.04-.637-.163-.955-.212a4.194,4.194,0,0,0-.938-.019l-.134-.121a3.726,3.726,0,0,0,1.676-1.409c.308-.5.473-1.061.757-1.577.346-.622.849-1.135,1.25-1.731a6.4,6.4,0,0,0,.721-4.88,11.733,11.733,0,0,0-2.287-4.481,8.811,8.811,0,0,0-8.464-3.021c-.212.032-.424.072-.626.117a7.927,7.927,0,0,0-1.538.492,3.9,3.9,0,0,0-1.678,1.309,2.84,2.84,0,0,0-.293.543,3.1,3.1,0,0,0-.142.446,4.608,4.608,0,0,0-.076,1.4c.013.159.03.32.049.48a1.851,1.851,0,0,0,.03.24c.021.159.045.32.066.48.034.24.066.48.089.715a4.473,4.473,0,0,1,.025.5v.125a1.986,1.986,0,0,1-.055.371,1.91,1.91,0,0,1-.062.2,2.461,2.461,0,0,1-.293.539,7.215,7.215,0,0,1-.524.637l-.18.212-.178.212a7.4,7.4,0,0,0-.647.876,4.16,4.16,0,0,0-.257.48,3.509,3.509,0,0,0-.144.386,2.78,2.78,0,0,0-.112.537c0,.047-.011.091-.013.138a2.314,2.314,0,0,0,0,.272,1.875,1.875,0,0,0,.03.267,2.053,2.053,0,0,0,.157.516c0,.023.023.047.034.068s.023.045.034.068.045.091.066.136a.988.988,0,0,1,.068.212v.074a.489.489,0,0,1,0,.079.849.849,0,0,1-.306.528c-.04.038-.085.074-.127.11l-.066.053-.134.106-.129.1a2.548,2.548,0,0,0-.312.312,11.5,11.5,0,0,0-3.467.339,4.732,4.732,0,0,1-1.245.225.62.62,0,0,1-.539-.227.815.815,0,0,1-.055-.494,4.267,4.267,0,0,0-.331-2.031,1.142,1.142,0,0,0-.333-.484.471.471,0,0,0-.55-.03,5.177,5.177,0,0,1-.142,3.454,11.4,11.4,0,0,1-.8,1.5c-.473.8-.738,1.725-1.158,2.559a36.043,36.043,0,0,1,.613,4.937,22.82,22.82,0,0,0,1.3,4.456,7.165,7.165,0,0,0,1.723,3.011,1.581,1.581,0,0,0,1.061.463,1.873,1.873,0,0,0,.834-.314,3.246,3.246,0,0,0,.7-.518,1.6,1.6,0,0,0,.212-.276,1.039,1.039,0,0,0,.155.39c.5-1.089,1.061-2.154,1.655-3.2a2.74,2.74,0,0,0,.5-.339c.011.036.019.074.028.112-.025.1-.051.2-.079.3s-.057.191-.087.284-.042.14-.066.212-.055.165-.085.248l-.1.269c-.025.064-.049.127-.076.191-.064.155-.129.31-.2.463a1.4,1.4,0,0,0,.176.072l.04.013a1.526,1.526,0,0,0,.163.04h.059l.123.013h.193a1.948,1.948,0,0,0,.437-.076c.028.11.053.223.081.333a11.861,11.861,0,0,1,.4,2.272,17.833,17.833,0,0,0,.053,2.61c.087.443.259.87.32,1.32a5.485,5.485,0,0,1-.023,1.273l-.289,3.051a2.607,2.607,0,0,1-.261,1.076c-.144.248-.376.533-.231.779a5.068,5.068,0,0,1,.728-.14c-.089.325-.17.649-.246.976a1.716,1.716,0,0,0-.057.753,4.784,4.784,0,0,1,.212.69,2.225,2.225,0,0,1-.365,1.046,3.624,3.624,0,0,0,.41,2.758l1.142,2.591q.467,1.061.938,2.122c.278.637.558,1.273.825,1.91a61.85,61.85,0,0,1,2.987,8.956,1.048,1.048,0,0,0,.153.388c.159.212.446.274.679.4a1.266,1.266,0,0,1,.14,2.022c.134,1.557-1.033,3.062-1.634,4.5-1.383,3.316-1.133,7.053-1.608,10.609l.537-.314a.708.708,0,0,1,.174.115c-.013.066-.025.132-.042.2a3.159,3.159,0,0,1-.346.861,4.618,4.618,0,0,0-.861,1.634,9.986,9.986,0,0,0,.068,1.12v.1c-.047-.047-.119-.042-.229.042a1.362,1.362,0,0,0-.337.637c-.093.265-.168.537-.242.808l-.261.959a11.122,11.122,0,0,1-.56,1.685,7.081,7.081,0,0,0-.5,1.146,3.541,3.541,0,0,0-.087.982,2.988,2.988,0,0,0,.136.929,2.315,2.315,0,0,0,1.356,1.288,6.366,6.366,0,0,0,1.884.354,1.61,1.61,0,0,0,.494-.013,1.359,1.359,0,0,0,.482-.25,3.992,3.992,0,0,0,1.4-2.907,4.2,4.2,0,0,0-.119-.66c.053-1.178-.119-2.362-.028-3.535.017.134.038.265.057.4l.212,1.318a.278.278,0,0,0-.072-.123,3.036,3.036,0,0,0-.076,1.511,8.843,8.843,0,0,0,.424,1.464l.282.787a1.411,1.411,0,0,0,1.318,1.112,10.676,10.676,0,0,0,2.376.405.546.546,0,0,0,.314-.057,1.81,1.81,0,0,0,.14-.119,1.294,1.294,0,0,1,.229-.134,1.5,1.5,0,0,0,.728-.861,1.364,1.364,0,0,0-.134-1.116,2.561,2.561,0,0,0-.322-.39l-1.415-1.5a8.12,8.12,0,0,0-.694-.734.259.259,0,0,0-.227-.076,7.291,7.291,0,0,1-.267-3.136c.019-.314.191-.967.261-1.5a2.392,2.392,0,0,0,.751-.405,1.15,1.15,0,0,0,.424-.637,109.309,109.309,0,0,1,2.949-10.743c.106-.35.212-.7.316-1.061l.132-.45c.034-.123.072-.246.106-.369.059-.212.117-.414.172-.622.017-.055.032-.112.047-.168a.2.2,0,0,0,0-.034c.07-.255.136-.509.2-.764l.076-.293c.083-.325.161-.651.24-.976.011-.045.021-.091.03-.138a.6.6,0,0,0-.023-.346h0a.569.569,0,0,0-.083-.119c-.021-.025-.047-.053-.072-.078l-.079-.087a.783.783,0,0,1-.144-.272v-.3c0-.1-.013-.212-.019-.316a3.22,3.22,0,0,1,.093-.412c.023-.081.051-.161.076-.242s.062-.212.1-.3a.753.753,0,0,0,.189-.511c.127-.32.267-.637.424-.942a2.866,2.866,0,0,0,.38-1.018,4.072,4.072,0,0,0-.123-.968,8.184,8.184,0,0,1,.874-3.938,17.484,17.484,0,0,0,.77-2.89,6.123,6.123,0,0,1,.637-2.2,3.307,3.307,0,0,0,.339-.586,2.354,2.354,0,0,0,.091-.668,7.329,7.329,0,0,1,.651-2.646,1.557,1.557,0,0,0,.17-.513.209.209,0,0,0,0-.036v-.051l.106-.015a14.073,14.073,0,0,0,.238-3.562,5.447,5.447,0,0,0-1.821-3.439h.021a1.118,1.118,0,0,0,.52-1.01,1.965,1.965,0,0,0-.732-1.54.749.749,0,0,1-.248-.255.775.775,0,0,1-.03-.335,1.71,1.71,0,0,0-1.061-1.583.391.391,0,0,1-.172-.1.424.424,0,0,1-.042-.3,1.852,1.852,0,0,0-.893-1.7,2.909,2.909,0,0,0,.038-1.343,1,1,0,0,0-.982-.764c.365-1-.153-2.1-.015-3.153.059-.45.24-.883.263-1.337a2.752,2.752,0,0,1,.119-1.218c.2-.369.677-.637.554-1.027-.053-.17-.212-.284-.28-.45s.212-.424.367-.323c.07-.053.14-.11.212-.168a3.47,3.47,0,0,0,.125.622c.1.339.257.66.361,1a8.261,8.261,0,0,0,.471,1.547c.424.755,1.288,1.129,1.882,1.757.348.367.6.819.955,1.178a5.284,5.284,0,0,0,.891.668l1.91,1.239a2.164,2.164,0,0,0,.654.325,1.116,1.116,0,0,0,1.316-.946,1.253,1.253,0,0,1-.471-.291.175.175,0,0,0,.081-.013,3.022,3.022,0,0,0,1.231-.654,16.672,16.672,0,0,0,3.3-4.021c1-1.526,5.826-5.563,5.826-5.563v-1.638a5.909,5.909,0,0,0,1.606-1.366,1.772,1.772,0,0,0,.4-1.046.921.921,0,0,0-.562-.921ZM184.31,388.3q-.14.891-.342,1.774a17.244,17.244,0,0,1-.571,2c-.025.068-.051.138-.074.212-.07-.127-.138-.255-.2-.384-.157-.325-.282-.664-.407-1l-.8-2.154a.994.994,0,0,1-.053-.859.963.963,0,0,1,.456-.342,9.1,9.1,0,0,1,1.75-.594,5.128,5.128,0,0,0,.564-.149A8.418,8.418,0,0,0,184.31,388.3Zm.883-2.686a.325.325,0,0,1,0-.312.69.69,0,0,1,.212-.144.422.422,0,0,0,.059-.042Zm1.655-2.334a4.121,4.121,0,0,0-.637.654,6.706,6.706,0,0,0-.547.849.615.615,0,0,0-.227-.626,1.294,1.294,0,0,1-.212-.14.435.435,0,0,1,.087-.609,1.273,1.273,0,0,1,.637-.212l.953-.14c-.013.062-.032.14-.053.214Zm8.941,69.3a3.481,3.481,0,0,0-.055-.849c.119,0,.236,0,.352-.011Z" transform="translate(-148.375 -298.519)" fill="url(#linear-gradient-2)"/>
      <path id="Path_2586" data-name="Path 2586" d="M215.655,370.447c-1.657.265-3.5.9-4.135,2.457-.477,1.173-.108,2.5.015,3.758a2.873,2.873,0,0,1-.036,1,3.5,3.5,0,0,1-.876,1.375,7.31,7.31,0,0,0-1.262,1.767,2.592,2.592,0,0,0-.085,2.122,1.559,1.559,0,0,1,.212.556c.019.424-.424.7-.764.98-1.243,1.029-1.19,2.9-1.2,4.522a22.864,22.864,0,0,1-2.162,9.548,2.92,2.92,0,0,0,3.268-.424,10.912,10.912,0,0,1-.743,2.139c1.061.509,2.321-.327,2.85-1.371a24.882,24.882,0,0,0,.965-3.365c.376-1.108,1.042-2.071,1.326-3.183a2.934,2.934,0,0,1,.378-1.061,2.78,2.78,0,0,1,.662-.564,6.459,6.459,0,0,0,2.334-3.183,12.929,12.929,0,0,0,3.917.452,4.348,4.348,0,0,0,3.348-1.837c.308-.5.473-1.061.757-1.574.346-.622.849-1.135,1.25-1.729a6.4,6.4,0,0,0,.719-4.88,11.711,11.711,0,0,0-2.285-4.477A8.778,8.778,0,0,0,215.655,370.447Z" transform="translate(-169.213 -300.773)" fill="#303d5c"/>
      <path id="Path_2587" data-name="Path 2587" d="M200.53,458.434q-.14.891-.339,1.77a17.088,17.088,0,0,1-.571,2,1.91,1.91,0,0,0-.18.921,1.655,1.655,0,0,0,.223.547c.755,1.343,1.776,2.642,1.863,4.182a2.207,2.207,0,0,0,.212,1.116q.878-1.884,1.935-3.677a11.384,11.384,0,0,0,1.77-3.951,7.482,7.482,0,0,0-.028-2.031,4.4,4.4,0,0,0-.728-2.135c-.5-.656-1.874-1.642-2.758-1.439C200.878,455.985,200.661,457.591,200.53,458.434Z" transform="translate(-164.546 -368.049)" fill="#444584"/>
      <path id="Path_2588" data-name="Path 2588" d="M330.28,447.566a6.923,6.923,0,0,0,4.059-3.13l2.334-3.367a6.077,6.077,0,0,0,1.239-2.6,8.57,8.57,0,0,0,2.334-5.288c.017-.2.083-.456.28-.46a.352.352,0,0,1,.229.108,1.311,1.311,0,0,1,.424,1.118,1.547,1.547,0,0,1,.987.172c.276.2.35.692.053.849a.424.424,0,0,1,.3.482,1.538,1.538,0,0,1,1.061.049c.314.178.437.7.132.9a.923.923,0,0,1,.59.885,1.767,1.767,0,0,1-.4,1.044c-.893,1.2-2.474,1.685-3.509,2.758a8.334,8.334,0,0,0-.914,1.222l-3,4.57a16.456,16.456,0,0,1-3.3,4.017,3.025,3.025,0,0,1-1.229.654,1.362,1.362,0,0,1-1.29-.359,2.115,2.115,0,0,1-.376-1.286C330.2,449.136,330.331,448.341,330.28,447.566Z" transform="translate(-267.604 -349.935)" fill="#ee8e9e"/>
      <path id="Path_2589" data-name="Path 2589" d="M262.9,792.357a2.569,2.569,0,0,1,.32.39,1.36,1.36,0,0,1,.136,1.114,1.513,1.513,0,0,1-.728.861,1.284,1.284,0,0,0-.229.132,1.825,1.825,0,0,1-.14.119.565.565,0,0,1-.314.059,10.923,10.923,0,0,1-2.376-.405,1.907,1.907,0,0,1-.98-.46,1.884,1.884,0,0,1-.335-.651l-.282-.785a9.082,9.082,0,0,1-.424-1.462,3.025,3.025,0,0,1,.076-1.509.454.454,0,0,1,.1.308,3.418,3.418,0,0,0,.6,1.464,1.173,1.173,0,0,0,.942.592,8.791,8.791,0,0,0,1.506.193.45.45,0,0,0,.212-.026.367.367,0,0,0,.172-.212.915.915,0,0,0,0-.62c-.134-.382-.509-.636-.69-1-.132-.269.053-.564.325-.337a8.4,8.4,0,0,1,.694.732Z" transform="translate(-210.275 -631.219)" fill="#303d5c"/>
      <path id="Path_2590" data-name="Path 2590" d="M259.868,765.723a5.977,5.977,0,0,0,.556,3.692c.248.382.581.7.866,1.061a1.26,1.26,0,0,1,.31.637.981.981,0,0,1-.849.946,2.858,2.858,0,0,1-1.369-.2,2.506,2.506,0,0,1-2.043-2.684l-.282-1.81a5.743,5.743,0,0,1-.1-1.318,5.831,5.831,0,0,1,.354-1.424l.465-1.36a.637.637,0,0,1,.212-.337.59.59,0,0,1,.352-.066c.446.023,1.564.185,1.78.656C260.3,763.93,259.9,765.235,259.868,765.723Z" transform="translate(-209.857 -610.026)" fill="#ee8e9e"/>
      <path id="Path_2591" data-name="Path 2591" d="M259.868,765.723a5.977,5.977,0,0,0,.556,3.692c.248.382.581.7.866,1.061a1.26,1.26,0,0,1,.31.637.981.981,0,0,1-.849.946,2.858,2.858,0,0,1-1.369-.2,2.506,2.506,0,0,1-2.043-2.684l-.282-1.81a5.743,5.743,0,0,1-.1-1.318,5.831,5.831,0,0,1,.354-1.424l.465-1.36a.637.637,0,0,1,.212-.337.59.59,0,0,1,.352-.066c.446.023,1.564.185,1.78.656C260.3,763.93,259.9,765.235,259.868,765.723Z" transform="translate(-209.857 -610.026)" opacity="0.05"/>
      <path id="Path_2592" data-name="Path 2592" d="M271.839,587.912a.21.21,0,0,1,0,.036,1.589,1.589,0,0,1-.17.513,7.35,7.35,0,0,0-.651,2.642,2.335,2.335,0,0,1-.091.666,3.3,3.3,0,0,1-.339.586,6.3,6.3,0,0,0-.637,2.2,17.189,17.189,0,0,1-.77,2.886,8.2,8.2,0,0,0-.872,3.934,4.034,4.034,0,0,1,.123.965,2.867,2.867,0,0,1-.38,1.018c-.157.306-.3.62-.424.94s-.257.7-.361,1.061a1.413,1.413,0,0,0,.078,1.294,1.656,1.656,0,0,1,.233.286.755.755,0,0,1,0,.488q-.244,1.035-.526,2.062c-.144.539-.3,1.074-.456,1.608-1.163,3.908-2.48,7.776-3.263,11.78-.112.575-.849.989-1.424,1.114a1.871,1.871,0,0,1-1.636-.437l-.112-.112a3.4,3.4,0,0,1-.637-2.533c.212-4.118,2.277-7.889,3.263-11.893a22.78,22.78,0,0,0,.637-4.416c.231-4.973.323-10.227-1.082-15-.293-.993-.637-2.122-.115-3.007a3.012,3.012,0,0,1,1.555-1.137,10.007,10.007,0,0,1,7.759.2,2.8,2.8,0,0,1-.011.3,3.04,3.04,0,0,0,.155,1.371A1.711,1.711,0,0,1,271.839,587.912Z" transform="translate(-211.875 -469.723)" fill="#303d5c"/>
      <path id="Path_2593" data-name="Path 2593" d="M232.134,776.731l-.261.957a11.049,11.049,0,0,1-.56,1.685,7.165,7.165,0,0,0-.5,1.144,3.534,3.534,0,0,0-.085.98,2.926,2.926,0,0,0,.136.929,2.306,2.306,0,0,0,1.354,1.286,6.366,6.366,0,0,0,1.884.354,1.609,1.609,0,0,0,.494-.013,1.367,1.367,0,0,0,.48-.25,3.987,3.987,0,0,0,1.4-2.9,3.606,3.606,0,0,0-.149-.74c-.068-.091-.728.282-.446.592.424.463-.806.223-1.428.185a5.765,5.765,0,0,1-.806-.134l-1.008-.212c-.329-.072-.709-.185-.825-.5s.138-.692.337-1a6.532,6.532,0,0,0,.783-2.771c.023-.189.259-1.411-.227-1.031a1.363,1.363,0,0,0-.337.637C232.282,776.19,232.208,776.461,232.134,776.731Z" transform="translate(-189.197 -619.762)" fill="#303d5c"/>
      <path id="Path_2594" data-name="Path 2594" d="M267.341,676.333a1.43,1.43,0,0,1-.078-1.294c.047-.161.1-.323.151-.482l-3.953-1.337c-.015.354-.03.709-.047,1.061a22.823,22.823,0,0,1-.637,4.418c-.987,4-3.062,7.772-3.263,11.882a3.291,3.291,0,0,0,.755,2.646,1.869,1.869,0,0,0,1.636.437c.573-.125,1.311-.539,1.424-1.116.783-4,2.1-7.87,3.263-11.78q.545-1.82.982-3.671a.749.749,0,0,0,0-.486,1.486,1.486,0,0,0-.233-.278Z" transform="translate(-211.869 -539.407)" opacity="0.05"/>
      <path id="Path_2595" data-name="Path 2595" d="M236.05,755.778a4.591,4.591,0,0,0-.861,1.632,9.9,9.9,0,0,0,.068,1.118,3.542,3.542,0,0,1-.163.912q-.577,2.086-1.33,4.114a1.121,1.121,0,0,0-.1.558.971.971,0,0,0,.654.651,6.909,6.909,0,0,0,3.024.333,1.585,1.585,0,0,0,.849-.2,1.483,1.483,0,0,0,.48-1.19c.07-1.273-.146-2.572,0-3.849.051-.465.149-.923.223-1.386a4.067,4.067,0,0,0-.059-1.931,4.51,4.51,0,0,0-.724-1.216,3.794,3.794,0,0,0-1.006-1c-.119-.072-.463-.291-.583-.153-.062.07-.034.257-.045.344a3.2,3.2,0,0,1-.07.4A3.257,3.257,0,0,1,236.05,755.778Z" transform="translate(-191.505 -603.149)" fill="#ee8e9e"/>
      <path id="Path_2596" data-name="Path 2596" d="M263.965,589.429a1.085,1.085,0,0,0-.072.9c.132.547.35,1.061.528,1.6a22.172,22.172,0,0,1,.679,2.915,8.522,8.522,0,0,1,.373,2.78,19.869,19.869,0,0,1,2.1,6.578c.081.59-1.231,1.354-1.205,1.95.049,1.182.993,1.273.295,2.224-.034.047.261,1.1.212,1.15-.284.342-.637.613-.948.934a7.184,7.184,0,0,0-1,1.466c-1.8,3.253-4.407,6.945-3.607,10.577a.637.637,0,0,1-.344.654,1.724,1.724,0,0,1-.762.176h-.125a3.4,3.4,0,0,1-.637-2.533c.212-4.118,2.277-7.889,3.263-11.893a22.783,22.783,0,0,0,.637-4.415c.231-4.974.323-10.227-1.082-15-.293-.993-.637-2.122-.115-3.007a3.011,3.011,0,0,1,1.555-1.137,10.006,10.006,0,0,1,7.759.2,2.805,2.805,0,0,1-.011.3,3.04,3.04,0,0,0,.155,1.371,1.709,1.709,0,0,1,.155.6c0,.013.072-.8.07-.789-1.615.233-3.3,1.29-4.914,1.521a11.3,11.3,0,0,0-2.466.543A1.106,1.106,0,0,0,263.965,589.429Z" transform="translate(-211.819 -469.637)" opacity="0.05"/>
      <path id="Path_2597" data-name="Path 2597" d="M224.621,560.053q-.329,1.035-.573,2.092a1.738,1.738,0,0,0-.059.751,4.3,4.3,0,0,1,.212.69,2.222,2.222,0,0,1-.363,1.046,3.6,3.6,0,0,0,.407,2.746l1.142,2.591.938,2.122c.278.637.558,1.263.825,1.9a61.688,61.688,0,0,1,2.985,8.943,1.08,1.08,0,0,0,.153.391c.159.212.446.272.679.4a1.265,1.265,0,0,1,.14,2.02c.134,1.555-1.033,3.057-1.634,4.5-1.381,3.312-1.131,7.044-1.606,10.609l.537-.312c.516.236.5.965.774,1.46a2.338,2.338,0,0,0,2.283.791,1.738,1.738,0,0,0,.762-.176.637.637,0,0,0,.344-.654c-.8-3.632,1.8-7.322,3.607-10.579a7.063,7.063,0,0,1,1-1.464c.306-.323.664-.594.948-.934a5.149,5.149,0,0,0,.849-3.543,19.849,19.849,0,0,0-2.258-8.368,8.745,8.745,0,0,0-.373-2.778,21.992,21.992,0,0,0-.677-2.907c-.178-.537-.4-1.061-.528-1.606a.856.856,0,0,1,.581-1.228,11.343,11.343,0,0,1,2.47-.56l5.551-.8a14.039,14.039,0,0,0,.238-3.558,5.474,5.474,0,0,0-3.913-4.579.831.831,0,0,0-.726.047A28.9,28.9,0,0,0,224.621,560.053Z" transform="translate(-183.655 -449.079)" fill="#303d5c"/>
      <path id="Path_2598" data-name="Path 2598" d="M237,414.15a2.733,2.733,0,0,1-.244,1.589,2.5,2.5,0,0,1-.637.7,4.754,4.754,0,0,1-1.829.91,1.943,1.943,0,0,0-1.095.477c-.39.471-.129,1.182.212,1.7a4.434,4.434,0,0,0,2.4,1.984c.819.223,1.7.085,2.529.231.607.1,1.178.354,1.776.5a5.247,5.247,0,0,0,4.819-1.345,6.877,6.877,0,0,1-2.272-2.432,3.45,3.45,0,0,1-.174-2.334,5.2,5.2,0,0,0,.545-2.27,2.362,2.362,0,0,0-1.668-1.568,10.741,10.741,0,0,0-2.09-.424c-.393-.053-2.877-.6-3.032-.331-.087.153.424,1.061.492,1.26A4.753,4.753,0,0,1,237,414.15Z" transform="translate(-190.989 -333.184)" fill="#ee8e9e"/>
      <circle id="Ellipse_535" data-name="Ellipse 535" cx="5.041" cy="5.041" r="5.041" transform="translate(44.096 72.695)" fill="#ee8e9e"/>
      <path id="Path_2599" data-name="Path 2599" d="M216.506,441.877l3.418.577a12.941,12.941,0,0,0,2.546.257,7.091,7.091,0,0,1,1.407,0c.323.053.637.176.957.212.4.051.8-.025,1.2.025a3.8,3.8,0,0,1,1.91,1.1,3.357,3.357,0,0,1,1.419,2.122.594.594,0,0,1-.04.293.859.859,0,0,1-.252.265,7.95,7.95,0,0,0-1.428,1.965,7.624,7.624,0,0,1-1.7,1.831c-.149-.1-.424.157-.367.32s.227.28.28.45c.121.386-.356.67-.554,1.025a2.789,2.789,0,0,0-.119,1.218c-.023.452-.212.885-.263,1.335-.138,1.05.38,2.156.015,3.149a1,1,0,0,1,.982.764,2.873,2.873,0,0,1-.04,1.341,1.846,1.846,0,0,1,.893,1.687.405.405,0,0,0,.045.3.425.425,0,0,0,.172.1,1.7,1.7,0,0,1,1.061,1.581.762.762,0,0,0,.032.333.747.747,0,0,0,.246.257,1.965,1.965,0,0,1,.734,1.536,1.111,1.111,0,0,1-.522,1.01,9.248,9.248,0,0,1-2.3.683,19.707,19.707,0,0,1-2.221.393,20,20,0,0,1-2.079.066l-4.575-.019c-1.273,0-2.572,0-3.853-.1a10.88,10.88,0,0,0-3.579.083c-.144-.244.087-.53.231-.777a2.616,2.616,0,0,0,.261-1.076l.289-3.047a5.6,5.6,0,0,0,.021-1.273c-.062-.448-.231-.872-.318-1.318a17.748,17.748,0,0,1-.053-2.606,12.208,12.208,0,0,0-.4-2.27l-.891-3.722a13.313,13.313,0,0,0-.446-1.869q-1.048-2.686-2.192-5.328a.562.562,0,0,1,.04-.473l.755-1.354a8.59,8.59,0,0,1,.692-1.1,4.345,4.345,0,0,1,2.546-1.566,4.5,4.5,0,0,1,2.971.439c.352.189.679.424,1.038.6A4.187,4.187,0,0,0,216.506,441.877Z" transform="translate(-170.039 -355.808)" fill="#444584"/>
      <path id="Path_2600" data-name="Path 2600" d="M301.973,463.85l1.192,1.587a2.211,2.211,0,0,1,.276.439,7.294,7.294,0,0,1,.178,1.349,2.843,2.843,0,0,0,.348.8,18.257,18.257,0,0,0,1.515,2.253,3.918,3.918,0,0,0,.942.929,1.545,1.545,0,0,0,1.273.225.787.787,0,0,0-.424.378,4.607,4.607,0,0,0-.295,2.949,3.082,3.082,0,0,0,.331.965,1.445,1.445,0,0,0,.76.656,1.118,1.118,0,0,1-1.316.944,2.215,2.215,0,0,1-.654-.325l-1.91-1.237a5.5,5.5,0,0,1-.889-.668c-.356-.356-.607-.808-.955-1.175-.592-.637-1.462-1-1.882-1.755a8.1,8.1,0,0,1-.469-1.547c-.106-.337-.261-.656-.363-1a4.46,4.46,0,0,1,.393-3.183A13.013,13.013,0,0,1,301.973,463.85Z" transform="translate(-243.369 -374.46)" fill="#444584"/>
      <path id="Path_2601" data-name="Path 2601" d="M223.329,376.066a6.637,6.637,0,0,0-1.774-1.844,6.045,6.045,0,0,0-3.2-1.354,3.457,3.457,0,0,0-1.441.236c-.021-1.424-.376-2.372-1.262-2.228-1.657.265-3.5.9-4.135,2.457-.477,1.173-.108,2.5.015,3.758a2.872,2.872,0,0,1-.036,1,3.5,3.5,0,0,1-.876,1.375,7.309,7.309,0,0,0-1.262,1.767,2.592,2.592,0,0,0-.085,2.122,1.559,1.559,0,0,1,.212.556c.019.424-.424.7-.764.98-1.243,1.029-1.19,2.9-1.2,4.522a22.865,22.865,0,0,1-2.162,9.548,2.92,2.92,0,0,0,3.268-.424,10.913,10.913,0,0,1-.743,2.139c1.061.509,2.321-.327,2.85-1.371a24.881,24.881,0,0,0,.965-3.365c.376-1.108,1.042-2.071,1.326-3.183a2.934,2.934,0,0,1,.378-1.061,2.78,2.78,0,0,1,.662-.564c1.086-.779-.511-6.679-.087-7.948.637.14,1.791-2.9,2.451-6a3.136,3.136,0,0,0,1.434.142,1.829,1.829,0,0,1,.513-.036,1.368,1.368,0,0,1,.448.182,11.02,11.02,0,0,0,1.526.785,8.634,8.634,0,0,0,3.463.295A3.443,3.443,0,0,0,223.329,376.066Z" transform="translate(-169.213 -301.202)" fill="#303d5c"/>
      <g id="Group_390" data-name="Group 390" transform="translate(36.152 69.659)" opacity="0.1">
        <path id="Path_2602" data-name="Path 2602" d="M205.968,398.958a22.9,22.9,0,0,0,2.162-9.548c0-1.617-.045-3.492,1.2-4.522.331-.276.783-.55.762-.98a1.515,1.515,0,0,0-.212-.556,2.6,2.6,0,0,1,.083-2.122,7.371,7.371,0,0,1,1.262-1.767,3.554,3.554,0,0,0,.878-1.375,2.926,2.926,0,0,0,.036-1c-.123-1.273-.494-2.584-.015-3.758.613-1.5,2.359-2.149,3.974-2.429a.849.849,0,0,0-.424-.028c-1.657.265-3.5.9-4.135,2.457-.477,1.173-.108,2.5.015,3.758a2.873,2.873,0,0,1-.036,1,3.5,3.5,0,0,1-.876,1.375,7.31,7.31,0,0,0-1.262,1.767,2.592,2.592,0,0,0-.085,2.122,1.56,1.56,0,0,1,.212.556c.019.424-.424.7-.764.98-1.243,1.029-1.19,2.9-1.2,4.522a22.864,22.864,0,0,1-2.162,9.548,2.826,2.826,0,0,0,1.6.3A2.743,2.743,0,0,1,205.968,398.958Z" transform="translate(-205.38 -370.859)"/>
        <path id="Path_2603" data-name="Path 2603" d="M217.844,503.409a10.9,10.9,0,0,0,.741-2.139,2.688,2.688,0,0,1-.717.475,10.8,10.8,0,0,1-.617,1.664,1.57,1.57,0,0,0,.974.125A1.565,1.565,0,0,1,217.844,503.409Z" transform="translate(-214.731 -473.6)"/>
        <path id="Path_2604" data-name="Path 2604" d="M262.62,380.539a3.4,3.4,0,0,1,.959-.225l-.112-.011a3.394,3.394,0,0,0-.849.064C262.616,380.425,262.62,380.48,262.62,380.539Z" transform="translate(-250.473 -378.296)"/>
        <path id="Path_2605" data-name="Path 2605" d="M269.724,402.016a11.16,11.16,0,0,1-1.528-.785,1.33,1.33,0,0,0-.448-.182,1.593,1.593,0,0,0-.469.03,1.742,1.742,0,0,1,.325.153,11.023,11.023,0,0,0,1.526.785,6.87,6.87,0,0,0,2.557.331A6.021,6.021,0,0,1,269.724,402.016Z" transform="translate(-254.146 -394.639)"/>
        <path id="Path_2606" data-name="Path 2606" d="M260.21,400.57c-.011.045-.021.089-.03.136a3.05,3.05,0,0,0,.749.019A3.222,3.222,0,0,1,260.21,400.57Z" transform="translate(-248.553 -394.266)"/>
      </g>
      <path id="Path_2607" data-name="Path 2607" d="M185.894,443.459a1.835,1.835,0,0,1-.494,1.473,3.223,3.223,0,0,1-.7.516,1.848,1.848,0,0,1-.834.314,1.57,1.57,0,0,1-1.061-.463,7.11,7.11,0,0,1-1.721-3.007,22.531,22.531,0,0,1-1.3-4.443,36.284,36.284,0,0,0-.611-4.931c.424-.834.683-1.753,1.156-2.557a11.629,11.629,0,0,0,.8-1.5,5.145,5.145,0,0,0,.132-3.448.467.467,0,0,1,.552.03,1.122,1.122,0,0,1,.333.482,4.275,4.275,0,0,1,.329,2.026.819.819,0,0,0,.059.5.637.637,0,0,0,.539.227,4.736,4.736,0,0,0,1.243-.227,11.606,11.606,0,0,1,3.834-.316,1.835,1.835,0,0,1,.747.182.7.7,0,0,1,.386.626l-3.066.448a1.256,1.256,0,0,0-.637.212.424.424,0,0,0-.089.607,1.425,1.425,0,0,0,.212.142.637.637,0,0,1-.025,1.008.636.636,0,0,0-.212.144c-.125.168.042.39.093.594a.747.747,0,0,1-.367.764,2.593,2.593,0,0,1-.849.286,9.01,9.01,0,0,0-1.75.6.946.946,0,0,0-.456.339,1.024,1.024,0,0,0,.053.859l.8,2.151c.125.337.25.675.407,1,.212.424.454.819.662,1.237a12.97,12.97,0,0,1,.5,1.205C184.954,441.638,185.758,442.3,185.894,443.459Z" transform="translate(-148.58 -344.122)" fill="#ee8e9e"/>
      <path id="Path_2608" data-name="Path 2608" d="M376.6,440.431a.953.953,0,0,0-.35.511.212.212,0,0,0,.081.229.234.234,0,0,0,.142,0,1.348,1.348,0,0,0,.615-.293.637.637,0,0,0-.185.149.212.212,0,0,0-.023.225.291.291,0,0,0,.2.106,1.966,1.966,0,0,0,.889-.042,1.191,1.191,0,0,0-.371.212.492.492,0,0,0-.166.382.182.182,0,0,0,.066.144.268.268,0,0,0,.1.034,2.4,2.4,0,0,0,.825,0,.424.424,0,0,0,.348-.212.52.52,0,0,0-.081-.4,2.213,2.213,0,0,1-.212-1.01.41.41,0,0,0-.03-.212.371.371,0,0,0-.185-.134,1.544,1.544,0,0,0-1.014-.2,2.1,2.1,0,0,0-.649.511Z" transform="translate(-303.838 -355.582)" fill="#ee8e9e"/>
      <path id="Path_2609" data-name="Path 2609" d="M371.583,410.389l-10.125,5.478a.212.212,0,0,0,.015.378l1.727.651a.405.405,0,0,1,.227.212l1.343,2.758c.025.123.25.155.252.032l-.212-2.285a.817.817,0,0,1,.185-.46l5.249-5.143a.123.123,0,0,1,.115-.034.121.121,0,0,1,.066.193l-4.517,5.549a1.01,1.01,0,0,0-.178.456l-.269,1.973c.021.172.157.238.265.083l.976-1.144a.212.212,0,0,1,.284-.049l2.514,1.831a.212.212,0,0,0,.318-.125l2.067-10.125a.212.212,0,0,0-.3-.229Z" transform="translate(-292.104 -332.328)" fill="#444584"/>
      <path id="Path_2707" data-name="Path 2707" d="M12.618,0c6.969,0,12.618,1.087,12.618,2.427S19.587,4.855,12.618,4.855,0,3.768,0,2.427,5.649,0,12.618,0Z" transform="translate(181.967 168.04)" fill="#00c2cd"/>
      <ellipse id="Ellipse_537" data-name="Ellipse 537" cx="1.468" cy="1.922" rx="1.468" ry="1.922" transform="translate(192.907 167.514)" fill="#3f3d56"/>
      <ellipse id="Ellipse_538" data-name="Ellipse 538" cx="1.468" cy="1.922" rx="1.468" ry="1.922" transform="translate(192.907 165.165)" fill="#3f3d56"/>
      <ellipse id="Ellipse_539" data-name="Ellipse 539" cx="1.468" cy="1.922" rx="1.468" ry="1.922" transform="translate(192.907 162.814)" fill="#3f3d56"/>
      <ellipse id="Ellipse_540" data-name="Ellipse 540" cx="1.468" cy="1.922" rx="1.468" ry="1.922" transform="translate(192.907 160.463)" fill="#3f3d56"/>
      <ellipse id="Ellipse_541" data-name="Ellipse 541" cx="1.468" cy="1.922" rx="1.468" ry="1.922" transform="translate(192.907 158.112)" fill="#3f3d56"/>
      <ellipse id="Ellipse_542" data-name="Ellipse 542" cx="1.468" cy="1.922" rx="1.468" ry="1.922" transform="translate(192.907 155.763)" fill="#3f3d56"/>
      <ellipse id="Ellipse_543" data-name="Ellipse 543" cx="1.468" cy="1.922" rx="1.468" ry="1.922" transform="translate(192.907 153.413)" fill="#3f3d56"/>
      <path id="Path_2610" data-name="Path 2610" d="M930.31,656.518a7.453,7.453,0,0,0,.547-.8L927,655.078l4.176.032a7.059,7.059,0,0,0,.134-5.576l-5.6,2.9,5.164-3.8a7.038,7.038,0,1,0-11.623,7.874,7.277,7.277,0,0,0-.8,1.273l5.012,2.6-5.343-1.793a7.042,7.042,0,0,0,1.133,6.607,7.036,7.036,0,1,0,11.063,0,7.044,7.044,0,0,0,0-8.7Z" transform="translate(-730.437 -517.269)" fill="#00c2cd"/>
      <path id="Path_2611" data-name="Path 2611" d="M917.78,718.965a7,7,0,0,0,1.5,4.35,7.036,7.036,0,1,0,11.063,0C931.289,722.118,917.78,718.176,917.78,718.965Z" transform="translate(-730.472 -575.364)" opacity="0.1"/>
      <ellipse id="Ellipse_544" data-name="Ellipse 544" cx="7.203" cy="1.386" rx="7.203" ry="1.386" transform="translate(68.768 162.585)" fill="#00c2cd"/>
      <ellipse id="Ellipse_545" data-name="Ellipse 545" cx="0.838" cy="1.097" rx="0.838" ry="1.097" transform="translate(75.254 162.284)" fill="#3f3d56"/>
      <ellipse id="Ellipse_546" data-name="Ellipse 546" cx="0.838" cy="1.097" rx="0.838" ry="1.097" transform="translate(75.254 160.943)" fill="#3f3d56"/>
      <ellipse id="Ellipse_547" data-name="Ellipse 547" cx="0.838" cy="1.097" rx="0.838" ry="1.097" transform="translate(75.254 159.6)" fill="#3f3d56"/>
      <ellipse id="Ellipse_548" data-name="Ellipse 548" cx="0.838" cy="1.097" rx="0.838" ry="1.097" transform="translate(75.254 158.259)" fill="#3f3d56"/>
      <ellipse id="Ellipse_549" data-name="Ellipse 549" cx="0.838" cy="1.097" rx="0.838" ry="1.097" transform="translate(75.254 156.916)" fill="#3f3d56"/>
      <ellipse id="Ellipse_550" data-name="Ellipse 550" cx="0.838" cy="1.097" rx="0.838" ry="1.097" transform="translate(75.254 155.575)" fill="#3f3d56"/>
      <ellipse id="Ellipse_551" data-name="Ellipse 551" cx="0.838" cy="1.097" rx="0.838" ry="1.097" transform="translate(75.254 154.234)" fill="#3f3d56"/>
      <path id="Path_2612" data-name="Path 2612" d="M375.629,707.156a3.981,3.981,0,0,1-.312-.461l2.2-.361-2.383.017a4.031,4.031,0,0,1-.076-3.183l3.2,1.659-2.949-2.168a4.019,4.019,0,1,1,6.635,4.5,3.886,3.886,0,0,1,.458.732l-2.86,1.485,3.051-1.018a4.049,4.049,0,0,1,.212,1.29,15.921,15.921,0,0,0-1.293,7.916,8.133,8.133,0,0,1-5.882-10.4Z" transform="translate(-302.677 -561.008)" fill="#00c2cd"/>
      <path id="Path_2613" data-name="Path 2613" d="M382.8,742.839a15.921,15.921,0,0,0-1.293,7.916,4.017,4.017,0,0,1-5.882-5.433C375.09,744.639,382.8,742.387,382.8,742.839Z" transform="translate(-302.677 -594.207)" opacity="0.1"/>
      <path id="Path_2706" data-name="Path 2706" d="M4.844,0C7.519,0,9.688.417,9.688.931s-2.169.931-4.844.931S0,1.446,0,.931,2.169,0,4.844,0Z" transform="translate(17.471 151.895)" fill="#00c2cd"/>
      <ellipse id="Ellipse_553" data-name="Ellipse 553" cx="0.564" cy="0.738" rx="0.564" ry="0.738" transform="translate(21.834 151.694)" fill="#3f3d56"/>
      <ellipse id="Ellipse_554" data-name="Ellipse 554" cx="0.564" cy="0.738" rx="0.564" ry="0.738" transform="translate(21.834 150.792)" fill="#3f3d56"/>
      <ellipse id="Ellipse_555" data-name="Ellipse 555" cx="0.564" cy="0.738" rx="0.564" ry="0.738" transform="translate(21.834 149.888)" fill="#3f3d56"/>
      <ellipse id="Ellipse_556" data-name="Ellipse 556" cx="0.564" cy="0.738" rx="0.564" ry="0.738" transform="translate(21.834 148.986)" fill="#3f3d56"/>
      <ellipse id="Ellipse_557" data-name="Ellipse 557" cx="0.564" cy="0.738" rx="0.564" ry="0.738" transform="translate(21.834 148.085)" fill="#3f3d56"/>
      <ellipse id="Ellipse_558" data-name="Ellipse 558" cx="0.564" cy="0.738" rx="0.564" ry="0.738" transform="translate(21.834 147.183)" fill="#3f3d56"/>
      <ellipse id="Ellipse_559" data-name="Ellipse 559" cx="0.564" cy="0.738" rx="0.564" ry="0.738" transform="translate(21.834 146.281)" fill="#3f3d56"/>
      <path id="Path_2614" data-name="Path 2614" d="M128.451,690.07a2.34,2.34,0,0,1-.212-.31l1.485-.242h-1.6a2.7,2.7,0,0,1-.053-2.139l2.149,1.129-1.984-1.458a2.7,2.7,0,1,1,4.456,3.024,2.736,2.736,0,0,1,.308.492l-1.918,1,2.05-.687a2.655,2.655,0,0,1,.142.866,10.716,10.716,0,0,0-.864,5.329,5.476,5.476,0,0,1-3.957-7Z" transform="translate(-108.164 -549.224)" fill="#00c2cd"/>
      <path id="Path_2615" data-name="Path 2615" d="M133.282,714.082a10.716,10.716,0,0,0-.864,5.329,2.7,2.7,0,0,1-3.957-3.659C128.1,715.294,133.282,713.779,133.282,714.082Z" transform="translate(-108.172 -571.567)" opacity="0.1"/>
    </g>
    <rect id="Rectangle_981" data-name="Rectangle 981" width="141" height="12" rx="6" transform="translate(338 2923)" fill="#fff"/>
    <rect id="Rectangle_982" data-name="Rectangle 982" width="141" height="11" rx="5.5" transform="translate(338 2950)" fill="#fff"/>
    <rect id="Rectangle_983" data-name="Rectangle 983" width="142" height="11" rx="5.5" transform="translate(338 2976)" fill="#fff"/>
    <rect id="Rectangle_1135" data-name="Rectangle 1135" width="141" height="12" rx="6" transform="translate(338 3002)" fill="#fff"/>
    <rect id="Rectangle_1136" data-name="Rectangle 1136" width="109" height="11" rx="5.5" transform="translate(338 3119)" fill="#fff"/>
    <rect id="Rectangle_1137" data-name="Rectangle 1137" width="76" height="11" rx="5.5" transform="translate(338 3140)" fill="#fff"/>
    <rect id="Rectangle_1138" data-name="Rectangle 1138" width="71" height="22" rx="11" transform="translate(965 2750)" fill="#fff"/>
    <path id="Icon_ionic-ios-arrow-down" data-name="Icon ionic-ios-arrow-down" d="M10.562,14.739l3.307-3.309a.622.622,0,0,1,.883,0,.63.63,0,0,1,0,.885L11,16.064a.624.624,0,0,1-.862.018L6.37,12.318a.625.625,0,1,1,.883-.885Z" transform="translate(1010.814 2747.177)" opacity="0.8"/>
  </g>
</svg>
