<svg xmlns="http://www.w3.org/2000/svg" width="62.243" height="59.613" viewBox="0 0 62.243 59.613">
    <defs>
        <style>
            .cls-1{fill:#77cc6d}
        </style>
    </defs>
    <g id="conversion-rate_1_" data-name="conversion-rate (1)" transform="translate(-8.028 -13.097)">
        <g id="Group_2435" data-name="Group 2435" transform="translate(38.727 34.474)">
            <circle id="Ellipse_746" cx=".475" cy=".475" r=".475" class="cls-1" data-name="Ellipse 746"/>
            <circle id="Ellipse_747" cx=".475" cy=".475" r=".475" class="cls-1" data-name="Ellipse 747" transform="translate(2.699)"/>
            <circle id="Ellipse_748" cx=".475" cy=".475" r=".475" class="cls-1" data-name="Ellipse 748" transform="translate(5.399)"/>
            <circle id="Ellipse_749" cx=".475" cy=".475" r=".475" class="cls-1" data-name="Ellipse 749" transform="translate(8.098)"/>
            <circle id="Ellipse_750" cx=".475" cy=".475" r=".475" class="cls-1" data-name="Ellipse 750" transform="translate(10.797)"/>
            <circle id="Ellipse_751" cx=".475" cy=".475" r=".475" class="cls-1" data-name="Ellipse 751" transform="translate(13.497)"/>
        </g>
        <g id="Group_2437" data-name="Group 2437" transform="translate(8.028 13.097)">
            <path id="Path_3544" d="M20.8 60.774h16.4v4.155h-3.354a1.688 1.688 0 0 0-1.686 1.686v2.322H19.679a.389.389 0 1 0 0 .778h52.037a.389.389 0 0 0 0-.778H59.235v-2.322a1.688 1.688 0 0 0-1.686-1.686h-3.356v-4.155h16.4a3.938 3.938 0 0 0 3.934-3.934V24.732a3.938 3.938 0 0 0-3.935-3.932h-3.853v-4.979a2.726 2.726 0 0 0-2.723-2.721H27.38a2.726 2.726 0 0 0-2.723 2.723V20.8H20.8a3.938 3.938 0 0 0-3.934 3.934V56.84a3.938 3.938 0 0 0 3.934 3.934zm37.653 5.841v2.322H32.938v-2.322a.909.909 0 0 1 .908-.908h23.7a.909.909 0 0 1 .911.908zm-5.043-1.686H37.981v-4.155h15.433zM25.435 21.576h40.526v22.768a1.948 1.948 0 0 1-1.946 1.946H27.38a1.948 1.948 0 0 1-1.946-1.946zm1.945 25.491h36.635a2.727 2.727 0 0 0 2.724-2.724V23.757h3.853a.975.975 0 0 1 .974.974v29a.975.975 0 0 1-.974.974H20.8a.975.975 0 0 1-.974-.974v-29a.975.975 0 0 1 .974-.974h3.853v20.586a2.727 2.727 0 0 0 2.723 2.724zm36.635-33.192a1.948 1.948 0 0 1 1.946 1.946V20.8H25.435v-4.979a1.948 1.948 0 0 1 1.946-1.946zM17.648 24.732a3.159 3.159 0 0 1 3.152-3.156h3.853v1.4H20.8a1.755 1.755 0 0 0-1.753 1.753v29a1.755 1.755 0 0 0 1.753 1.75h49.792a1.755 1.755 0 0 0 1.753-1.753v-29a1.755 1.755 0 0 0-1.753-1.753h-3.853v-1.4h3.853a3.159 3.159 0 0 1 3.156 3.156V56.84A3.159 3.159 0 0 1 70.592 60H20.8a3.159 3.159 0 0 1-3.156-3.156z" class="cls-1" data-name="Path 3544" transform="translate(-14.576 -13.097)"/>
            <path id="Path_3545" d="M123.556 182.3a1.556 1.556 0 1 0-1.556-1.559 1.558 1.558 0 0 0 1.556 1.559zm0-2.335a.778.778 0 1 1-.778.778.779.779 0 0 1 .778-.78z" class="cls-1" data-name="Path 3545" transform="translate(-92.435 -136.101)"/>
            <path id="Path_3546" d="M13.131 239.9H8.417a.389.389 0 1 0 0 .778h4.714a.389.389 0 1 0 0-.778z" class="cls-1" data-name="Path 3546" transform="translate(-8.028 -181.068)"/>
            <path id="Path_3547" d="M231.9 239.9h-4.714a.389.389 0 0 0 0 .778h4.714a.389.389 0 0 0 0-.778z" class="cls-1" data-name="Path 3547" transform="translate(-170.05 -181.068)"/>
            <path id="Path_3548" d="M85.608 239.9H41.1a.389.389 0 1 0 0 .778h44.508a.389.389 0 0 0 0-.778z" class="cls-1" data-name="Path 3548" transform="translate(-32.233 -181.068)"/>
            <path id="Path_3549" d="M8.417 229.135h2.024a.389.389 0 1 0 0-.778H8.417a.389.389 0 1 0 0 .778z" class="cls-1" data-name="Path 3549" transform="translate(-8.028 -172.518)"/>
            <path id="Path_3550" d="M237.169 228.746a.389.389 0 0 0 .389.389h2.024a.389.389 0 1 0 0-.778h-2.024a.389.389 0 0 0-.389.389z" class="cls-1" data-name="Path 3550" transform="translate(-177.729 -172.518)"/>
            <path id="Path_3551" d="M61.365 25.73a2 2 0 1 0-2-2 2 2 0 0 0 2 2zm0-3.221a1.221 1.221 0 1 1-1.221 1.221 1.223 1.223 0 0 1 1.221-1.221z" class="cls-1" data-name="Path 3551" transform="translate(-46.049 -19.491)"/>
            <path id="Path_3552" d="M80.392 25.73a2 2 0 1 0-2-2 2 2 0 0 0 2 2zm0-3.221a1.221 1.221 0 1 1-1.221 1.221 1.223 1.223 0 0 1 1.221-1.221z" class="cls-1" data-name="Path 3552" transform="translate(-60.14 -19.491)"/>
            <path id="Path_3553" d="M99.419 25.73a2 2 0 1 0-2-2 2 2 0 0 0 2 2zm0-3.221a1.221 1.221 0 1 1-1.219 1.222 1.223 1.223 0 0 1 1.219-1.222z" class="cls-1" data-name="Path 3553" transform="translate(-74.231 -19.491)"/>
            <path id="Path_3554" d="M155.985 27.379h8.872a.962.962 0 0 0 .961-.961v-.267a.962.962 0 0 0-.961-.961h-8.872a.962.962 0 0 0-.961.961v.267a.962.962 0 0 0 .961.961zm-.183-1.227a.185.185 0 0 1 .183-.183h8.872a.185.185 0 0 1 .183.183v.267a.185.185 0 0 1-.183.182h-8.872a.185.185 0 0 1-.183-.182z" class="cls-1" data-name="Path 3554" transform="translate(-116.893 -22.054)"/>
            <path id="Path_3555" d="M61.42 65.043H71a.389.389 0 0 0 .389-.389V51.581a.389.389 0 0 0-.389-.389h-9.58a.389.389 0 0 0-.389.389v13.073a.389.389 0 0 0 .389.389zm9.193-.778h-.777V62.5a.389.389 0 0 0-.778 0v1.768h-5.693V62.5a.389.389 0 0 0-.778 0v1.768h-.777v-.721a4.4 4.4 0 1 1 8.8 0v.721zm-6.688-8.188a2.286 2.286 0 1 1 2.286 2.286 2.289 2.289 0 0 1-2.286-2.286zm-2.116-4.107h8.8v8.856a5.2 5.2 0 0 0-2.733-2.182 3.064 3.064 0 1 0-3.337 0 5.2 5.2 0 0 0-2.733 2.182V51.97z" class="cls-1" data-name="Path 3555" transform="translate(-47.282 -41.31)"/>
            <path id="Path_3556" d="M113.858 54.952h20.363a.389.389 0 0 0 .389-.389v-2.982a.389.389 0 0 0-.389-.389h-20.363a.389.389 0 0 0-.389.389v2.982a.389.389 0 0 0 .389.389zm.389-2.982h19.585v2.2h-19.585z" class="cls-1" data-name="Path 3556" transform="translate(-86.117 -41.31)"/>
            <path id="Path_3557" d="M113.858 74.4h20.363a.389.389 0 0 0 .389-.389v-2.98a.389.389 0 0 0-.389-.389h-20.363a.389.389 0 0 0-.389.389v2.982a.389.389 0 0 0 .389.387zm.389-2.982h19.585v2.2h-19.585z" class="cls-1" data-name="Path 3557" transform="translate(-86.117 -55.715)"/>
            <path id="Path_3558" d="M113.858 93.851h20.363a.389.389 0 0 0 .389-.389V90.48a.389.389 0 0 0-.389-.389h-20.363a.389.389 0 0 0-.389.389v2.982a.389.389 0 0 0 .389.389zm.389-2.982h19.585v2.2h-19.585z" class="cls-1" data-name="Path 3558" transform="translate(-86.117 -70.118)"/>
            <path id="Path_3559" d="M140.357 56.94h-13.749a.389.389 0 0 0 0 .778h13.748a.389.389 0 1 0 0-.778z" class="cls-1" data-name="Path 3559" transform="translate(-95.56 -45.567)"/>
            <path id="Path_3560" d="M140.357 76.39h-13.749a.389.389 0 0 0 0 .778h13.748a.389.389 0 1 0 0-.778z" class="cls-1" data-name="Path 3560" transform="translate(-95.56 -59.971)"/>
            <path id="Path_3561" d="M113.858 115.427h6.8a.389.389 0 0 0 .389-.389v-2.312a.389.389 0 0 0-.389-.389h-6.8a.389.389 0 0 0-.389.389v2.312a.389.389 0 0 0 .389.389zm.389-2.312h6.023v1.534h-6.023z" class="cls-1" data-name="Path 3561" transform="translate(-86.117 -86.593)"/>
            <path id="Path_3562" d="M153.837 112.336h-6.8a.389.389 0 0 0-.389.389v2.312a.389.389 0 0 0 .389.389h6.8a.389.389 0 0 0 .389-.389v-2.312a.389.389 0 0 0-.389-.389zm-.389 2.312h-6.023v-1.534h6.023z" class="cls-1" data-name="Path 3562" transform="translate(-110.688 -86.593)"/>
            <path id="Path_3563" d="M61.42 113.114H71a.389.389 0 1 0 0-.778h-9.58a.389.389 0 1 0 0 .778z" class="cls-1" data-name="Path 3563" transform="translate(-47.282 -86.593)"/>
            <path id="Path_3564" d="M61.42 122.028H71a.389.389 0 1 0 0-.778h-9.58a.389.389 0 1 0 0 .778z" class="cls-1" data-name="Path 3564" transform="translate(-47.282 -93.195)"/>
        </g>
    </g>
</svg>
