<svg xmlns="http://www.w3.org/2000/svg" width="19.007" height="29.489" viewBox="0 0 19.007 29.489">
    <defs>
        <style>
            .cls-1{fill:#fff}
        </style>
    </defs>
    <path id="flash" d="M18.643 12.153h-7.154l6.177-10.862A.864.864 0 0 0 16.915 0H6.548a.864.864 0 0 0-.82.592L.544 16.2a.864.864 0 0 0 .82 1.136H8.7l-4.67 10.95a.864.864 0 0 0 1.441.912L19.29 13.589a.865.865 0 0 0-.647-1.437zM7.7 24.065l3.1-7.254a.865.865 0 0 0-.795-1.2H2.561l4.61-13.883h8.259L9.252 12.589A.865.865 0 0 0 10 13.881h6.72zm0 0" class="cls-1" transform="translate(-.5)"/>
</svg>
