<svg xmlns="http://www.w3.org/2000/svg" id="review" width="59.963" height="59.963" viewBox="0 0 59.963 59.963">
    <defs>
        <style>
            .cls-1{fill:#3859ff}
        </style>
    </defs>
    <g id="Group_2441" data-name="Group 2441">
        <g id="Group_2440" data-name="Group 2440">
            <path id="Path_3570" d="M59.963 12.492a3.748 3.748 0 0 0-3.748-3.748h-5v2.5h5a1.249 1.249 0 0 1 1.249 1.249v33.34l-6.226-6.226a14.025 14.025 0 0 0-2.322-16.762 5.204 5.204 0 0 0-.2-.191V1.249A1.249 1.249 0 0 0 47.47 0H21.237a1.25 1.25 0 0 0-.2.017L21 .024l-.06.013-.063.016-.04.014c-.025.009-.051.017-.076.027l-.03.014c-.027.012-.055.024-.081.038l-.027.016-.078.046-.04.029c-.02.014-.04.028-.059.044s-.063.054-.093.084l-8.744 8.746a1.249 1.249 0 0 0-.366.883v24.984h-2.5v2.5H25.8a14.021 14.021 0 0 0 20.059 7.508l3.731 3.734H3.748A1.249 1.249 0 0 1 2.5 47.47V12.492a1.249 1.249 0 0 1 1.249-1.249h5v-2.5h-5A3.748 3.748 0 0 0 0 12.492v34.979a3.748 3.748 0 0 0 3.748 3.748H21.8c-.608 6.005-5.591 6.24-6.185 6.246a1.249 1.249 0 0 0 0 2.5h28.732a1.249 1.249 0 0 0 0-2.5c-.235 0-5.55-.076-6.184-6.246h13.922L53.47 52.6a3.8 3.8 0 0 0 6.486-2.636h.007zM38.337 57.464H21.625a9.891 9.891 0 0 0 2.737-6.246H35.6a9.89 9.89 0 0 0 2.737 6.246zm-24.6-22.486V10.511l6.246-6.246v4.48h-2.5v2.5h3.748a1.249 1.249 0 0 0 1.249-1.249V2.5h23.741v18.24a14.033 14.033 0 0 0-13.011-.752H17.489v2.5h11.974a14.071 14.071 0 0 0-2.871 3.748h-9.1v2.5h8.082a14.1 14.1 0 0 0-.412 6.246H13.741zm13.743-2.22a11.52 11.52 0 1 1 19.72 8.093l-.106.106a11.52 11.52 0 0 1-19.612-8.2zm22.353 8.994l1.842 1.842-1.841 1.846-1.841-1.84zm5.4 9.091L51.6 47.206l1.845-1.845L57.083 49a1.3 1.3 0 0 1 .381.916v.012a1.3 1.3 0 0 1-2.226.916z" class="cls-1" data-name="Path 3570"/>
            <path id="Path_3571" d="M279.232 206.257l1.768 1.766a6.421 6.421 0 0 1 9.069 0l1.766-1.766a8.922 8.922 0 0 0-12.603 0z" class="cls-1" data-name="Path 3571" transform="translate(-246.53 -179.8)"/>
            <path id="Path_3572" d="M42.667 341.333v5a1.249 1.249 0 0 0 1.249 1.249h5v-2.5h-3.751v-3.748h-2.5z" class="cls-1" data-name="Path 3572" transform="translate(-37.67 -301.358)"/>
            <path id="Rectangle_2522" d="M0 0h2.498v2.498H0z" class="cls-1" data-name="Rectangle 2522" transform="translate(13.741 43.723)"/>
            <path id="Rectangle_2523" d="M0 0h24.984v2.498H0z" class="cls-1" data-name="Rectangle 2523" transform="translate(17.489 13.741)"/>
        </g>
    </g>
</svg>
