<svg xmlns="http://www.w3.org/2000/svg" width="9.375" height="10" viewBox="0 0 9.375 10">
    <path id="prefix__Icon_metro-calendar" d="M5.7 5.678h1.25v1.25H5.7zm1.875 0h1.25v1.25H7.571zm1.875 0h1.25v1.25H9.446zm-5.629 3.75h1.25v1.25h-1.25zm1.875 0h1.25v1.25H5.7zm1.875 0h1.25v1.25h-1.25zM5.7 7.553h1.25V8.8H5.7zm1.875 0h1.25V8.8H7.571zm1.875 0h1.25V8.8H9.446zm-5.625 0h1.25V8.8H3.821zM10.7 1.928v.625H9.446v-.625H5.071v.625h-1.25v-.625h-1.25v10h9.375v-10H10.7zm.625 9.375H3.2V4.428h8.125z" data-name="Icon metro-calendar" transform="translate(-2.571 -1.928)" style="fill:#448444"/>
</svg>
