<svg xmlns="http://www.w3.org/2000/svg" width="11.252" height="10" viewBox="0 0 11.252 10">
    <path id="prefix__Icon_awesome-edit" d="M7.865 1.63l1.762 1.762a.191.191 0 0 1 0 .27L5.36 7.928l-1.813.2a.38.38 0 0 1-.42-.42l.2-1.813L7.6 1.63a.191.191 0 0 1 .265 0zm3.165-.447L10.076.23A.764.764 0 0 0 9 .23l-.694.691a.191.191 0 0 0 0 .27l1.762 1.762a.191.191 0 0 0 .27 0l.692-.692a.764.764 0 0 0 0-1.078zM7.5 6.768v1.989H1.25V2.506h4.489a.24.24 0 0 0 .166-.068l.781-.781a.234.234 0 0 0-.166-.4H.938A.938.938 0 0 0 0 2.193v6.876a.938.938 0 0 0 .938.938h6.876a.938.938 0 0 0 .938-.938V5.987a.235.235 0 0 0-.4-.166L7.57 6.6a.24.24 0 0 0-.07.168z" data-name="Icon awesome-edit" transform="translate(0 -.007)" style="fill:#c8bb05"/>
</svg>
