<svg xmlns="http://www.w3.org/2000/svg" width="98.879" height="100.978" viewBox="0 0 98.879 100.978">
    <defs>
        <style>
            .prefix__cls-1{fill:#e7ecee}.prefix__cls-2{fill:#ec3f78}.prefix__cls-3{fill:#083863}
        </style>
    </defs>
    <g id="prefix__billboard" transform="translate(.001)">
        <path id="prefix__Path_3785" d="M102.239 75.789v53.819H5.8V75.789zM82.3 103.311v-2.956a2.852 2.852 0 0 0-2.543-2.838l-3.969-.436v-6.9l-17.378 6.09h-8.951a1.427 1.427 0 0 0-1.426 1.429v8.649a1.426 1.426 0 0 0 1.426 1.426h.2v9.676h4.956l2.855-9.676h.938l17.378 6.1v-7.285l3.969-.436a2.853 2.853 0 0 0 2.543-2.838zm0 0" class="prefix__cls-1" data-name="Path 3785" transform="translate(-4.582 -59.845)"/>
        <path id="prefix__Path_3786" d="M373.675 6.07v7.862H352.8V6.07zm0 0" class="prefix__cls-2" data-name="Path 3786" transform="translate(-278.58 -4.793)"/>
        <path id="prefix__Path_3787" d="M383.59 331.609h9.01v29.941h-9.01zm0 0" class="prefix__cls-2" data-name="Path 3787" transform="translate(-302.892 -261.845)"/>
        <path id="prefix__Path_3788" d="M382.41 43.441h8.415v6.805h-8.415zm0 0" class="prefix__cls-1" data-name="Path 3788" transform="translate(-301.96 -34.302)"/>
        <path id="prefix__Path_3789" d="M344.986 180.274v2.956a2.853 2.853 0 0 1-2.543 2.839l-3.969.436V177l3.969.436a2.852 2.852 0 0 1 2.543 2.838zm0 0" class="prefix__cls-1" data-name="Path 3789" transform="translate(-267.267 -139.763)"/>
        <path id="prefix__Path_3790" d="M273.249 160.588v7.285l-17.378-6.1v-11.5l17.378-6.094zm0 0" class="prefix__cls-2" data-name="Path 3790" transform="translate(-202.043 -113.847)"/>
        <path id="prefix__Path_3791" d="M206.265 6.07v7.862H185.39V6.07zm0 0" class="prefix__cls-2" data-name="Path 3791" transform="translate(-146.389 -4.793)"/>
        <path id="prefix__Path_3792" d="M216.92 173.148v11.5h-8.952a1.426 1.426 0 0 1-1.426-1.426v-8.649a1.427 1.427 0 0 1 1.426-1.429zm0 0" class="prefix__cls-1" data-name="Path 3792" transform="translate(-163.092 -136.721)"/>
        <path id="prefix__Path_3793" d="M215 43.441h8.415v6.805H215zm0 0" class="prefix__cls-1" data-name="Path 3793" transform="translate(-169.77 -34.302)"/>
        <path id="prefix__Path_3794" d="M222.092 227.828l-2.855 9.676h-4.956v-9.676zm0 0" class="prefix__cls-2" data-name="Path 3794" transform="translate(-169.202 -179.898)"/>
        <path id="prefix__Path_3795" d="M38.855 6.07v7.862H17.98V6.07zm0 0" class="prefix__cls-2" data-name="Path 3795" transform="translate(-14.199 -4.793)"/>
        <path id="prefix__Path_3796" d="M47.59 43.441H56v6.805h-8.41zm0 0" class="prefix__cls-1" data-name="Path 3796" transform="translate(-37.579 -34.302)"/>
        <path id="prefix__Path_3797" d="M43.59 331.609h9.01v29.941h-9.01zm0 0" class="prefix__cls-2" data-name="Path 3797" transform="translate(-34.421 -261.845)"/>
        <g id="prefix__Group_2559" data-name="Group 2559" transform="translate(-.002)">
            <path id="prefix__Path_3798" d="M97.657 14.727h-7.616v-4.418H95.1a1.182 1.182 0 0 0 1.252-1.169V1.277A1.271 1.271 0 0 0 95.1 0H74.22A1.241 1.241 0 0 0 73 1.277v7.862a1.152 1.152 0 0 0 1.22 1.169h4.88v4.418H54.907v-4.417h4.968a1.259 1.259 0 0 0 1.344-1.169V1.277A1.346 1.346 0 0 0 59.875 0H39a1.346 1.346 0 0 0-1.344 1.277v7.862A1.26 1.26 0 0 0 39 10.309h4.967v4.418H19.774v-4.418h4.881a1.151 1.151 0 0 0 1.22-1.169V1.277A1.239 1.239 0 0 0 24.656 0H3.781a1.272 1.272 0 0 0-1.258 1.277v7.862a1.183 1.183 0 0 0 1.258 1.169h5.053v4.418H1.219A1.191 1.191 0 0 0 0 15.944v53.82a1.3 1.3 0 0 0 1.22 1.344h6.773V99.7a1.2 1.2 0 0 0 1.176 1.277h9.008a1.2 1.2 0 0 0 1.176-1.277V71.1h60.169v28.6a1.2 1.2 0 0 0 1.176 1.277h9.008a1.2 1.2 0 0 0 1.176-1.277V71.1h6.775a1.3 1.3 0 0 0 1.22-1.344V15.944a1.189 1.189 0 0 0-1.22-1.218zM75.525 2.525h18.3v5.259h-18.3zm6.1 7.784h5.891v4.418h-5.89zM40.181 2.525h18.513v5.259H40.181zm6.311 7.784h5.891v4.418h-5.891zM5.048 2.525h18.3v5.259h-18.3zm6.311 7.784h5.891v4.418h-5.891zm5.47 88.149h-6.311v-27.35h6.311zm71.529 0h-6.312v-27.35h6.311zm7.994-29.874H2.523V17.251h93.829zm0 0" class="prefix__cls-3" data-name="Path 3798" transform="translate(.002)"/>
            <path id="prefix__Path_3799" d="M202.472 158.043v8.632a1.347 1.347 0 0 0 1.321 1.3h4.956a1.281 1.281 0 0 0 1.211-.924l2.566-8.71 16.974 5.949a1.264 1.264 0 0 0 .417.069 1.115 1.115 0 0 0 .68-.234 1.218 1.218 0 0 0 .484-1.031v-6.154l2.848-.311a4.114 4.114 0 0 0 3.673-4.093v-2.956a4.113 4.113 0 0 0-3.672-4.093l-2.85-.312V139.4a1.213 1.213 0 0 0-1.606-1.207l-17.145 6.007h-8.737a2.639 2.639 0 0 0-2.592 2.725v8.649a2.755 2.755 0 0 0 1.473 2.469zm5.334 7.408H205V158.3h4.92zM233.659 148a1.592 1.592 0 0 1 1.422 1.583v2.956a1.593 1.593 0 0 1-1.423 1.584l-2.575.282v-6.686zm-5.1-1.7v15.017l-14.726-5.217v-9.71l14.727-5.209zm-25.035.628c0-.092-.023-.2.067-.2h7.717v9.046h-7.717c-.09 0-.067-.109-.067-.2zm0 0" class="prefix__cls-3" data-name="Path 3799" transform="translate(-158.713 -109.069)"/>
            <path id="prefix__Path_3800" d="M385 197.262a1.263 1.263 0 0 0 1.262 1.262h8.2a1.262 1.262 0 1 0 0-2.525h-8.2a1.263 1.263 0 0 0-1.262 1.263zm0 0" class="prefix__cls-3" data-name="Path 3800" transform="translate(-304.004 -154.766)"/>
            <path id="prefix__Path_3801" d="M383.888 166.944a1.3 1.3 0 0 0 .314-.04l5.983-1.533a1.263 1.263 0 0 0-.627-2.446l-5.983 1.533a1.263 1.263 0 0 0 .313 2.486zm0 0" class="prefix__cls-3" data-name="Path 3801" transform="translate(-302.128 -128.617)"/>
            <path id="prefix__Path_3802" d="M390.19 221.343l-5.983-1.536a1.263 1.263 0 0 0-.628 2.446l5.983 1.536a1.263 1.263 0 1 0 .628-2.446zm0 0" class="prefix__cls-3" data-name="Path 3802" transform="translate(-302.133 -173.533)"/>
            <path id="prefix__Path_3803" d="M35.262 169.525h7.784a1.262 1.262 0 1 0 0-2.525h-7.784a1.263 1.263 0 0 0 0 2.525zm0 0" class="prefix__cls-3" data-name="Path 3803" transform="translate(-26.847 -131.867)"/>
            <path id="prefix__Path_3804" d="M35.262 199.525h25.877a1.262 1.262 0 1 0 0-2.525H35.262a1.262 1.262 0 0 0 0 2.525zm0 0" class="prefix__cls-3" data-name="Path 3804" transform="translate(-26.847 -155.555)"/>
            <path id="prefix__Path_3805" d="M35.262 227.525h25.877a1.262 1.262 0 1 0 0-2.525H35.262a1.262 1.262 0 1 0 0 2.525zm0 0" class="prefix__cls-3" data-name="Path 3805" transform="translate(-26.847 -177.665)"/>
            <path id="prefix__Path_3806" d="M35.262 256.525h25.877a1.262 1.262 0 1 0 0-2.525H35.262a1.262 1.262 0 0 0 0 2.525zm0 0" class="prefix__cls-3" data-name="Path 3806" transform="translate(-26.847 -200.564)"/>
        </g>
    </g>
</svg>
