<svg xmlns="http://www.w3.org/2000/svg" width="84.776" height="115.604" viewBox="0 0 84.776 115.604">
    <defs>
        <style>
            .prefix__cls-2{fill:#fedac6}.prefix__cls-3{fill:#f5c4b0}.prefix__cls-6{fill:#ebebeb}
        </style>
    </defs>
    <g id="prefix__boy_2_" data-name="boy (2)" transform="translate(-68.267)" style="opacity:.04">
        <path id="prefix__Path_2824" d="M349.867 156.627h1.927a5.78 5.78 0 0 0 5.78-5.78 5.78 5.78 0 0 0-5.78-5.78h-1.927" class="prefix__cls-2" data-name="Path 2824" transform="translate(-218.018 -112.312)"/>
        <path id="prefix__Path_2825" d="M135.707 156.627h-1.927a5.78 5.78 0 0 1-5.78-5.78 5.78 5.78 0 0 1 5.78-5.78h1.927" class="prefix__cls-3" data-name="Path 2825" transform="translate(-46.246 -112.312)"/>
        <path id="prefix__Path_2826" d="M162.133 91.113v15.414l.462 6.011a20.829 20.829 0 0 0 22.531 18.973q.936-.081 1.861-.245a21.2 21.2 0 0 0 17.129-19.518l.4-5.221V91.113l-9.634-5.78z" class="prefix__cls-2" data-name="Path 2826" transform="translate(-72.672 -66.066)"/>
        <path id="prefix__Path_2827" d="M171.767 125.967v-22.543l-9.634 1.7v15.414l.462 6.011a20.731 20.731 0 0 0 18.015 18.844l-3.854-5.01a23.407 23.407 0 0 1-4.989-14.416z" class="prefix__cls-3" data-name="Path 2827" transform="translate(-72.672 -80.072)"/>
        <path id="prefix__Path_2828" d="M168.462 12.387a6.959 6.959 0 0 0-6.243-3.854H128a7.707 7.707 0 0 0 7.707 7.707H128a7.707 7.707 0 0 0 7.707 7.707H128a7.707 7.707 0 0 0 7.707 7.707h7.707c9.248 0 19.017-3.507 25.048-5.78a20.935 20.935 0 0 0 9.634 5.78V22.02a9.634 9.634 0 0 0-9.634-9.633z" data-name="Path 2828" transform="translate(-46.246 -6.606)" style="fill:#a15d30"/>
        <path id="prefix__Path_2829" d="M128.427 80.64a7.705 7.705 0 0 0 7.611 6.84h7.707c6.435 0 19.537-3.988 25.048-5.78-13.835.327-33.893.269-40.366-1.06z" data-name="Path 2829" transform="translate(-46.576 -62.432)" style="fill:#8f4f24"/>
        <g id="prefix__Group_417" data-name="Group 417" transform="translate(89.461 32.755)">
            <path id="prefix__Path_2830" d="M170.8 158.554a8.65 8.65 0 0 1-8.67-8.632v-4.855h17.341v4.817a8.65 8.65 0 0 1-8.632 8.67z" class="prefix__cls-6" data-name="Path 2830" transform="translate(-162.133 -145.067)"/>
            <path id="prefix__Path_2831" d="M281.737 158.554a8.651 8.651 0 0 1-8.67-8.632v-4.855h17.341v4.817a8.651 8.651 0 0 1-8.632 8.67z" class="prefix__cls-6" data-name="Path 2831" transform="translate(-248.019 -145.067)"/>
        </g>
        <path id="prefix__Path_2832" d="M198.126 308.574a17.515 17.515 0 0 0 16.108-10.616l.867-1.927-3.95-.462a3.854 3.854 0 0 1-3.391-3.854V281.6h-19.267v10.058a3.854 3.854 0 0 1-3.391 3.854l-3.854.462.867 1.927a17.516 17.516 0 0 0 16.011 10.673z" class="prefix__cls-2" data-name="Path 2832" transform="translate(-87.471 -218.018)"/>
        <path id="prefix__Path_2833" d="M144.352 346.368l-10.115-1.195-.867 1.927a17.533 17.533 0 0 1-32.215 0l-.867-1.927-10.115 1.195A15.414 15.414 0 0 0 76.8 361.647v21.194h80.923v-21.194a15.415 15.415 0 0 0-13.371-15.279z" data-name="Path 2833" transform="translate(-6.607 -267.236)" style="fill:#3cacde"/>
        <path id="prefix__Path_2834" d="M76.8 372.416v21.194h7.707v-34.527a15.414 15.414 0 0 0-7.707 13.333z" data-name="Path 2834" transform="translate(-6.606 -278.006)" style="fill:#329ac7"/>
        <path id="prefix__Rectangle_1175" d="M0 0H15.414V9.634H0z" class="prefix__cls-2" data-name="Rectangle 1175" transform="translate(70.194 105.971)"/>
        <g id="prefix__Group_418" data-name="Group 418" transform="translate(70.194 63.582)">
            <path id="prefix__Rectangle_1176" d="M0 0H7.707V9.634H0z" class="prefix__cls-3" data-name="Rectangle 1176" transform="translate(0 42.388)"/>
            <path id="prefix__Path_2835" d="M232.6 287.38v-5.78h-19.266v5.78c7.225 3.854 12.042 3.854 19.266 0z" class="prefix__cls-3" data-name="Path 2835" transform="translate(-182.506 -281.6)"/>
        </g>
        <path id="prefix__Rectangle_1177" d="M0 0H15.414V9.634H0z" class="prefix__cls-2" data-name="Rectangle 1177" transform="translate(135.703 105.971)"/>
        <path id="prefix__Path_2836" d="M238.1 161.589h-5.78a1.927 1.927 0 0 1-1.913-2.166l1.927-15.414 3.823.478-1.653 13.248h3.6v3.854z" data-name="Path 2836" transform="translate(-125.521 -111.493)"/>
        <path id="prefix__Path_2837" d="M239.261 231.5h-.328v-3.854h.328a11.176 11.176 0 0 0 7.944-3.291l2.724 2.726a15 15 0 0 1-10.668 4.419z" data-name="Path 2837" transform="translate(-132.131 -173.7)"/>
        <path id="prefix__Path_2838" d="M351.794 151.946h-1.927v-3.854h1.927a3.854 3.854 0 1 0 0-7.707h-1.927v-3.854h1.927a7.707 7.707 0 0 1 0 15.414z" data-name="Path 2838" transform="translate(-218.018 -105.704)"/>
        <path id="prefix__Path_2839" d="M129.1 151.948h-1.927a7.707 7.707 0 0 1 0-15.414h1.927v3.853h-1.927a3.854 3.854 0 1 0 0 7.707h1.927v3.853z" data-name="Path 2839" transform="translate(-39.64 -105.706)"/>
        <path id="prefix__Path_2840" d="M176.7 133.518a22.759 22.759 0 0 1-22.632-20.813l-.464-6.029-.004-15.562h3.854v15.414l.457 5.863a18.931 18.931 0 0 0 20.445 17.2c.568-.048 1.131-.123 1.692-.221a19.255 19.255 0 0 0 15.539-17.739l.407-5.252V85.335h3.854v21.194l-.41 5.37a23.1 23.1 0 0 1-18.684 21.26c-.7.125-1.383.216-2.064.274-.671.056-1.33.085-1.99.085z" data-name="Path 2840" transform="translate(-66.065 -66.066)"/>
        <path id="prefix__Path_2841" d="M171.489 26.974a1.943 1.943 0 0 1-.513-.069 22.843 22.843 0 0 1-9.6-5.4c-7.483 2.775-16.133 5.47-24.564 5.47H129.1a9.645 9.645 0 0 1-9.634-9.634 1.927 1.927 0 0 1 1.927-1.927 9.6 9.6 0 0 1-1.931-5.78 1.927 1.927 0 0 1 1.927-1.927 9.6 9.6 0 0 1-1.931-5.78A1.927 1.927 0 0 1 121.394 0h34.242a8.817 8.817 0 0 1 7.356 3.909 11.577 11.577 0 0 1 10.424 11.5v9.634a1.928 1.928 0 0 1-1.926 1.927zm-47.839-7.707a5.791 5.791 0 0 0 5.451 3.854h7.707c9.368 0 19.5-3.821 24.367-5.657a1.923 1.923 0 0 1 2.077.478 19.033 19.033 0 0 0 6.308 4.4v-6.928a7.715 7.715 0 0 0-7.707-7.707 1.925 1.925 0 0 1-1.724-1.067 5.113 5.113 0 0 0-4.511-2.786H123.65a5.791 5.791 0 0 0 5.45 3.853 1.927 1.927 0 0 1 0 3.853h-5.45a5.791 5.791 0 0 0 5.451 3.854 1.927 1.927 0 0 1 0 3.853h-5.451z" data-name="Path 2841" transform="translate(-39.64)"/>
        <path id="prefix__Path_2842" d="M164.178 153.874a10.578 10.578 0 0 1-10.578-10.555v-4.859a1.927 1.927 0 0 1 1.927-1.927h17.341a1.927 1.927 0 0 1 1.927 1.927v4.817a10.578 10.578 0 0 1-10.555 10.6h-.061zm-6.724-13.487v2.89a6.74 6.74 0 0 0 6.724 6.744h.058a6.731 6.731 0 0 0 6.705-6.74v-2.894z" data-name="Path 2842" transform="translate(-66.066 -105.705)"/>
        <path id="prefix__Path_2843" d="M275.111 153.874a10.592 10.592 0 0 1-10.578-10.555v-4.859a1.926 1.926 0 0 1 1.927-1.927h17.34a1.926 1.926 0 0 1 1.927 1.927v4.817a10.578 10.578 0 0 1-10.555 10.6h-.061zm-6.724-13.487v2.89a6.741 6.741 0 0 0 6.724 6.744h.06a6.723 6.723 0 0 0 6.705-6.738v-2.9z" data-name="Path 2843" transform="translate(-151.951 -105.705)"/>
        <path id="prefix__Rectangle_1178" d="M0 0H7.707V3.854H0z" data-name="Rectangle 1178" transform="translate(106.802 30.828)"/>
        <circle id="prefix__Ellipse_576" cx="3.854" cy="3.854" r="3.854" data-name="Ellipse 576" transform="translate(95.241 32.754)"/>
        <circle id="prefix__Ellipse_577" cx="3.854" cy="3.854" r="3.854" data-name="Ellipse 577" transform="translate(118.362 32.754)"/>
        <path id="prefix__Path_2844" d="M72.12 333.622h-3.853v-21.194a17.4 17.4 0 0 1 15.044-17.189l14.089-1.661a1.924 1.924 0 0 0 1.69-1.927V281.6h3.854v10.038a5.773 5.773 0 0 1-5.087 5.767l-14.071 1.657a13.523 13.523 0 0 0-11.67 13.366v21.194z" data-name="Path 2844" transform="translate(0 -218.018)"/>
        <path id="prefix__Path_2845" d="M324.813 333.622h-3.853v-21.194a13.533 13.533 0 0 0-11.7-13.35l-14.034-1.653a5.779 5.779 0 0 1-5.092-5.782V281.6h3.854v10.058a1.926 1.926 0 0 0 1.7 1.94l14.06 1.657a17.407 17.407 0 0 1 15.073 17.171z" data-name="Path 2845" transform="translate(-171.77 -218.018)"/>
        <path id="prefix__Path_2846" d="M190.479 354.144h-.021a19.413 19.413 0 0 1-17.867-11.784l-1.233-2.869 3.541-1.52 1.233 2.871a15.57 15.57 0 0 0 14.327 9.449h.017a15.573 15.573 0 0 0 14.329-9.449l1.233-2.871 3.541 1.52-1.233 2.871a19.418 19.418 0 0 1-17.867 11.782z" data-name="Path 2846" transform="translate(-79.814 -261.661)"/>
        <path id="prefix__Rectangle_1179" d="M0 0H3.854V15.414H0z" data-name="Rectangle 1179" transform="translate(83.681 100.19)"/>
        <path id="prefix__Rectangle_1180" d="M0 0H15.414V3.854H0z" data-name="Rectangle 1180" transform="translate(70.194 104.044)"/>
        <path id="prefix__Rectangle_1181" d="M0 0H3.854V15.414H0z" data-name="Rectangle 1181" transform="translate(133.776 100.19)"/>
        <path id="prefix__Rectangle_1182" d="M0 0H15.414V3.854H0z" data-name="Rectangle 1182" transform="translate(135.703 104.044)"/>
    </g>
</svg>
