<svg xmlns="http://www.w3.org/2000/svg" width="99.222" height="99.222" viewBox="0 0 99.222 99.222">
    <defs>
        <style>
            .prefix__cls-1{fill:#ec3f78}.prefix__cls-4{fill:#faa1be}.prefix__cls-5{fill:#ffc477}
        </style>
    </defs>
    <g id="prefix__Sell_ticket" data-name="Sell ticket" transform="translate(-2 -2)">
        <path id="prefix__Path_3807" d="M95.6 41a3.307 3.307 0 0 1 0 6.614H6.307a3.307 3.307 0 1 1 0-6.614z" class="prefix__cls-1" data-name="Path 3807" transform="translate(.654 25.491)"/>
        <path id="prefix__Path_3808" d="M95.6 57a3.307 3.307 0 0 1 0 6.614H6.307a3.307 3.307 0 1 1 0-6.614z" class="prefix__cls-1" data-name="Path 3808" transform="translate(.654 35.949)"/>
        <path id="prefix__Path_3809" d="M7 45h82.681v19.843H7z" data-name="Path 3809" transform="translate(3.268 28.105)" style="fill:#e7ecee"/>
        <path id="prefix__Path_3810" d="M48.34 65.837h-8.268v-9.921a9.922 9.922 0 0 0-9.922-9.922H28.5a6.6 6.6 0 0 0 5.721-9.922h.893v-3.307a3.317 3.317 0 0 0-3.314-3.307h-6.61a3.317 3.317 0 0 0-3.307 3.307v3.307h.893a6.6 6.6 0 0 0 5.724 9.922h-1.657a9.922 9.922 0 0 0-9.922 9.922v9.922H7V6.307A3.317 3.317 0 0 1 10.307 3h76.066a3.317 3.317 0 0 1 3.307 3.307v59.53h-9.921v-9.921a9.922 9.922 0 0 0-9.922-9.922h-1.653a6.6 6.6 0 0 0 5.721-9.922h.895v-3.307a3.317 3.317 0 0 0-3.307-3.307h-6.617a3.317 3.317 0 0 0-3.307 3.307v3.307h.893a6.6 6.6 0 0 0 5.722 9.922H66.53a9.922 9.922 0 0 0-9.922 9.922v9.922zm34.726-42.994V9.614H13.614v13.229z" data-name="Path 3810" transform="translate(3.268 .654)" style="fill:#fff"/>
        <path id="prefix__Path_3811" d="M11 7h69.452v13.229H11z" class="prefix__cls-1" data-name="Path 3811" transform="translate(5.883 3.268)"/>
        <path id="prefix__Path_3812" d="M48.575 29h1.654a9.922 9.922 0 0 1 9.922 9.922v9.922H37v-9.922A9.922 9.922 0 0 1 46.922 29z" class="prefix__cls-4" data-name="Path 3812" transform="translate(22.876 17.648)"/>
        <path id="prefix__Path_3813" d="M53.229 22.307v3.307H40v-3.307A3.317 3.317 0 0 1 43.307 19h6.614a3.317 3.317 0 0 1 3.307 3.307z" class="prefix__cls-4" data-name="Path 3813" transform="translate(24.837 11.111)"/>
        <path id="prefix__Path_3814" d="M52.336 23a6.614 6.614 0 1 1-11.443 0z" class="prefix__cls-5" data-name="Path 3814" transform="translate(24.837 13.726)"/>
        <path id="prefix__Path_3815" d="M24.575 29h1.654a9.922 9.922 0 0 1 9.922 9.922v9.922H13v-9.922A9.922 9.922 0 0 1 22.922 29z" class="prefix__cls-4" data-name="Path 3815" transform="translate(7.19 17.648)"/>
        <path id="prefix__Path_3816" d="M29.229 22.307v3.307H16v-3.307A3.317 3.317 0 0 1 19.307 19h6.614a3.317 3.317 0 0 1 3.307 3.307z" class="prefix__cls-4" data-name="Path 3816" transform="translate(9.151 11.111)"/>
        <path id="prefix__Path_3817" d="M28.336 23a6.614 6.614 0 1 1-11.443 0z" class="prefix__cls-5" data-name="Path 3817" transform="translate(9.15 13.726)"/>
        <path id="prefix__Path_3818" d="M96.256 91.3H94.6V74.759h1.654a4.961 4.961 0 0 0 0-9.922H94.6V6.961A4.961 4.961 0 0 0 89.641 2H13.575a4.961 4.961 0 0 0-4.961 4.961v57.876H6.961a4.961 4.961 0 1 0 0 9.922h1.653V91.3H6.961a4.961 4.961 0 0 0 0 9.922h89.3a4.961 4.961 0 1 0 0-9.922zM11.922 6.961a1.654 1.654 0 0 1 1.654-1.654h76.065A1.654 1.654 0 0 1 91.3 6.961v57.876h-6.619v-8.268a11.587 11.587 0 0 0-7.33-10.758 8.141 8.141 0 0 0 2.017-8.111 1.617 1.617 0 0 0 .352-.974v-3.307a4.961 4.961 0 0 0-4.961-4.961h-6.614a4.961 4.961 0 0 0-4.961 4.961v3.307a1.617 1.617 0 0 0 .352.974 8.141 8.141 0 0 0 2.017 8.111 11.587 11.587 0 0 0-7.33 10.758v8.268h-4.961V46.648h-3.307v18.19h-4.961v-8.269a11.587 11.587 0 0 0-7.33-10.758 8.141 8.141 0 0 0 2.017-8.111 1.617 1.617 0 0 0 .352-.974v-3.307a4.961 4.961 0 0 0-4.961-4.961h-6.614a4.961 4.961 0 0 0-4.958 4.961v3.307a1.617 1.617 0 0 0 .352.974 8.141 8.141 0 0 0 2.017 8.111 11.587 11.587 0 0 0-7.33 10.758v8.268h-6.617zm64.491 28.111h-9.922v-1.653a1.654 1.654 0 0 1 1.654-1.654h6.614a1.654 1.654 0 0 1 1.654 1.654zm-9.591 3.307h9.26a4.838 4.838 0 0 1 .331 1.654 4.961 4.961 0 0 1-9.922 0 4.839 4.839 0 0 1 .331-1.654zM69.8 48.3v11.576h3.307V48.3a8.278 8.278 0 0 1 8.268 8.268v8.268H61.53v-8.267A8.278 8.278 0 0 1 69.8 48.3zM36.726 35.072H26.8v-1.653a1.654 1.654 0 0 1 1.654-1.654h6.614a1.654 1.654 0 0 1 1.654 1.654zm-9.591 3.307H36.4a4.838 4.838 0 0 1 .331 1.654 4.961 4.961 0 0 1-9.922 0 4.838 4.838 0 0 1 .331-1.654zm2.976 9.921v11.576h3.307V48.3a8.278 8.278 0 0 1 8.268 8.268v8.268H21.843v-8.267a8.278 8.278 0 0 1 8.268-8.269zM5.307 69.8a1.654 1.654 0 0 1 1.654-1.654h89.3a1.654 1.654 0 0 1 0 3.307h-89.3A1.654 1.654 0 0 1 5.307 69.8zm6.614 4.961H91.3V91.3H11.922zM96.256 97.91H6.961a1.654 1.654 0 1 1 0-3.307h89.3a1.654 1.654 0 0 1 0 3.307z" data-name="Path 3818"/>
        <path id="prefix__Path_3819" d="M81.105 22.536a1.654 1.654 0 0 0 1.654-1.654V7.654A1.654 1.654 0 0 0 81.105 6H11.654A1.654 1.654 0 0 0 10 7.654v13.229a1.654 1.654 0 0 0 1.654 1.654zM13.307 9.307h66.145v9.922H13.307z" data-name="Path 3819" transform="translate(5.229 2.614)"/>
    </g>
</svg>
