<svg xmlns="http://www.w3.org/2000/svg" width="115.507" height="84.447" viewBox="0 0 115.507 84.447">
    <defs>
        <style>
            .prefix__cls-1{fill:#ec3f78}.prefix__cls-2{fill:#e7ecee}.prefix__cls-3{fill:#cf2d62}.prefix__cls-4{fill:#e5eaed}
        </style>
    </defs>
    <g id="prefix__coupon_1_" data-name="coupon (1)" transform="rotate(-14.98 -310.723 67.627)">
        <path id="prefix__Path_3764" d="M424.722 195.992v40.473h-18.213l-2.024-2.024v-36.425l2.024-2.024z" class="prefix__cls-1" data-name="Path 3764" transform="translate(-322.64 -69.803)"/>
        <path id="prefix__Path_3765" d="M87.829 224.323v10.118l-2.024 2.024H7.5v-40.473h78.3l2.024 2.024v26.308z" class="prefix__cls-2" data-name="Path 3765" transform="translate(-5.984 -69.803)"/>
        <path id="prefix__Path_3766" d="M424.722 155.987v40.474h-18.213l-2.024-2.024v-36.426l2.024-2.024z" class="prefix__cls-1" data-name="Path 3766" transform="translate(-322.64 -37.893)"/>
        <path id="prefix__Path_3767" d="M87.829 184.318v10.118l-2.024 2.024H7.5v-40.473h78.3l2.024 2.024v26.308z" class="prefix__cls-2" data-name="Path 3767" transform="translate(-5.984 -37.893)"/>
        <path id="prefix__Path_3768" d="M424.722 115.983v40.473h-18.213l-2.024-2.024v-36.425l2.024-2.024z" class="prefix__cls-1" data-name="Path 3768" transform="translate(-322.64 -5.983)"/>
        <path id="prefix__Path_3769" d="M87.829 144.314v10.119l-2.024 2.024H7.5v-40.474h78.3l2.024 2.024v26.308z" class="prefix__cls-2" data-name="Path 3769" transform="translate(-5.984 -5.983)"/>
        <path id="prefix__Rectangle_2583" d="M0 0h6.071v40.473H0z" class="prefix__cls-3" data-name="Rectangle 2583" transform="translate(96.011 110)"/>
        <path id="prefix__Rectangle_2584" d="M0 0h6.071v8.1H0z" class="prefix__cls-3" data-name="Rectangle 2584" transform="translate(96.011 150.473)"/>
        <path id="prefix__Rectangle_2585" d="M0 0h6.071v8.1H0z" class="prefix__cls-3" data-name="Rectangle 2585" transform="translate(96.011 158.568)"/>
        <g id="prefix__Group_2556" data-name="Group 2556" transform="translate(11.636 120.118)">
            <circle id="prefix__Ellipse_765" cx="4.047" cy="4.047" r="4.047" class="prefix__cls-4" data-name="Ellipse 765"/>
            <circle id="prefix__Ellipse_766" cx="4.047" cy="4.047" r="4.047" class="prefix__cls-4" data-name="Ellipse 766" transform="translate(14.166 14.166)"/>
        </g>
        <path id="prefix__Path_3770" d="M102.082 108.482H83.869a1.519 1.519 0 0 0-1.073.445l-.95.951-.95-.951a1.518 1.518 0 0 0-1.073-.445H1.518A1.518 1.518 0 0 0 0 110v56.662a1.518 1.518 0 0 0 1.518 1.518h78.3a1.518 1.518 0 0 0 1.073-.445l.951-.951.951.951a1.518 1.518 0 0 0 1.073.445h18.213a1.518 1.518 0 0 0 1.518-1.518V110a1.518 1.518 0 0 0-1.515-1.518zM3.036 151.991h76.785a1.518 1.518 0 0 0 1.073-.445l.951-.951.95.951a1.518 1.518 0 0 0 1.073.445h16.7v5.059H84.5l-1.579-1.579a1.518 1.518 0 0 0-2.147 0l-1.579 1.579H3.036zm0-40.474h76.157l1.579 1.579a1.518 1.518 0 0 0 2.147 0l1.579-1.579h16.066v37.438H84.5l-1.579-1.579a1.518 1.518 0 0 0-2.147 0l-1.579 1.579H3.036zM84.5 165.145l-1.579-1.579a1.518 1.518 0 0 0-2.147 0l-1.579 1.579H3.036v-5.059h76.785a1.518 1.518 0 0 0 1.073-.445l.951-.951.951.951a1.518 1.518 0 0 0 1.073.445h16.7v5.059z" data-name="Path 3770"/>
        <path id="prefix__Path_3771" d="M398.5 255.582a1.518 1.518 0 0 0 1.518-1.518v-4.047a1.518 1.518 0 0 0-3.036 0v4.047a1.518 1.518 0 0 0 1.518 1.518z" data-name="Path 3771" transform="translate(-316.659 -111.686)"/>
        <path id="prefix__Path_3772" d="M398.5 205.577a1.518 1.518 0 0 0 1.518-1.518v-4.047a1.518 1.518 0 0 0-3.036 0v4.047a1.518 1.518 0 0 0 1.518 1.518z" data-name="Path 3772" transform="translate(-316.659 -71.799)"/>
        <path id="prefix__Path_3773" d="M398.5 155.572a1.518 1.518 0 0 0 1.518-1.518v-4.047a1.518 1.518 0 0 0-3.036 0v4.047a1.518 1.518 0 0 0 1.518 1.518z" data-name="Path 3773" transform="translate(-316.659 -31.912)"/>
        <path id="prefix__Path_3774" d="M448.51 175.808a1.518 1.518 0 0 0 1.518-1.518v-24.284a1.518 1.518 0 0 0-3.036 0v24.284a1.518 1.518 0 0 0 1.518 1.518z" data-name="Path 3774" transform="translate(-356.546 -31.911)"/>
        <path id="prefix__Path_3775" d="M55.574 169.621a5.565 5.565 0 1 0-5.565-5.565 5.565 5.565 0 0 0 5.565 5.565zm0-8.1a2.53 2.53 0 1 1-2.53 2.53 2.53 2.53 0 0 1 2.53-2.53z" data-name="Path 3775" transform="translate(-39.89 -39.89)"/>
        <path id="prefix__Path_3776" d="M125.58 228.5a5.565 5.565 0 1 0 5.565 5.565 5.565 5.565 0 0 0-5.565-5.565zm0 8.1a2.53 2.53 0 1 1 2.53-2.53 2.53 2.53 0 0 1-2.53 2.53z" data-name="Path 3776" transform="translate(-95.731 -95.73)"/>
        <path id="prefix__Path_3777" d="M72.713 158.934l-22.26 22.26a1.518 1.518 0 1 0 2.147 2.146l22.26-22.26a1.518 1.518 0 0 0-2.146-2.146z" data-name="Path 3777" transform="translate(-39.889 -39.889)"/>
        <path id="prefix__Path_3778" d="M249.332 178.493h-24.284a1.518 1.518 0 1 0 0 3.036h24.284a1.518 1.518 0 0 0 0-3.036z" data-name="Path 3778" transform="translate(-178.3 -55.845)"/>
        <path id="prefix__Path_3779" d="M249.332 208.5h-24.284a1.518 1.518 0 1 0 0 3.036h24.284a1.518 1.518 0 0 0 0-3.036z" data-name="Path 3779" transform="translate(-178.3 -79.778)"/>
        <path id="prefix__Path_3780" d="M237.188 238.5h-12.14a1.518 1.518 0 1 0 0 3.036h12.141a1.518 1.518 0 1 0 0-3.036z" data-name="Path 3780" transform="translate(-178.3 -103.71)"/>
    </g>
</svg>
