<svg xmlns="http://www.w3.org/2000/svg" width="36" height="36" viewBox="0 0 36 36">
    <defs>
        <style>
            .cls-1{fill:#fff;stroke:#707070}.cls-2{clip-path:url(#clip-path)}.cls-3{fill:#475993}
        </style>
        <clipPath id="clip-path">
            <rect id="Rectangle_1909" width="36" height="36" class="cls-1" data-name="Rectangle 1909" rx="4" transform="translate(34 125)"/>
        </clipPath>
    </defs>
    <g id="Mask_Group_74" class="cls-2" data-name="Mask Group 74" transform="translate(-34 -125)">
        <path id="facebook_1_" d="M31.149 0H4.851A4.851 4.851 0 0 0 0 4.851v26.3A4.851 4.851 0 0 0 4.851 36h12.97l.022-12.864H14.5a.789.789 0 0 1-.789-.786L13.7 18.2a.789.789 0 0 1 .789-.792h3.336V13.4c0-4.65 2.84-7.182 6.988-7.182h3.4a.789.789 0 0 1 .787.794v3.5a.789.789 0 0 1-.788.789h-2.088c-2.256 0-2.693 1.072-2.693 2.645v3.469h4.957a.789.789 0 0 1 .783.881l-.491 4.144a.789.789 0 0 1-.783.7h-4.443L23.432 36h7.717A4.851 4.851 0 0 0 36 31.149V4.851A4.851 4.851 0 0 0 31.149 0z" class="cls-3" data-name="facebook (1)" transform="translate(34 125)"/>
    </g>
</svg>
