<svg xmlns="http://www.w3.org/2000/svg" width="36" height="36" viewBox="0 0 36 36">
    <defs>
        <style>
            .cls-1{fill:#fff}.cls-2{clip-path:url(#clip-path)}.cls-3{fill:#50abf1}
        </style>
        <clipPath id="clip-path">
            <rect id="Rectangle_2173" width="36" height="36" class="cls-1" data-name="Rectangle 2173" rx="4" transform="translate(358 428)"/>
        </clipPath>
    </defs>
    <g id="Mask_Group_119" class="cls-2" data-name="Mask Group 119" transform="translate(-358 -428)">
        <g id="twitter_1_" data-name="twitter (1)" transform="translate(358 428)">
            <path id="Rectangle_2174" d="M0 0h36v36H0z" class="cls-3" data-name="Rectangle 2174"/>
            <path id="Path_2940" d="M4.769 26.686a15.5 15.5 0 0 0 23.782-13.1q0-.321-.013-.637a12.178 12.178 0 0 0 2.694-2.765 12.57 12.57 0 0 1-3.077.8h-.01l.008-.005c.14-.094 2.1-1.428 2.366-3.018a18.878 18.878 0 0 1-2.64 1.1 16.22 16.22 0 0 1-.8.245 5.438 5.438 0 0 0-9.267 4.946A16.375 16.375 0 0 1 6.656 8.611s-2.6 3.548 1.549 7.2a5.587 5.587 0 0 1-2.349-.7 5.168 5.168 0 0 0 4.3 5.4 4.975 4.975 0 0 1-2.4.1 5.36 5.36 0 0 0 5 3.8 10.444 10.444 0 0 1-7.985 2.282z" class="cls-1" data-name="Path 2940"/>
        </g>
    </g>
</svg>
