<svg xmlns="http://www.w3.org/2000/svg" xmlns:xlink="http://www.w3.org/1999/xlink" width="444" height="444" viewBox="0 0 444 444">
  <defs>
    <filter id="Rectangle_1778" x="0" y="0" width="444" height="444" filterUnits="userSpaceOnUse">
      <feOffset dy="13" input="SourceAlpha"/>
      <feGaussianBlur stdDeviation="24" result="blur"/>
      <feFlood flood-opacity="0.161"/>
      <feComposite operator="in" in2="blur"/>
      <feComposite in="SourceGraphic"/>
    </filter>
  </defs>
  <g id="Group_697" data-name="Group 697" transform="translate(-6 -1942)">
    <g transform="matrix(1, 0, 0, 1, 6, 1942)" filter="url(#Rectangle_1778)">
      <rect id="Rectangle_1778-2" data-name="Rectangle 1778" width="300" height="300" rx="29" transform="translate(72 59)" fill="#fff"/>
    </g>
    <g id="Group_716" data-name="Group 716">
      <rect id="Rectangle_1857" data-name="Rectangle 1857" width="269" height="269" rx="21" transform="translate(95 2018)" fill="#ffbd5c" opacity="0.2"/>
      <g id="Group_715" data-name="Group 715" transform="translate(125.202 2071.633)">
        <path id="Path_4267" data-name="Path 4267" d="M344.547,215.237A57.07,57.07,0,1,1,384.9,198.521,57.07,57.07,0,0,1,344.547,215.237Zm0-113.768a56.7,56.7,0,1,0,56.7,56.7,56.762,56.762,0,0,0-56.7-56.7Z" transform="translate(-241.375 -85.365)" fill="#3f3d56"/>
        <path id="Path_4268" data-name="Path 4268" d="M594.76,646.969a12.557,12.557,0,0,1-4.677,6.326,10.811,10.811,0,0,1,3.827-14.147A12.558,12.558,0,0,1,594.76,646.969Z" transform="translate(-486.781 -523.4)" fill="#ffbd5c"/>
        <path id="Path_4269" data-name="Path 4269" d="M567.243,646.969a12.556,12.556,0,0,0,4.677,6.326,10.811,10.811,0,0,0-3.827-14.147A12.558,12.558,0,0,0,567.243,646.969Z" transform="translate(-468.879 -523.4)" fill="#ffbd5c"/>
        <path id="Path_4270" data-name="Path 4270" d="M545.255,663.3a12.556,12.556,0,0,1,3.254,7.162,10.811,10.811,0,0,1-10.5-10.223A12.556,12.556,0,0,1,545.255,663.3Z" transform="translate(-445.338 -540.573)" fill="#3f3d56"/>
        <path id="Path_4271" data-name="Path 4271" d="M597.754,663.3a12.557,12.557,0,0,0-3.254,7.162A10.811,10.811,0,0,0,605,660.242,12.557,12.557,0,0,0,597.754,663.3Z" transform="translate(-491.328 -540.573)" fill="#3f3d56"/>
        <path id="Path_4272" data-name="Path 4272" d="M567.243,108.474a12.557,12.557,0,0,1,4.677-6.326,12.557,12.557,0,0,1,.85,7.821,12.556,12.556,0,0,1-4.677,6.326A12.557,12.557,0,0,1,567.243,108.474Z" transform="translate(-468.879 -86.226)" fill="#ffbd5c"/>
        <path id="Path_4273" data-name="Path 4273" d="M594.76,108.474a12.557,12.557,0,0,0-4.677-6.326,12.557,12.557,0,0,0-.849,7.821,12.557,12.557,0,0,0,4.677,6.326A12.557,12.557,0,0,0,594.76,108.474Z" transform="translate(-486.781 -86.226)" fill="#ffbd5c"/>
        <path id="Path_4274" data-name="Path 4274" d="M597.754,109.329a12.557,12.557,0,0,1-3.254-7.163A10.811,10.811,0,0,1,605,112.389,12.557,12.557,0,0,1,597.754,109.329Z" transform="translate(-491.328 -86.24)" fill="#3f3d56"/>
        <path id="Path_4275" data-name="Path 4275" d="M545.255,109.329a12.556,12.556,0,0,0,3.254-7.163,10.811,10.811,0,0,0-10.5,10.223A12.557,12.557,0,0,0,545.255,109.329Z" transform="translate(-445.338 -86.24)" fill="#3f3d56"/>
        <path id="Path_4315" data-name="Path 4315" d="M0,0H73.885V75.133H0Z" transform="translate(2.719 2.357)" fill="#ffbd5c"/>
        <path id="Path_4276" data-name="Path 4276" d="M92.484,22.935H22.935V93.283h3.731V26.932H92.484Z" transform="translate(-18.671 -18.671)" fill="#3f3d56"/>
        <path id="Path_4277" data-name="Path 4277" d="M92.484,22.935H22.935V93.283h3.731V26.932H92.484Z" transform="translate(-18.671 -18.671)" opacity="0.3"/>
        <path id="Path_4278" data-name="Path 4278" d="M98.163,44.437H43V54.03H95.231v56.758h13.59V44.437Z" transform="translate(-35.009 -36.176)" opacity="0.1"/>
        <path id="Path_4279" data-name="Path 4279" d="M39.5,16.495V95.37h78.076V16.495Zm73.812,74.612H43.764V20.758h69.549Z" transform="translate(-39.5 -16.495)" fill="#3f3d56"/>
        <path id="Path_4280" data-name="Path 4280" d="M317.822,456.438s3.53,6.84,5.516,8.385-3.2,3.42-3.2,3.42l-6.068-9.488Z" transform="translate(-263.03 -374.655)" fill="#a0616a"/>
        <path id="Path_4281" data-name="Path 4281" d="M189.156,366.821s16.439,4.3,17.873,7.171,5.847,9.819,5.847,9.819L206.367,389l-6.4-9.6-17.652-7.944Z" transform="translate(-155.767 -301.697)" fill="#2f2e41"/>
        <path id="Path_4282" data-name="Path 4282" d="M327.318,496.571s-1.545-1.324-1.986-.441-1.765,5.406-1.765,5.406,1.876,1.765,5.737.662a2.415,2.415,0,0,1,2.538,0c1.545.772,7.282-.772,7.061-3.31s-6.068-2.317-6.068-2.317-2.463-2.759-2.776-1.711.128,1.159.128,1.159S328.2,498.116,327.318,496.571Z" transform="translate(-270.76 -405.741)" fill="#2f2e41"/>
        <path id="Path_4283" data-name="Path 4283" d="M237.426,492.641l-1.1,9.267h5.406s-.441-7.171-.331-8.054S237.426,492.641,237.426,492.641Z" transform="translate(-199.735 -404.128)" fill="#a0616a"/>
        <path id="Path_4284" data-name="Path 4284" d="M250.179,382.845s2.979,4.413,1.214,4.744-3.2-4.744-3.2-4.744Z" transform="translate(-209.398 -314.742)" fill="#a0616a"/>
        <path id="Path_4285" data-name="Path 4285" d="M136.712,376.606s-2.207,6.509,6.509,8.275,11.364,3.2,11.364,3.2l1.1,11.253,7.613.441s3.641-17.1-1.1-19.307-14.784-4.744-14.784-4.744Z" transform="translate(-118.438 -308.944)" fill="#2f2e41"/>
        <path id="Path_4286" data-name="Path 4286" d="M227.309,522.557a13.923,13.923,0,0,1,1.765-.772s.97-2.237,2.747-2l3.873,5.642s5.847,4.193,1.765,5.3a15.087,15.087,0,0,1-7.282.221l-1.655-1.214s.221-1.214-1.214-.993c0,0-2.979-1.214-2.868-2.1s2.454-4.724,2.454-4.724Z" transform="translate(-190.059 -426.211)" fill="#2f2e41"/>
        <circle id="Ellipse_1053" data-name="Ellipse 1053" cx="4.413" cy="4.413" r="4.413" transform="translate(33.775 37.377)" fill="#a0616a"/>
        <path id="Path_4287" data-name="Path 4287" d="M204.468,233.878s-3.972,2.869-4.744,2.979,3.641,5.516,3.641,5.516,2.1-3.42,3.42-3.861S204.468,233.878,204.468,233.878Z" transform="translate(-169.865 -193.468)" fill="#a0616a"/>
        <path id="Path_4288" data-name="Path 4288" d="M149.154,243.8s-1.655-2.207-2.648-2.207-9.929.993-10.7,8.385-.331,20.3-.331,20.3-.662-3.2,6.73-1.876c0,0,8.826-1.875,10.371-1.875s2.207-15.777,2.207-15.777l-2.512-3.895S151.14,248.985,149.154,243.8Z" transform="translate(-117.53 -199.748)" fill="#d0cde1"/>
        <path id="Path_4289" data-name="Path 4289" d="M225.667,286.105l1.655.883,1.986,12.136,2.758,6.289s-2.979-1.026-3.2.2l-4.413-6.383Z" transform="translate(-190.072 -235.986)" fill="#d0cde1"/>
        <path id="Path_4290" data-name="Path 4290" d="M224.429,204.232l2.4.3c-.046.489-.033,1.094.4,1.325.2.109.462.1.642.247.434.346.009,1.09.254,1.588l.7.186a1.357,1.357,0,0,0,1.844.553,2.633,2.633,0,0,0,.925-1.332,3.374,3.374,0,0,0,.386-1.9c-.136-.693-.7-1.269-.728-1.975-.011-.316.055-.71-.211-.88a1.127,1.127,0,0,0-.389-.1c-.613-.128-.955-.763-1.412-1.191-.959-.9-2.431-.874-3.741-.8a3.322,3.322,0,0,0-1.1.192,3.208,3.208,0,0,0-1.037.827,10.839,10.839,0,0,0-1.851,2.452,4.352,4.352,0,0,0-.44,2.985c-.025-.1.81-.723.913-.824a2.164,2.164,0,0,0,.532-.83C222.928,204.205,223.5,204.116,224.429,204.232Z" transform="translate(-187.233 -166.062)" fill="#2f2e41"/>
        <path id="Path_4291" data-name="Path 4291" d="M162.1,281.777l.331,7.723,4.907,5.755-4.466-6.417Z" transform="translate(-131.97 -229.396)" opacity="0.1"/>
        <path id="Path_4292" data-name="Path 4292" d="M114.625,293.054l3.861,8.937,4.965,4.082-5.3-3.641Z" transform="translate(-93.317 -238.577)" opacity="0.1"/>
        <path id="Path_4293" data-name="Path 4293" d="M249.7,348.208l2.333,1.6a.644.644,0,0,1,.178.793l-.312.644.072.05-.355.732-.072-.05-2.57,5.3a.5.5,0,0,1-.74.236l-2.193-1.508a.741.741,0,0,1-.2-.911l3.245-6.7a.416.416,0,0,1,.618-.2Z" transform="translate(-207.417 -286.487)" fill="#3f3d56"/>
        <path id="Path_4294" data-name="Path 4294" d="M207.976,339.18l2.511,1.728,3.276-6.76-2.511-1.728Z" transform="translate(-169.314 -270.625)" fill="#fff"/>
        <path id="Path_4295" data-name="Path 4295" d="M233.5,377.276s4.376,3.033,2.851,3.981-4.7-3.261-4.7-3.261Z" transform="translate(-195.934 -310.208)" fill="#a0616a"/>
        <path id="Path_4296" data-name="Path 4296" d="M152.443,256.431s-5.737,1.655-4.082,6.73c.4,1.224.882,2.538,1.385,3.828,1.581,4.056,3.36,7.867,3.36,7.867l4.987,4.509,6.708,1.89.772-.662s.221-2.1-.772-2.317a12.262,12.262,0,0,1-2.537-1.1l-3.972-5.847S158.18,256.762,152.443,256.431Z" transform="translate(-127.88 -211.828)" fill="#d0cde1"/>
        <path id="Path_4314" data-name="Path 4314" d="M0,0H72.126V73.344H0Z" transform="translate(205.734 131.504) rotate(180)" fill="#ffbd5c"/>
        <path id="Path_4297" data-name="Path 4297" d="M733.389,322.881h67.893v68.673H797.64V326.783H733.389Z" transform="translate(-597.056 -262.859)" fill="#3f3d56"/>
        <path id="Path_4298" data-name="Path 4298" d="M733.389,322.881h67.893v68.673H797.64V326.783H733.389Z" transform="translate(-597.056 -262.859)" opacity="0.3"/>
        <path id="Path_4299" data-name="Path 4299" d="M743.794,343.871H797.64v9.364H746.655v55.407H733.389V343.871Z" transform="translate(-597.056 -279.947)" opacity="0.1"/>
        <path id="Path_4300" data-name="Path 4300" d="M750.5,316.987v77h76.217v-77Zm4.162,4.162h67.893v68.673H754.662Z" transform="translate(-618.328 -261.127)" fill="#3f3d56"/>
        <path id="Path_4301" data-name="Path 4301" d="M934.613,499.507a6.375,6.375,0,0,0-4.888-2.9s-3.164-.4-5.194,3.819c-1.892,3.937-4.5,7.738-.42,8.659l.737-2.3.457,2.466a15.994,15.994,0,0,0,1.747.03c4.372-.141,8.536.041,8.4-1.528C935.275,505.671,936.192,502.176,934.613,499.507Z" transform="translate(-757.905 -407.346)" fill="#2f2e41"/>
        <path id="Path_4302" data-name="Path 4302" d="M885.427,610.122l-.346,6.215,10.128,1.036.345-6.446-3.453-2.187Z" transform="translate(-720.549 -495.579)" fill="#a0616a"/>
        <path id="Path_4303" data-name="Path 4303" d="M916.355,662.658c-.3-2.936-12.362-4.269-15.26-4.547l-1.084-.632-.345-3.683s-10.7-.921-11.51-1.036-1.5,1.381-1.5,1.726a8.186,8.186,0,0,1-.755,3.088c-1.306,1.049-5.287,4.351-5.287,5.6,0,1.5,3.165,20.314,3.165,20.314l.345,3.913,3.223.576-.23-12.2s1.151-7.021-.46-8.977V666s4.726-1.231,6.392-2.572a6.622,6.622,0,0,1,2.588-.137c.1.06.221.123.353.186a.536.536,0,0,1,.048.049l.013-.02c2.155,1.009,7.682,2.281,9.943,1.919a7.912,7.912,0,0,1,5.064.921c-1.266,1.611-.345,6.215-.345,6.215l.115,9.9,1.611,1.957h2.187V679S916.7,666,916.355,662.658Z" transform="translate(-724.258 -534.476)" fill="#2f2e41"/>
        <circle id="Ellipse_1054" data-name="Ellipse 1054" cx="3.798" cy="3.798" r="3.798" transform="translate(167.007 92.157)" fill="#a0616a"/>
        <path id="Path_4304" data-name="Path 4304" d="M932.836,545.676s.575,2.532-.23,2.762a10.886,10.886,0,0,0-1.841.806l-.921,2.992v2.992l11.164,1.266.345-1.036v-1.5l-1.266-2.3-.575-.575s-2.532-2.762-1.957-5.409Z" transform="translate(-764.333 -447.304)" fill="#a0616a"/>
        <path id="Path_4305" data-name="Path 4305" d="M987.4,594.9a31.489,31.489,0,0,1,0,5.87,25.5,25.5,0,0,0-.23,4.6l-2.532-.46V598.7l.576-3.338Z" transform="translate(-808.941 -487.376)" fill="#a0616a"/>
        <circle id="Ellipse_1055" data-name="Ellipse 1055" cx="2.348" cy="2.348" r="2.348" transform="translate(169.869 86.925)" fill="#2f2e41"/>
        <path id="Path_4306" data-name="Path 4306" d="M949.793,483.121a2.348,2.348,0,0,1,2.1-2.335,2.4,2.4,0,0,0-.247-.013,2.348,2.348,0,0,0,0,4.7,2.39,2.39,0,0,0,.247-.013A2.348,2.348,0,0,1,949.793,483.121Z" transform="translate(-780.172 -394.466)" fill="#2f2e41"/>
        <path id="Path_4307" data-name="Path 4307" d="M909.208,486.972,906,485.292l-4.43.688-.917,4.048,2.281-.088.637-1.487v1.463l1.053-.041.611-2.368.382,2.521,3.743-.076Z" transform="translate(-733.227 -395.079)" fill="#2f2e41"/>
        <path id="Path_4308" data-name="Path 4308" d="M894.737,818.356s1.633.769,2.114,1.057,2.4-.288,2.017,1.441a8.334,8.334,0,0,1-2.017,3.363s-.769.865-.769,1.441-1.921,5-4.227,4.8a2.074,2.074,0,0,1-1.921-2.5l.48-2.5s.961-4.227,1.153-4.131a4.2,4.2,0,0,1,.672.769A4.261,4.261,0,0,0,894.737,818.356Z" transform="translate(-731.823 -669.294)" fill="#d0cde1"/>
        <path id="Path_4309" data-name="Path 4309" d="M1026.418,802.877s-1.633.769-2.114,1.057-2.4-.288-2.017,1.441a8.332,8.332,0,0,0,2.017,3.362s.768.865.768,1.441,1.922,5,4.227,4.8a2.074,2.074,0,0,0,1.922-2.5l-.48-2.5s-.961-4.227-1.153-4.131a4.192,4.192,0,0,0-.673.768A4.262,4.262,0,0,1,1026.418,802.877Z" transform="translate(-839.55 -656.692)" fill="#d0cde1"/>
        <path id="Path_4310" data-name="Path 4310" d="M958.832,646.681v-.913h-.2v-.406a.71.71,0,0,0-.711-.711h-2.436a.71.71,0,0,0-.71.711v6.8a.71.71,0,0,0,.71.71h2.436a.711.711,0,0,0,.711-.71V647.9h.2v-.914h-.2v-.3Z" transform="translate(-784.628 -527.88)" fill="#d0cde1"/>
        <circle id="Ellipse_1056" data-name="Ellipse 1056" cx="0.406" cy="0.406" r="0.406" transform="translate(171.768 118.395)" fill="#3f3d56"/>
        <path id="Path_4311" data-name="Path 4311" d="M901.119,584.372l-2.072,8.517a2.4,2.4,0,0,0,1.036,2.992,43.648,43.648,0,0,0,5.985,2.647s3.683,5.064,4.143,2.992-2.762-4.719-2.762-4.719l-5.64-3.568L904,587.249Z" transform="translate(-739.119 -478.806)" fill="#a0616a"/>
        <path id="Path_4312" data-name="Path 4312" d="M974.617,641.915s1.726-.23,1.611,1.726-2.417,2.187-2.417,2.187-1.036,4.374-2.532,3.568.806-5.179.806-5.179l1.957-1.5Z" transform="translate(-797.654 -525.646)" fill="#a0616a"/>
        <path id="Path_4313" data-name="Path 4313" d="M914.044,563.715l1.841-3.8-3.683,1.266a4.26,4.26,0,0,0-2.187,3.453c-.115,2.417,2.647,3.683,2.647,3.683a19.845,19.845,0,0,1,.23,3.913,7.549,7.549,0,0,0,0,2.3s4.431-1.209,6.618.288a4.118,4.118,0,0,0,3.971.633s-.115-2.877.806-3.338a3.348,3.348,0,0,0,.921-4.028s1.842.23,1.727-1.5a4.526,4.526,0,0,0-2.532-3.913c-1.5-.691-1.661-.8-1.661-.8l2.122,3.908v1.036a18.147,18.147,0,0,0-7.473-2.6,4.95,4.95,0,0,0-3.346,1.1h0Z" transform="translate(-748.188 -458.897)" fill="#2f2e41"/>
      </g>
    </g>
  </g>
</svg>
