<svg xmlns="http://www.w3.org/2000/svg" width="721.483" height="753.965" viewBox="0 0 721.483 753.965">
  <g id="Group_765" data-name="Group 765" transform="translate(-546.016 0)">
    <path id="Intersection_1" data-name="Intersection 1" d="M9098,38.5a1.5,1.5,0,1,1,1.5,1.5A1.5,1.5,0,0,1,9098,38.5Zm-23,0a1.5,1.5,0,1,1,1.5,1.5A1.5,1.5,0,0,1,9075,38.5Zm-23,0a1.5,1.5,0,1,1,1.5,1.5A1.5,1.5,0,0,1,9052,38.5Zm-23,0a1.5,1.5,0,1,1,1.5,1.5A1.5,1.5,0,0,1,9029,38.5Zm93.5-1.5a1.507,1.507,0,0,1,.383.049c-.587.295-1.171.581-1.764.865A1.5,1.5,0,0,1,9122.5,37ZM9144,15.5a1.5,1.5,0,1,1,1.5,1.5A1.5,1.5,0,0,1,9144,15.5Zm-23,0a1.5,1.5,0,1,1,1.5,1.5A1.5,1.5,0,0,1,9121,15.5Zm-23,0a1.5,1.5,0,1,1,1.5,1.5A1.5,1.5,0,0,1,9098,15.5Zm-23,0a1.5,1.5,0,1,1,1.5,1.5A1.5,1.5,0,0,1,9075,15.5Zm-23,0a1.5,1.5,0,1,1,1.5,1.5A1.5,1.5,0,0,1,9052,15.5Zm-23,0a1.5,1.5,0,1,1,1.5,1.5A1.5,1.5,0,0,1,9029,15.5Zm-23,0a1.5,1.5,0,1,1,1.5,1.5A1.5,1.5,0,0,1,9006,15.5Zm138-23a1.5,1.5,0,0,1,1.5-1.5,1.5,1.5,0,0,1,1.5,1.5,1.5,1.5,0,0,1-1.5,1.5A1.5,1.5,0,0,1,9144-7.5Zm-23,0a1.5,1.5,0,0,1,1.5-1.5,1.5,1.5,0,0,1,1.5,1.5,1.5,1.5,0,0,1-1.5,1.5A1.5,1.5,0,0,1,9121-7.5Zm-23,0a1.5,1.5,0,0,1,1.5-1.5,1.5,1.5,0,0,1,1.5,1.5,1.5,1.5,0,0,1-1.5,1.5A1.5,1.5,0,0,1,9098-7.5Zm-23,0a1.5,1.5,0,0,1,1.5-1.5,1.5,1.5,0,0,1,1.5,1.5,1.5,1.5,0,0,1-1.5,1.5A1.5,1.5,0,0,1,9075-7.5Zm-23,0a1.5,1.5,0,0,1,1.5-1.5,1.5,1.5,0,0,1,1.5,1.5,1.5,1.5,0,0,1-1.5,1.5A1.5,1.5,0,0,1,9052-7.5Zm-23,0a1.5,1.5,0,0,1,1.5-1.5,1.5,1.5,0,0,1,1.5,1.5,1.5,1.5,0,0,1-1.5,1.5A1.5,1.5,0,0,1,9029-7.5Zm-23,0a1.5,1.5,0,0,1,1.5-1.5,1.5,1.5,0,0,1,1.5,1.5,1.5,1.5,0,0,1-1.5,1.5A1.5,1.5,0,0,1,9006-7.5Zm-23,0a1.5,1.5,0,0,1,1.5-1.5,1.5,1.5,0,0,1,1.5,1.5,1.5,1.5,0,0,1-1.5,1.5A1.5,1.5,0,0,1,8983-7.5Zm184,0a1.5,1.5,0,0,1,1.5-1.5,1.5,1.5,0,0,1,.456.07q-.667,1.321-1.369,2.618A1.5,1.5,0,0,1,9167-7.5Zm0-23a1.5,1.5,0,0,1,1.5-1.5,1.5,1.5,0,0,1,1.5,1.5,1.5,1.5,0,0,1-1.5,1.5A1.5,1.5,0,0,1,9167-30.5Zm-23,0a1.5,1.5,0,0,1,1.5-1.5,1.5,1.5,0,0,1,1.5,1.5,1.5,1.5,0,0,1-1.5,1.5A1.5,1.5,0,0,1,9144-30.5Zm-23,0a1.5,1.5,0,0,1,1.5-1.5,1.5,1.5,0,0,1,1.5,1.5,1.5,1.5,0,0,1-1.5,1.5A1.5,1.5,0,0,1,9121-30.5Zm-23,0a1.5,1.5,0,0,1,1.5-1.5,1.5,1.5,0,0,1,1.5,1.5,1.5,1.5,0,0,1-1.5,1.5A1.5,1.5,0,0,1,9098-30.5Zm-23,0a1.5,1.5,0,0,1,1.5-1.5,1.5,1.5,0,0,1,1.5,1.5,1.5,1.5,0,0,1-1.5,1.5A1.5,1.5,0,0,1,9075-30.5Zm-23,0a1.5,1.5,0,0,1,1.5-1.5,1.5,1.5,0,0,1,1.5,1.5,1.5,1.5,0,0,1-1.5,1.5A1.5,1.5,0,0,1,9052-30.5Zm-23,0a1.5,1.5,0,0,1,1.5-1.5,1.5,1.5,0,0,1,1.5,1.5,1.5,1.5,0,0,1-1.5,1.5A1.5,1.5,0,0,1,9029-30.5Zm-23,0a1.5,1.5,0,0,1,1.5-1.5,1.5,1.5,0,0,1,1.5,1.5,1.5,1.5,0,0,1-1.5,1.5A1.5,1.5,0,0,1,9006-30.5Zm-23,0a1.5,1.5,0,0,1,1.5-1.5,1.5,1.5,0,0,1,1.5,1.5,1.5,1.5,0,0,1-1.5,1.5A1.5,1.5,0,0,1,8983-30.5Zm-20.075-.471a1.465,1.465,0,0,1,.056.227C8962.962-30.817,8962.943-30.9,8962.925-30.97ZM9167-53.5a1.5,1.5,0,0,1,1.5-1.5,1.5,1.5,0,0,1,1.5,1.5,1.5,1.5,0,0,1-1.5,1.5A1.5,1.5,0,0,1,9167-53.5Zm-23,0a1.5,1.5,0,0,1,1.5-1.5,1.5,1.5,0,0,1,1.5,1.5,1.5,1.5,0,0,1-1.5,1.5A1.5,1.5,0,0,1,9144-53.5Zm-23,0a1.5,1.5,0,0,1,1.5-1.5,1.5,1.5,0,0,1,1.5,1.5,1.5,1.5,0,0,1-1.5,1.5A1.5,1.5,0,0,1,9121-53.5Zm-23,0a1.5,1.5,0,0,1,1.5-1.5,1.5,1.5,0,0,1,1.5,1.5,1.5,1.5,0,0,1-1.5,1.5A1.5,1.5,0,0,1,9098-53.5Zm-23,0a1.5,1.5,0,0,1,1.5-1.5,1.5,1.5,0,0,1,1.5,1.5,1.5,1.5,0,0,1-1.5,1.5A1.5,1.5,0,0,1,9075-53.5Zm-23,0a1.5,1.5,0,0,1,1.5-1.5,1.5,1.5,0,0,1,1.5,1.5,1.5,1.5,0,0,1-1.5,1.5A1.5,1.5,0,0,1,9052-53.5Zm-23,0a1.5,1.5,0,0,1,1.5-1.5,1.5,1.5,0,0,1,1.5,1.5,1.5,1.5,0,0,1-1.5,1.5A1.5,1.5,0,0,1,9029-53.5Zm-23,0a1.5,1.5,0,0,1,1.5-1.5,1.5,1.5,0,0,1,1.5,1.5,1.5,1.5,0,0,1-1.5,1.5A1.5,1.5,0,0,1,9006-53.5Zm-23,0a1.5,1.5,0,0,1,1.5-1.5,1.5,1.5,0,0,1,1.5,1.5,1.5,1.5,0,0,1-1.5,1.5A1.5,1.5,0,0,1,8983-53.5Zm-22.975.272c0-.163-.007-.322-.01-.485A1.5,1.5,0,0,1,8961.5-55a1.5,1.5,0,0,1,1.5,1.5,1.5,1.5,0,0,1-1.5,1.5A1.5,1.5,0,0,1,8960.025-53.229ZM9167-76.5a1.5,1.5,0,0,1,1.5-1.5,1.5,1.5,0,0,1,1.5,1.5,1.5,1.5,0,0,1-1.5,1.5A1.5,1.5,0,0,1,9167-76.5Zm-23,0a1.5,1.5,0,0,1,1.5-1.5,1.5,1.5,0,0,1,1.5,1.5,1.5,1.5,0,0,1-1.5,1.5A1.5,1.5,0,0,1,9144-76.5Zm-23,0a1.5,1.5,0,0,1,1.5-1.5,1.5,1.5,0,0,1,1.5,1.5,1.5,1.5,0,0,1-1.5,1.5A1.5,1.5,0,0,1,9121-76.5Zm-23,0a1.5,1.5,0,0,1,1.5-1.5,1.5,1.5,0,0,1,1.5,1.5,1.5,1.5,0,0,1-1.5,1.5A1.5,1.5,0,0,1,9098-76.5Zm-23,0a1.5,1.5,0,0,1,1.5-1.5,1.5,1.5,0,0,1,1.5,1.5,1.5,1.5,0,0,1-1.5,1.5A1.5,1.5,0,0,1,9075-76.5Zm-23,0a1.5,1.5,0,0,1,1.5-1.5,1.5,1.5,0,0,1,1.5,1.5,1.5,1.5,0,0,1-1.5,1.5A1.5,1.5,0,0,1,9052-76.5Zm-23,0a1.5,1.5,0,0,1,1.5-1.5,1.5,1.5,0,0,1,1.5,1.5,1.5,1.5,0,0,1-1.5,1.5A1.5,1.5,0,0,1,9029-76.5Zm-23,0a1.5,1.5,0,0,1,1.5-1.5,1.5,1.5,0,0,1,1.5,1.5,1.5,1.5,0,0,1-1.5,1.5A1.5,1.5,0,0,1,9006-76.5Zm-23,0a1.5,1.5,0,0,1,1.5-1.5,1.5,1.5,0,0,1,1.5,1.5,1.5,1.5,0,0,1-1.5,1.5A1.5,1.5,0,0,1,8983-76.5Zm-20.61-1.209A1.5,1.5,0,0,1,8963-76.5a1.5,1.5,0,0,1-1.157,1.461C8962.013-75.932,8962.2-76.825,8962.39-77.709ZM9167-99.5a1.5,1.5,0,0,1,1.5-1.5,1.5,1.5,0,0,1,1.5,1.5,1.5,1.5,0,0,1-1.5,1.5A1.5,1.5,0,0,1,9167-99.5Zm-23,0a1.5,1.5,0,0,1,1.5-1.5,1.5,1.5,0,0,1,1.5,1.5,1.5,1.5,0,0,1-1.5,1.5A1.5,1.5,0,0,1,9144-99.5Zm-23,0a1.5,1.5,0,0,1,1.5-1.5,1.5,1.5,0,0,1,1.5,1.5,1.5,1.5,0,0,1-1.5,1.5A1.5,1.5,0,0,1,9121-99.5Zm-23,0a1.5,1.5,0,0,1,1.5-1.5,1.5,1.5,0,0,1,1.5,1.5,1.5,1.5,0,0,1-1.5,1.5A1.5,1.5,0,0,1,9098-99.5Zm-23,0a1.5,1.5,0,0,1,1.5-1.5,1.5,1.5,0,0,1,1.5,1.5,1.5,1.5,0,0,1-1.5,1.5A1.5,1.5,0,0,1,9075-99.5Zm-23,0a1.5,1.5,0,0,1,1.5-1.5,1.5,1.5,0,0,1,1.5,1.5,1.5,1.5,0,0,1-1.5,1.5A1.5,1.5,0,0,1,9052-99.5Zm-23,0a1.5,1.5,0,0,1,1.5-1.5,1.5,1.5,0,0,1,1.5,1.5,1.5,1.5,0,0,1-1.5,1.5A1.5,1.5,0,0,1,9029-99.5Zm-23,0a1.5,1.5,0,0,1,1.5-1.5,1.5,1.5,0,0,1,1.5,1.5,1.5,1.5,0,0,1-1.5,1.5A1.5,1.5,0,0,1,9006-99.5Zm-23,0a1.5,1.5,0,0,1,1.5-1.5,1.5,1.5,0,0,1,1.5,1.5,1.5,1.5,0,0,1-1.5,1.5A1.5,1.5,0,0,1,8983-99.5Zm161-23a1.5,1.5,0,0,1,1.5-1.5,1.5,1.5,0,0,1,1.5,1.5,1.5,1.5,0,0,1-1.5,1.5A1.5,1.5,0,0,1,9144-122.5Zm-23,0a1.5,1.5,0,0,1,1.5-1.5,1.5,1.5,0,0,1,1.5,1.5,1.5,1.5,0,0,1-1.5,1.5A1.5,1.5,0,0,1,9121-122.5Zm-23,0a1.5,1.5,0,0,1,1.5-1.5,1.5,1.5,0,0,1,1.5,1.5,1.5,1.5,0,0,1-1.5,1.5A1.5,1.5,0,0,1,9098-122.5Zm-23,0a1.5,1.5,0,0,1,1.5-1.5,1.5,1.5,0,0,1,1.5,1.5,1.5,1.5,0,0,1-1.5,1.5A1.5,1.5,0,0,1,9075-122.5Zm-23,0a1.5,1.5,0,0,1,1.5-1.5,1.5,1.5,0,0,1,1.5,1.5,1.5,1.5,0,0,1-1.5,1.5A1.5,1.5,0,0,1,9052-122.5Zm-23,0a1.5,1.5,0,0,1,1.5-1.5,1.5,1.5,0,0,1,1.5,1.5,1.5,1.5,0,0,1-1.5,1.5A1.5,1.5,0,0,1,9029-122.5Zm-23,0a1.5,1.5,0,0,1,1.5-1.5,1.5,1.5,0,0,1,1.5,1.5,1.5,1.5,0,0,1-1.5,1.5A1.5,1.5,0,0,1,9006-122.5Zm-22.4,1.2q.951-1.154,1.938-2.282a1.494,1.494,0,0,1,.459,1.08,1.5,1.5,0,0,1-1.5,1.5A1.493,1.493,0,0,1,8983.6-121.3ZM9121-145.5a1.5,1.5,0,0,1,1.5-1.5,1.5,1.5,0,0,1,1.5,1.5,1.5,1.5,0,0,1-1.5,1.5A1.5,1.5,0,0,1,9121-145.5Zm-23,0a1.5,1.5,0,0,1,1.5-1.5,1.5,1.5,0,0,1,1.5,1.5,1.5,1.5,0,0,1-1.5,1.5A1.5,1.5,0,0,1,9098-145.5Zm-23,0a1.5,1.5,0,0,1,1.5-1.5,1.5,1.5,0,0,1,1.5,1.5,1.5,1.5,0,0,1-1.5,1.5A1.5,1.5,0,0,1,9075-145.5Zm-23,0a1.5,1.5,0,0,1,1.5-1.5,1.5,1.5,0,0,1,1.5,1.5,1.5,1.5,0,0,1-1.5,1.5A1.5,1.5,0,0,1,9052-145.5Zm-23,0a1.5,1.5,0,0,1,1.5-1.5,1.5,1.5,0,0,1,1.5,1.5,1.5,1.5,0,0,1-1.5,1.5A1.5,1.5,0,0,1,9029-145.5Z" transform="translate(-8414 175.77)" fill="#ffe6c1"/>
    <g id="Group_675" data-name="Group 675" transform="translate(621)">
      <path id="Path_4200" data-name="Path 4200" d="M646.5,0S506.586-10.016,377.966,17.609,98.6,104.58,31.317,241.282,10.673,478.272,118.647,606,331.254,752.195,463.217,752.195,646.5,606,646.5,606Z" transform="translate(0 1.77)" fill="#fff0da"/>
      <path id="Path_4201" data-name="Path 4201" d="M568.545-.213S445.5-9.022,332.391,15.272,86.709,91.757,27.541,211.975s-18.155,208.414,76.8,320.741S291.312,661.283,407.363,661.283,568.545,532.716,568.545,532.716Z" transform="translate(77.954 47.226)" fill="#ffbd5c" opacity="0.2"/>
    </g>
  </g>
</svg>
