<svg xmlns="http://www.w3.org/2000/svg" xmlns:xlink="http://www.w3.org/1999/xlink" width="390" height="390" viewBox="0 0 390 390">
  <defs>
    <filter id="Rectangle_1781" x="0" y="0" width="390" height="390" filterUnits="userSpaceOnUse">
      <feOffset dy="3" input="SourceAlpha"/>
      <feGaussianBlur stdDeviation="15" result="blur"/>
      <feFlood flood-opacity="0.161"/>
      <feComposite operator="in" in2="blur"/>
      <feComposite in="SourceGraphic"/>
    </filter>
  </defs>
  <g id="Group_698" data-name="Group 698" transform="translate(16.606 -2195.788)">
    <g transform="matrix(1, 0, 0, 1, -16.61, 2195.79)" filter="url(#Rectangle_1781)">
      <rect id="Rectangle_1781-2" data-name="Rectangle 1781" width="300" height="300" rx="29" transform="translate(45 42)" fill="#fff"/>
    </g>
    <g id="Group_710" data-name="Group 710">
      <rect id="Rectangle_1850" data-name="Rectangle 1850" width="264.8" height="264.8" rx="21" transform="translate(45 2255)" fill="#38bdba" opacity="0.2"/>
    </g>
    <g id="Group_717" data-name="Group 717" transform="translate(74.076 2316.144)">
      <path id="Path_4318" data-name="Path 4318" d="M186.4,501.043c-.225-.334-.447-.676-.659-1.018l.342-.211c.209.338.427.676.65,1.005Z" transform="translate(-155.004 -418.34)" fill="#3f3d56"/>
      <path id="Path_4319" data-name="Path 4319" d="M166.813,316.833c-.373-.732-.719-1.487-1.03-2.246l.372-.152c.306.749.648,1.494,1.016,2.216Zm-1.87-4.57c-.247-.782-.463-1.585-.644-2.385l.392-.089c.178.79.392,1.581.635,2.353Zm-1.089-4.816c-.114-.811-.2-1.638-.243-2.458l.4-.023c.046.809.127,1.625.24,2.425Zm.117-4.919-.4-.009c.019-.821.073-1.651.159-2.465l.4.042c-.085.8-.137,1.621-.157,2.432Zm.512-4.843-.395-.075c.153-.806.342-1.615.561-2.405l.387.107c-.216.78-.4,1.578-.553,2.373Zm1.3-4.692-.377-.139c.284-.77.6-1.537.952-2.281l.364.17c-.343.734-.659,1.491-.939,2.251Zm55.037-1.242c-.314-.745-.664-1.487-1.039-2.2l.356-.186c.38.728.735,1.479,1.053,2.234Zm-52.976-3.174-.349-.2c.407-.712.849-1.416,1.314-2.093l.331.227C168.683,287.181,168.247,287.876,167.846,288.578Zm50.72-1.142c-.433-.684-.9-1.358-1.387-2l.321-.242c.494.655.967,1.338,1.406,2.031ZM170.6,284.562l-.312-.254c.518-.636,1.069-1.258,1.638-1.85l.29.278C171.658,283.32,171.115,283.934,170.6,284.562Zm45.028-1.013c-.539-.6-1.11-1.193-1.7-1.751l.277-.291c.594.565,1.173,1.162,1.719,1.774Zm-41.653-2.5-.266-.3c.615-.543,1.26-1.067,1.917-1.557l.24.322C175.222,280,174.586,280.514,173.979,281.05Zm38.123-.859c-.63-.508-1.29-1-1.959-1.451l.226-.333c.679.461,1.347.955,1.986,1.47Zm-34.22-2.054-.213-.341c.7-.435,1.418-.846,2.146-1.222l.184.357C179.281,277.3,178.568,277.708,177.882,278.137Zm30.189-.681c-.706-.4-1.436-.772-2.171-1.11l.168-.365c.744.342,1.485.721,2.2,1.125ZM182.208,275.9l-.154-.371c.757-.315,1.537-.6,2.317-.852l.123.383C183.724,275.312,182.955,275.595,182.208,275.9Zm21.437-.485c-.761-.276-1.543-.524-2.324-.736l.105-.388c.792.215,1.585.466,2.356.746Zm-16.8-1-.091-.391c.8-.185,1.615-.339,2.427-.458l.058.4c-.8.117-1.607.269-2.395.452Zm12.1-.273c-.794-.146-1.606-.262-2.413-.342l.04-.4c.818.082,1.641.2,2.446.347Zm-7.283-.431-.025-.4c.817-.052,1.651-.07,2.47-.055l-.007.4c-.809-.015-1.63,0-2.437.054Z" transform="translate(-137.29 -237.302)" fill="#3f3d56"/>
      <path id="Path_4320" data-name="Path 4320" d="M453.139,377.48c-.108-.382-.225-.768-.348-1.146l.382-.125c.125.383.243.774.352,1.161Z" transform="translate(-368.397 -319.573)" fill="#3f3d56"/>
      <path id="Path_4321" data-name="Path 4321" d="M440.729,265.708h-.4c0-.4.007-.81.021-1.213l.4.014C440.736,264.908,440.729,265.311,440.729,265.708Z" transform="translate(-358.436 -230.306)" fill="#3f3d56"/>
      <path id="Path_4322" data-name="Path 4322" d="M441.689,130.96l-.4-.043c.086-.809.2-1.625.346-2.425l.4.071C441.89,129.353,441.774,130.16,441.689,130.96Zm.856-4.762-.389-.1c.2-.789.434-1.579.691-2.35l.381.127c-.254.762-.484,1.543-.683,2.323Zm64.091-4.24c-.3-.746-.632-1.49-.985-2.211l.361-.177c.357.73.693,1.483,1,2.238Zm-62.558-.352-.371-.154c.312-.751.657-1.5,1.023-2.228l.359.181c-.362.719-.7,1.46-1.011,2.2Zm60.432-3.994c-.4-.694-.839-1.383-1.292-2.048l.332-.226c.459.672.9,1.37,1.307,2.072Zm-58.255-.331-.345-.206c.416-.7.864-1.39,1.331-2.058l.33.23C447.108,115.906,446.666,116.59,446.254,117.28Zm55.528-3.667c-.5-.631-1.028-1.251-1.57-1.843l.3-.271c.549.6,1.083,1.227,1.589,1.865Zm-52.756-.3-.312-.253c.513-.632,1.054-1.254,1.61-1.847l.293.275C450.069,112.073,449.534,112.687,449.027,113.312Zm49.488-3.269c-.584-.553-1.2-1.092-1.816-1.6l.255-.311c.629.516,1.247,1.061,1.838,1.621Zm-46.179-.264-.273-.295c.6-.552,1.221-1.091,1.856-1.6l.251.314c-.627.5-1.244,1.035-1.834,1.581Zm42.437-2.806c-.657-.464-1.338-.911-2.026-1.327l.208-.344c.7.421,1.386.873,2.05,1.343Zm-38.662-.22-.228-.331c.669-.462,1.363-.905,2.064-1.319l.2.346c-.692.408-1.378.847-2.04,1.3Zm34.52-2.285c-.716-.366-1.455-.71-2.195-1.023l.157-.37c.749.317,1.5.665,2.221,1.035Zm-30.353-.171-.179-.36c.728-.361,1.478-.7,2.23-1.009l.152.372c-.743.3-1.485.64-2.2,1Zm25.9-1.714c-.76-.259-1.541-.493-2.319-.7l.1-.389c.788.206,1.578.443,2.347.705Zm-21.421-.119-.125-.382c.772-.253,1.564-.481,2.354-.679l.1.39c-.78.195-1.563.42-2.326.67Zm16.739-1.105c-.79-.147-1.6-.266-2.395-.356l.045-.4c.808.091,1.624.212,2.423.36Zm-12.044-.066-.069-.4c.8-.139,1.617-.252,2.427-.333l.04.4c-.8.081-1.607.192-2.4.33Zm7.235-.474c-.8-.033-1.623-.037-2.421-.013l-.012-.4c.808-.024,1.636-.02,2.45.013Z" transform="translate(-359.206 -99.172)" fill="#3f3d56"/>
      <path id="Path_4323" data-name="Path 4323" d="M770.978,219.848c-.107-.382-.224-.768-.345-1.148l.383-.122c.123.384.24.774.349,1.161Z" transform="translate(-622.373 -193.614)" fill="#3f3d56"/>
      <ellipse id="Ellipse_1059" data-name="Ellipse 1059" cx="6.694" cy="0.502" rx="6.694" ry="0.502" transform="translate(24.465 86.687)" fill="#00bfa6"/>
      <ellipse id="Ellipse_1060" data-name="Ellipse 1060" cx="6.694" cy="0.502" rx="6.694" ry="0.502" transform="translate(77.847 62.423)" fill="#00bfa6"/>
      <ellipse id="Ellipse_1061" data-name="Ellipse 1061" cx="6.694" cy="0.502" rx="6.694" ry="0.502" transform="translate(143.779 37.154)" fill="#00bfa6"/>
      <rect id="Rectangle_1858" data-name="Rectangle 1858" width="28.465" height="0.402" transform="translate(127.693 56.135) rotate(-45)" fill="#3f3d56"/>
      <rect id="Rectangle_1859" data-name="Rectangle 1859" width="33.803" height="0.402" transform="translate(88.054 58.707)" fill="#3f3d56"/>
      <rect id="Rectangle_1860" data-name="Rectangle 1860" width="26.737" height="0.402" transform="translate(62.979 80.353) rotate(-45)" fill="#3f3d56"/>
      <rect id="Rectangle_1861" data-name="Rectangle 1861" width="22.591" height="0.402" transform="translate(34.673 82.972)" fill="#3f3d56"/>
      <rect id="Rectangle_1862" data-name="Rectangle 1862" width="31.747" height="0.402" transform="translate(6.083 107.965) rotate(-45)" fill="#3f3d56"/>
      <path id="Path_4324" data-name="Path 4324" d="M173.073,497.212a3.715,3.715,0,1,1,3.715-3.715A3.715,3.715,0,0,1,173.073,497.212Zm0-7.028a3.313,3.313,0,1,0,3.313,3.313,3.313,3.313,0,0,0-3.313-3.313Z" transform="translate(-141.914 -410.324)" fill="#3f3d56"/>
      <path id="Path_4325" data-name="Path 4325" d="M320.48,497.212a3.715,3.715,0,1,1,3.715-3.715A3.715,3.715,0,0,1,320.48,497.212Zm0-7.028a3.313,3.313,0,1,0,3.313,3.313,3.313,3.313,0,0,0-3.313-3.313Z" transform="translate(-259.702 -410.324)" fill="#3f3d56"/>
      <path id="Path_4326" data-name="Path 4326" d="M438.739,376.454a3.715,3.715,0,1,1,3.715-3.715A3.715,3.715,0,0,1,438.739,376.454Zm0-7.028a3.313,3.313,0,1,0,3.313,3.313A3.313,3.313,0,0,0,438.739,369.426Z" transform="translate(-354.199 -313.831)" fill="#3f3d56"/>
      <path id="Path_4327" data-name="Path 4327" d="M641.945,376.454a3.715,3.715,0,1,1,3.715-3.715A3.715,3.715,0,0,1,641.945,376.454Zm0-7.028a3.313,3.313,0,1,0,3.313,3.313A3.313,3.313,0,0,0,641.945,369.426Z" transform="translate(-516.574 -313.831)" fill="#3f3d56"/>
      <path id="Path_4328" data-name="Path 4328" d="M766.867,250.7a3.715,3.715,0,1,1,3.715-3.715A3.715,3.715,0,0,1,766.867,250.7Zm0-7.028a3.313,3.313,0,1,0,3.313,3.313A3.313,3.313,0,0,0,766.867,243.672Z" transform="translate(-616.395 -213.345)" fill="#3f3d56"/>
      <path id="Path_4329" data-name="Path 4329" d="M36.491,633.793a3.715,3.715,0,1,1,3.715-3.715A3.715,3.715,0,0,1,36.491,633.793Zm0-7.028a3.313,3.313,0,1,0,3.313,3.313,3.313,3.313,0,0,0-3.313-3.313Z" transform="translate(-32.777 -519.461)" fill="#3f3d56"/>
      <path id="Path_4330" data-name="Path 4330" d="M161.228,399.173a6.694,6.694,0,0,0-6.694,6.694c0,3.7,6.694,15.9,6.694,15.9s6.694-12.2,6.694-15.9A6.694,6.694,0,0,0,161.228,399.173Zm0,10.208a3.514,3.514,0,1,1,3.514-3.514,3.514,3.514,0,0,1-3.514,3.514Z" transform="translate(-130.07 -337.922)" fill="#00c2cd"/>
      <path id="Path_4331" data-name="Path 4331" d="M426.895,274.251a6.694,6.694,0,0,0-6.694,6.694c0,3.7,6.694,15.9,6.694,15.9s6.694-12.2,6.694-15.9a6.694,6.694,0,0,0-6.694-6.694Zm0,10.208a3.514,3.514,0,1,1,3.514-3.514,3.514,3.514,0,0,1-3.514,3.514Z" transform="translate(-342.355 -238.101)" fill="#00c2cd"/>
      <path id="Path_4332" data-name="Path 4332" d="M964.376,135.659c-1.417,4.195-3.589,8.017-8.017,8.017a8.186,8.186,0,0,1-8.017-8.017c-.319-5.648,3.487-8.04,8.017-8.017C961.709,127.67,966.058,130.681,964.376,135.659Z" transform="translate(-764.359 -120.951)" fill="#2f2e41"/>
      <rect id="Rectangle_1864" data-name="Rectangle 1864" width="15.822" height="20.042" transform="translate(183.983 14.075)" fill="#2f2e41"/>
      <path id="Path_4333" data-name="Path 4333" d="M1024.713,238.7h1.346a11.981,11.981,0,0,1,1.794,9.869c-1.5,5.682-.3,6.729-.3,6.729s1.946,6.153-.147,15.424,1.941,11.79,1.941,11.79l-3.738-7.477-2.093-19.738Z" transform="translate(-824.443 -209.692)" fill="#575a89"/>
      <path id="Path_4334" data-name="Path 4334" d="M1024.713,241.146h1.346a11.981,11.981,0,0,1,1.794,9.869c-1.5,5.682-.3,6.729-.3,6.729s1.946,6.153-.147,15.424,1.941,11.79,1.941,11.79l-3.738-7.477-2.093-19.738Z" transform="translate(-824.443 -211.648)" opacity="0.1"/>
      <path id="Path_4335" data-name="Path 4335" d="M973.324,202.508s-1.2,4.785-.6,4.785,2.692,2.542,2.692,2.542l1.346,4.935-1.047,3.589-3.589-.748-4.486-4.935L966.3,211.33l-1.2-4.336s1.5-1.794.449-3.29S973.324,202.508,973.324,202.508Z" transform="translate(-777.765 -180.754)" fill="#fbbebe"/>
      <path id="Path_4336" data-name="Path 4336" d="M973.324,202.508s-1.2,4.785-.6,4.785,2.692,2.542,2.692,2.542l1.346,4.935-1.047,3.589-3.589-.748-4.486-4.935L966.3,211.33l-1.2-4.336s1.5-1.794.449-3.29S973.324,202.508,973.324,202.508Z" transform="translate(-777.765 -180.754)" opacity="0.1"/>
      <path id="Path_4337" data-name="Path 4337" d="M786.25,225.02l-3.29-5.383s-3.551-7.857-6.093-5.016,3.85,8.6,3.85,8.6l3.29,4.336Z" transform="translate(-626.877 -189.958)" fill="#fbbebe"/>
      <path id="Path_4338" data-name="Path 4338" d="M969.5,486.9l-2.393,17.5s.3,1.346-2.692,6.28-11.065,15.7-11.065,15.7l-2.392-4.486s2.841-14.205,7.776-17.2l-.6-21.533Z" transform="translate(-766.465 -405.033)" fill="#fbbebe"/>
      <path id="Path_4339" data-name="Path 4339" d="M969.5,486.9l-2.393,17.5s.3,1.346-2.692,6.28-11.065,15.7-11.065,15.7l-2.392-4.486s2.841-14.205,7.776-17.2l-.6-21.533Z" transform="translate(-766.465 -405.033)" opacity="0.1"/>
      <path id="Path_4340" data-name="Path 4340" d="M920.634,666.973l3.29,6.28s-2.692,7.626-1.645,8.374,2.393,7.477-.448,6.729-5.084-3.738-5.084-4.187,1.645-6.729.748-8.224A7.258,7.258,0,0,0,916,674l-2.243,3.738-.748-.449,3.738-6.28a3.941,3.941,0,0,1,2.243-1.944Z" transform="translate(-736.139 -551.911)" fill="#2f2e41"/>
      <path id="Path_4341" data-name="Path 4341" d="M920.634,666.973l3.29,6.28s-2.692,7.626-1.645,8.374,2.393,7.477-.448,6.729-5.084-3.738-5.084-4.187,1.645-6.729.748-8.224A7.258,7.258,0,0,0,916,674l-2.243,3.738-.748-.449,3.738-6.28a3.941,3.941,0,0,1,2.243-1.944Z" transform="translate(-736.139 -551.911)" opacity="0.1"/>
      <path id="Path_4342" data-name="Path 4342" d="M939.739,484.417s1.161,16.538-1.381,20.875v21.533l-3.439.449s-6.945-11.4-4.4-22.615-2.625-21.5-2.625-21.5Z" transform="translate(-748.032 -405.034)" fill="#fbbebe"/>
      <circle id="Ellipse_1062" data-name="Ellipse 1062" cx="6.28" cy="6.28" r="6.28" transform="translate(184.569 12.857)" fill="#fbbebe"/>
      <path id="Path_4343" data-name="Path 4343" d="M848.852,230.783l-6.28-7.925-3.589-2.393-1.5,1.944-4.187,1.2s-2.692.6-5.533,3.888-7.925,5.234-7.925,5.234l-4.187-.748s-4.935-2.243-4.935-2.841-4.336,4.037-3.29,5.832a31.542,31.542,0,0,0,4.486,5.234c1.2,1.2,1.645,4.635,8.972,3.589s10.019-4.635,10.019-4.635,1.346,6.878,5.234,8.224,16.6,2.243,16.6,2.243l2.691-8.972s2.991-3.888-1.047-9.57a37.509,37.509,0,0,0-.511-5.293,3.5,3.5,0,0,0-.685-1.735c-1.047-.9-6.579-2.393-6.579-2.393s.9,2.991,1.346,3.14S849.448,230.036,848.852,230.783Z" transform="translate(-651.646 -195.123)" fill="#00c2cd"/>
      <path id="Path_4344" data-name="Path 4344" d="M904,379.028c7.53-.523,11.915.71,13.87,1.651a4.955,4.955,0,0,1,1.02.619c.144.121.213.215.213.272,0,.449,10.318,1.346,14.056.449s-2.542-20.187-4.187-21.831-.758-7.665-.758-7.665-3.279-.709-4.176-.41-5.533-.449-7.177-1.346-3.738-.3-5.084-.6a.846.846,0,0,0-1.056.381,2.586,2.586,0,0,1-1.023,1.033c-3.174,1.829-5.723,14.473-7.641,21.464C899.962,380.673,904,379.028,904,379.028Z" transform="translate(-726.906 -298.732)" fill="#2f2e41"/>
      <path id="Path_4345" data-name="Path 4345" d="M962.574,693.763l.6,3.29s3.141,4.486,2.243,8.224c0,0,.748,4.935,3.439,6.28s.448,4.486-2.093,4.336-4.935.15-5.234-.6-2.094-8.075-2.094-8.075l-.491,8.574-1.5.15.491-9.92s-1.2-2.243.448-5.981l-.415-5.738S962.126,695.258,962.574,693.763Z" transform="translate(-771.65 -573.318)" fill="#2f2e41"/>
      <path id="Path_4346" data-name="Path 4346" d="M983.154,465.566a4.961,4.961,0,0,1,1.02.619c.079-1.413.537-9.959-.012-9.821Z" transform="translate(-792.191 -383.62)" opacity="0.1"/>
      <path id="Path_4347" data-name="Path 4347" d="M938.153,144.138s-.07-.387-2.79.633-4.351,8.548-2.991,12.968a4.05,4.05,0,0,1-.626,3.964,6.549,6.549,0,0,0,2.322,10.171q.168.073.344.145l1.7,1.02a7.776,7.776,0,0,1-1.083-6.5,18.7,18.7,0,0,0,.338-9.575c-.125-.534-.266-1.085-.426-1.647-1.36-4.76-.7-4.211,4.062-8.971a30.257,30.257,0,0,0,5.1,3.06c2.38,1.02,4.42,2.04,2.72,5.44s-5.78,6.46-3.06,10.881,3.06,2.72,2.72,4.42h0l-.34,1.7,2.04-2.04-1.36,2.72s4.42,0,5.78-3.4l.68.68s2.72-4.76-2.38-9.181c0,0-1.7-1.02.68-4.42s.552-10.711-2.508-12.071S938.153,144.138,938.153,144.138Z" transform="translate(-749.903 -133.649)" fill="#2f2e41"/>
      <circle id="Ellipse_1063" data-name="Ellipse 1063" cx="3.164" cy="3.164" r="3.164" transform="translate(188.835 2.05)" fill="#2f2e41"/>
      <path id="Path_4348" data-name="Path 4348" d="M966.9,99.311a3.165,3.165,0,0,1,2.848-3.148c-.1-.01-.21-.016-.316-.016a3.164,3.164,0,1,0,0,6.329c.107,0,.212-.006.316-.016A3.165,3.165,0,0,1,966.9,99.311Z" transform="translate(-778.695 -95.784)" fill="#2f2e41"/>
      <path id="Path_4349" data-name="Path 4349" d="M755.022,154.326a6.693,6.693,0,0,0-6.693,6.694c0,3.7,6.693,15.9,6.693,15.9s6.694-12.2,6.694-15.9A6.694,6.694,0,0,0,755.022,154.326Zm0,10.208a3.514,3.514,0,1,1,3.514-3.514,3.514,3.514,0,0,1-3.514,3.514Z" transform="translate(-604.55 -142.273)" fill="#00c2cd"/>
    </g>
  </g>
</svg>
