<svg xmlns="http://www.w3.org/2000/svg" xmlns:xlink="http://www.w3.org/1999/xlink" width="411" height="410" viewBox="0 0 411 410">
  <defs>
    <filter id="Rectangle_1779" x="0" y="0" width="411" height="410" filterUnits="userSpaceOnUse">
      <feOffset dy="20" input="SourceAlpha"/>
      <feGaussianBlur stdDeviation="18.5" result="blur"/>
      <feFlood flood-opacity="0.161"/>
      <feComposite operator="in" in2="blur"/>
      <feComposite in="SourceGraphic"/>
    </filter>
  </defs>
  <g id="Group_763" data-name="Group 763" transform="translate(-258.5 -112.27)">
    <g id="Group_696" data-name="Group 696" transform="translate(0 -1892.23)">
      <g transform="matrix(1, 0, 0, 1, 258.5, 2004.5)" filter="url(#Rectangle_1779)">
        <rect id="Rectangle_1779-2" data-name="Rectangle 1779" width="300" height="299" rx="29" transform="translate(55.5 35.5)" fill="#fff"/>
      </g>
    </g>
    <rect id="Rectangle_1791" data-name="Rectangle 1791" width="262" height="262" rx="17" transform="translate(334 166.77)" fill="#7a81ea" opacity="0.2"/>
    <g id="Group_718" data-name="Group 718" transform="translate(79.791 -3728.73)">
      <path id="Path_4362" data-name="Path 4362" d="M210.665,492.618c.908,3.6,8.648,11.707,16.635,19.316-12.316-30.421-5.3-63.714-5.3-63.714C219.715,461.3,251.056,527.1,251.056,527.1l-7.139,4.209-2.411,3.394C217.332,523.6,210.665,492.618,210.665,492.618Z" transform="translate(69.737 3577.94)" fill="#7a81ea"/>
      <rect id="Rectangle_1866" data-name="Rectangle 1866" width="100.966" height="19.934" transform="translate(387.717 4003.1)" fill="#e6e6e6"/>
      <rect id="Rectangle_1867" data-name="Rectangle 1867" width="100.966" height="19.934" transform="translate(387.717 3971.603)" fill="#e6e6e6"/>
      <rect id="Rectangle_1868" data-name="Rectangle 1868" width="100.966" height="19.934" transform="translate(387.717 3940)" fill="#e6e6e6"/>
      <path id="Path_4363" data-name="Path 4363" d="M540.23,210.933h96.661V195.3H540.23Z" transform="translate(-150.361 3746.849)" fill="#fff"/>
      <path id="Path_4364" data-name="Path 4364" d="M540.23,306.284h96.661V290.655H540.23Z" transform="translate(-150.361 3683.169)" fill="#fff"/>
      <path id="Path_4365" data-name="Path 4365" d="M540.23,400.905h96.661V385.276H540.23Z" transform="translate(-150.361 3619.977)" fill="#fff"/>
      <circle id="Ellipse_1065" data-name="Ellipse 1065" cx="5.954" cy="5.954" r="5.954" transform="translate(392.377 3943.884)" fill="#6c63ff"/>
      <rect id="Rectangle_1869" data-name="Rectangle 1869" width="58.767" height="1.294" transform="translate(412.57 3947.508)" fill="#6c63ff"/>
      <rect id="Rectangle_1870" data-name="Rectangle 1870" width="58.767" height="1.294" transform="translate(412.57 3950.873)" fill="#6c63ff"/>
      <circle id="Ellipse_1066" data-name="Ellipse 1066" cx="5.954" cy="5.954" r="5.954" transform="translate(392.377 3975.744)" fill="#ccc"/>
      <rect id="Rectangle_1871" data-name="Rectangle 1871" width="58.767" height="1.294" transform="translate(412.57 3979.369)" fill="#ccc"/>
      <rect id="Rectangle_1872" data-name="Rectangle 1872" width="58.767" height="1.294" transform="translate(412.57 3982.734)" fill="#ccc"/>
      <circle id="Ellipse_1067" data-name="Ellipse 1067" cx="5.954" cy="5.954" r="5.954" transform="translate(392.377 4007.241)" fill="#ccc"/>
      <rect id="Rectangle_1873" data-name="Rectangle 1873" width="58.767" height="1.294" transform="translate(412.57 4010.867)" fill="#ccc"/>
      <rect id="Rectangle_1874" data-name="Rectangle 1874" width="58.767" height="1.294" transform="translate(412.57 4014.232)" fill="#ccc"/>
      <path id="Path_4366" data-name="Path 4366" d="M309.344,357.064s-1.392,8.75,4.375,7.955c0,0,22.871-5.171,24.064-3.977s8.612,1.6,8.225-3.431c-.388-5.048-7.827-2.137-7.827-2.137s-11.535,1.591-13.921.4-9.148-.8-9.148-.8Z" transform="translate(3.933 3640.438)" fill="#efcec6"/>
      <path id="Path_4367" data-name="Path 4367" d="M328.619,447.853l-3.171,30.089s-.995,11.933-3.978,14.518c0,0,0,3.779-.994,4.972l-1.392,15.711s1.989,5.768,1.79,6.762.8,4.176.6,4.574-9.546,0-9.546,0l1.989-32.019,6.165-44.548Z" transform="translate(2.112 3578.185)" fill="#2f2e41"/>
      <path id="Path_4368" data-name="Path 4368" d="M304.455,671.92s-4.171,10.518-1.995,11.787,25.025.363,25.025.363,3.808-2.357-.544-3.989a14.936,14.936,0,0,1-5.984-1.632,34.693,34.693,0,0,1-5.077-4.171s-.181-3.99-1.632-3.083a3.726,3.726,0,0,0-1.632,2.539Z" transform="translate(8.852 3429.116)" fill="#2f2e41"/>
      <path id="Path_4369" data-name="Path 4369" d="M284.584,667.46s-4.574,11.535-2.188,12.927,27.445.4,27.445.4,4.176-2.586-.6-4.375a16.379,16.379,0,0,1-6.563-1.79,38.045,38.045,0,0,1-5.568-4.574s-.2-4.375-1.79-3.381a4.087,4.087,0,0,0-1.79,2.784Z" transform="translate(22.292 3432.151)" fill="#2f2e41"/>
      <path id="Path_4370" data-name="Path 4370" d="M302.475,436.227s-2.188,20.484-3.182,24.859a56.564,56.564,0,0,0-1.193,8.75s-.2,6.364-1.989,8.154a5.376,5.376,0,0,0-1.591,3.977s-1.79,20.086-.8,22.473,2.344,5.487,1.35,7.078-12.288.479-12.288-.714,0-2.188-.6-2.784,0-4.375,0-4.375-2.386-17.7-.2-22.871,3.182-19.291,3.182-19.291-1.591-16.109-3.58-18.694.4-11.734.4-11.734Z" transform="translate(22.897 3589.404)" fill="#2f2e41"/>
      <path id="Path_4371" data-name="Path 4371" d="M329.2,243.608a2.673,2.673,0,0,0,1.288,1.1,38.53,38.53,0,0,1,7.772,6.246,9.123,9.123,0,0,1,.362-6.17,3.181,3.181,0,0,0,.459-2.077,2.586,2.586,0,0,0-1.008-1.207,31.269,31.269,0,0,0-3.076-2.1c-.745-.445-2.276-1.631-3.13-1.5a7.936,7.936,0,0,1-.574,3.266C331.168,241.42,329.283,243.81,329.2,243.608Z" transform="translate(-9.422 3718.41)" fill="#efcec6"/>
      <circle id="Ellipse_1068" data-name="Ellipse 1068" cx="8.154" cy="8.154" r="8.154" transform="translate(321.792 3948.267)" fill="#efcec6"/>
      <path id="Path_4372" data-name="Path 4372" d="M302.694,267.143s1.392-6.961-2.585-9.347-8.552-5.171-8.552-5.171-1.392-.2-1.989,2.784c0,0-11.336,2.188-12.529,12.927s.8,26.45.8,26.45-1.79,13.722-3.977,21.081c0,0-1.79,1.591,6.165-.8s21.876,6.762,21.876,6.762,1.392-1.392,1.392-2.386,2.983-31.223,3.58-34.008S304.483,267.541,302.694,267.143Z" transform="translate(27.65 3708.569)" fill="#7a81ea"/>
      <path id="Path_4373" data-name="Path 4373" d="M336.234,213.431a3.4,3.4,0,0,1,1.6-.426,3.044,3.044,0,0,0,1.582-.471c.77-.591.827-1.734,1.39-2.525.816-1.145,2.443-1.283,3.848-1.225a4.264,4.264,0,0,0,2.508-.378,3.766,3.766,0,0,0,1.33-2.222c.3-1,.488-2.225-.246-2.967-.51-.516-1.314-.617-1.88-1.07a82.854,82.854,0,0,0-8.159-2.114,7.947,7.947,0,0,0-9.269,5.03,24.616,24.616,0,0,0-1.553,5.172c.372,2.345,2.445,4.209,2.588,6.578a4.038,4.038,0,0,1,2.465-2.931.773.773,0,0,1,.5-.061c.206.066.326.272.456.445.341.453,1.411,1.14,2.017.819C335.957,214.8,335.552,213.894,336.234,213.431Z" transform="translate(-8.21 3743.83)" fill="#3f3d56"/>
      <path id="Path_4374" data-name="Path 4374" d="M364.716,337.23a.907.907,0,0,0-.019,1.276l5.734,5.934a.9.9,0,0,0,1.289.012l17.5-17.42a.905.905,0,0,0-.145-1.4l-6.88-4.481a.9.9,0,0,0-1.126.111Z" transform="translate(-32.964 3662.901)" fill="#3f3d56"/>
      <path id="Path_4375" data-name="Path 4375" d="M389.243,335.737a.909.909,0,0,1-.12.148l-17.455,17.749a.905.905,0,0,1-1.29-.012l-5.857-6.181a.919.919,0,0,1-.107-.135.812.812,0,0,0,.189,1.04l5.734,5.934a.9.9,0,0,0,1.289.012l17.5-17.42A.905.905,0,0,0,389.243,335.737Z" transform="translate(-32.87 3653.061)" fill="#6c63ff"/>
      <path id="Path_4376" data-name="Path 4376" d="M389.548,327.921l-.712-.454a.678.678,0,0,1-.976.891l-4.607-3.168a.678.678,0,0,1,.179-1.205l-.367-.234a.247.247,0,0,0-.308.035l-15.5,15.232a.247.247,0,0,0,.006.353l5.629,5.485a.247.247,0,0,0,.344,0L389.589,328.3a.247.247,0,0,0-.042-.383Z" transform="translate(-34.794 3661.093)" fill="#fff"/>
      <path id="Path_4377" data-name="Path 4377" d="M210.391,149.877l4.755,4.483,11.309-11.174-5.74-3.736Z" transform="translate(126.474 3846.868)" fill="#e6e6e6"/>
      <path id="Path_4378" data-name="Path 4378" d="M427.6,345.273a.168.168,0,0,0,.233,0l.989-.989a.165.165,0,0,0,0-.233.169.169,0,0,0-.233,0l-.989.989A.165.165,0,0,0,427.6,345.273Z" transform="translate(-75.107 3647.54)" fill="#3f3d56"/>
      <path id="Path_4379" data-name="Path 4379" d="M422.58,350.286a.165.165,0,0,0,.233,0l.989-.989a.165.165,0,0,0-.233-.233l-.989.989A.165.165,0,0,0,422.58,350.286Z" transform="translate(-71.757 3644.194)" fill="#3f3d56"/>
      <circle id="Ellipse_1069" data-name="Ellipse 1069" cx="1.111" cy="1.111" r="1.111" transform="translate(335.864 3999.483)" fill="#6c63ff"/>
      <path id="Path_4380" data-name="Path 4380" d="M291.868,347.744s-1.392,8.75,4.375,7.955c0,0,22.871-5.171,24.064-3.978s8.611,1.6,8.225-3.431c-.388-5.048-7.827-2.137-7.827-2.137s-11.535,1.591-13.921.4-9.148-.8-9.148-.8Z" transform="translate(15.605 3646.662)" fill="#efcec6"/>
      <path id="Path_4381" data-name="Path 4381" d="M298.72,269.4s-8.949.994-8.949,13.921v16.506l10.938-4.574s4.574-10.739,4.176-13.722S304.686,269.794,298.72,269.4Z" transform="translate(16.907 3697.366)" fill="#7a81ea"/>
    </g>
  </g>
</svg>
