<svg xmlns="http://www.w3.org/2000/svg" width="57" height="57.002" viewBox="0 0 57 57.002">
  <g id="discount" transform="translate(-0.01 0)">
    <path id="Path_4395" data-name="Path 4395" d="M54.392,28.5l2.5-6.523a1.783,1.783,0,0,0-.541-2.023l-5.422-4.4-1.1-6.9A1.781,1.781,0,0,0,48.35,7.182l-6.9-1.1L37.057.659a1.784,1.784,0,0,0-2.02-.541l-6.526,2.5L21.988.121a1.777,1.777,0,0,0-2.02.541l-4.4,5.426-6.9,1.1A1.785,1.785,0,0,0,7.193,8.664l-1.1,6.9L.671,19.96a1.782,1.782,0,0,0-.541,2.02L2.63,28.5l-2.5,6.523a1.777,1.777,0,0,0,.541,2.02L6.1,41.438l1.1,6.9A1.781,1.781,0,0,0,8.672,49.82l6.9,1.1,4.4,5.422a1.773,1.773,0,0,0,2.023.541l6.519-2.5,6.523,2.5a1.783,1.783,0,0,0,2.023-.545l4.392-5.422,6.9-1.1a1.785,1.785,0,0,0,1.482-1.482l1.1-6.9,5.422-4.392a1.778,1.778,0,0,0,.541-2.02Z" transform="translate(0 0)" fill="#ea907a"/>
    <g id="Group_736" data-name="Group 736" transform="translate(17.824 14.251)">
      <path id="Path_4396" data-name="Path 4396" d="M165.366,138.722a5.344,5.344,0,1,1,5.344-5.344A5.35,5.35,0,0,1,165.366,138.722Zm0-7.125a1.781,1.781,0,1,0,1.781,1.781A1.782,1.782,0,0,0,165.366,131.6Z" transform="translate(-160.022 -128.033)" fill="#7a81ea"/>
      <path id="Path_4397" data-name="Path 4397" d="M261.366,298.722a5.344,5.344,0,1,1,5.344-5.344A5.35,5.35,0,0,1,261.366,298.722Zm0-7.125a1.781,1.781,0,1,0,1.781,1.781A1.786,1.786,0,0,0,261.366,291.6Z" transform="translate(-245.335 -270.221)" fill="#7a81ea"/>
      <path id="Path_4398" data-name="Path 4398" d="M161.816,156.518a1.781,1.781,0,0,1-1.446-2.818l17.812-24.937a1.781,1.781,0,0,1,2.9,2.07L163.269,155.77A1.789,1.789,0,0,1,161.816,156.518Z" transform="translate(-160.035 -128.017)" fill="#7a81ea"/>
    </g>
  </g>
</svg>
