<svg xmlns="http://www.w3.org/2000/svg" width="62" height="52.594" viewBox="0 0 62 52.594">
  <g id="group" transform="translate(0 -38.84)">
    <g id="Group_723" data-name="Group 723" transform="translate(48.255 67.234)">
      <g id="Group_722" data-name="Group 722">
        <path id="Path_4384" data-name="Path 4384" d="M403.289,273.32h-4.795a12.474,12.474,0,0,1,.756,4.287v18.122a5.344,5.344,0,0,1-.308,1.79h7.927a5.376,5.376,0,0,0,5.37-5.37V282.27A8.96,8.96,0,0,0,403.289,273.32Z" transform="translate(-398.494 -273.32)" fill="#7a81ea"/>
      </g>
    </g>
    <g id="Group_725" data-name="Group 725" transform="translate(0 67.234)">
      <g id="Group_724" data-name="Group 724" transform="translate(0 0)">
        <path id="Path_4385" data-name="Path 4385" d="M12.989,277.608a12.472,12.472,0,0,1,.756-4.287H8.95A8.96,8.96,0,0,0,0,282.271v9.879a5.376,5.376,0,0,0,5.37,5.37H13.3a5.345,5.345,0,0,1-.308-1.79Z" transform="translate(0 -273.321)" fill="#7a81ea"/>
      </g>
    </g>
    <g id="Group_727" data-name="Group 727" transform="translate(16.569 62.571)">
      <g id="Group_726" data-name="Group 726">
        <path id="Path_4386" data-name="Path 4386" d="M156.741,234.815H145.779a8.96,8.96,0,0,0-8.95,8.95v18.122a1.79,1.79,0,0,0,1.79,1.79H163.9a1.79,1.79,0,0,0,1.79-1.79V243.765A8.96,8.96,0,0,0,156.741,234.815Z" transform="translate(-136.829 -234.815)" fill="#7a81ea"/>
      </g>
    </g>
    <g id="Group_729" data-name="Group 729" transform="translate(20.237 38.84)">
      <g id="Group_728" data-name="Group 728" transform="translate(0 0)">
        <path id="Path_4387" data-name="Path 4387" d="M177.878,38.84A10.762,10.762,0,1,0,188.641,49.6,10.776,10.776,0,0,0,177.878,38.84Z" transform="translate(-167.114 -38.84)" fill="#ea907a"/>
      </g>
    </g>
    <g id="Group_731" data-name="Group 731" transform="translate(4.05 48.873)">
      <g id="Group_730" data-name="Group 730">
        <path id="Path_4388" data-name="Path 4388" d="M41.493,121.689a8.046,8.046,0,1,0,8.05,8.05A8.059,8.059,0,0,0,41.493,121.689Z" transform="translate(-33.443 -121.689)" fill="#ea907a"/>
      </g>
    </g>
    <g id="Group_733" data-name="Group 733" transform="translate(41.851 48.873)">
      <g id="Group_732" data-name="Group 732">
        <path id="Path_4389" data-name="Path 4389" d="M353.657,121.689a8.05,8.05,0,1,0,8.05,8.05A8.059,8.059,0,0,0,353.657,121.689Z" transform="translate(-345.607 -121.689)" fill="#ea907a"/>
      </g>
    </g>
  </g>
</svg>
