<svg xmlns="http://www.w3.org/2000/svg" width="62.058" height="64.197" viewBox="0 0 62.058 64.197">
  <g id="megaphone" transform="translate(-6.813 0)">
    <g id="Group_735" data-name="Group 735" transform="translate(6.813 0.001)">
      <g id="Group_734" data-name="Group 734" transform="translate(0 0)">
        <path id="Path_4394" data-name="Path 4394" d="M0,0H14.723V6.886H0Z" transform="translate(10.41 64.197) rotate(-135)" fill="#7a81ea"/>
        <path id="Path_4390" data-name="Path 4390" d="M279.98,59.6a1.148,1.148,0,0,0,1.722,0l9.263-9.263a1.23,1.23,0,1,0-1.721-1.721l-9.263,9.263A1.229,1.229,0,0,0,279.98,59.6Z" transform="translate(-236.823 -40.576)" fill="#7a81ea"/>
        <path id="Path_4391" data-name="Path 4391" d="M242.488,13.2a1.144,1.144,0,0,0,.245.093h.41a1.23,1.23,0,0,0,1.148-.82l4.1-10.985a1.23,1.23,0,0,0-2.3-.82L242,11.65A1.148,1.148,0,0,0,242.488,13.2Z" transform="translate(-204.986 -0.001)" fill="#7a81ea"/>
        <path id="Path_4392" data-name="Path 4392" d="M329.686,118.613a1.418,1.418,0,0,0-1.512-1.032,1.156,1.156,0,0,0-.138.049l-11.067,4.1a1.148,1.148,0,0,0-.692,1.468c.011.03.023.06.037.09a1.229,1.229,0,0,0,1.148.82h.41l10.985-4.1A1.148,1.148,0,0,0,329.686,118.613Z" transform="translate(-267.663 -99.094)" fill="#7a81ea"/>
        <path id="Path_4393" data-name="Path 4393" d="M66.666,57.062a1.652,1.652,0,0,0-2.377,2.3l3.935,3.853L47.812,94.688l10.821,10.821,3.689-2.459,7.46,7.46a1.64,1.64,0,0,0,1.148.492,2.048,2.048,0,0,0,1.148-.492L84.7,97.885a1.681,1.681,0,0,0,0-2.377L80.52,91.327l9.591-6.23,3.853,3.935a1.681,1.681,0,0,0,2.377,0,1.885,1.885,0,0,0,0-2.377Zm14.51,39.676L70.929,106.984l-5.738-5.738,12.46-8.115Z" transform="translate(-41.379 -47.707)" fill="#ea907a"/>
      </g>
    </g>
  </g>
</svg>
