<svg xmlns="http://www.w3.org/2000/svg" width="36.003" height="36" viewBox="0 0 36.003 36">
  <g id="Group_695" data-name="Group 695" transform="translate(-720.999 -2264)">
    <path id="Subtraction_12" data-name="Subtraction 12" d="M18,36A18,18,0,0,1,5.272,5.272,18,18,0,1,1,30.731,30.728,17.882,17.882,0,0,1,18,36ZM19.093,3.272A14.728,14.728,0,1,0,33.821,18,14.744,14.744,0,0,0,19.093,3.272Z" transform="translate(720.999 2264)" fill="#ea907a" opacity="0.8"/>
    <path id="Union_7" data-name="Union 7" d="M3.4,16.33a3.4,3.4,0,0,1-3.4-3.4V3.4a3.4,3.4,0,1,1,6.8,0V9.526h6.121a3.4,3.4,0,1,1,0,6.8Z" transform="translate(732.399 2274.214) rotate(-2)" fill="#7a81ea" opacity="0.8"/>
  </g>
</svg>
