<svg xmlns="http://www.w3.org/2000/svg" xmlns:xlink="http://www.w3.org/1999/xlink" width="402" height="407" viewBox="0 0 402 407">
  <defs>
    <clipPath id="clip-path">
      <rect width="222" height="201" fill="none"/>
    </clipPath>
  </defs>
  <g id="Group_762" data-name="Group 762" transform="translate(-964 -3905)">
    <g id="Group_761" data-name="Group 761">
      <g id="Repeat_Grid_5" data-name="Repeat Grid 5" transform="translate(1144 3905)" opacity="0.5" clip-path="url(#clip-path)">
        <g transform="translate(-104 -522)">
          <circle id="Ellipse_789" data-name="Ellipse 789" cx="1.5" cy="1.5" r="1.5" transform="translate(104 522)" fill="#fff"/>
        </g>
        <g transform="translate(-81 -522)">
          <circle id="Ellipse_789-2" data-name="Ellipse 789" cx="1.5" cy="1.5" r="1.5" transform="translate(104 522)" fill="#fff"/>
        </g>
        <g transform="translate(-58 -522)">
          <circle id="Ellipse_789-3" data-name="Ellipse 789" cx="1.5" cy="1.5" r="1.5" transform="translate(104 522)" fill="#fff"/>
        </g>
        <g transform="translate(-35 -522)">
          <circle id="Ellipse_789-4" data-name="Ellipse 789" cx="1.5" cy="1.5" r="1.5" transform="translate(104 522)" fill="#fff"/>
        </g>
        <g transform="translate(-12 -522)">
          <circle id="Ellipse_789-5" data-name="Ellipse 789" cx="1.5" cy="1.5" r="1.5" transform="translate(104 522)" fill="#fff"/>
        </g>
        <g transform="translate(11 -522)">
          <circle id="Ellipse_789-6" data-name="Ellipse 789" cx="1.5" cy="1.5" r="1.5" transform="translate(104 522)" fill="#fff"/>
        </g>
        <g transform="translate(34 -522)">
          <circle id="Ellipse_789-7" data-name="Ellipse 789" cx="1.5" cy="1.5" r="1.5" transform="translate(104 522)" fill="#fff"/>
        </g>
        <g transform="translate(57 -522)">
          <circle id="Ellipse_789-8" data-name="Ellipse 789" cx="1.5" cy="1.5" r="1.5" transform="translate(104 522)" fill="#fff"/>
        </g>
        <g transform="translate(80 -522)">
          <circle id="Ellipse_789-9" data-name="Ellipse 789" cx="1.5" cy="1.5" r="1.5" transform="translate(104 522)" fill="#fff"/>
        </g>
        <g transform="translate(103 -522)">
          <circle id="Ellipse_789-10" data-name="Ellipse 789" cx="1.5" cy="1.5" r="1.5" transform="translate(104 522)" fill="#fff"/>
        </g>
        <g transform="translate(-104 -499)">
          <circle id="Ellipse_789-11" data-name="Ellipse 789" cx="1.5" cy="1.5" r="1.5" transform="translate(104 522)" fill="#fff"/>
        </g>
        <g transform="translate(-81 -499)">
          <circle id="Ellipse_789-12" data-name="Ellipse 789" cx="1.5" cy="1.5" r="1.5" transform="translate(104 522)" fill="#fff"/>
        </g>
        <g transform="translate(-58 -499)">
          <circle id="Ellipse_789-13" data-name="Ellipse 789" cx="1.5" cy="1.5" r="1.5" transform="translate(104 522)" fill="#fff"/>
        </g>
        <g transform="translate(-35 -499)">
          <circle id="Ellipse_789-14" data-name="Ellipse 789" cx="1.5" cy="1.5" r="1.5" transform="translate(104 522)" fill="#fff"/>
        </g>
        <g transform="translate(-12 -499)">
          <circle id="Ellipse_789-15" data-name="Ellipse 789" cx="1.5" cy="1.5" r="1.5" transform="translate(104 522)" fill="#fff"/>
        </g>
        <g transform="translate(11 -499)">
          <circle id="Ellipse_789-16" data-name="Ellipse 789" cx="1.5" cy="1.5" r="1.5" transform="translate(104 522)" fill="#fff"/>
        </g>
        <g transform="translate(34 -499)">
          <circle id="Ellipse_789-17" data-name="Ellipse 789" cx="1.5" cy="1.5" r="1.5" transform="translate(104 522)" fill="#fff"/>
        </g>
        <g transform="translate(57 -499)">
          <circle id="Ellipse_789-18" data-name="Ellipse 789" cx="1.5" cy="1.5" r="1.5" transform="translate(104 522)" fill="#fff"/>
        </g>
        <g transform="translate(80 -499)">
          <circle id="Ellipse_789-19" data-name="Ellipse 789" cx="1.5" cy="1.5" r="1.5" transform="translate(104 522)" fill="#fff"/>
        </g>
        <g transform="translate(103 -499)">
          <circle id="Ellipse_789-20" data-name="Ellipse 789" cx="1.5" cy="1.5" r="1.5" transform="translate(104 522)" fill="#fff"/>
        </g>
        <g transform="translate(-104 -476)">
          <circle id="Ellipse_789-21" data-name="Ellipse 789" cx="1.5" cy="1.5" r="1.5" transform="translate(104 522)" fill="#fff"/>
        </g>
        <g transform="translate(-81 -476)">
          <circle id="Ellipse_789-22" data-name="Ellipse 789" cx="1.5" cy="1.5" r="1.5" transform="translate(104 522)" fill="#fff"/>
        </g>
        <g transform="translate(-58 -476)">
          <circle id="Ellipse_789-23" data-name="Ellipse 789" cx="1.5" cy="1.5" r="1.5" transform="translate(104 522)" fill="#fff"/>
        </g>
        <g transform="translate(-35 -476)">
          <circle id="Ellipse_789-24" data-name="Ellipse 789" cx="1.5" cy="1.5" r="1.5" transform="translate(104 522)" fill="#fff"/>
        </g>
        <g transform="translate(-12 -476)">
          <circle id="Ellipse_789-25" data-name="Ellipse 789" cx="1.5" cy="1.5" r="1.5" transform="translate(104 522)" fill="#fff"/>
        </g>
        <g transform="translate(11 -476)">
          <circle id="Ellipse_789-26" data-name="Ellipse 789" cx="1.5" cy="1.5" r="1.5" transform="translate(104 522)" fill="#fff"/>
        </g>
        <g transform="translate(34 -476)">
          <circle id="Ellipse_789-27" data-name="Ellipse 789" cx="1.5" cy="1.5" r="1.5" transform="translate(104 522)" fill="#fff"/>
        </g>
        <g transform="translate(57 -476)">
          <circle id="Ellipse_789-28" data-name="Ellipse 789" cx="1.5" cy="1.5" r="1.5" transform="translate(104 522)" fill="#fff"/>
        </g>
        <g transform="translate(80 -476)">
          <circle id="Ellipse_789-29" data-name="Ellipse 789" cx="1.5" cy="1.5" r="1.5" transform="translate(104 522)" fill="#fff"/>
        </g>
        <g transform="translate(103 -476)">
          <circle id="Ellipse_789-30" data-name="Ellipse 789" cx="1.5" cy="1.5" r="1.5" transform="translate(104 522)" fill="#fff"/>
        </g>
        <g transform="translate(-104 -453)">
          <circle id="Ellipse_789-31" data-name="Ellipse 789" cx="1.5" cy="1.5" r="1.5" transform="translate(104 522)" fill="#fff"/>
        </g>
        <g transform="translate(-81 -453)">
          <circle id="Ellipse_789-32" data-name="Ellipse 789" cx="1.5" cy="1.5" r="1.5" transform="translate(104 522)" fill="#fff"/>
        </g>
        <g transform="translate(-58 -453)">
          <circle id="Ellipse_789-33" data-name="Ellipse 789" cx="1.5" cy="1.5" r="1.5" transform="translate(104 522)" fill="#fff"/>
        </g>
        <g transform="translate(-35 -453)">
          <circle id="Ellipse_789-34" data-name="Ellipse 789" cx="1.5" cy="1.5" r="1.5" transform="translate(104 522)" fill="#fff"/>
        </g>
        <g transform="translate(-12 -453)">
          <circle id="Ellipse_789-35" data-name="Ellipse 789" cx="1.5" cy="1.5" r="1.5" transform="translate(104 522)" fill="#fff"/>
        </g>
        <g transform="translate(11 -453)">
          <circle id="Ellipse_789-36" data-name="Ellipse 789" cx="1.5" cy="1.5" r="1.5" transform="translate(104 522)" fill="#fff"/>
        </g>
        <g transform="translate(34 -453)">
          <circle id="Ellipse_789-37" data-name="Ellipse 789" cx="1.5" cy="1.5" r="1.5" transform="translate(104 522)" fill="#fff"/>
        </g>
        <g transform="translate(57 -453)">
          <circle id="Ellipse_789-38" data-name="Ellipse 789" cx="1.5" cy="1.5" r="1.5" transform="translate(104 522)" fill="#fff"/>
        </g>
        <g transform="translate(80 -453)">
          <circle id="Ellipse_789-39" data-name="Ellipse 789" cx="1.5" cy="1.5" r="1.5" transform="translate(104 522)" fill="#fff"/>
        </g>
        <g transform="translate(103 -453)">
          <circle id="Ellipse_789-40" data-name="Ellipse 789" cx="1.5" cy="1.5" r="1.5" transform="translate(104 522)" fill="#fff"/>
        </g>
        <g transform="translate(-104 -430)">
          <circle id="Ellipse_789-41" data-name="Ellipse 789" cx="1.5" cy="1.5" r="1.5" transform="translate(104 522)" fill="#fff"/>
        </g>
        <g transform="translate(-81 -430)">
          <circle id="Ellipse_789-42" data-name="Ellipse 789" cx="1.5" cy="1.5" r="1.5" transform="translate(104 522)" fill="#fff"/>
        </g>
        <g transform="translate(-58 -430)">
          <circle id="Ellipse_789-43" data-name="Ellipse 789" cx="1.5" cy="1.5" r="1.5" transform="translate(104 522)" fill="#fff"/>
        </g>
        <g transform="translate(-35 -430)">
          <circle id="Ellipse_789-44" data-name="Ellipse 789" cx="1.5" cy="1.5" r="1.5" transform="translate(104 522)" fill="#fff"/>
        </g>
        <g transform="translate(-12 -430)">
          <circle id="Ellipse_789-45" data-name="Ellipse 789" cx="1.5" cy="1.5" r="1.5" transform="translate(104 522)" fill="#fff"/>
        </g>
        <g transform="translate(11 -430)">
          <circle id="Ellipse_789-46" data-name="Ellipse 789" cx="1.5" cy="1.5" r="1.5" transform="translate(104 522)" fill="#fff"/>
        </g>
        <g transform="translate(34 -430)">
          <circle id="Ellipse_789-47" data-name="Ellipse 789" cx="1.5" cy="1.5" r="1.5" transform="translate(104 522)" fill="#fff"/>
        </g>
        <g transform="translate(57 -430)">
          <circle id="Ellipse_789-48" data-name="Ellipse 789" cx="1.5" cy="1.5" r="1.5" transform="translate(104 522)" fill="#fff"/>
        </g>
        <g transform="translate(80 -430)">
          <circle id="Ellipse_789-49" data-name="Ellipse 789" cx="1.5" cy="1.5" r="1.5" transform="translate(104 522)" fill="#fff"/>
        </g>
        <g transform="translate(103 -430)">
          <circle id="Ellipse_789-50" data-name="Ellipse 789" cx="1.5" cy="1.5" r="1.5" transform="translate(104 522)" fill="#fff"/>
        </g>
        <g transform="translate(-104 -407)">
          <circle id="Ellipse_789-51" data-name="Ellipse 789" cx="1.5" cy="1.5" r="1.5" transform="translate(104 522)" fill="#fff"/>
        </g>
        <g transform="translate(-81 -407)">
          <circle id="Ellipse_789-52" data-name="Ellipse 789" cx="1.5" cy="1.5" r="1.5" transform="translate(104 522)" fill="#fff"/>
        </g>
        <g transform="translate(-58 -407)">
          <circle id="Ellipse_789-53" data-name="Ellipse 789" cx="1.5" cy="1.5" r="1.5" transform="translate(104 522)" fill="#fff"/>
        </g>
        <g transform="translate(-35 -407)">
          <circle id="Ellipse_789-54" data-name="Ellipse 789" cx="1.5" cy="1.5" r="1.5" transform="translate(104 522)" fill="#fff"/>
        </g>
        <g transform="translate(-12 -407)">
          <circle id="Ellipse_789-55" data-name="Ellipse 789" cx="1.5" cy="1.5" r="1.5" transform="translate(104 522)" fill="#fff"/>
        </g>
        <g transform="translate(11 -407)">
          <circle id="Ellipse_789-56" data-name="Ellipse 789" cx="1.5" cy="1.5" r="1.5" transform="translate(104 522)" fill="#fff"/>
        </g>
        <g transform="translate(34 -407)">
          <circle id="Ellipse_789-57" data-name="Ellipse 789" cx="1.5" cy="1.5" r="1.5" transform="translate(104 522)" fill="#fff"/>
        </g>
        <g transform="translate(57 -407)">
          <circle id="Ellipse_789-58" data-name="Ellipse 789" cx="1.5" cy="1.5" r="1.5" transform="translate(104 522)" fill="#fff"/>
        </g>
        <g transform="translate(80 -407)">
          <circle id="Ellipse_789-59" data-name="Ellipse 789" cx="1.5" cy="1.5" r="1.5" transform="translate(104 522)" fill="#fff"/>
        </g>
        <g transform="translate(103 -407)">
          <circle id="Ellipse_789-60" data-name="Ellipse 789" cx="1.5" cy="1.5" r="1.5" transform="translate(104 522)" fill="#fff"/>
        </g>
        <g transform="translate(-104 -384)">
          <circle id="Ellipse_789-61" data-name="Ellipse 789" cx="1.5" cy="1.5" r="1.5" transform="translate(104 522)" fill="#fff"/>
        </g>
        <g transform="translate(-81 -384)">
          <circle id="Ellipse_789-62" data-name="Ellipse 789" cx="1.5" cy="1.5" r="1.5" transform="translate(104 522)" fill="#fff"/>
        </g>
        <g transform="translate(-58 -384)">
          <circle id="Ellipse_789-63" data-name="Ellipse 789" cx="1.5" cy="1.5" r="1.5" transform="translate(104 522)" fill="#fff"/>
        </g>
        <g transform="translate(-35 -384)">
          <circle id="Ellipse_789-64" data-name="Ellipse 789" cx="1.5" cy="1.5" r="1.5" transform="translate(104 522)" fill="#fff"/>
        </g>
        <g transform="translate(-12 -384)">
          <circle id="Ellipse_789-65" data-name="Ellipse 789" cx="1.5" cy="1.5" r="1.5" transform="translate(104 522)" fill="#fff"/>
        </g>
        <g transform="translate(11 -384)">
          <circle id="Ellipse_789-66" data-name="Ellipse 789" cx="1.5" cy="1.5" r="1.5" transform="translate(104 522)" fill="#fff"/>
        </g>
        <g transform="translate(34 -384)">
          <circle id="Ellipse_789-67" data-name="Ellipse 789" cx="1.5" cy="1.5" r="1.5" transform="translate(104 522)" fill="#fff"/>
        </g>
        <g transform="translate(57 -384)">
          <circle id="Ellipse_789-68" data-name="Ellipse 789" cx="1.5" cy="1.5" r="1.5" transform="translate(104 522)" fill="#fff"/>
        </g>
        <g transform="translate(80 -384)">
          <circle id="Ellipse_789-69" data-name="Ellipse 789" cx="1.5" cy="1.5" r="1.5" transform="translate(104 522)" fill="#fff"/>
        </g>
        <g transform="translate(103 -384)">
          <circle id="Ellipse_789-70" data-name="Ellipse 789" cx="1.5" cy="1.5" r="1.5" transform="translate(104 522)" fill="#fff"/>
        </g>
        <g transform="translate(-104 -361)">
          <circle id="Ellipse_789-71" data-name="Ellipse 789" cx="1.5" cy="1.5" r="1.5" transform="translate(104 522)" fill="#fff"/>
        </g>
        <g transform="translate(-81 -361)">
          <circle id="Ellipse_789-72" data-name="Ellipse 789" cx="1.5" cy="1.5" r="1.5" transform="translate(104 522)" fill="#fff"/>
        </g>
        <g transform="translate(-58 -361)">
          <circle id="Ellipse_789-73" data-name="Ellipse 789" cx="1.5" cy="1.5" r="1.5" transform="translate(104 522)" fill="#fff"/>
        </g>
        <g transform="translate(-35 -361)">
          <circle id="Ellipse_789-74" data-name="Ellipse 789" cx="1.5" cy="1.5" r="1.5" transform="translate(104 522)" fill="#fff"/>
        </g>
        <g transform="translate(-12 -361)">
          <circle id="Ellipse_789-75" data-name="Ellipse 789" cx="1.5" cy="1.5" r="1.5" transform="translate(104 522)" fill="#fff"/>
        </g>
        <g transform="translate(11 -361)">
          <circle id="Ellipse_789-76" data-name="Ellipse 789" cx="1.5" cy="1.5" r="1.5" transform="translate(104 522)" fill="#fff"/>
        </g>
        <g transform="translate(34 -361)">
          <circle id="Ellipse_789-77" data-name="Ellipse 789" cx="1.5" cy="1.5" r="1.5" transform="translate(104 522)" fill="#fff"/>
        </g>
        <g transform="translate(57 -361)">
          <circle id="Ellipse_789-78" data-name="Ellipse 789" cx="1.5" cy="1.5" r="1.5" transform="translate(104 522)" fill="#fff"/>
        </g>
        <g transform="translate(80 -361)">
          <circle id="Ellipse_789-79" data-name="Ellipse 789" cx="1.5" cy="1.5" r="1.5" transform="translate(104 522)" fill="#fff"/>
        </g>
        <g transform="translate(103 -361)">
          <circle id="Ellipse_789-80" data-name="Ellipse 789" cx="1.5" cy="1.5" r="1.5" transform="translate(104 522)" fill="#fff"/>
        </g>
        <g transform="translate(-104 -338)">
          <circle id="Ellipse_789-81" data-name="Ellipse 789" cx="1.5" cy="1.5" r="1.5" transform="translate(104 522)" fill="#fff"/>
        </g>
        <g transform="translate(-81 -338)">
          <circle id="Ellipse_789-82" data-name="Ellipse 789" cx="1.5" cy="1.5" r="1.5" transform="translate(104 522)" fill="#fff"/>
        </g>
        <g transform="translate(-58 -338)">
          <circle id="Ellipse_789-83" data-name="Ellipse 789" cx="1.5" cy="1.5" r="1.5" transform="translate(104 522)" fill="#fff"/>
        </g>
        <g transform="translate(-35 -338)">
          <circle id="Ellipse_789-84" data-name="Ellipse 789" cx="1.5" cy="1.5" r="1.5" transform="translate(104 522)" fill="#fff"/>
        </g>
        <g transform="translate(-12 -338)">
          <circle id="Ellipse_789-85" data-name="Ellipse 789" cx="1.5" cy="1.5" r="1.5" transform="translate(104 522)" fill="#fff"/>
        </g>
        <g transform="translate(11 -338)">
          <circle id="Ellipse_789-86" data-name="Ellipse 789" cx="1.5" cy="1.5" r="1.5" transform="translate(104 522)" fill="#fff"/>
        </g>
        <g transform="translate(34 -338)">
          <circle id="Ellipse_789-87" data-name="Ellipse 789" cx="1.5" cy="1.5" r="1.5" transform="translate(104 522)" fill="#fff"/>
        </g>
        <g transform="translate(57 -338)">
          <circle id="Ellipse_789-88" data-name="Ellipse 789" cx="1.5" cy="1.5" r="1.5" transform="translate(104 522)" fill="#fff"/>
        </g>
        <g transform="translate(80 -338)">
          <circle id="Ellipse_789-89" data-name="Ellipse 789" cx="1.5" cy="1.5" r="1.5" transform="translate(104 522)" fill="#fff"/>
        </g>
        <g transform="translate(103 -338)">
          <circle id="Ellipse_789-90" data-name="Ellipse 789" cx="1.5" cy="1.5" r="1.5" transform="translate(104 522)" fill="#fff"/>
        </g>
      </g>
      <rect id="Rectangle_1771" data-name="Rectangle 1771" width="153" height="153" transform="translate(1060 4066)" fill="#fff" opacity="0.1"/>
      <rect id="Rectangle_1772" data-name="Rectangle 1772" width="153" height="153" rx="76.5" transform="translate(964 4159)" fill="#fff" opacity="0.1"/>
    </g>
  </g>
</svg>
