<svg xmlns="http://www.w3.org/2000/svg" width="74" height="74" viewBox="0 0 74 74">
    <defs>
        <style>
            .prefix__cls-3{fill:#595959}.prefix__cls-5{fill:#ff7452}.prefix__cls-9{fill:#6faee8}.prefix__cls-10{fill:#9acef3}
        </style>
    </defs>
    <g id="prefix__Group_144" data-name="Group 144" transform="translate(-402 -517)">
        <rect id="prefix__Rectangle_357" width="74" height="74" data-name="Rectangle 357" rx="4" transform="translate(402 517)" style="fill:#ffa48e"/>
        <g id="prefix__report" transform="translate(409.408 525)">
            <path id="prefix__Path_294" d="M241.447 42.3h2.853a4.3 4.3 0 0 1 4.286 4.286l-9.286 2.853z" data-name="Path 294" transform="translate(-212.006 -38.166)" style="fill:#383838"/>
            <path id="prefix__Path_295" d="M207.491 42.3h-2.857a4.3 4.3 0 0 0-4.286 4.286l7.143 2.857z" class="prefix__cls-3" data-name="Path 295" transform="translate(-178.05 -38.166)"/>
            <path id="prefix__Path_296" d="M227.192 75.687L211.478 98.83l5.714 22.571h18.572V75.687z" data-name="Path 296" transform="translate(-187.751 -67.271)" style="fill:#f15d4a"/>
            <path id="prefix__Path_297" d="M119.875 75.687l10 25.857V121.4H111.3V75.687z" class="prefix__cls-5" data-name="Path 297" transform="translate(-100.434 -67.271)"/>
            <path id="prefix__Path_298" d="M211.956 97.948l-6.485 20.286 6.485 19.714h15.714v-40z" data-name="Path 298" transform="translate(-182.515 -86.675)" style="fill:#f2f2f2"/>
            <path id="prefix__Rectangle_420" d="M0 0H15.714V40H0z" data-name="Rectangle 420" transform="translate(13.727 11.273)" style="fill:#fff"/>
            <path id="prefix__Path_299" d="M236.6 75.687l-2.857 2.857L236.6 81.4h10v-5.713z" class="prefix__cls-3" data-name="Path 299" transform="translate(-207.155 -67.271)"/>
            <path id="prefix__Rectangle_421" d="M0 0H10V5.714H0z" data-name="Rectangle 421" transform="translate(19.441 8.416)" style="fill:#7f7f7f"/>
            <path id="prefix__Path_300" d="M231.551 365.078l-3.6 1.429 3.6 1.429h7.143v-2.857z" class="prefix__cls-9" data-name="Path 300" transform="translate(-202.11 -319.519)"/>
            <g id="prefix__Group_135" data-name="Group 135" transform="translate(16.584 16.988)">
                <path id="prefix__Rectangle_422" d="M0 0H12.857V2.857H0z" class="prefix__cls-10" data-name="Rectangle 422" transform="translate(0 28.571)"/>
                <path id="prefix__Path_301" d="M168.683 142.47l3.214 16.071-16.071-3.214a12.858 12.858 0 0 1 12.857-12.857z" class="prefix__cls-10" data-name="Path 301" transform="translate(-155.826 -142.47)"/>
            </g>
            <path id="prefix__Path_302" d="M168.683 242.643l3.214 6.75-3.214 6.107a12.858 12.858 0 0 1-12.857-12.857z" data-name="Path 302" transform="translate(-139.242 -212.798)" style="fill:#fbe287"/>
            <path id="prefix__Path_303" d="M256 242.643l8.2 3.375.9 5.717a12.818 12.818 0 0 1-9.1 3.765z" data-name="Path 303" transform="translate(-226.559 -212.798)" style="fill:#ffd652"/>
            <path id="prefix__Path_304" d="M256 220.814l7.312-3.214 5.545 3.214a12.817 12.817 0 0 1-3.766 9.092z" class="prefix__cls-5" data-name="Path 304" transform="translate(-226.559 -190.97)"/>
            <path id="prefix__Path_305" d="M268.857 180.9H256l1.969-8.4 7.123-.694a12.817 12.817 0 0 1 3.765 9.094z" data-name="Path 305" transform="translate(-226.559 -151.055)" style="fill:#85dc79"/>
            <g id="prefix__Group_136" data-name="Group 136" transform="translate(29.441 16.988)">
                <path id="prefix__Path_306" d="M256 142.47a12.817 12.817 0 0 1 9.092 3.766L256 155.327z" class="prefix__cls-9" data-name="Path 306" transform="translate(-256 -142.47)"/>
                <path id="prefix__Rectangle_423" d="M0 0H2.857V2.857H0z" class="prefix__cls-9" data-name="Rectangle 423" transform="translate(10 28.571)"/>
            </g>
        </g>
    </g>
</svg>
