<svg xmlns="http://www.w3.org/2000/svg" width="16.667" height="10" viewBox="0 0 16.667 10">
    <path id="prefix__Icon_awesome-graduation-cap" d="M16.207 6.823L8.943 4.591a2.08 2.08 0 0 0-1.218 0L.46 6.823a.613.613 0 0 0 0 1.187l1.267.39a2.052 2.052 0 0 0-.466 1.22.8.8 0 0 0-.067 1.38L.53 13.993a.417.417 0 0 0 .407.507H2.4a.417.417 0 0 0 .407-.507L2.139 11a.8.8 0 0 0-.047-1.368 1.228 1.228 0 0 1 .539-.956l5.093 1.565a2.083 2.083 0 0 0 1.218 0l7.265-2.231a.613.613 0 0 0 0-1.187zm-7.02 4.216a2.915 2.915 0 0 1-1.708 0L3.7 9.878l-.369 2.955c0 .921 2.239 1.667 5 1.667s5-.746 5-1.667l-.369-2.955z" data-name="Icon awesome-graduation-cap" transform="translate(0 -4.5)" style="opacity:.78"/>
</svg>
