<svg xmlns="http://www.w3.org/2000/svg" width="20" height="19.983" viewBox="0 0 20 19.983">
    <defs>
        <style>
            .prefix__cls-1{fill:#fff}
        </style>
    </defs>
    <g id="prefix__Icon_ionic-ios-rocket" data-name="Icon ionic-ios-rocket" transform="translate(-3.366 -3.372)">
        <path id="prefix__Path_360" d="M23.261 3.643a.212.212 0 0 0-.161-.163c-2.615-.639-8.656 1.639-11.929 4.912a14.148 14.148 0 0 0-1.591 1.879 5.92 5.92 0 0 0-2.879.36c-2.425 1.069-3.132 3.855-3.329 5.052a.431.431 0 0 0 .471.5l3.9-.428a8.665 8.665 0 0 0 .053.88.872.872 0 0 0 .255.534l1.509 1.509a.872.872 0 0 0 .533.255 8.649 8.649 0 0 0 .875.053l-.428 3.893a.431.431 0 0 0 .5.471c1.2-.192 3.989-.9 5.051-3.326a5.946 5.946 0 0 0 .365-2.869 14.171 14.171 0 0 0 1.884-1.591c3.286-3.269 5.55-9.176 4.921-11.921zm-7.844 7.685a2.053 2.053 0 1 1 2.9 0 2.051 2.051 0 0 1-2.9 0z" class="prefix__cls-1" data-name="Path 360"/>
        <path id="prefix__Path_361" d="M12.27 26.754a2.667 2.667 0 0 1-1.392.563 1.893 1.893 0 0 1-2.18-2.18 2.615 2.615 0 0 1 .555-1.385l.007-.007a.235.235 0 0 0-.2-.4 3.232 3.232 0 0 0-1.891.921c-1.266 1.266-1.385 5.962-1.385 5.962s4.7-.12 5.97-1.385a3.211 3.211 0 0 0 .921-1.891.241.241 0 0 0-.405-.198z" class="prefix__cls-1" data-name="Path 361" transform="translate(0 -9.251)"/>
    </g>
</svg>
