<svg xmlns="http://www.w3.org/2000/svg" width="360px" height="310px" viewBox="0 0 408.681 350">
    <defs>
        <style>
            .prefix__cls-1{fill:#00bfa6}.prefix__cls-2{fill:#3f3d56}
        </style>
    </defs>
    <g id="prefix__undraw_project_completed_w0oq" transform="translate(-20.337 -47.164)">
        <path id="prefix__Path_1702" d="M140.863 307.543h-95.5v-26.761h49.85z" class="prefix__cls-1" data-name="Path 1702" transform="translate(-24.762 -107.156)"/>
        <path id="prefix__Path_1703" d="M163.24 375.811V454h310.12v-78.189zm120.952 65.068H183.443V429.86h100.749zm168.966-20.465H183.443v-11.02h269.715zm0-20.465H183.443V388.93h269.715z" class="prefix__cls-2" data-name="Path 1703" transform="translate(-142.903 -179.098)"/>
        <path id="prefix__Path_1704" d="M140.863 131.11h-95.5v-26.762h49.85z" class="prefix__cls-1" data-name="Path 1704" transform="translate(-24.762 -57.184)"/>
        <path id="prefix__Path_1705" d="M163.24 201.574v78.186h310.12v-78.186zm120.952 65.067H183.443v-11.02h100.749zm58.246-20.465h-159v-11.019h159zm110.72-20.465H183.443v-11.02h269.715z" class="prefix__cls-2" data-name="Path 1705" transform="translate(-142.903 -129.748)"/>
        <path id="prefix__Path_1706" d="M140.863 480.316h-95.5v-26.761h49.85z" class="prefix__cls-1" data-name="Path 1706" transform="translate(-24.762 -156.092)"/>
        <path id="prefix__Path_1707" d="M163.24 546.388v78.186h310.12v-78.186zm179.2 65.067h-159v-11.02h159zm0-20.465h-159v-11.019h159zm110.72-20.465H183.443v-11.02h269.715z" class="prefix__cls-2" data-name="Path 1707" transform="translate(-142.903 -227.411)"/>
        <path id="prefix__Path_1708" d="M582.867 206.261h-44.078v-44.078H568.7v1.049h-28.861v41.98h41.979v-20.99h1.049z" class="prefix__cls-2" data-name="Path 1708" transform="translate(-164.517 -73.565)"/>
        <path id="prefix__Path_1709" d="M684.111 256.269c-1.019-3.008-13.792-13.231-5.965-14.95l6.419 8.559 29.511-29.51 2.968 2.968z" class="prefix__cls-1" data-name="Path 1709" transform="translate(-288.027 -135.071)"/>
        <path id="prefix__Path_1710" d="M582.867 380.5h-44.078v-44.08H568.7v1.05h-28.861v41.979h41.979v-20.99h1.049z" class="prefix__cls-2" data-name="Path 1710" transform="translate(-164.517 -122.915)"/>
        <path id="prefix__Path_1711" d="M684.111 430.507c-1.019-3.008-13.792-13.231-5.965-14.95l6.419 8.559 29.511-29.51 2.968 2.968z" class="prefix__cls-1" data-name="Path 1711" transform="translate(-288.027 -184.421)"/>
        <path id="prefix__Path_1712" d="M582.867 554h-44.078v-44.074H568.7v1.049h-28.861v41.979h41.979v-20.99h1.049z" class="prefix__cls-2" data-name="Path 1712" transform="translate(-164.517 -172.058)"/>
        <path id="prefix__Path_1713" d="M684.111 604.012c-1.019-3.008-13.792-13.232-5.965-14.95l6.419 8.559 29.511-29.51 2.968 2.968z" class="prefix__cls-1" data-name="Path 1713" transform="translate(-288.027 -233.563)"/>
    </g>
</svg>
