<svg xmlns="http://www.w3.org/2000/svg" width="298px" height="310px"  viewBox="0 0 400 413.779">
    <defs>
        <style>
            .prefix__cls-1{fill:#f1f1f1}.prefix__cls-2{fill:none;stroke:#3f3d56;stroke-miterlimit:10;stroke-width:2px}.prefix__cls-3{fill:#3f3d56}.prefix__cls-5,.prefix__cls-6{fill:#00bfa6}.prefix__cls-6{opacity:.3}
        </style>
    </defs>
    <g id="prefix__undraw_process_e90d" transform="translate(-124.104)">
        <circle id="prefix__Ellipse_350" cx="9.072" cy="9.072" r="9.072" class="prefix__cls-1" data-name="Ellipse 350" transform="translate(403.235 21.348)"/>
        <circle id="prefix__Ellipse_351" cx="9.072" cy="9.072" r="9.072" class="prefix__cls-1" data-name="Ellipse 351" transform="translate(349.745 372.414)"/>
        <circle id="prefix__Ellipse_352" cx="9.072" cy="9.072" r="9.072" class="prefix__cls-1" data-name="Ellipse 352" transform="translate(124.104 108.653)"/>
        <path id="prefix__Rectangle_676" d="M0 0H328.318V263.761H0z" class="prefix__cls-1" data-name="Rectangle 676" transform="rotate(16.73 55.726 693.399)"/>
        <path id="prefix__Line_45" d="M0 0L74.48 30.105" class="prefix__cls-2" data-name="Line 45" transform="translate(328.075 87.24)"/>
        <path id="prefix__Path_1660" d="M612.283 146.119l1.115-.521-2.571-5.491 5.665-2.163-.44-1.149-6.9 2.636z" class="prefix__cls-3" data-name="Path 1660" transform="translate(-282.315 -52.69)"/>
        <path id="prefix__Path_1661" d="M722.82 190.117l-.44-1.149 5.664-2.162-2.571-5.492 1.115-.521 3.129 6.689z" class="prefix__cls-3" data-name="Path 1661" transform="translate(-325.927 -69.637)"/>
        <circle id="prefix__Ellipse_360" cx="6.763" cy="6.763" r="6.763" class="prefix__cls-3" data-name="Ellipse 360" transform="translate(358.552 95.529)"/>
        <path id="prefix__Line_46" d="M0 41.778L68.617 0" class="prefix__cls-2" data-name="Line 46" transform="translate(322.4 254.169)"/>
        <path id="prefix__Path_1662" d="M607.316 479.509l.248-1.206-5.94-1.216 1.647-5.836-1.185-.333-2 7.108z" class="prefix__cls-3" data-name="Path 1662" transform="translate(-278.821 -181.385)"/>
        <path id="prefix__Path_1663" d="M708.7 418.452l-1.185-.333 1.647-5.835-5.94-1.217.248-1.205 7.235 1.483z" class="prefix__cls-3" data-name="Path 1663" transform="translate(-318.547 -157.868)"/>
        <circle id="prefix__Ellipse_361" cx="6.763" cy="6.763" r="6.763" class="prefix__cls-3" data-name="Ellipse 361" transform="translate(349.945 268.295)"/>
        <path id="prefix__Line_47" d="M0 0L0.024 80.335" class="prefix__cls-2" data-name="Line 47" transform="translate(236.19 163.571)"/>
        <path id="prefix__Path_1664" d="M453.538 269.285l.9.839 4.126-4.443 4.13 4.44.9-.839-5.031-5.407z" class="prefix__cls-3" data-name="Path 1664" transform="translate(-222.376 -101.637)"/>
        <path id="prefix__Path_1665" d="M453.573 389.555l.9-.839 4.129 4.44 4.127-4.443.9.839-5.027 5.409z" class="prefix__cls-3" data-name="Path 1665" transform="translate(-222.39 -149.722)"/>
        <circle id="prefix__Ellipse_362" cx="6.763" cy="6.763" r="6.763" class="prefix__cls-3" data-name="Ellipse 362" transform="translate(229.439 196.975)"/>
        <path id="prefix__Rectangle_677" d="M0 0H111.899V138.951H0z" class="prefix__cls-3" data-name="Rectangle 677" transform="translate(179.186)"/>
        <path id="prefix__Path_1666" d="M566.9 121.165h-25.4a88.816 88.816 0 0 1 0-30.278h25.4a54.481 54.481 0 0 0 0 30.278z" data-name="Path 1666" transform="translate(-338.759 -69.438)" style="fill:#ff6584"/>
        <path id="prefix__Path_1667" d="M606.379 146.143h25.395a88.825 88.825 0 0 0 0-30.278h-25.395a54.482 54.482 0 0 1 0 30.278z" class="prefix__cls-5" data-name="Path 1667" transform="translate(-364.248 -79.059)"/>
        <path id="prefix__Path_1668" d="M567.379 228.143h25.395a88.825 88.825 0 0 0 0-30.278h-25.395a54.479 54.479 0 0 1 0 30.278z" class="prefix__cls-5" data-name="Path 1668" transform="translate(-349.226 -110.643)"/>
        <path id="prefix__Rectangle_678" d="M0 0H111.899V138.951H0z" class="prefix__cls-3" data-name="Rectangle 678" transform="translate(412.205 132.188)"/>
        <path id="prefix__Rectangle_679" d="M0 0H79.928V3.689H0z" class="prefix__cls-5" data-name="Rectangle 679" transform="translate(428.191 161.7)"/>
        <path id="prefix__Rectangle_680" d="M0 0H79.928V3.689H0z" class="prefix__cls-5" data-name="Rectangle 680" transform="translate(428.191 174.611)"/>
        <path id="prefix__Rectangle_681" d="M0 0H79.928V3.689H0z" class="prefix__cls-5" data-name="Rectangle 681" transform="translate(428.191 187.522)"/>
        <path id="prefix__Rectangle_682" d="M0 0H79.928V3.689H0z" class="prefix__cls-5" data-name="Rectangle 682" transform="translate(428.191 200.434)"/>
        <path id="prefix__Rectangle_683" d="M0 0H79.928V3.689H0z" class="prefix__cls-5" data-name="Rectangle 683" transform="translate(428.191 213.345)"/>
        <path id="prefix__Rectangle_684" d="M0 0H41.808V14.756H0z" class="prefix__cls-5" data-name="Rectangle 684" transform="translate(447.25 226.871)"/>
        <path id="prefix__Rectangle_685" d="M0 0H111.899V138.951H0z" class="prefix__cls-3" data-name="Rectangle 685" transform="translate(189.023 274.828)"/>
        <path id="prefix__Rectangle_686" d="M0 0H79.928V3.689H0z" class="prefix__cls-5" data-name="Rectangle 686" transform="translate(205.191 352.177)"/>
        <path id="prefix__Rectangle_687" d="M0 0H79.928V3.689H0z" class="prefix__cls-5" data-name="Rectangle 687" transform="translate(205.191 365.088)"/>
        <path id="prefix__Rectangle_688" d="M0 0H79.928V3.689H0z" class="prefix__cls-5" data-name="Rectangle 688" transform="translate(205.191 377.999)"/>
        <path id="prefix__Rectangle_689" d="M0 0H79.928V3.689H0z" class="prefix__cls-5" data-name="Rectangle 689" transform="translate(205.191 390.911)"/>
        <path id="prefix__Path_1669" d="M569.4 564.472H544a88.819 88.819 0 0 1 0-30.278h25.4a54.481 54.481 0 0 0 0 30.278z" class="prefix__cls-6" data-name="Path 1669" transform="translate(-339.722 -240.188)"/>
        <path id="prefix__Rectangle_690" d="M0 0H46.727V3.074H0z" class="prefix__cls-6" data-name="Rectangle 690" transform="translate(240.236 296.842)"/>
        <path id="prefix__Rectangle_691" d="M0 0H46.727V3.074H0z" class="prefix__cls-6" data-name="Rectangle 691" transform="translate(240.236 307.909)"/>
        <path id="prefix__Rectangle_692" d="M0 0H46.727V3.074H0z" class="prefix__cls-6" data-name="Rectangle 692" transform="translate(240.236 318.976)"/>
        <path id="prefix__Rectangle_693" d="M0 0H46.727V3.074H0z" class="prefix__cls-6" data-name="Rectangle 693" transform="translate(240.236 330.043)"/>
    </g>
</svg>
