<svg xmlns="http://www.w3.org/2000/svg" width="501.584" height="350.5" viewBox="0 0 501.584 350.5">
    <defs>
        <style>
            .prefix__cls-2{fill:none;stroke:#3f3d56;stroke-miterlimit:10}.prefix__cls-3,.prefix__cls-4{fill:#00bfa6}.prefix__cls-3{opacity:.3}
        </style>
    </defs>
    <g id="prefix__undraw_profile_6l1l" transform="translate(-103.684 -53.275)">
        <rect id="prefix__Rectangle_648" width="486.239" height="329.218" data-name="Rectangle 648" rx="19.398" transform="translate(119.029 74.557)" style="fill:#f2f2f2"/>
        <rect id="prefix__Rectangle_649" width="486.239" height="329.218" class="prefix__cls-2" data-name="Rectangle 649" rx="19.398" transform="translate(104.184 53.775)"/>
        <path id="prefix__Line_43" d="M0 0L486.239 0" class="prefix__cls-2" data-name="Line 43" transform="translate(104.184 85.338)"/>
        <rect id="prefix__Rectangle_650" width="132.611" height="20.452" class="prefix__cls-3" data-name="Rectangle 650" rx="7.093" transform="translate(394.806 159.336)"/>
        <rect id="prefix__Rectangle_651" width="183.412" height="16.494" class="prefix__cls-3" data-name="Rectangle 651" rx="7.093" transform="translate(369.406 216.075)"/>
        <rect id="prefix__Rectangle_652" width="183.412" height="16.494" class="prefix__cls-3" data-name="Rectangle 652" rx="7.093" transform="translate(369.406 260.938)"/>
        <rect id="prefix__Rectangle_653" width="183.412" height="16.494" class="prefix__cls-3" data-name="Rectangle 653" rx="7.093" transform="translate(369.406 305.802)"/>
        <rect id="prefix__Rectangle_654" width="132.611" height="20.452" class="prefix__cls-2" data-name="Rectangle 654" rx="7.093" transform="translate(401.404 152.738)"/>
        <rect id="prefix__Rectangle_655" width="183.412" height="16.494" class="prefix__cls-2" data-name="Rectangle 655" rx="7.093" transform="translate(376.003 209.477)"/>
        <rect id="prefix__Rectangle_656" width="183.412" height="16.494" class="prefix__cls-2" data-name="Rectangle 656" rx="7.093" transform="translate(376.003 254.341)"/>
        <rect id="prefix__Rectangle_657" width="183.412" height="16.494" class="prefix__cls-2" data-name="Rectangle 657" rx="7.093" transform="translate(376.003 299.204)"/>
        <circle id="prefix__Ellipse_339" cx="9.896" cy="9.896" r="9.896" class="prefix__cls-3" data-name="Ellipse 339" transform="translate(131.234 63.671)"/>
        <circle id="prefix__Ellipse_340" cx="9.896" cy="9.896" r="9.896" class="prefix__cls-3" data-name="Ellipse 340" transform="translate(158.944 63.671)"/>
        <circle id="prefix__Ellipse_341" cx="9.896" cy="9.896" r="9.896" class="prefix__cls-3" data-name="Ellipse 341" transform="translate(186.654 63.671)"/>
        <circle id="prefix__Ellipse_342" cx="9.896" cy="9.896" r="9.896" class="prefix__cls-2" data-name="Ellipse 342" transform="translate(135.193 59.713)"/>
        <circle id="prefix__Ellipse_343" cx="9.896" cy="9.896" r="9.896" class="prefix__cls-2" data-name="Ellipse 343" transform="translate(162.903 59.713)"/>
        <circle id="prefix__Ellipse_344" cx="9.896" cy="9.896" r="9.896" class="prefix__cls-2" data-name="Ellipse 344" transform="translate(190.612 59.713)"/>
        <path id="prefix__Path_1612" d="M524.808 619.575a98.367 98.367 0 0 1-1.539-25.308s-8.378-36.805-14.97-40.239c-.1.13-3.3 4.324-3.706 17.3-.412 13.184-5.08 21.835-5.08 21.835s1.511 16.433.647 26.409z" class="prefix__cls-4" data-name="Path 1612" transform="translate(-266.997 -250.437)"/>
        <path id="prefix__Path_1613" d="M543.728 298.379H391.684A15.683 15.683 0 0 0 376 314.063v202.845a15.684 15.684 0 0 0 15.684 15.684h53.344c-1.781-7.389-4-18.929-1.753-26.953.1-.374.216-.744.34-1.1a41.893 41.893 0 0 0 1.512-16.068 33.39 33.39 0 0 0 0-14.008c-1.648-7.69-2.8-15.244-2.8-15.244s-.909-10.162-.115-16.391c.018-.137.038-.267.057-.4l-.437-.1s2.335-10.574 3.159-17.3c.195-1.589.451-3.6.728-5.75a13.806 13.806 0 0 1-2.238-.568c-7.416-2.609-9.751-26.23-9.751-26.23v-7.49s-2.472-11.467 6.18-16.548c8.331-4.893 11.658-6.232 11.893-6.325.063-.045.125-.087.19-.137a7.3 7.3 0 0 0 2.17-2.793q.017-.283.008-.562c-.141-2.683-2.008-5.123-3.781-7.252l-4.535-5.448a5.326 5.326 0 0 1-1.168-1.89 4.356 4.356 0 0 1-.123-1.19v-.444q.037-2.031.11-4.061c.043-1.182.34-2.674 1.5-2.917.6-.126 1.4.094 1.718-.433a1.032 1.032 0 0 0 .077-.7c0 .018 0 .036-.01.053 0-.022-.008-.044-.012-.066a14.8 14.8 0 0 1-.429-2.894 3.855 3.855 0 0 1 .186-1.3c.671-1.963 2.981-2.768 5.022-3.139s4.332-.689 5.613-2.32a17.787 17.787 0 0 1 1.114-1.566 4.374 4.374 0 0 1 2.089-1.058 11.545 11.545 0 0 1 7.591.674 6.689 6.689 0 0 0 3.062.989c1.125-.071 2.086-.863 3.2-1.056 1.794-.311 3.509 1.033 4.393 2.625a6.5 6.5 0 0 1 .813 3.314 4.561 4.561 0 0 1-1.164 3.128c-.772.819-1.924 1.382-2.245 2.461-.131.439-.1.912-.216 1.356-.014.055-.038.107-.057.161.021.027.044.053.065.081a14.007 14.007 0 0 1-6.817 21.785c-.005.139-.011.278-.01.418a6.052 6.052 0 0 0 1.873 4.661l12.237 5.018s7.367-.893 10.025 10.1a19.019 19.019 0 0 1 .455 5.58 16.646 16.646 0 0 0 2.017 8.352c3.021 6.043 2.335 19.913-3.845 21.286-5.854 1.3-8.131.754-8.355.693l-.013.243c.1 2.6 1.023 25.05 4.386 27.766.93.751.752 1.258-.011 1.6s.006.144.021.4c.1 1.642.62 7.894 2.872 11.451 2.61 4.12 2.336 27.88 2.336 27.88l1.784 14.008s-1.1 8.652 0 10.162c.624.856 1.379 14.121 1.917 25.446h45.873a15.684 15.684 0 0 0 15.684-15.684V314.063a15.684 15.684 0 0 0-15.684-15.684z" class="prefix__cls-4" data-name="Path 1613" transform="translate(-224.973 -163.454)"/>
        <rect id="prefix__Rectangle_658" width="183.412" height="234.213" class="prefix__cls-2" data-name="Rectangle 658" rx="23.772" transform="translate(135.193 117.112)"/>
    </g>
</svg>
