<svg xmlns="http://www.w3.org/2000/svg" width="218" height="217" viewBox="0 0 218 217">
    <defs>
        <linearGradient id="prefix__linear-gradient" x1=".5" x2=".5" y2="1" gradientUnits="objectBoundingBox">
            <stop offset="0" stop-color="#00bfa6"/>
            <stop offset="1" stop-color="#444584"/>
        </linearGradient>
    </defs>
    <path id="prefix__Subtraction_11" d="M76-1265a110.293 110.293 0 0 1-21.967-2.2 108.82 108.82 0 0 1-20.46-6.322 109.177 109.177 0 0 1-18.515-10 109.673 109.673 0 0 1-16.132-13.249 109.389 109.389 0 0 1-13.31-16.058 108.35 108.35 0 0 1-10.05-18.43 107.588 107.588 0 0 1-6.351-20.366A108.82 108.82 0 0 1-33-1373.5a108.818 108.818 0 0 1 2.214-21.867 107.592 107.592 0 0 1 6.351-20.367 108.347 108.347 0 0 1 10.05-18.43 109.387 109.387 0 0 1 13.31-16.058 109.678 109.678 0 0 1 16.132-13.249 109.175 109.175 0 0 1 18.515-10 108.822 108.822 0 0 1 20.46-6.322A110.3 110.3 0 0 1 76-1482a110.3 110.3 0 0 1 21.967 2.2 108.822 108.822 0 0 1 20.46 6.322 109.178 109.178 0 0 1 18.515 10 109.678 109.678 0 0 1 16.132 13.249 109.383 109.383 0 0 1 13.31 16.058 108.346 108.346 0 0 1 10.05 18.43 107.588 107.588 0 0 1 6.351 20.367A108.816 108.816 0 0 1 185-1373.5a108.817 108.817 0 0 1-2.215 21.867 107.585 107.585 0 0 1-6.351 20.366 108.349 108.349 0 0 1-10.05 18.43 109.4 109.4 0 0 1-13.31 16.058 109.672 109.672 0 0 1-16.132 13.249 109.176 109.176 0 0 1-18.515 10 108.82 108.82 0 0 1-20.46 6.322A110.293 110.293 0 0 1 76-1265zm-.163-181.779a73.537 73.537 0 0 0-73.453 73.453 73.537 73.537 0 0 0 73.453 73.454 73.537 73.537 0 0 0 73.453-73.454 73.537 73.537 0 0 0-73.453-73.454z" data-name="Subtraction 11" transform="translate(33 1482)"/>
</svg>
