<svg xmlns="http://www.w3.org/2000/svg" width="622" height="622" viewBox="0 0 622 622">
    <defs>
        <linearGradient id="prefix__linear-gradient" x1=".5" x2=".5" y2="1" gradientUnits="objectBoundingBox">
            <stop offset="0" stop-color="#00bfa6"/>
            <stop offset="1" stop-color="#444584"/>
        </linearGradient>
    </defs>
    <path id="prefix__Subtraction_10" d="M278-860a313.308 313.308 0 0 1-62.677-6.318 309.438 309.438 0 0 1-58.378-18.121 311.03 311.03 0 0 1-52.828-28.674A313.239 313.239 0 0 1 58.09-951.09a313.232 313.232 0 0 1-37.976-46.027 311.027 311.027 0 0 1-28.674-52.828 309.429 309.429 0 0 1-18.122-58.378A313.3 313.3 0 0 1-33-1171a313.3 313.3 0 0 1 6.318-62.677 309.436 309.436 0 0 1 18.122-58.378 311.033 311.033 0 0 1 28.674-52.828 313.23 313.23 0 0 1 37.976-46.027 313.244 313.244 0 0 1 46.027-37.976 311.029 311.029 0 0 1 52.828-28.674 309.438 309.438 0 0 1 58.378-18.122A313.312 313.312 0 0 1 278-1482a313.312 313.312 0 0 1 62.677 6.318 309.44 309.44 0 0 1 58.378 18.122 311.018 311.018 0 0 1 52.828 28.674 313.226 313.226 0 0 1 46.027 37.976 313.227 313.227 0 0 1 37.976 46.027 311.028 311.028 0 0 1 28.674 52.828 309.441 309.441 0 0 1 18.121 58.378A313.305 313.305 0 0 1 589-1171a313.3 313.3 0 0 1-6.318 62.677 309.431 309.431 0 0 1-18.121 58.378 311.021 311.021 0 0 1-28.674 52.828 313.22 313.22 0 0 1-37.977 46.027 313.234 313.234 0 0 1-46.027 37.976 311.03 311.03 0 0 1-52.828 28.674 309.436 309.436 0 0 1-58.378 18.121A313.308 313.308 0 0 1 278-860zm.5-521.043c-116.094 0-210.543 94.449-210.543 210.543S162.406-959.956 278.5-959.956s210.544-94.45 210.544-210.544-94.45-210.544-210.544-210.544z" data-name="Subtraction 10" transform="translate(33 1482)"/>
</svg>
