<svg xmlns="http://www.w3.org/2000/svg" width="48.004" height="48.079" viewBox="0 0 48.004 48.079">
    <defs>
        <style>
            .cls-1{fill:#b0b0b0}
        </style>
    </defs>
    <g id="test" transform="translate(.001 .001)">
        <path id="Path_3646" d="M47.859 17.065a1.824 1.824 0 0 0-1-.99l-3.207-1.312a1.838 1.838 0 0 0-2.4 1l-3.651 8.924V10.108A.715.715 0 0 0 37.4 9.6L28 .208A.714.714 0 0 0 27.5 0H.713A.714.714 0 0 0 0 .714v5.51a.714.714 0 1 0 1.428 0v-4.8h25.354v8.681a.714.714 0 0 0 .714.714h8.681v17.36l-3.147 7.696a.71.71 0 0 0-.052.306l.336 6.721a.714.714 0 0 0 1.2.49l1.667-1.535v4.793H1.427V9.081a.714.714 0 1 0-1.427 0v38.283a.714.714 0 0 0 .714.714h36.178a.714.714 0 0 0 .714-.714v-6.822l1.856-1.708a.721.721 0 0 0 .177-.255l3.237-7.912a.714.714 0 0 0-1.322-.541l-2.967 7.252-3.965-1.622 6.093-14.892 3.965 1.622-2.1 5.138a.714.714 0 0 0 1.322.541l3.966-9.694a1.826 1.826 0 0 0-.007-1.406zM28.211 2.437l6.957 6.958h-6.957zm6.249 34.795l3.208 1.312-3 2.765zm12.084-19.3l-1.323 3.234-3.965-1.622 1.323-3.234a.411.411 0 0 1 .534-.224L46.32 17.4a.41.41 0 0 1 .224.534zm0 0" class="cls-1" data-name="Path 3646"/>
        <path id="Path_3647" d="M160.728 83.016h-8.854a.714.714 0 1 0 0 1.428h8.854a.714.714 0 1 0 0-1.428zm0 0" class="cls-1" data-name="Path 3647" transform="translate(-136.966 -75.221)"/>
        <path id="Path_3648" d="M51.917 169.869h5.645a.714.714 0 0 0 .714-.714V164.1l1.066-1.356a.714.714 0 1 0-1.123-.882l-.736.936h-5.566a.714.714 0 0 0-.714.714v5.645a.714.714 0 0 0 .714.714zm.714-5.645h3.73l-1.136 1.446-.795-.795a.714.714 0 1 0-1.01 1.01l1.364 1.364a.714.714 0 0 0 .5.209h.043a.714.714 0 0 0 .519-.272l1-1.27v2.525h-4.215zm0 0" class="cls-1" data-name="Path 3648" transform="translate(-46.396 -146.413)"/>
        <path id="Path_3649" d="M179.825 186.273h-15.28a.714.714 0 0 0 0 1.428h15.28a.714.714 0 0 0 0-1.428zm0 0" class="cls-1" data-name="Path 3649" transform="translate(-148.448 -168.782)"/>
        <path id="Path_3650" d="M164.547 224.2h12.281a.714.714 0 0 0 0-1.428h-12.281a.714.714 0 1 0 0 1.428zm0 0" class="cls-1" data-name="Path 3650" transform="translate(-148.449 -201.854)"/>
        <path id="Path_3651" d="M51.2 269.014a.714.714 0 0 0 .714.714h5.645a.714.714 0 0 0 .714-.714v-5.057l1.066-1.356a.714.714 0 0 0-1.123-.882l-.736.936h-5.563a.714.714 0 0 0-.714.714zm1.428-4.931h3.73l-1.136 1.446-.795-.795a.714.714 0 0 0-1.01 1.01l1.364 1.364a.714.714 0 0 0 .5.209h.043a.714.714 0 0 0 .519-.272l1-1.27v2.525h-4.212zm0 0" class="cls-1" data-name="Path 3651" transform="translate(-46.396 -236.896)"/>
        <path id="Path_3652" d="M179.825 286.133h-15.28a.714.714 0 1 0 0 1.428h15.28a.714.714 0 1 0 0-1.428zm0 0" class="cls-1" data-name="Path 3652" transform="translate(-148.448 -259.265)"/>
        <path id="Path_3653" d="M164.547 324.061h4.57a.714.714 0 0 0 0-1.428h-4.57a.714.714 0 1 0 0 1.428zm0 0" class="cls-1" data-name="Path 3653" transform="translate(-148.449 -292.337)"/>
        <path id="Path_3654" d="M51.2 380.542a.714.714 0 0 0 .714.714h5.645a.714.714 0 0 0 .714-.714V374.9a.714.714 0 0 0-.714-.714h-5.642a.714.714 0 0 0-.714.714zm1.428-4.931h4.217v4.217h-4.214zm0 0" class="cls-1" data-name="Path 3654" transform="translate(-46.396 -339.046)"/>
        <path id="Path_3655" d="M180.54 386.707a.714.714 0 0 0-.714-.714h-15.28a.714.714 0 1 0 0 1.428h15.28a.714.714 0 0 0 .714-.714zm0 0" class="cls-1" data-name="Path 3655" transform="translate(-148.448 -349.747)"/>
        <path id="Path_3656" d="M164.547 422.488a.714.714 0 1 0 0 1.428h12.995a.714.714 0 1 0 0-1.428zm0 0" class="cls-1" data-name="Path 3656" transform="translate(-148.449 -382.815)"/>
    </g>
</svg>
