<svg xmlns="http://www.w3.org/2000/svg" id="conversation" width="48" height="48" viewBox="0 0 48 48">
    <defs>
        <style>
            .cls-1{fill:#b0b0b0}
        </style>
    </defs>
    <g id="Group_2462" data-name="Group 2462" transform="translate(0 16.313)">
        <g id="Group_2461" data-name="Group 2461">
            <path id="Path_3637" d="M32.437 187.594a.938.938 0 0 0-.937.938V195a4.693 4.693 0 0 1-4.687 4.687H16.69a.937.937 0 0 0-.937.937v1.864l-2.238-2.238a.938.938 0 0 0-.86-.563H6.563A4.693 4.693 0 0 1 1.875 195v-14.437a4.693 4.693 0 0 1 4.688-4.687h9.469a.938.938 0 0 0 0-1.875H6.563A6.57 6.57 0 0 0 0 180.563V195a6.57 6.57 0 0 0 6.563 6.562h5.612l3.85 3.85a.938.938 0 0 0 1.6-.662v-3.188h9.185A6.57 6.57 0 0 0 33.375 195v-6.469a.938.938 0 0 0-.938-.937z" class="cls-1" data-name="Path 3637" transform="translate(0 -174)"/>
        </g>
    </g>
    <g id="Group_2464" data-name="Group 2464" transform="translate(18.375)">
        <g id="Group_2463" data-name="Group 2463">
            <path id="Path_3638" d="M212 0h-2.373a13.626 13.626 0 1 0 0 27.252H212a13.652 13.652 0 0 0 3.458-.443l3.505 3.5a.938.938 0 0 0 1.6-.663v-5.421a13.757 13.757 0 0 0 3.582-4.416 13.48 13.48 0 0 0 1.481-6.183A13.642 13.642 0 0 0 212 0zm7.062 23.019a.938.938 0 0 0-.373.749v3.619l-2.294-2.293a.937.937 0 0 0-.938-.233 11.754 11.754 0 0 1-3.456.517h-2.373a11.751 11.751 0 1 1 0-23.5H212a11.751 11.751 0 0 1 7.062 21.144z" class="cls-1" data-name="Path 3638" transform="translate(-196)"/>
        </g>
    </g>
    <g id="Group_2466" data-name="Group 2466" transform="translate(29.481 6.568)">
        <g id="Group_2465" data-name="Group 2465">
            <path id="Path_3639" d="M322.391 73.753a3.978 3.978 0 0 0-3.68-3.68 3.938 3.938 0 0 0-2.987 1.058 3.983 3.983 0 0 0-1.261 2.9.937.937 0 1 0 1.875 0 2.094 2.094 0 0 1 2.245-2.089 2.095 2.095 0 0 1 .31 4.132 1.774 1.774 0 0 0-1.4 1.739v2.252a.937.937 0 1 0 1.875 0V77.89a3.949 3.949 0 0 0 3.023-4.137z" class="cls-1" data-name="Path 3639" transform="translate(-314.462 -70.063)"/>
        </g>
    </g>
    <g id="Group_2468" data-name="Group 2468" transform="translate(32.512 19.343)">
        <g id="Group_2467" data-name="Group 2467">
            <path id="Path_3640" d="M348.4 206.6a.938.938 0 1 0 .275.663.944.944 0 0 0-.275-.663z" class="cls-1" data-name="Path 3640" transform="translate(-346.8 -206.33)"/>
        </g>
    </g>
    <g id="Group_2470" data-name="Group 2470" transform="translate(5.062 29.063)">
        <g id="Group_2469" data-name="Group 2469">
            <path id="Path_3641" d="M74.719 310H54.937a.938.938 0 0 0 0 1.875h19.782a.938.938 0 1 0 0-1.875z" class="cls-1" data-name="Path 3641" transform="translate(-54 -310)"/>
        </g>
    </g>
    <g id="Group_2472" data-name="Group 2472" transform="translate(24.844 34.313)">
        <g id="Group_2471" data-name="Group 2471">
            <path id="Path_3642" d="M266.6 366.275a.937.937 0 1 0 .275.663.944.944 0 0 0-.275-.663z" class="cls-1" data-name="Path 3642" transform="translate(-265 -366)"/>
        </g>
    </g>
    <g id="Group_2474" data-name="Group 2474" transform="translate(5.062 34.313)">
        <g id="Group_2473" data-name="Group 2473">
            <path id="Path_3643" d="M71.031 366H54.937a.938.938 0 0 0 0 1.875h16.094a.937.937 0 1 0 0-1.875z" class="cls-1" data-name="Path 3643" transform="translate(-54 -366)"/>
        </g>
    </g>
    <g id="Group_2476" data-name="Group 2476" transform="translate(5.062 23.813)">
        <g id="Group_2475" data-name="Group 2475">
            <path id="Path_3644" d="M68.625 254H54.937a.937.937 0 1 0 0 1.875h13.688a.937.937 0 1 0 0-1.875z" class="cls-1" data-name="Path 3644" transform="translate(-54 -254)"/>
        </g>
    </g>
</svg>
