<svg xmlns="http://www.w3.org/2000/svg" width="47" height="47" viewBox="0 0 47 47">
    <defs>
        <style>
            .cls-1{fill:#b0b0b0}
        </style>
    </defs>
    <g id="settings_2_" data-name="settings (2)" transform="translate(-.458 .001)">
        <path id="Path_3632" d="M92.643 76.9a15.284 15.284 0 1 0 15.284 15.284A15.3 15.3 0 0 0 92.643 76.9zm-7.693 26.47v-5.357a3.271 3.271 0 0 1 2.871-3.238 6.363 6.363 0 0 0 9.642 0 3.272 3.272 0 0 1 2.872 3.238v5.357a13.574 13.574 0 0 1-15.385 0zm17.094-1.393v-3.964a4.985 4.985 0 0 0-4.979-4.972.855.855 0 0 0-.689.349 4.633 4.633 0 0 1-7.469 0 .854.854 0 0 0-.688-.349 4.985 4.985 0 0 0-4.979 4.972v3.964a13.578 13.578 0 1 1 18.8 0zm0 0" class="cls-1" data-name="Path 3632" transform="translate(-68.685 -68.687)"/>
        <path id="Path_3633" d="M44.7 25.9a21.458 21.458 0 0 0-.148-5.723L46.92 17.9a.855.855 0 0 0 .192-.959l-2.693-6.156a.854.854 0 0 0-.846-.51l-3.273.245a19.289 19.289 0 0 0-4.149-3.952l.1-3.271a.855.855 0 0 0-.546-.823L29.432.056a.855.855 0 0 0-.954.244l-2.122 2.454a21.481 21.481 0 0 0-5.724.148L18.363.537A.855.855 0 0 0 17.4.345l-6.152 2.694a.854.854 0 0 0-.51.846l.241 3.275a19.3 19.3 0 0 0-3.952 4.149l-3.271-.1a.85.85 0 0 0-.823.547L.515 18.024a.854.854 0 0 0 .239.955L3.213 21.1a21.441 21.441 0 0 0 .148 5.723L1 29.093a.854.854 0 0 0-.191.959L3.5 36.208a.854.854 0 0 0 .846.51l3.274-.241a19.3 19.3 0 0 0 4.149 3.952l-.1 3.271a.854.854 0 0 0 .547.823l6.266 2.418a.854.854 0 0 0 .955-.239l2.121-2.459a21.458 21.458 0 0 0 5.723-.148l2.269 2.365a.855.855 0 0 0 .959.192l6.156-2.693a.854.854 0 0 0 .51-.846l-.241-3.274a19.3 19.3 0 0 0 3.952-4.15l3.271.1a.856.856 0 0 0 .823-.547l2.42-6.27a.855.855 0 0 0-.239-.955zm-1.1 8.162l-3.133-.092a.852.852 0 0 0-.737.381 17.612 17.612 0 0 1-4.194 4.4.854.854 0 0 0-.344.75l.23 3.134-5.055 2.211-2.167-2.263a.854.854 0 0 0-.77-.249 19.78 19.78 0 0 1-6.112.158.854.854 0 0 0-.757.289l-2.025 2.348-5.136-1.983.092-3.133a.855.855 0 0 0-.38-.736 17.614 17.614 0 0 1-4.4-4.194.855.855 0 0 0-.75-.344l-3.134.23-2.218-5.055 2.262-2.17a.853.853 0 0 0 .249-.77 19.767 19.767 0 0 1-.158-6.112.855.855 0 0 0-.289-.757l-2.348-2.027 1.984-5.14 3.133.092a.856.856 0 0 0 .736-.381 17.621 17.621 0 0 1 4.194-4.4.853.853 0 0 0 .344-.75l-.23-3.135 5.055-2.211 2.17 2.263a.856.856 0 0 0 .77.249A19.753 19.753 0 0 1 26.6 4.5a.855.855 0 0 0 .757-.289l2.025-2.348 5.14 1.984-.092 3.133a.855.855 0 0 0 .38.737 17.612 17.612 0 0 1 4.4 4.194.855.855 0 0 0 .75.344l3.134-.23 2.212 5.055-2.263 2.17a.854.854 0 0 0-.249.77 19.767 19.767 0 0 1 .158 6.112.853.853 0 0 0 .289.757l2.347 2.026zm0 0" class="cls-1" data-name="Path 3633"/>
        <path id="Path_3634" d="M175.03 125.059a5.429 5.429 0 1 0 5.429 5.428 5.428 5.428 0 0 0-5.429-5.428zm0 9.148a3.719 3.719 0 1 1 3.719-3.719 3.719 3.719 0 0 1-3.719 3.719zm0 0" class="cls-1" data-name="Path 3634" transform="translate(-151.073 -111.699)"/>
    </g>
</svg>
