<svg xmlns="http://www.w3.org/2000/svg" width="32.285" height="48" viewBox="0 0 32.285 48">
    <defs>
        <style>
            .cls-1{fill:#b0b0b0}
        </style>
    </defs>
    <g id="rupee_3_" data-name="rupee (3)" transform="translate(-56.365)">
        <g id="Group_2477" data-name="Group 2477" transform="translate(56.365)">
            <path id="Path_3645" d="M87.256 12.546h-7.081a13.957 13.957 0 0 0-5.59-9.758h12.671a1.394 1.394 0 0 0 0-2.788h-29.5a1.394 1.394 0 1 0 0 2.788h8.448a11.265 11.265 0 0 1 11.166 9.758H57.759a1.394 1.394 0 1 0 0 2.788h19.614a11.284 11.284 0 0 1-11.166 9.9h-8.434a1.416 1.416 0 0 0-1.394 1.436 1.439 1.439 0 0 0 .432 1L77.9 47.62a1.389 1.389 0 0 0 1.966-.056 1.423 1.423 0 0 0-.056-1.993L61.258 28.02h4.935a14.081 14.081 0 0 0 13.982-12.686h7.082a1.394 1.394 0 0 0 0-2.788z" class="cls-1" data-name="Path 3645" transform="translate(-56.365)"/>
        </g>
    </g>
</svg>
