<svg xmlns="http://www.w3.org/2000/svg" width="16.121" height="18.424" viewBox="0 0 16.121 18.424">
    <path id="prefix__Icon_awesome-book" d="M16.121 12.954V.864A.862.862 0 0 0 15.257 0H3.454A3.455 3.455 0 0 0 0 3.454v11.515a3.455 3.455 0 0 0 3.454 3.454h11.8a.862.862 0 0 0 .864-.864v-.576a.87.87 0 0 0-.32-.673 8.025 8.025 0 0 1 0-2.688.858.858 0 0 0 .323-.668zM4.606 4.822a.217.217 0 0 1 .216-.216h7.628a.217.217 0 0 1 .216.216v.72a.217.217 0 0 1-.216.216H4.822a.217.217 0 0 1-.216-.216zm0 2.3a.217.217 0 0 1 .216-.216h7.628a.217.217 0 0 1 .216.216v.72a.217.217 0 0 1-.216.216H4.822a.217.217 0 0 1-.216-.216zm9.118 9H3.454a1.151 1.151 0 0 1 0-2.3h10.27a12.955 12.955 0 0 0 0 2.299z" data-name="Icon awesome-book" style="opacity:.8"/>
</svg>
