<svg xmlns="http://www.w3.org/2000/svg" width="21.626" height="21.626" viewBox="0 0 21.626 21.626">
    <path id="prefix__Icon_awesome-dribbble" d="M11.375.562a10.813 10.813 0 1 0 10.813 10.813A10.825 10.825 0 0 0 11.375.562zm7.149 4.986A9.192 9.192 0 0 1 20.61 11.3a21.584 21.584 0 0 0-6.431-.3c-.251-.612-.487-1.151-.812-1.814a12.3 12.3 0 0 0 5.158-3.637zM17.5 4.481a10.428 10.428 0 0 1-4.841 3.336A49.3 49.3 0 0 0 9.211 2.41 9.212 9.212 0 0 1 17.5 4.481zM7.449 3.031a58.931 58.931 0 0 1 3.424 5.341A34.45 34.45 0 0 1 2.335 9.5a9.27 9.27 0 0 1 5.114-6.469zM2.14 11.39v-.282a34.069 34.069 0 0 0 9.492-1.314c.264.517.517 1.043.749 1.567a14.306 14.306 0 0 0-7.871 6.2 9.2 9.2 0 0 1-2.37-6.171zm3.567 7.286a12.99 12.99 0 0 1 7.307-5.788 38.391 38.391 0 0 1 1.97 7 9.217 9.217 0 0 1-9.277-1.216zm10.83.37a39.863 39.863 0 0 0-1.794-6.585 13.556 13.556 0 0 1 5.753.395 9.252 9.252 0 0 1-3.959 6.19z" data-name="Icon awesome-dribbble" transform="translate(-.563 -.563)" style="fill:#e94e80"/>
</svg>
