<svg xmlns="http://www.w3.org/2000/svg" id="prefix__Icon_ionic-logo-instagram" width="21.721" height="21.721" data-name="Icon ionic-logo-instagram" viewBox="0 0 21.721 21.721">
    <defs>
        <linearGradient id="prefix__linear-gradient" x1=".792" x2=".24" y2="1" gradientUnits="objectBoundingBox">
            <stop offset="0" stop-color="#8449a7"/>
            <stop offset=".474" stop-color="#ec6340"/>
            <stop offset="1" stop-color="#fda655"/>
        </linearGradient>
        <style>
            .prefix__cls-1{fill:url(#prefix__linear-gradient)}
        </style>
    </defs>
    <path id="prefix__Path_121" d="M19.885 6.31a4.538 4.538 0 0 1 4.525 4.525v9.05a4.538 4.538 0 0 1-4.525 4.525h-9.05a4.538 4.538 0 0 1-4.525-4.525v-9.05a4.538 4.538 0 0 1 4.525-4.525h9.05m0-1.81h-9.05A6.354 6.354 0 0 0 4.5 10.835v9.05a6.354 6.354 0 0 0 6.335 6.335h9.05a6.354 6.354 0 0 0 6.335-6.335v-9.05A6.354 6.354 0 0 0 19.885 4.5z" class="prefix__cls-1" data-name="Path 121" transform="translate(-4.5 -4.5)"/>
    <path id="prefix__Path_122" d="M24.983 11.715a1.358 1.358 0 1 1 1.358-1.358 1.354 1.354 0 0 1-1.358 1.358z" class="prefix__cls-1" data-name="Path 122" transform="translate(-8.24 -5.38)"/>
    <path id="prefix__Path_123" d="M16.68 13.06a3.62 3.62 0 1 1-3.62 3.62 3.623 3.623 0 0 1 3.62-3.62m0-1.81a5.43 5.43 0 1 0 5.43 5.43 5.432 5.432 0 0 0-5.43-5.43z" class="prefix__cls-1" data-name="Path 123" transform="translate(-5.82 -5.82)"/>
</svg>
