<svg xmlns="http://www.w3.org/2000/svg" width="20.264" height="15.198" viewBox="0 0 20.264 15.198">
    <path id="prefix__Icon_metro-profile" d="M23.316 9.883H21.9V7.757l-2.925-.045.015 2.171H10.2l.06-2.171-2.865.045v2.171l-1.449-.045A1.448 1.448 0 0 0 4.5 11.331v10.132a1.448 1.448 0 0 0 1.446 1.447h17.37a1.448 1.448 0 0 0 1.447-1.447V11.331a1.448 1.448 0 0 0-1.447-1.448zM19.7 8.436h1.447v2.895H19.7zm-9.408 4.93a1.884 1.884 0 0 1 1.584 2.081 1.884 1.884 0 0 1-1.584 2.081 1.884 1.884 0 0 1-1.584-2.081 1.884 1.884 0 0 1 1.581-2.081zm-2.175-4.93h1.448v2.895H8.117zm-.964 11.542s.172-1.377.562-1.636a5.551 5.551 0 0 1 1.513-.433s.728.778 1.038.778 1.037-.778 1.037-.778a5.534 5.534 0 0 1 1.513.433c.458.305.572 1.636.572 1.636H7.153zm14.716-.686h-6.514v-.724h6.514zm0-1.447h-6.514v-.724h6.514zm0-1.447h-6.514v-.724h6.514zm0-1.447h-6.514v-.724h6.514z" data-name="Icon metro-profile" transform="translate(-4.499 -7.712)" style="opacity:.8"/>
</svg>
