<svg xmlns="http://www.w3.org/2000/svg" width="23.03" height="18.424" viewBox="0 0 23.03 18.424">
    <path id="prefix__Icon_awesome-project-diagram" d="M13.818 11.515H9.212a1.152 1.152 0 0 0-1.152 1.151v4.606a1.152 1.152 0 0 0 1.151 1.151h4.606a1.152 1.152 0 0 0 1.151-1.151v-4.606a1.152 1.152 0 0 0-1.15-1.151zM6.909 1.151A1.152 1.152 0 0 0 5.757 0H1.151A1.152 1.152 0 0 0 0 1.151v4.606a1.152 1.152 0 0 0 1.151 1.152H4.6l2.633 4.607a2.3 2.3 0 0 1 1.983-1.153h.01L6.909 6.315V4.606h8.06V2.3h-8.06zM21.878 0h-4.606a1.152 1.152 0 0 0-1.151 1.151v4.606a1.152 1.152 0 0 0 1.151 1.151h4.606a1.152 1.152 0 0 0 1.152-1.151V1.151A1.152 1.152 0 0 0 21.878 0z" data-name="Icon awesome-project-diagram" style="opacity:.8"/>
</svg>
