<svg xmlns="http://www.w3.org/2000/svg" width="19.393" height="18.424" viewBox="0 0 19.393 18.424">
    <path id="prefix__Icon_material-work" d="M20.454 6.879h-3.879v-1.94A1.933 1.933 0 0 0 14.636 3h-3.879a1.933 1.933 0 0 0-1.939 1.939v1.94H4.939A1.924 1.924 0 0 0 3.01 8.818L3 19.484a1.933 1.933 0 0 0 1.939 1.939h15.515a1.933 1.933 0 0 0 1.939-1.939V8.818a1.933 1.933 0 0 0-1.939-1.939zm-5.818 0h-3.879v-1.94h3.879z" data-name="Icon material-work" transform="translate(-3 -3)" style="opacity:.8"/>
</svg>
