<svg xmlns="http://www.w3.org/2000/svg" id="prefix__Icon_ionic-logo-instagram" width="14" height="14" data-name="Icon ionic-logo-instagram" viewBox="0 0 14 14">
    <defs>
        <linearGradient id="prefix__linear-gradient" x1=".792" x2=".24" y2="1" gradientUnits="objectBoundingBox">
            <stop offset="0" stop-color="#8449a7"/>
            <stop offset=".474" stop-color="#ec6340"/>
            <stop offset="1" stop-color="#fda655"/>
        </linearGradient>
        <style>
            .prefix__cls-1{fill:url(#prefix__linear-gradient)}
        </style>
    </defs>
    <path id="prefix__Path_121" d="M14.417 5.667a2.925 2.925 0 0 1 2.917 2.917v5.833a2.925 2.925 0 0 1-2.917 2.917H8.583a2.925 2.925 0 0 1-2.917-2.917V8.583a2.925 2.925 0 0 1 2.917-2.916h5.833m0-1.167H8.583A4.1 4.1 0 0 0 4.5 8.583v5.833A4.1 4.1 0 0 0 8.583 18.5h5.833a4.1 4.1 0 0 0 4.084-4.083V8.583A4.1 4.1 0 0 0 14.417 4.5z" class="prefix__cls-1" data-name="Path 121" transform="translate(-4.5 -4.5)"/>
    <path id="prefix__Path_122" d="M24.5 10.75a.875.875 0 1 1 .875-.875.873.873 0 0 1-.875.875z" class="prefix__cls-1" data-name="Path 122" transform="translate(-13.708 -6.667)"/>
    <path id="prefix__Path_123" d="M14.75 12.417a2.333 2.333 0 1 1-2.333 2.333 2.335 2.335 0 0 1 2.333-2.333m0-1.167a3.5 3.5 0 1 0 3.5 3.5 3.5 3.5 0 0 0-3.5-3.5z" class="prefix__cls-1" data-name="Path 123" transform="translate(-7.75 -7.75)"/>
</svg>
