<svg xmlns="http://www.w3.org/2000/svg" id="prefix__remove" width="20" height="20" viewBox="0 0 20 20">
    <path id="prefix__Path_281" d="M10 0a10 10 0 1 0 10 10A10.011 10.011 0 0 0 10 0zm0 0" data-name="Path 281" style="fill:#f44336"/>
    <path id="prefix__Path_282" d="M163.081 161.9a.833.833 0 1 1-1.178 1.178l-2.5-2.5-2.5 2.5a.833.833 0 0 1-1.178-1.178l2.5-2.5-2.5-2.5a.833.833 0 1 1 1.178-1.178l2.5 2.5 2.5-2.5a.833.833 0 1 1 1.178 1.178l-2.5 2.5zm0 0" data-name="Path 282" transform="translate(-149.398 -149.398)" style="fill:#fafafa"/>
</svg>
