<svg xmlns="http://www.w3.org/2000/svg" width="20.01" height="20" viewBox="0 0 20.01 20">
    <defs>
        <style>
            .prefix__cls-1{fill:#fff}
        </style>
    </defs>
    <g id="prefix__Icon_ionic-ios-link" data-name="Icon ionic-ios-link" transform="translate(-3.375 -3.375)">
        <path id="prefix__Path_362" d="M14.529 20.515h-.058a.8.8 0 0 0-.462.216L10.9 23.842a3.5 3.5 0 0 1-4.948-4.952l3.3-3.3a3.481 3.481 0 0 1 .548-.447 3.534 3.534 0 0 1 .712-.361 3.366 3.366 0 0 1 .721-.178 3.409 3.409 0 0 1 .49-.034c.067 0 .135 0 .221.01a3.491 3.491 0 0 1 2.25 1.01 3.447 3.447 0 0 1 .822 1.313.757.757 0 0 0 .928.486h.024a.751.751 0 0 0 .5-.918 4.357 4.357 0 0 0-1.183-1.971 5.061 5.061 0 0 0-2.769-1.409c-.091-.014-.183-.029-.274-.038a4.962 4.962 0 0 0-.534-.029c-.125 0-.25 0-.37.014a4.849 4.849 0 0 0-.779.12c-.053.01-.1.024-.154.038a5 5 0 0 0-.938.351 4.939 4.939 0 0 0-1.332.957l-3.3 3.3a5.071 5.071 0 0 0-1.466 3.582A5.055 5.055 0 0 0 12 24.948l3.139-3.139a.761.761 0 0 0-.61-1.294z" class="prefix__cls-1" data-name="Path 362" transform="translate(0 -3.048)"/>
        <path id="prefix__Path_363" d="M25.091 4.851a5.066 5.066 0 0 0-7.149 0l-3.063 3.062a.773.773 0 0 0 .486 1.317.781.781 0 0 0 .611-.221l3.067-3.058a3.5 3.5 0 0 1 4.952 4.949l-3.3 3.3a3.481 3.481 0 0 1-.548.447 3.534 3.534 0 0 1-.712.361 3.366 3.366 0 0 1-.721.178 3.409 3.409 0 0 1-.49.034c-.067 0-.139 0-.221-.01a3.455 3.455 0 0 1-3.038-2.236.768.768 0 0 0-.918-.471.777.777 0 0 0-.543.986 4.392 4.392 0 0 0 1.139 1.8l.01.01A5.062 5.062 0 0 0 17.7 16.75a4.961 4.961 0 0 0 .534.029q.187 0 .375-.014a5.5 5.5 0 0 0 .928-.154 5 5 0 0 0 .938-.351 4.939 4.939 0 0 0 1.325-.96l3.3-3.3a5.061 5.061 0 0 0-.01-7.154z" class="prefix__cls-1" data-name="Path 363" transform="translate(-3.192)"/>
    </g>
</svg>
