<svg xmlns="http://www.w3.org/2000/svg" width="32.4" height="32.535" viewBox="0 0 32.4 32.535">
    <defs>
        <style>
            .cls-1{fill:#2938b5}.cls-2{fill:#1e76a9}
        </style>
    </defs>
    <g id="link" transform="translate(-1.045)">
        <path id="Path_2941" d="M22.651 145.49a8.879 8.879 0 0 1 1.622 2.3 8.376 8.376 0 0 1-1.622 9.595l-7.23 7.3a8.409 8.409 0 0 1-11.893-11.897l5.135-5.135a9.579 9.579 0 0 0 .2 6.149L6.7 155.963a4 4 0 0 0 0 5.541 3.875 3.875 0 0 0 5.541 0l7.23-7.23a3.919 3.919 0 0 0-2.77-6.689l3.649-3.649a8.119 8.119 0 0 1 2.301 1.554z" class="cls-1" data-name="Path 2941" transform="translate(0 -134.628)"/>
        <path id="Path_2942" d="M132.433 21.673a8.879 8.879 0 0 1-1.622-2.3 8.376 8.376 0 0 1 1.622-9.595l7.23-7.3a8.409 8.409 0 1 1 11.892 11.892l-5.135 5.135a9.579 9.579 0 0 0-.2-6.149l2.162-2.162a4 4 0 0 0 0-5.541 3.875 3.875 0 0 0-5.541 0l-7.162 7.3a3.919 3.919 0 0 0 2.77 6.689l-3.649 3.653a9.211 9.211 0 0 1-2.367-1.622z" class="cls-2" data-name="Path 2942" transform="translate(-120.593)"/>
    </g>
</svg>
